G04*
G04 #@! TF.GenerationSoftware,Altium Limited,Altium Designer,23.3.1 (30)*
G04*
G04 Layer_Physical_Order=5*
G04 Layer_Color=16440176*
%FSLAX25Y25*%
%MOIN*%
G70*
G04*
G04 #@! TF.SameCoordinates,B70FCE46-08B3-410F-AF2C-83C1FDED7243*
G04*
G04*
G04 #@! TF.FilePolarity,Positive*
G04*
G01*
G75*
%ADD13C,0.00591*%
%ADD18C,0.00000*%
%ADD122C,0.04134*%
%ADD124C,0.09843*%
%ADD125C,0.00787*%
%ADD126C,0.01181*%
%ADD128C,0.01968*%
%ADD129C,0.00421*%
G36*
X66618Y48023D02*
X66559Y47523D01*
X66203Y47523D01*
X65805Y47358D01*
X65501Y47053D01*
X65336Y46655D01*
Y46225D01*
X65501Y45827D01*
X65805Y45522D01*
X66203Y45357D01*
X66634D01*
X67032Y45522D01*
X67336Y45827D01*
X67501Y46225D01*
Y46655D01*
X67336Y47053D01*
X67032Y47358D01*
X66739Y47479D01*
X66894Y47956D01*
X87412Y43012D01*
X109032Y18726D01*
X109032Y-15053D01*
X108532Y-15260D01*
X108503Y-15231D01*
X108178Y-15096D01*
X107826D01*
X107500Y-15231D01*
X107251Y-15481D01*
X107116Y-15806D01*
Y-16159D01*
X107251Y-16484D01*
X107500Y-16733D01*
X107826Y-16868D01*
X108178D01*
X108490Y-16739D01*
X108949Y-16941D01*
X109010Y-17254D01*
X109012Y-17374D01*
X108532Y-17655D01*
X108444Y-17618D01*
X108091D01*
X107766Y-17753D01*
X107517Y-18002D01*
X107382Y-18328D01*
Y-18680D01*
X107517Y-19006D01*
X107766Y-19255D01*
X108091Y-19390D01*
X108444D01*
X108532Y-19353D01*
X109031Y-19645D01*
X109032Y-19646D01*
Y-25065D01*
X89671Y-42995D01*
X48922Y-52536D01*
X-56981D01*
X-85410Y-24107D01*
Y-21850D01*
X-85080D01*
X-84754Y-21715D01*
X-84505Y-21466D01*
X-84370Y-21141D01*
Y-20788D01*
X-84505Y-20463D01*
X-84754Y-20214D01*
X-85080Y-20079D01*
X-85410D01*
Y23123D01*
X-74378Y34155D01*
X-73879Y34120D01*
X-71164Y30517D01*
X-70742Y30269D01*
X-70269Y30391D01*
X-46310Y48446D01*
X-46067Y48858D01*
X-46061Y48867D01*
X-46184Y49341D01*
X-46184Y49341D01*
X-48254Y52088D01*
X-48031Y52536D01*
X-46589D01*
X-46382Y52036D01*
X-46429Y51989D01*
X-46564Y51664D01*
Y51311D01*
X-46429Y50986D01*
X-46180Y50736D01*
X-45854Y50602D01*
X-45502D01*
X-45176Y50736D01*
X-44927Y50986D01*
X-44792Y51311D01*
Y51664D01*
X-44927Y51989D01*
X-44974Y52036D01*
X-44767Y52536D01*
X47888Y52536D01*
X66618Y48023D01*
D02*
G37*
%LPC*%
G36*
X42001Y51324D02*
X41649D01*
X41323Y51189D01*
X41074Y50940D01*
X40939Y50615D01*
Y50262D01*
X41074Y49937D01*
X41323Y49687D01*
X41649Y49553D01*
X42001D01*
X42327Y49687D01*
X42576Y49937D01*
X42711Y50262D01*
Y50615D01*
X42576Y50940D01*
X42327Y51189D01*
X42001Y51324D01*
D02*
G37*
G36*
X49966Y51266D02*
X49614D01*
X49288Y51131D01*
X49039Y50882D01*
X48904Y50557D01*
Y50204D01*
X49039Y49879D01*
X49288Y49629D01*
X49614Y49495D01*
X49966D01*
X50292Y49629D01*
X50541Y49879D01*
X50676Y50204D01*
Y50557D01*
X50541Y50882D01*
X50292Y51131D01*
X49966Y51266D01*
D02*
G37*
G36*
X-41093Y51210D02*
X-41446D01*
X-41771Y51076D01*
X-42021Y50827D01*
X-42155Y50501D01*
Y50148D01*
X-42021Y49823D01*
X-41771Y49574D01*
X-41446Y49439D01*
X-41093D01*
X-40768Y49574D01*
X-40519Y49823D01*
X-40384Y50148D01*
Y50501D01*
X-40519Y50827D01*
X-40768Y51076D01*
X-41093Y51210D01*
D02*
G37*
G36*
X-31671Y50745D02*
X-32023D01*
X-32349Y50610D01*
X-32598Y50361D01*
X-32733Y50035D01*
Y49683D01*
X-32598Y49357D01*
X-32349Y49108D01*
X-32023Y48973D01*
X-31671D01*
X-31345Y49108D01*
X-31096Y49357D01*
X-30961Y49683D01*
Y50035D01*
X-31096Y50361D01*
X-31345Y50610D01*
X-31671Y50745D01*
D02*
G37*
G36*
X58012Y47721D02*
X57660D01*
X57334Y47586D01*
X57085Y47337D01*
X56950Y47011D01*
Y46659D01*
X57085Y46333D01*
X57334Y46084D01*
X57660Y45949D01*
X58012D01*
X58338Y46084D01*
X58587Y46333D01*
X58722Y46659D01*
Y47011D01*
X58587Y47337D01*
X58338Y47586D01*
X58012Y47721D01*
D02*
G37*
G36*
X-44967Y43765D02*
X-45320D01*
X-45645Y43631D01*
X-45894Y43381D01*
X-46029Y43056D01*
Y42703D01*
X-45894Y42378D01*
X-45645Y42129D01*
X-45320Y41994D01*
X-44967D01*
X-44642Y42129D01*
X-44392Y42378D01*
X-44258Y42703D01*
Y43056D01*
X-44392Y43381D01*
X-44642Y43631D01*
X-44967Y43765D01*
D02*
G37*
G36*
X27987Y46555D02*
X27132D01*
X26305Y46334D01*
X25565Y45906D01*
X24960Y45301D01*
X24532Y44561D01*
X24311Y43735D01*
Y42880D01*
X24532Y42053D01*
X24960Y41313D01*
X25565Y40708D01*
X26305Y40280D01*
X27132Y40059D01*
X27987D01*
X28813Y40280D01*
X29553Y40708D01*
X30158Y41313D01*
X30586Y42053D01*
X30807Y42880D01*
Y43735D01*
X30586Y44561D01*
X30158Y45301D01*
X29553Y45906D01*
X28813Y46334D01*
X27987Y46555D01*
D02*
G37*
G36*
X20113D02*
X19257D01*
X18431Y46334D01*
X17691Y45906D01*
X17086Y45301D01*
X16658Y44561D01*
X16437Y43735D01*
Y42880D01*
X16658Y42053D01*
X17086Y41313D01*
X17691Y40708D01*
X18431Y40280D01*
X19257Y40059D01*
X20113D01*
X20939Y40280D01*
X21679Y40708D01*
X22284Y41313D01*
X22712Y42053D01*
X22933Y42880D01*
Y43735D01*
X22712Y44561D01*
X22284Y45301D01*
X21679Y45906D01*
X20939Y46334D01*
X20113Y46555D01*
D02*
G37*
G36*
X12239D02*
X11383D01*
X10557Y46334D01*
X9817Y45906D01*
X9212Y45301D01*
X8784Y44561D01*
X8563Y43735D01*
Y42880D01*
X8784Y42053D01*
X9212Y41313D01*
X9817Y40708D01*
X10557Y40280D01*
X11383Y40059D01*
X12239D01*
X13065Y40280D01*
X13805Y40708D01*
X14410Y41313D01*
X14838Y42053D01*
X15059Y42880D01*
Y43735D01*
X14838Y44561D01*
X14410Y45301D01*
X13805Y45906D01*
X13065Y46334D01*
X12239Y46555D01*
D02*
G37*
G36*
X4365D02*
X3509D01*
X2683Y46334D01*
X1943Y45906D01*
X1338Y45301D01*
X910Y44561D01*
X689Y43735D01*
Y42880D01*
X910Y42053D01*
X1338Y41313D01*
X1943Y40708D01*
X2683Y40280D01*
X3509Y40059D01*
X4365D01*
X5191Y40280D01*
X5931Y40708D01*
X6536Y41313D01*
X6964Y42053D01*
X7185Y42880D01*
Y43735D01*
X6964Y44561D01*
X6536Y45301D01*
X5931Y45906D01*
X5191Y46334D01*
X4365Y46555D01*
D02*
G37*
G36*
X-3509D02*
X-4365D01*
X-5191Y46334D01*
X-5931Y45906D01*
X-6536Y45301D01*
X-6964Y44561D01*
X-7185Y43735D01*
Y42880D01*
X-6964Y42053D01*
X-6536Y41313D01*
X-5931Y40708D01*
X-5191Y40280D01*
X-4365Y40059D01*
X-3509D01*
X-2683Y40280D01*
X-1943Y40708D01*
X-1338Y41313D01*
X-910Y42053D01*
X-689Y42880D01*
Y43735D01*
X-910Y44561D01*
X-1338Y45301D01*
X-1943Y45906D01*
X-2683Y46334D01*
X-3509Y46555D01*
D02*
G37*
G36*
X-11383D02*
X-12239D01*
X-13065Y46334D01*
X-13805Y45906D01*
X-14410Y45301D01*
X-14838Y44561D01*
X-15059Y43735D01*
Y42880D01*
X-14838Y42053D01*
X-14410Y41313D01*
X-13805Y40708D01*
X-13065Y40280D01*
X-12239Y40059D01*
X-11383D01*
X-10557Y40280D01*
X-9817Y40708D01*
X-9212Y41313D01*
X-8784Y42053D01*
X-8563Y42880D01*
Y43735D01*
X-8784Y44561D01*
X-9212Y45301D01*
X-9817Y45906D01*
X-10557Y46334D01*
X-11383Y46555D01*
D02*
G37*
G36*
X-19257D02*
X-20113D01*
X-20939Y46334D01*
X-21679Y45906D01*
X-22284Y45301D01*
X-22712Y44561D01*
X-22933Y43735D01*
Y42880D01*
X-22712Y42053D01*
X-22284Y41313D01*
X-21679Y40708D01*
X-20939Y40280D01*
X-20113Y40059D01*
X-19257D01*
X-18431Y40280D01*
X-17691Y40708D01*
X-17086Y41313D01*
X-16658Y42053D01*
X-16437Y42880D01*
Y43735D01*
X-16658Y44561D01*
X-17086Y45301D01*
X-17691Y45906D01*
X-18431Y46334D01*
X-19257Y46555D01*
D02*
G37*
G36*
X-27132D02*
X-27987D01*
X-28813Y46334D01*
X-29553Y45906D01*
X-30158Y45301D01*
X-30586Y44561D01*
X-30807Y43735D01*
Y42880D01*
X-30586Y42053D01*
X-30158Y41313D01*
X-29553Y40708D01*
X-28813Y40280D01*
X-27987Y40059D01*
X-27132D01*
X-26305Y40280D01*
X-25565Y40708D01*
X-24960Y41313D01*
X-24532Y42053D01*
X-24311Y42880D01*
Y43735D01*
X-24532Y44561D01*
X-24960Y45301D01*
X-25565Y45906D01*
X-26305Y46334D01*
X-27132Y46555D01*
D02*
G37*
G36*
X52323Y40636D02*
X51971D01*
X51645Y40501D01*
X51396Y40252D01*
X51261Y39927D01*
Y39574D01*
X51396Y39249D01*
X51645Y38999D01*
X51971Y38864D01*
X52323D01*
X52649Y38999D01*
X52898Y39249D01*
X53033Y39574D01*
Y39927D01*
X52898Y40252D01*
X52649Y40501D01*
X52323Y40636D01*
D02*
G37*
G36*
X-25808Y39764D02*
X-26160D01*
X-26486Y39629D01*
X-26735Y39380D01*
X-26870Y39054D01*
Y38702D01*
X-26735Y38376D01*
X-26486Y38127D01*
X-26160Y37992D01*
X-25808D01*
X-25482Y38127D01*
X-25233Y38376D01*
X-25098Y38702D01*
Y39054D01*
X-25233Y39380D01*
X-25482Y39629D01*
X-25808Y39764D01*
D02*
G37*
G36*
X38681Y46555D02*
X32185D01*
Y40059D01*
X35688D01*
X35788Y39559D01*
X35719Y39531D01*
X35469Y39281D01*
X35335Y38956D01*
Y38603D01*
X35469Y38278D01*
X35719Y38029D01*
X36044Y37894D01*
X36397D01*
X36722Y38029D01*
X36971Y38278D01*
X37106Y38603D01*
Y38956D01*
X36971Y39281D01*
X36722Y39531D01*
X36653Y39559D01*
X36753Y40059D01*
X38681D01*
Y46555D01*
D02*
G37*
G36*
X-14194Y37894D02*
X-14546D01*
X-14872Y37759D01*
X-15121Y37510D01*
X-15256Y37184D01*
Y36832D01*
X-15121Y36506D01*
X-14872Y36257D01*
X-14546Y36122D01*
X-14194D01*
X-13868Y36257D01*
X-13619Y36506D01*
X-13484Y36832D01*
Y37184D01*
X-13619Y37510D01*
X-13868Y37759D01*
X-14194Y37894D01*
D02*
G37*
G36*
X-9371Y37303D02*
X-9723D01*
X-10049Y37168D01*
X-10298Y36919D01*
X-10433Y36593D01*
Y36241D01*
X-10298Y35916D01*
X-10049Y35666D01*
X-9723Y35531D01*
X-9371D01*
X-9046Y35666D01*
X-8796Y35916D01*
X-8661Y36241D01*
Y36593D01*
X-8796Y36919D01*
X-9046Y37168D01*
X-9371Y37303D01*
D02*
G37*
G36*
X89963Y36706D02*
X89610D01*
X89285Y36571D01*
X89036Y36322D01*
X88901Y35996D01*
Y35644D01*
X89036Y35318D01*
X89285Y35069D01*
X89610Y34934D01*
X89963D01*
X90289Y35069D01*
X90538Y35318D01*
X90673Y35644D01*
Y35996D01*
X90538Y36322D01*
X90289Y36571D01*
X89963Y36706D01*
D02*
G37*
G36*
X-45985Y35827D02*
X-46338D01*
X-46663Y35692D01*
X-46912Y35443D01*
X-47047Y35117D01*
Y34765D01*
X-46912Y34439D01*
X-46663Y34190D01*
X-46338Y34055D01*
X-45985D01*
X-45660Y34190D01*
X-45410Y34439D01*
X-45276Y34765D01*
Y35117D01*
X-45410Y35443D01*
X-45660Y35692D01*
X-45985Y35827D01*
D02*
G37*
G36*
X66412Y35039D02*
X66060D01*
X65734Y34905D01*
X65485Y34655D01*
X65350Y34330D01*
Y33977D01*
X65485Y33652D01*
X65734Y33403D01*
X65814Y33369D01*
X65850Y33299D01*
X65904Y32806D01*
X65785Y32687D01*
X65650Y32361D01*
Y32009D01*
X65785Y31683D01*
X66034Y31434D01*
X66359Y31299D01*
X66712D01*
X67037Y31434D01*
X67286Y31683D01*
X67421Y32009D01*
Y32361D01*
X67286Y32687D01*
X67037Y32936D01*
X66957Y32969D01*
X66921Y33040D01*
X66868Y33533D01*
X66987Y33652D01*
X67122Y33977D01*
Y34330D01*
X66987Y34655D01*
X66738Y34905D01*
X66412Y35039D01*
D02*
G37*
G36*
X-5533Y31890D02*
X-5885D01*
X-6210Y31755D01*
X-6460Y31506D01*
X-6594Y31180D01*
Y30828D01*
X-6460Y30502D01*
X-6210Y30253D01*
X-5885Y30118D01*
X-5533D01*
X-5207Y30253D01*
X-4958Y30502D01*
X-4823Y30828D01*
Y31180D01*
X-4958Y31506D01*
X-5207Y31755D01*
X-5533Y31890D01*
D02*
G37*
G36*
X-26551Y30359D02*
X-26904D01*
X-27229Y30224D01*
X-27479Y29975D01*
X-27613Y29649D01*
Y29297D01*
X-27479Y28971D01*
X-27229Y28722D01*
X-26904Y28587D01*
X-26551D01*
X-26226Y28722D01*
X-25977Y28971D01*
X-25842Y29297D01*
Y29649D01*
X-25977Y29975D01*
X-26226Y30224D01*
X-26551Y30359D01*
D02*
G37*
G36*
X18680Y30020D02*
X18328D01*
X18002Y29885D01*
X17753Y29636D01*
X17618Y29310D01*
Y28958D01*
X17753Y28632D01*
X18002Y28383D01*
X18328Y28248D01*
X18680D01*
X19006Y28383D01*
X19255Y28632D01*
X19390Y28958D01*
Y29310D01*
X19255Y29636D01*
X19006Y29885D01*
X18680Y30020D01*
D02*
G37*
G36*
X15016Y28445D02*
X14663D01*
X14338Y28310D01*
X14088Y28061D01*
X13954Y27735D01*
Y27383D01*
X14088Y27057D01*
X14338Y26808D01*
X14663Y26673D01*
X15016D01*
X15341Y26808D01*
X15590Y27057D01*
X15725Y27383D01*
Y27735D01*
X15590Y28061D01*
X15341Y28310D01*
X15016Y28445D01*
D02*
G37*
G36*
X97542Y28068D02*
X97190D01*
X96864Y27933D01*
X96615Y27684D01*
X96480Y27358D01*
Y27006D01*
X96615Y26680D01*
X96864Y26431D01*
X97190Y26296D01*
X97542D01*
X97868Y26431D01*
X98117Y26680D01*
X98252Y27006D01*
Y27358D01*
X98117Y27684D01*
X97868Y27933D01*
X97542Y28068D01*
D02*
G37*
G36*
X-26678Y27859D02*
X-27031D01*
X-27356Y27724D01*
X-27606Y27475D01*
X-27740Y27150D01*
Y26797D01*
X-27606Y26472D01*
X-27356Y26222D01*
X-27031Y26087D01*
X-26678D01*
X-26353Y26222D01*
X-26103Y26472D01*
X-25969Y26797D01*
Y27150D01*
X-26103Y27475D01*
X-26353Y27724D01*
X-26678Y27859D01*
D02*
G37*
G36*
X62086Y27461D02*
X61733D01*
X61408Y27326D01*
X61159Y27077D01*
X61024Y26751D01*
Y26399D01*
X61159Y26073D01*
X61408Y25824D01*
X61733Y25689D01*
X62086D01*
X62411Y25824D01*
X62660Y26073D01*
X62795Y26399D01*
Y26751D01*
X62660Y27077D01*
X62411Y27326D01*
X62086Y27461D01*
D02*
G37*
G36*
X-21084Y27362D02*
X-21436D01*
X-21762Y27227D01*
X-22011Y26978D01*
X-22146Y26653D01*
Y26300D01*
X-22011Y25975D01*
X-21762Y25725D01*
X-21436Y25591D01*
X-21084D01*
X-20758Y25725D01*
X-20509Y25975D01*
X-20374Y26300D01*
Y26653D01*
X-20509Y26978D01*
X-20758Y27227D01*
X-21084Y27362D01*
D02*
G37*
G36*
X42499Y27165D02*
X42147D01*
X41821Y27031D01*
X41572Y26781D01*
X41437Y26456D01*
Y26103D01*
X41572Y25778D01*
X41821Y25529D01*
X42147Y25394D01*
X42499D01*
X42825Y25529D01*
X43074Y25778D01*
X43209Y26103D01*
Y26456D01*
X43074Y26781D01*
X42825Y27031D01*
X42499Y27165D01*
D02*
G37*
G36*
X8592Y26958D02*
X8239D01*
X7914Y26823D01*
X7664Y26574D01*
X7530Y26248D01*
Y25896D01*
X7664Y25570D01*
X7914Y25321D01*
X8239Y25186D01*
X8592D01*
X8917Y25321D01*
X9166Y25570D01*
X9301Y25896D01*
Y26248D01*
X9166Y26574D01*
X8917Y26823D01*
X8592Y26958D01*
D02*
G37*
G36*
X-24164Y26408D02*
X-24517D01*
X-24843Y26273D01*
X-25092Y26024D01*
X-25227Y25698D01*
Y25346D01*
X-25092Y25020D01*
X-24843Y24771D01*
X-24517Y24636D01*
X-24164D01*
X-23839Y24771D01*
X-23590Y25020D01*
X-23455Y25346D01*
Y25698D01*
X-23590Y26024D01*
X-23839Y26273D01*
X-24164Y26408D01*
D02*
G37*
G36*
X3129Y25787D02*
X2777D01*
X2451Y25653D01*
X2202Y25403D01*
X2067Y25078D01*
Y24725D01*
X2202Y24400D01*
X2451Y24151D01*
X2777Y24016D01*
X3129D01*
X3455Y24151D01*
X3704Y24400D01*
X3839Y24725D01*
Y25078D01*
X3704Y25403D01*
X3455Y25653D01*
X3129Y25787D01*
D02*
G37*
G36*
X63060Y25377D02*
X62708D01*
X62382Y25242D01*
X62133Y24993D01*
X61998Y24667D01*
Y24315D01*
X62133Y23989D01*
X62382Y23740D01*
X62708Y23605D01*
X63060D01*
X63385Y23740D01*
X63635Y23989D01*
X63770Y24315D01*
Y24667D01*
X63635Y24993D01*
X63385Y25242D01*
X63060Y25377D01*
D02*
G37*
G36*
X-50808Y25197D02*
X-51160D01*
X-51486Y25062D01*
X-51735Y24813D01*
X-51870Y24487D01*
Y24135D01*
X-51735Y23809D01*
X-51486Y23560D01*
X-51160Y23425D01*
X-50808D01*
X-50482Y23560D01*
X-50233Y23809D01*
X-50098Y24135D01*
Y24487D01*
X-50233Y24813D01*
X-50482Y25062D01*
X-50808Y25197D01*
D02*
G37*
G36*
X44352Y24754D02*
X44000D01*
X43674Y24619D01*
X43425Y24370D01*
X43290Y24044D01*
Y23692D01*
X43425Y23366D01*
X43674Y23117D01*
X44000Y22982D01*
X44352D01*
X44678Y23117D01*
X44927Y23366D01*
X45062Y23692D01*
Y24044D01*
X44927Y24370D01*
X44678Y24619D01*
X44352Y24754D01*
D02*
G37*
G36*
X-35823Y24257D02*
X-36176D01*
X-36501Y24122D01*
X-36751Y23873D01*
X-36885Y23547D01*
Y23195D01*
X-36751Y22869D01*
X-36501Y22620D01*
X-36176Y22485D01*
X-35823D01*
X-35498Y22620D01*
X-35249Y22869D01*
X-35114Y23195D01*
Y23547D01*
X-35249Y23873D01*
X-35498Y24122D01*
X-35823Y24257D01*
D02*
G37*
G36*
X-2465Y22441D02*
X-2818D01*
X-3143Y22306D01*
X-3393Y22057D01*
X-3527Y21731D01*
Y21379D01*
X-3393Y21053D01*
X-3143Y20804D01*
X-2818Y20669D01*
X-2465D01*
X-2140Y20804D01*
X-1891Y21053D01*
X-1756Y21379D01*
Y21731D01*
X-1891Y22057D01*
X-2140Y22306D01*
X-2465Y22441D01*
D02*
G37*
G36*
X-13759D02*
X-14111D01*
X-14437Y22306D01*
X-14686Y22057D01*
X-14821Y21731D01*
Y21379D01*
X-14686Y21053D01*
X-14437Y20804D01*
X-14111Y20669D01*
X-13759D01*
X-13433Y20804D01*
X-13184Y21053D01*
X-13049Y21379D01*
Y21731D01*
X-13184Y22057D01*
X-13433Y22306D01*
X-13759Y22441D01*
D02*
G37*
G36*
X-38218Y21832D02*
X-38570D01*
X-38896Y21698D01*
X-39145Y21448D01*
X-39280Y21123D01*
Y20770D01*
X-39145Y20445D01*
X-38896Y20196D01*
X-38570Y20061D01*
X-38218D01*
X-37892Y20196D01*
X-37643Y20445D01*
X-37508Y20770D01*
Y21123D01*
X-37643Y21448D01*
X-37892Y21698D01*
X-38218Y21832D01*
D02*
G37*
G36*
X-74233Y21752D02*
X-74586D01*
X-74911Y21617D01*
X-75160Y21368D01*
X-75295Y21042D01*
Y20690D01*
X-75160Y20364D01*
X-74911Y20115D01*
X-74586Y19980D01*
X-74233D01*
X-73908Y20115D01*
X-73659Y20364D01*
X-73524Y20690D01*
Y21042D01*
X-73659Y21368D01*
X-73908Y21617D01*
X-74233Y21752D01*
D02*
G37*
G36*
X38365Y20965D02*
X38013D01*
X37687Y20830D01*
X37438Y20581D01*
X37303Y20255D01*
Y19903D01*
X37438Y19577D01*
X37687Y19328D01*
X38013Y19193D01*
X38365D01*
X38691Y19328D01*
X38940Y19577D01*
X39075Y19903D01*
Y20255D01*
X38940Y20581D01*
X38691Y20830D01*
X38365Y20965D01*
D02*
G37*
G36*
X58107Y20517D02*
X57755D01*
X57429Y20382D01*
X57180Y20133D01*
X57045Y19807D01*
Y19455D01*
X57180Y19129D01*
X57429Y18880D01*
X57755Y18745D01*
X58107D01*
X58433Y18880D01*
X58682Y19129D01*
X58817Y19455D01*
Y19807D01*
X58682Y20133D01*
X58433Y20382D01*
X58107Y20517D01*
D02*
G37*
G36*
X10882Y20138D02*
X10529D01*
X10204Y20003D01*
X9955Y19754D01*
X9820Y19428D01*
Y19076D01*
X9866Y18964D01*
X9492Y18689D01*
X9447Y18669D01*
X9133Y18799D01*
X8781D01*
X8455Y18664D01*
X8206Y18415D01*
X8071Y18090D01*
Y17737D01*
X8206Y17412D01*
X8455Y17162D01*
X8781Y17028D01*
X9133D01*
X9459Y17162D01*
X9708Y17412D01*
X9843Y17737D01*
Y18090D01*
X9796Y18202D01*
X10170Y18476D01*
X10215Y18496D01*
X10529Y18366D01*
X10882D01*
X11207Y18501D01*
X11457Y18750D01*
X11591Y19076D01*
Y19428D01*
X11457Y19754D01*
X11207Y20003D01*
X10882Y20138D01*
D02*
G37*
G36*
X-46674Y20374D02*
X-47027D01*
X-47352Y20239D01*
X-47601Y19990D01*
X-47736Y19664D01*
Y19312D01*
X-47601Y18986D01*
X-47352Y18737D01*
X-47027Y18602D01*
X-46674D01*
X-46349Y18737D01*
X-46099Y18986D01*
X-45965Y19312D01*
Y19664D01*
X-46099Y19990D01*
X-46349Y20239D01*
X-46674Y20374D01*
D02*
G37*
G36*
X-34470Y20123D02*
X-34822D01*
X-35148Y19988D01*
X-35397Y19739D01*
X-35531Y19413D01*
Y19061D01*
X-35397Y18735D01*
X-35148Y18486D01*
X-34822Y18351D01*
X-34470D01*
X-34144Y18486D01*
X-33895Y18735D01*
X-33760Y19061D01*
Y19413D01*
X-33895Y19739D01*
X-34144Y19988D01*
X-34470Y20123D01*
D02*
G37*
G36*
X73160Y20017D02*
X72808D01*
X72483Y19882D01*
X72233Y19633D01*
X72098Y19307D01*
Y18955D01*
X72233Y18629D01*
X72483Y18380D01*
X72808Y18245D01*
X73160D01*
X73486Y18380D01*
X73735Y18629D01*
X73870Y18955D01*
Y19307D01*
X73735Y19633D01*
X73486Y19882D01*
X73160Y20017D01*
D02*
G37*
G36*
X-11606Y19783D02*
X-11958D01*
X-12284Y19649D01*
X-12533Y19399D01*
X-12668Y19074D01*
Y18721D01*
X-12533Y18396D01*
X-12284Y18147D01*
X-11958Y18012D01*
X-11606D01*
X-11280Y18147D01*
X-11031Y18396D01*
X-10896Y18721D01*
Y19074D01*
X-11031Y19399D01*
X-11280Y19649D01*
X-11606Y19783D01*
D02*
G37*
G36*
X44819Y19734D02*
X44467D01*
X44141Y19599D01*
X43892Y19350D01*
X43757Y19025D01*
Y18672D01*
X43892Y18347D01*
X44141Y18098D01*
X44467Y17963D01*
X44819D01*
X45145Y18098D01*
X45394Y18347D01*
X45529Y18672D01*
Y19025D01*
X45394Y19350D01*
X45145Y19599D01*
X44819Y19734D01*
D02*
G37*
G36*
X-8781Y19193D02*
X-9133D01*
X-9459Y19058D01*
X-9708Y18809D01*
X-9843Y18483D01*
Y18131D01*
X-9708Y17805D01*
X-9459Y17556D01*
X-9133Y17421D01*
X-8781D01*
X-8455Y17556D01*
X-8206Y17805D01*
X-8071Y18131D01*
Y18483D01*
X-8206Y18809D01*
X-8455Y19058D01*
X-8781Y19193D01*
D02*
G37*
G36*
X-14048Y19063D02*
X-14401D01*
X-14726Y18928D01*
X-14975Y18679D01*
X-15110Y18354D01*
Y18001D01*
X-14975Y17676D01*
X-14726Y17427D01*
X-14401Y17292D01*
X-14048D01*
X-13723Y17427D01*
X-13473Y17676D01*
X-13339Y18001D01*
Y18354D01*
X-13473Y18679D01*
X-13723Y18928D01*
X-14048Y19063D01*
D02*
G37*
G36*
X24290Y18898D02*
X23938D01*
X23612Y18763D01*
X23363Y18514D01*
X23228Y18188D01*
Y17836D01*
X23363Y17510D01*
X23612Y17261D01*
X23938Y17126D01*
X24290D01*
X24616Y17261D01*
X24865Y17510D01*
X25000Y17836D01*
Y18188D01*
X24865Y18514D01*
X24616Y18763D01*
X24290Y18898D01*
D02*
G37*
G36*
X-42245Y18799D02*
X-42597D01*
X-42923Y18664D01*
X-43172Y18415D01*
X-43307Y18090D01*
Y17737D01*
X-43172Y17412D01*
X-42923Y17162D01*
X-42597Y17028D01*
X-42245D01*
X-41919Y17162D01*
X-41670Y17412D01*
X-41535Y17737D01*
Y18090D01*
X-41670Y18415D01*
X-41919Y18664D01*
X-42245Y18799D01*
D02*
G37*
G36*
X21917Y18714D02*
X21564D01*
X21239Y18579D01*
X20990Y18330D01*
X20855Y18005D01*
Y17652D01*
X20990Y17327D01*
X21239Y17077D01*
X21564Y16943D01*
X21917D01*
X22242Y17077D01*
X22492Y17327D01*
X22626Y17652D01*
Y18005D01*
X22492Y18330D01*
X22242Y18579D01*
X21917Y18714D01*
D02*
G37*
G36*
X68313Y18206D02*
X67960D01*
X67635Y18071D01*
X67385Y17822D01*
X67251Y17496D01*
Y17144D01*
X67385Y16818D01*
X67635Y16569D01*
X67960Y16434D01*
X68313D01*
X68638Y16569D01*
X68887Y16818D01*
X69022Y17144D01*
Y17496D01*
X68887Y17822D01*
X68638Y18071D01*
X68313Y18206D01*
D02*
G37*
G36*
X63135Y18012D02*
X62782D01*
X62457Y17877D01*
X62208Y17628D01*
X62073Y17302D01*
Y16950D01*
X62208Y16624D01*
X62457Y16375D01*
X62782Y16240D01*
X63135D01*
X63460Y16375D01*
X63710Y16624D01*
X63844Y16950D01*
Y17302D01*
X63710Y17628D01*
X63460Y17877D01*
X63135Y18012D01*
D02*
G37*
G36*
X33641Y17815D02*
X33288D01*
X32963Y17680D01*
X32714Y17431D01*
X32579Y17105D01*
Y16753D01*
X32714Y16427D01*
X32963Y16178D01*
X33288Y16043D01*
X33641D01*
X33966Y16178D01*
X34216Y16427D01*
X34350Y16753D01*
Y17105D01*
X34216Y17431D01*
X33966Y17680D01*
X33641Y17815D01*
D02*
G37*
G36*
X76362Y17618D02*
X76009D01*
X75684Y17483D01*
X75434Y17234D01*
X75300Y16908D01*
Y16556D01*
X75434Y16230D01*
X75684Y15981D01*
X76009Y15846D01*
X76362D01*
X76687Y15981D01*
X76936Y16230D01*
X77071Y16556D01*
Y16908D01*
X76936Y17234D01*
X76687Y17483D01*
X76362Y17618D01*
D02*
G37*
G36*
X17095Y16862D02*
X16742D01*
X16417Y16727D01*
X16168Y16477D01*
X16033Y16152D01*
Y15800D01*
X16168Y15474D01*
X16417Y15225D01*
X16742Y15090D01*
X17095D01*
X17420Y15225D01*
X17670Y15474D01*
X17804Y15800D01*
Y16152D01*
X17670Y16477D01*
X17420Y16727D01*
X17095Y16862D01*
D02*
G37*
G36*
X-35401Y17224D02*
X-35831D01*
X-36229Y17060D01*
X-36534Y16755D01*
X-36699Y16357D01*
Y15926D01*
X-36534Y15528D01*
X-36229Y15224D01*
X-35831Y15059D01*
X-35401D01*
X-35003Y15224D01*
X-34698Y15528D01*
X-34533Y15926D01*
Y16357D01*
X-34698Y16755D01*
X-35003Y17060D01*
X-35401Y17224D01*
D02*
G37*
G36*
X-8091Y16732D02*
X-8444D01*
X-8770Y16597D01*
X-9019Y16348D01*
X-9154Y16023D01*
Y15670D01*
X-9019Y15345D01*
X-8770Y15096D01*
X-8444Y14961D01*
X-8091D01*
X-7766Y15096D01*
X-7517Y15345D01*
X-7382Y15670D01*
Y16023D01*
X-7517Y16348D01*
X-7766Y16597D01*
X-8091Y16732D01*
D02*
G37*
G36*
X-10965Y16358D02*
X-11317D01*
X-11643Y16223D01*
X-11892Y15974D01*
X-12027Y15648D01*
Y15296D01*
X-11892Y14970D01*
X-11643Y14721D01*
X-11317Y14586D01*
X-10965D01*
X-10639Y14721D01*
X-10390Y14970D01*
X-10255Y15296D01*
Y15648D01*
X-10390Y15974D01*
X-10639Y16223D01*
X-10965Y16358D01*
D02*
G37*
G36*
X-42491Y16043D02*
X-42843D01*
X-43169Y15908D01*
X-43418Y15659D01*
X-43553Y15334D01*
Y14981D01*
X-43418Y14656D01*
X-43169Y14406D01*
X-42843Y14272D01*
X-42491D01*
X-42166Y14406D01*
X-41916Y14656D01*
X-41781Y14981D01*
Y15334D01*
X-41916Y15659D01*
X-42166Y15908D01*
X-42491Y16043D01*
D02*
G37*
G36*
X84035Y15551D02*
X83682D01*
X83356Y15416D01*
X83107Y15167D01*
X82972Y14842D01*
Y14489D01*
X83107Y14164D01*
X83356Y13914D01*
X83682Y13780D01*
X84035D01*
X84360Y13914D01*
X84609Y14164D01*
X84744Y14489D01*
Y14842D01*
X84609Y15167D01*
X84360Y15416D01*
X84035Y15551D01*
D02*
G37*
G36*
X86594Y15059D02*
X86241D01*
X85915Y14924D01*
X85666Y14675D01*
X85532Y14349D01*
Y13997D01*
X85666Y13671D01*
X85915Y13422D01*
X86241Y13287D01*
X86594D01*
X86919Y13422D01*
X87168Y13671D01*
X87303Y13997D01*
Y14349D01*
X87168Y14675D01*
X86919Y14924D01*
X86594Y15059D01*
D02*
G37*
G36*
X12027Y14809D02*
X11675D01*
X11349Y14674D01*
X11100Y14425D01*
X10965Y14099D01*
Y13747D01*
X11100Y13421D01*
X11349Y13172D01*
X11675Y13037D01*
X12027D01*
X12353Y13172D01*
X12602Y13421D01*
X12737Y13747D01*
Y14099D01*
X12602Y14425D01*
X12353Y14674D01*
X12027Y14809D01*
D02*
G37*
G36*
X107441Y14659D02*
X107089D01*
X106764Y14524D01*
X106514Y14275D01*
X106379Y13950D01*
Y13597D01*
X106514Y13272D01*
X106764Y13023D01*
X107089Y12888D01*
X107441D01*
X107767Y13023D01*
X108016Y13272D01*
X108151Y13597D01*
Y13950D01*
X108016Y14275D01*
X107767Y14524D01*
X107441Y14659D01*
D02*
G37*
G36*
X-34678Y14178D02*
X-35031D01*
X-35356Y14043D01*
X-35605Y13794D01*
X-35740Y13469D01*
Y13116D01*
X-35605Y12791D01*
X-35356Y12541D01*
X-35031Y12407D01*
X-34678D01*
X-34353Y12541D01*
X-34104Y12791D01*
X-33969Y13116D01*
Y13469D01*
X-34104Y13794D01*
X-34353Y14043D01*
X-34678Y14178D01*
D02*
G37*
G36*
X97968Y14435D02*
X97537D01*
X97139Y14270D01*
X96835Y13965D01*
X96670Y13568D01*
Y13137D01*
X96835Y12739D01*
X97139Y12434D01*
X97537Y12269D01*
X97968D01*
X98366Y12434D01*
X98671Y12739D01*
X98835Y13137D01*
Y13568D01*
X98671Y13965D01*
X98366Y14270D01*
X97968Y14435D01*
D02*
G37*
G36*
X-36709Y12752D02*
X-37062D01*
X-37387Y12617D01*
X-37637Y12368D01*
X-37771Y12042D01*
Y11689D01*
X-37637Y11364D01*
X-37387Y11115D01*
X-37062Y10980D01*
X-36709D01*
X-36384Y11115D01*
X-36135Y11364D01*
X-36000Y11689D01*
Y12042D01*
X-36135Y12368D01*
X-36384Y12617D01*
X-36709Y12752D01*
D02*
G37*
G36*
X27557Y12485D02*
X27204D01*
X26879Y12350D01*
X26629Y12101D01*
X26495Y11775D01*
Y11423D01*
X26629Y11097D01*
X26879Y10848D01*
X27204Y10713D01*
X27557D01*
X27882Y10848D01*
X28131Y11097D01*
X28266Y11423D01*
Y11775D01*
X28131Y12101D01*
X27882Y12350D01*
X27557Y12485D01*
D02*
G37*
G36*
X-19752Y12254D02*
X-20104D01*
X-20430Y12119D01*
X-20679Y11870D01*
X-20814Y11544D01*
Y11192D01*
X-20679Y10866D01*
X-20430Y10617D01*
X-20104Y10482D01*
X-19752D01*
X-19426Y10617D01*
X-19177Y10866D01*
X-19042Y11192D01*
Y11544D01*
X-19177Y11870D01*
X-19426Y12119D01*
X-19752Y12254D01*
D02*
G37*
G36*
X-14916Y11887D02*
X-15269D01*
X-15594Y11752D01*
X-15844Y11503D01*
X-15978Y11178D01*
Y10825D01*
X-15844Y10499D01*
X-15594Y10250D01*
X-15269Y10115D01*
X-14916D01*
X-14591Y10250D01*
X-14342Y10499D01*
X-14207Y10825D01*
Y11178D01*
X-14342Y11503D01*
X-14591Y11752D01*
X-14916Y11887D01*
D02*
G37*
G36*
X-25808Y15256D02*
X-26160D01*
X-26486Y15121D01*
X-26735Y14872D01*
X-26870Y14546D01*
Y14194D01*
X-26853Y14153D01*
X-27120Y13659D01*
X-27159Y13639D01*
X-27449Y13518D01*
X-27699Y13269D01*
X-27833Y12943D01*
Y12591D01*
X-27716Y12309D01*
X-27703Y12252D01*
X-27876Y11736D01*
X-27934Y11712D01*
X-28183Y11463D01*
X-28318Y11137D01*
Y10785D01*
X-28183Y10459D01*
X-27934Y10210D01*
X-27608Y10075D01*
X-27256D01*
X-26930Y10210D01*
X-26681Y10459D01*
X-26546Y10785D01*
Y11137D01*
X-26663Y11419D01*
X-26676Y11476D01*
X-26503Y11992D01*
X-26446Y12016D01*
X-26197Y12265D01*
X-26062Y12591D01*
Y12943D01*
X-26079Y12984D01*
X-25811Y13478D01*
X-25773Y13499D01*
X-25482Y13619D01*
X-25233Y13868D01*
X-25098Y14194D01*
Y14546D01*
X-25233Y14872D01*
X-25482Y15121D01*
X-25808Y15256D01*
D02*
G37*
G36*
X24861Y11837D02*
X24508D01*
X24183Y11702D01*
X23934Y11453D01*
X23799Y11128D01*
Y10775D01*
X23934Y10450D01*
X24183Y10200D01*
X24508Y10066D01*
X24861D01*
X25186Y10200D01*
X25436Y10450D01*
X25570Y10775D01*
Y11128D01*
X25436Y11453D01*
X25186Y11702D01*
X24861Y11837D01*
D02*
G37*
G36*
X7774Y11804D02*
X7422D01*
X7096Y11669D01*
X6847Y11420D01*
X6712Y11094D01*
Y10742D01*
X6847Y10416D01*
X7096Y10167D01*
X7422Y10032D01*
X7774D01*
X8100Y10167D01*
X8349Y10416D01*
X8484Y10742D01*
Y11094D01*
X8349Y11420D01*
X8100Y11669D01*
X7774Y11804D01*
D02*
G37*
G36*
X-55729Y11417D02*
X-56082D01*
X-56407Y11282D01*
X-56656Y11033D01*
X-56791Y10708D01*
Y10355D01*
X-56656Y10030D01*
X-56407Y9781D01*
X-56082Y9646D01*
X-55729D01*
X-55404Y9781D01*
X-55155Y10030D01*
X-55020Y10355D01*
Y10708D01*
X-55155Y11033D01*
X-55404Y11282D01*
X-55729Y11417D01*
D02*
G37*
G36*
X-34568Y11718D02*
X-34920D01*
X-35246Y11583D01*
X-35495Y11333D01*
X-35630Y11008D01*
Y10655D01*
X-35495Y10330D01*
X-35246Y10081D01*
X-35215Y10068D01*
X-35314Y9568D01*
X-35412D01*
X-35738Y9433D01*
X-35866Y9305D01*
X-36332Y9341D01*
X-36436Y9388D01*
X-36463Y9454D01*
X-36713Y9703D01*
X-37038Y9838D01*
X-37391D01*
X-37716Y9703D01*
X-37965Y9454D01*
X-38100Y9128D01*
Y8776D01*
X-37965Y8450D01*
X-37716Y8201D01*
X-37391Y8066D01*
X-37038D01*
X-36713Y8201D01*
X-36584Y8329D01*
X-36118Y8293D01*
X-36014Y8246D01*
X-35987Y8180D01*
X-35738Y7931D01*
X-35412Y7796D01*
X-35060D01*
X-34734Y7931D01*
X-34485Y8180D01*
X-34350Y8506D01*
Y8858D01*
X-34485Y9184D01*
X-34734Y9433D01*
X-34765Y9446D01*
X-34666Y9946D01*
X-34568D01*
X-34242Y10081D01*
X-33993Y10330D01*
X-33858Y10655D01*
Y11008D01*
X-33993Y11333D01*
X-34242Y11583D01*
X-34568Y11718D01*
D02*
G37*
G36*
X107494Y11075D02*
X107141D01*
X106816Y10940D01*
X106567Y10691D01*
X106432Y10365D01*
Y10013D01*
X106567Y9687D01*
X106816Y9438D01*
X107141Y9303D01*
X107494D01*
X107819Y9438D01*
X108069Y9687D01*
X108204Y10013D01*
Y10365D01*
X108069Y10691D01*
X107819Y10940D01*
X107494Y11075D01*
D02*
G37*
G36*
X-76399Y10925D02*
X-76751D01*
X-77077Y10790D01*
X-77326Y10541D01*
X-77461Y10216D01*
Y9863D01*
X-77326Y9538D01*
X-77077Y9288D01*
X-76751Y9154D01*
X-76399D01*
X-76073Y9288D01*
X-75824Y9538D01*
X-75689Y9863D01*
Y10216D01*
X-75824Y10541D01*
X-76073Y10790D01*
X-76399Y10925D01*
D02*
G37*
G36*
X-62481Y11220D02*
X-62912D01*
X-63310Y11056D01*
X-63615Y10751D01*
X-63779Y10353D01*
Y9922D01*
X-63615Y9525D01*
X-63310Y9220D01*
X-62912Y9055D01*
X-62481D01*
X-62084Y9220D01*
X-61779Y9525D01*
X-61614Y9922D01*
Y10353D01*
X-61779Y10751D01*
X-62084Y11056D01*
X-62481Y11220D01*
D02*
G37*
G36*
X99122Y10686D02*
X98770D01*
X98444Y10551D01*
X98195Y10302D01*
X98060Y9976D01*
Y9624D01*
X98195Y9298D01*
X98444Y9049D01*
X98770Y8914D01*
X99122D01*
X99448Y9049D01*
X99697Y9298D01*
X99832Y9624D01*
Y9976D01*
X99697Y10302D01*
X99448Y10551D01*
X99122Y10686D01*
D02*
G37*
G36*
X34339Y9449D02*
X33986D01*
X33661Y9314D01*
X33412Y9065D01*
X33277Y8739D01*
Y8387D01*
X33412Y8061D01*
X33661Y7812D01*
X33986Y7677D01*
X34339D01*
X34664Y7812D01*
X34914Y8061D01*
X35048Y8387D01*
Y8739D01*
X34914Y9065D01*
X34664Y9314D01*
X34339Y9449D01*
D02*
G37*
G36*
X51751Y9154D02*
X51399D01*
X51073Y9019D01*
X50824Y8770D01*
X50689Y8444D01*
Y8091D01*
X50824Y7766D01*
X51073Y7517D01*
X51399Y7382D01*
X51751D01*
X52077Y7517D01*
X52326Y7766D01*
X52461Y8091D01*
Y8444D01*
X52326Y8770D01*
X52077Y9019D01*
X51751Y9154D01*
D02*
G37*
G36*
X57745Y8966D02*
X57471D01*
X57218Y8861D01*
X57024Y8667D01*
X56919Y8414D01*
Y8140D01*
X57024Y7886D01*
X57137Y7773D01*
X57224Y7563D01*
X57418Y7369D01*
X57671Y7265D01*
X57945D01*
X58198Y7369D01*
X58392Y7563D01*
X58497Y7816D01*
Y8090D01*
X58392Y8344D01*
X58279Y8457D01*
X58192Y8667D01*
X57998Y8861D01*
X57745Y8966D01*
D02*
G37*
G36*
X61932Y9819D02*
X61658D01*
X61405Y9714D01*
X61211Y9520D01*
X61138Y9345D01*
X61102Y9333D01*
X61091Y9310D01*
X61077Y9304D01*
X61067Y9300D01*
X60982Y9094D01*
X60963Y9057D01*
X60941Y9033D01*
X60942Y9023D01*
X60908Y8976D01*
X60912Y8955D01*
X60882Y8896D01*
X60890Y8872D01*
X60880Y8848D01*
X60884Y8839D01*
X60951Y8677D01*
X60947Y8656D01*
X60941Y8637D01*
X60941Y8631D01*
X60940Y8628D01*
X60941Y8626D01*
X60940Y8624D01*
X60942Y8614D01*
X60945Y8577D01*
X60945Y8551D01*
X61040Y8330D01*
X61085Y8223D01*
X61022Y7772D01*
X60994Y7689D01*
X60974Y7630D01*
X60915Y7489D01*
X60820Y7268D01*
X60820Y7242D01*
X60817Y7206D01*
X60815Y7196D01*
X60816Y7194D01*
X60815Y7191D01*
X60816Y7189D01*
X60816Y7182D01*
X60822Y7163D01*
X60826Y7143D01*
X60755Y6971D01*
X60765Y6948D01*
X60757Y6924D01*
X60787Y6864D01*
X60783Y6843D01*
X60817Y6796D01*
X60816Y6786D01*
X60838Y6762D01*
X60857Y6725D01*
X60942Y6519D01*
X60966Y6509D01*
X60977Y6487D01*
X60987Y6483D01*
X61013Y6475D01*
X61086Y6300D01*
X61279Y6106D01*
X61533Y6001D01*
X61553D01*
X61602Y5928D01*
Y5653D01*
X61707Y5400D01*
X61901Y5206D01*
X62154Y5101D01*
X62428D01*
X62603Y5174D01*
X62628Y5162D01*
X62637Y5157D01*
X62661Y5165D01*
X62685Y5155D01*
X62890Y5240D01*
X62930Y5253D01*
X62963Y5255D01*
X62969Y5263D01*
X63027Y5272D01*
X63039Y5289D01*
X63102Y5310D01*
X63113Y5333D01*
X63137Y5342D01*
X63208Y5514D01*
X63225Y5525D01*
X63243Y5534D01*
X63248Y5539D01*
X63250Y5541D01*
X63251Y5543D01*
X63253Y5544D01*
X63259Y5552D01*
X63283Y5580D01*
X63301Y5599D01*
X63390Y5822D01*
X63481Y6044D01*
X63480Y6049D01*
X63481Y6053D01*
X63435Y6160D01*
X64268Y6993D01*
X64325Y6962D01*
X64355Y6970D01*
X64383Y6958D01*
X64586Y7037D01*
X64795Y7098D01*
X64800Y7107D01*
X64826Y7104D01*
X64851Y7126D01*
X64884Y7126D01*
X64954Y7198D01*
X65002Y7210D01*
X65048Y7289D01*
X65085Y7308D01*
X65091Y7328D01*
X65201Y7419D01*
X65201Y7430D01*
X65203Y7452D01*
X65226Y7475D01*
X65226Y7486D01*
X65408Y7668D01*
X65513Y7921D01*
Y8195D01*
X65408Y8449D01*
X65214Y8642D01*
X64961Y8747D01*
X64807D01*
X64771Y8789D01*
X64764Y8797D01*
X64629Y8809D01*
X64507Y8868D01*
X64395Y8829D01*
X64277Y8839D01*
X64173Y8752D01*
X64045Y8707D01*
X63706Y8405D01*
X63606Y8199D01*
X63495Y7999D01*
X63501Y7981D01*
X63493Y7965D01*
X63544Y7818D01*
X63015Y7289D01*
X63010Y7288D01*
X62897Y7283D01*
X62450Y7430D01*
X62424Y7489D01*
X62380Y7597D01*
X62443Y8047D01*
X62470Y8131D01*
X62491Y8190D01*
X62549Y8331D01*
X62644Y8551D01*
X62645Y8577D01*
X62647Y8614D01*
X62649Y8624D01*
X62649Y8626D01*
X62649Y8628D01*
X62648Y8631D01*
X62649Y8637D01*
X62643Y8656D01*
X62638Y8677D01*
X62710Y8848D01*
X62700Y8872D01*
X62708Y8896D01*
X62678Y8956D01*
X62681Y8976D01*
X62648Y9023D01*
X62648Y9033D01*
X62626Y9057D01*
X62608Y9095D01*
X62522Y9300D01*
X62499Y9310D01*
X62488Y9333D01*
X62477Y9336D01*
X62451Y9345D01*
X62379Y9520D01*
X62185Y9714D01*
X61932Y9819D01*
D02*
G37*
G36*
X13940Y8563D02*
X13587D01*
X13262Y8428D01*
X13013Y8179D01*
X12878Y7853D01*
Y7501D01*
X13013Y7175D01*
X13262Y6926D01*
X13587Y6791D01*
X13940D01*
X14265Y6926D01*
X14514Y7175D01*
X14649Y7501D01*
Y7853D01*
X14514Y8179D01*
X14265Y8428D01*
X13940Y8563D01*
D02*
G37*
G36*
X6920Y8149D02*
X6568D01*
X6242Y8014D01*
X5993Y7765D01*
X5858Y7439D01*
Y7087D01*
X5993Y6761D01*
X6242Y6512D01*
X6568Y6377D01*
X6920D01*
X7246Y6512D01*
X7495Y6761D01*
X7630Y7087D01*
Y7439D01*
X7495Y7765D01*
X7246Y8014D01*
X6920Y8149D01*
D02*
G37*
G36*
X67988Y7954D02*
X67636D01*
X67310Y7819D01*
X67061Y7570D01*
X66926Y7245D01*
Y6892D01*
X67061Y6567D01*
X67310Y6318D01*
X67636Y6183D01*
X67988D01*
X68314Y6318D01*
X68563Y6567D01*
X68698Y6892D01*
Y7245D01*
X68563Y7570D01*
X68314Y7819D01*
X67988Y7954D01*
D02*
G37*
G36*
X-27141Y8321D02*
X-27572D01*
X-27970Y8157D01*
X-28275Y7852D01*
X-28439Y7454D01*
Y7023D01*
X-28275Y6625D01*
X-27970Y6321D01*
X-27572Y6156D01*
X-27141D01*
X-26744Y6321D01*
X-26439Y6625D01*
X-26274Y7023D01*
Y7454D01*
X-26439Y7852D01*
X-26744Y8157D01*
X-27141Y8321D01*
D02*
G37*
G36*
X54515Y5982D02*
X54505Y5978D01*
X54343Y5911D01*
X54322Y5916D01*
X54304Y5922D01*
X54297Y5922D01*
X54295Y5922D01*
X54292Y5922D01*
X54290Y5922D01*
X54280Y5920D01*
X54244Y5918D01*
X54217Y5917D01*
X53997Y5822D01*
X53775Y5730D01*
X53773Y5725D01*
X53768Y5723D01*
X53725Y5615D01*
X53630D01*
X53243Y5455D01*
X53203Y5415D01*
X53052D01*
X52799Y5310D01*
X52605Y5117D01*
X52500Y4863D01*
Y4589D01*
X52605Y4336D01*
X52799Y4142D01*
X53052Y4037D01*
X53326D01*
X53580Y4142D01*
X53773Y4336D01*
X54217Y4218D01*
X54244Y4217D01*
X54280Y4215D01*
X54290Y4213D01*
X54292Y4214D01*
X54295Y4213D01*
X54297Y4214D01*
X54304Y4214D01*
X54322Y4220D01*
X54343Y4224D01*
X54515Y4153D01*
X54538Y4163D01*
X54562Y4155D01*
X54622Y4185D01*
X54642Y4181D01*
X54689Y4215D01*
X54699Y4214D01*
X54724Y4236D01*
X54760Y4255D01*
X54967Y4340D01*
X54976Y4364D01*
X54999Y4375D01*
X55011Y4411D01*
X55186Y4484D01*
X55380Y4677D01*
X55485Y4931D01*
Y5205D01*
X55380Y5458D01*
X55186Y5652D01*
X55011Y5724D01*
X54999Y5760D01*
X54976Y5772D01*
X54967Y5795D01*
X54760Y5881D01*
X54724Y5899D01*
X54699Y5921D01*
X54689Y5921D01*
X54642Y5954D01*
X54622Y5951D01*
X54562Y5981D01*
X54538Y5973D01*
X54515Y5982D01*
D02*
G37*
G36*
X49157Y5708D02*
X49135Y5694D01*
X49109Y5698D01*
X49081Y5676D01*
X49019Y5702D01*
X48745D01*
X48492Y5597D01*
X48298Y5403D01*
X48193Y5150D01*
Y4876D01*
X48298Y4623D01*
X48328Y4593D01*
X48320Y4566D01*
X48333Y4540D01*
X48327Y4513D01*
X48446Y4327D01*
X48449Y4322D01*
X48455Y4288D01*
X48469Y4278D01*
X48490Y4213D01*
X48513Y4201D01*
X48549Y4133D01*
X48576Y4125D01*
X48592Y4101D01*
X48602Y4099D01*
X48710Y4075D01*
X48724Y4064D01*
X48724Y4063D01*
X48730Y4059D01*
X48751Y4041D01*
X48766Y4026D01*
X48827Y4002D01*
X48858Y3958D01*
X48864Y3949D01*
X49048Y3916D01*
X49222Y3847D01*
X49282Y3873D01*
X49346Y3862D01*
X49477Y3953D01*
X49503Y3928D01*
X49756Y3823D01*
X50030D01*
X50283Y3928D01*
X50477Y4122D01*
X50582Y4375D01*
Y4649D01*
X50477Y4902D01*
X50283Y5096D01*
X50030Y5201D01*
X49938D01*
X49899Y5297D01*
X49876Y5321D01*
X49843Y5356D01*
X49828Y5375D01*
X49824Y5381D01*
X49823Y5381D01*
X49815Y5391D01*
X49764Y5418D01*
X49746Y5431D01*
X49635Y5604D01*
X49610Y5610D01*
X49594Y5630D01*
X49536Y5639D01*
X49520Y5655D01*
X49473Y5655D01*
X49468Y5659D01*
X49421Y5655D01*
X49419D01*
X49374Y5661D01*
X49157Y5708D01*
D02*
G37*
G36*
X58161Y5689D02*
X57887D01*
X57634Y5584D01*
X57603Y5554D01*
X57576Y5563D01*
X57551Y5549D01*
X57523Y5555D01*
X57339Y5437D01*
X57333Y5434D01*
X57299Y5428D01*
X57289Y5414D01*
X57223Y5392D01*
X57212Y5369D01*
X57144Y5333D01*
X57141Y5323D01*
X57136Y5306D01*
X57112Y5291D01*
X57110Y5280D01*
X57086Y5172D01*
X57075Y5159D01*
X57074Y5158D01*
X57070Y5153D01*
X57052Y5132D01*
X57037Y5116D01*
X57013Y5055D01*
X56968Y5024D01*
X56959Y5018D01*
X56926Y4834D01*
X56858Y4661D01*
X56884Y4601D01*
X56873Y4537D01*
X56955Y4418D01*
X56916Y4378D01*
X56811Y4125D01*
Y3851D01*
X56916Y3598D01*
X57110Y3404D01*
X57363Y3299D01*
X57637D01*
X57890Y3404D01*
X58084Y3598D01*
X58189Y3851D01*
Y3935D01*
X58308Y3983D01*
X58332Y4007D01*
X58367Y4039D01*
X58386Y4055D01*
X58391Y4059D01*
X58392Y4060D01*
X58402Y4068D01*
X58429Y4118D01*
X58442Y4136D01*
X58615Y4248D01*
X58621Y4273D01*
X58641Y4289D01*
X58649Y4347D01*
X58665Y4363D01*
X58665Y4409D01*
X58670Y4415D01*
X58666Y4462D01*
Y4464D01*
X58672Y4509D01*
X58719Y4726D01*
X58705Y4748D01*
X58709Y4773D01*
X58687Y4802D01*
X58713Y4863D01*
Y5137D01*
X58608Y5391D01*
X58414Y5584D01*
X58161Y5689D01*
D02*
G37*
G36*
X-55237Y7087D02*
X-55590D01*
X-55915Y6952D01*
X-56164Y6703D01*
X-56299Y6377D01*
Y6025D01*
X-56164Y5699D01*
X-55915Y5450D01*
X-55590Y5315D01*
X-55237D01*
X-54912Y5450D01*
X-54662Y5699D01*
X-54528Y6025D01*
Y6377D01*
X-54662Y6703D01*
X-54912Y6952D01*
X-55237Y7087D01*
D02*
G37*
G36*
X-66851Y6988D02*
X-67204D01*
X-67529Y6853D01*
X-67778Y6604D01*
X-67913Y6279D01*
Y5926D01*
X-67778Y5601D01*
X-67529Y5351D01*
X-67204Y5217D01*
X-66851D01*
X-66526Y5351D01*
X-66277Y5601D01*
X-66142Y5926D01*
Y6279D01*
X-66277Y6604D01*
X-66526Y6853D01*
X-66851Y6988D01*
D02*
G37*
G36*
X806Y5512D02*
X375D01*
X-23Y5347D01*
X-327Y5042D01*
X-492Y4645D01*
Y4214D01*
X-327Y3816D01*
X-23Y3511D01*
X375Y3347D01*
X806D01*
X1204Y3511D01*
X1508Y3816D01*
X1673Y4214D01*
Y4645D01*
X1508Y5042D01*
X1204Y5347D01*
X806Y5512D01*
D02*
G37*
G36*
X61434Y4303D02*
X61160D01*
X60907Y4198D01*
X60713Y4004D01*
X60608Y3751D01*
Y3477D01*
X60713Y3224D01*
X60907Y3030D01*
X61160Y2925D01*
X61434D01*
X61436Y2926D01*
X61519Y2843D01*
X61772Y2738D01*
X62046D01*
X62299Y2843D01*
X62493Y3036D01*
X62598Y3289D01*
Y3564D01*
X62493Y3817D01*
X62299Y4011D01*
X62046Y4115D01*
X61772D01*
X61770Y4115D01*
X61687Y4198D01*
X61434Y4303D01*
D02*
G37*
G36*
X17712Y4524D02*
X17438D01*
X17185Y4419D01*
X16991Y4226D01*
X16886Y3972D01*
Y3698D01*
X16991Y3445D01*
X17185Y3251D01*
X17438Y3146D01*
X17712D01*
X17741Y3158D01*
X18507D01*
X19015Y2651D01*
X19027Y2621D01*
X19221Y2427D01*
X19474Y2323D01*
X19748D01*
X20001Y2427D01*
X20195Y2621D01*
X20300Y2874D01*
Y3149D01*
X20195Y3402D01*
X20001Y3596D01*
X19790Y3683D01*
X19223Y4250D01*
X18771Y4437D01*
X17923D01*
X17712Y4524D01*
D02*
G37*
G36*
X-46640Y3656D02*
X-46992D01*
X-47318Y3522D01*
X-47567Y3272D01*
X-47702Y2947D01*
Y2594D01*
X-47567Y2269D01*
X-47318Y2020D01*
X-46992Y1885D01*
X-46640D01*
X-46314Y2020D01*
X-46065Y2269D01*
X-45930Y2594D01*
Y2947D01*
X-46065Y3272D01*
X-46314Y3522D01*
X-46640Y3656D01*
D02*
G37*
G36*
X92942Y2672D02*
X92589D01*
X92264Y2537D01*
X92015Y2288D01*
X91880Y1963D01*
Y1610D01*
X92015Y1285D01*
X92264Y1036D01*
X92589Y901D01*
X92942D01*
X93267Y1036D01*
X93517Y1285D01*
X93651Y1610D01*
Y1963D01*
X93517Y2288D01*
X93267Y2537D01*
X92942Y2672D01*
D02*
G37*
G36*
X22437Y1800D02*
X22163D01*
X21910Y1695D01*
X21716Y1501D01*
X21666Y1381D01*
X21064Y778D01*
X20574Y996D01*
Y1077D01*
X20469Y1331D01*
X20276Y1524D01*
X20022Y1629D01*
X19748D01*
X19495Y1524D01*
X19301Y1331D01*
X19289Y1301D01*
X19193Y1206D01*
X17899D01*
X17779Y1255D01*
X17505D01*
X17252Y1151D01*
X17058Y957D01*
X16953Y703D01*
Y429D01*
X17058Y176D01*
X17252Y-18D01*
X17505Y-123D01*
X17824Y-237D01*
X17947Y-555D01*
X18052Y-808D01*
X18246Y-1002D01*
X18271Y-1422D01*
Y-1696D01*
X18376Y-1949D01*
X18570Y-2143D01*
X18823Y-2248D01*
X19098D01*
X19351Y-2143D01*
X19545Y-1949D01*
X19649Y-1696D01*
Y-1422D01*
X20040Y-1057D01*
X20772D01*
X21224Y-870D01*
X22570Y477D01*
X22691Y527D01*
X22884Y721D01*
X22989Y974D01*
Y1248D01*
X22884Y1501D01*
X22691Y1695D01*
X22437Y1800D01*
D02*
G37*
G36*
X38759Y2425D02*
X38407D01*
X38081Y2290D01*
X37832Y2041D01*
X37697Y1715D01*
Y1363D01*
X37832Y1037D01*
X38081Y788D01*
X38407Y653D01*
X38759D01*
X39085Y788D01*
X39334Y1037D01*
X39469Y1363D01*
Y1715D01*
X39334Y2041D01*
X39085Y2290D01*
X38759Y2425D01*
D02*
G37*
G36*
X-33707Y2308D02*
X-34059D01*
X-34385Y2173D01*
X-34634Y1924D01*
X-34769Y1598D01*
Y1246D01*
X-34634Y920D01*
X-34385Y671D01*
X-34059Y536D01*
X-33707D01*
X-33381Y671D01*
X-33132Y920D01*
X-32997Y1246D01*
Y1598D01*
X-33132Y1924D01*
X-33381Y2173D01*
X-33707Y2308D01*
D02*
G37*
G36*
X-76680Y1553D02*
X-77033D01*
X-77358Y1418D01*
X-77607Y1169D01*
X-77742Y843D01*
Y491D01*
X-77607Y165D01*
X-77358Y-84D01*
X-77033Y-219D01*
X-76680D01*
X-76355Y-84D01*
X-76105Y165D01*
X-75971Y491D01*
Y843D01*
X-76105Y1169D01*
X-76355Y1418D01*
X-76680Y1553D01*
D02*
G37*
G36*
X-3176Y1441D02*
X-3606D01*
X-4004Y1276D01*
X-4309Y972D01*
X-4474Y574D01*
Y143D01*
X-4309Y-255D01*
X-4004Y-560D01*
X-3606Y-724D01*
X-3176D01*
X-2778Y-560D01*
X-2538Y-320D01*
X-2453Y-255D01*
X-1932Y-256D01*
X-1909Y-280D01*
X-1584Y-414D01*
X-1232D01*
X-906Y-280D01*
X-657Y-30D01*
X-522Y295D01*
Y648D01*
X-657Y973D01*
X-906Y1223D01*
X-1232Y1357D01*
X-1584D01*
X-1909Y1223D01*
X-1999Y1133D01*
X-2315Y1025D01*
X-2634Y1132D01*
X-2778Y1276D01*
X-3176Y1441D01*
D02*
G37*
G36*
X52887Y1376D02*
X52613D01*
X52359Y1271D01*
X52166Y1077D01*
X52061Y824D01*
Y550D01*
X52166Y297D01*
X52359Y103D01*
X52613Y-2D01*
X52627D01*
X52719Y-225D01*
X52913Y-419D01*
X53167Y-524D01*
X53441D01*
X53694Y-419D01*
X53888Y-225D01*
X53992Y28D01*
Y302D01*
X53888Y555D01*
X53694Y749D01*
X53441Y854D01*
X53426D01*
X53334Y1077D01*
X53140Y1271D01*
X52887Y1376D01*
D02*
G37*
G36*
X1640Y1579D02*
X1209D01*
X811Y1414D01*
X506Y1109D01*
X341Y711D01*
Y281D01*
X506Y-117D01*
X811Y-422D01*
X1209Y-587D01*
X1640D01*
X2037Y-422D01*
X2342Y-117D01*
X2507Y281D01*
Y711D01*
X2342Y1109D01*
X2037Y1414D01*
X1640Y1579D01*
D02*
G37*
G36*
X24758Y5570D02*
X24406D01*
X24080Y5435D01*
X23831Y5186D01*
X23696Y4861D01*
Y4508D01*
X23831Y4183D01*
X24080Y3934D01*
X23967Y3439D01*
X23920Y3326D01*
Y2973D01*
X24055Y2648D01*
X24304Y2399D01*
X24629Y2264D01*
X24787D01*
X25095Y2027D01*
X25197Y1812D01*
Y1595D01*
X25332Y1270D01*
X25547Y1055D01*
X25545Y1047D01*
X25296Y797D01*
X25161Y472D01*
Y120D01*
X25296Y-206D01*
X25545Y-455D01*
X25871Y-590D01*
X26223D01*
X26549Y-455D01*
X26798Y-206D01*
X26933Y120D01*
Y472D01*
X26798Y797D01*
X26583Y1013D01*
X26585Y1021D01*
X26834Y1270D01*
X26969Y1595D01*
Y1948D01*
X26834Y2273D01*
X26585Y2523D01*
X26259Y2657D01*
X26102D01*
X25794Y2895D01*
X25691Y3110D01*
Y3326D01*
X25556Y3651D01*
X25307Y3901D01*
X25421Y4395D01*
X25468Y4508D01*
Y4861D01*
X25333Y5186D01*
X25084Y5435D01*
X24758Y5570D01*
D02*
G37*
G36*
X56729Y1541D02*
X56454D01*
X56201Y1436D01*
X56007Y1242D01*
X55903Y989D01*
Y715D01*
X55928Y653D01*
X55913Y633D01*
X55907Y625D01*
X55910Y599D01*
X55896Y577D01*
X55943Y360D01*
X55950Y315D01*
Y313D01*
X55945Y266D01*
X55950Y261D01*
X55950Y214D01*
X55966Y198D01*
X55974Y140D01*
X55995Y125D01*
X56000Y99D01*
X56114Y26D01*
X56115Y-27D01*
X56139Y-51D01*
X56142Y-86D01*
X56213Y-143D01*
X56226Y-181D01*
X56300Y-218D01*
X56315Y-246D01*
X56341Y-253D01*
X56461Y-372D01*
X56495Y-372D01*
X56522Y-394D01*
X56533Y-393D01*
X56549Y-391D01*
X56677Y-519D01*
X56930Y-624D01*
X57204D01*
X57457Y-519D01*
X57651Y-325D01*
X57756Y-72D01*
Y139D01*
X57797Y180D01*
X57805Y187D01*
X57804Y315D01*
X57853Y433D01*
X57804Y550D01*
X57803Y676D01*
X57713Y766D01*
X57664Y884D01*
X57563Y985D01*
X57551Y997D01*
X57551Y998D01*
X57551Y998D01*
X57548Y1000D01*
X57542Y1009D01*
X57540Y1011D01*
X57538Y1013D01*
X57535Y1014D01*
X57531Y1019D01*
X57530Y1019D01*
X57503Y1142D01*
X57480Y1158D01*
X57471Y1185D01*
X57404Y1221D01*
X57392Y1244D01*
X57327Y1265D01*
X57316Y1279D01*
X57282Y1285D01*
X57277Y1288D01*
X57092Y1407D01*
X57082Y1405D01*
X57064Y1401D01*
X57039Y1414D01*
X57029Y1411D01*
X57012Y1406D01*
X56982Y1436D01*
X56729Y1541D01*
D02*
G37*
G36*
X91046Y958D02*
X90694D01*
X90368Y824D01*
X90119Y575D01*
X89984Y249D01*
Y-103D01*
X90119Y-429D01*
X90368Y-678D01*
X90694Y-813D01*
X91046D01*
X91372Y-678D01*
X91621Y-429D01*
X91756Y-103D01*
Y249D01*
X91621Y575D01*
X91372Y824D01*
X91046Y958D01*
D02*
G37*
G36*
X99516Y902D02*
X99163D01*
X98838Y767D01*
X98589Y518D01*
X98454Y192D01*
Y-160D01*
X98589Y-486D01*
X98838Y-735D01*
X99163Y-870D01*
X99516D01*
X99841Y-735D01*
X100091Y-486D01*
X100225Y-160D01*
Y192D01*
X100091Y518D01*
X99841Y767D01*
X99516Y902D01*
D02*
G37*
G36*
X8643Y767D02*
X8291D01*
X7965Y632D01*
X7716Y383D01*
X7581Y58D01*
Y-295D01*
X7716Y-620D01*
X7965Y-870D01*
X8291Y-1004D01*
X8643D01*
X8969Y-870D01*
X9218Y-620D01*
X9353Y-295D01*
Y58D01*
X9218Y383D01*
X8969Y632D01*
X8643Y767D01*
D02*
G37*
G36*
X-43131Y689D02*
X-43483D01*
X-43809Y554D01*
X-44058Y305D01*
X-44193Y-21D01*
Y-373D01*
X-44058Y-699D01*
X-43809Y-948D01*
X-43483Y-1083D01*
X-43131D01*
X-42805Y-948D01*
X-42556Y-699D01*
X-42421Y-373D01*
Y-21D01*
X-42556Y305D01*
X-42805Y554D01*
X-43131Y689D01*
D02*
G37*
G36*
X-20234Y1772D02*
X-20587D01*
X-20912Y1637D01*
X-21161Y1388D01*
X-21296Y1062D01*
Y710D01*
X-21288Y689D01*
X-21192Y187D01*
X-21441Y-62D01*
X-21576Y-388D01*
Y-740D01*
X-21441Y-1066D01*
X-21192Y-1315D01*
X-20866Y-1450D01*
X-20514D01*
X-20188Y-1315D01*
X-19939Y-1066D01*
X-19804Y-740D01*
Y-388D01*
X-19813Y-367D01*
X-19909Y135D01*
X-19659Y384D01*
X-19525Y710D01*
Y1062D01*
X-19659Y1388D01*
X-19909Y1637D01*
X-20234Y1772D01*
D02*
G37*
G36*
X38857Y-197D02*
X38505D01*
X38179Y-332D01*
X37930Y-581D01*
X37795Y-907D01*
Y-1259D01*
X37930Y-1585D01*
X38179Y-1834D01*
X38505Y-1969D01*
X38857D01*
X39183Y-1834D01*
X39432Y-1585D01*
X39567Y-1259D01*
Y-907D01*
X39432Y-581D01*
X39183Y-332D01*
X38857Y-197D01*
D02*
G37*
G36*
X14720Y-331D02*
X14368D01*
X14042Y-466D01*
X13793Y-715D01*
X13658Y-1041D01*
Y-1393D01*
X13793Y-1719D01*
X14042Y-1968D01*
X14368Y-2103D01*
X14720D01*
X15046Y-1968D01*
X15295Y-1719D01*
X15430Y-1393D01*
Y-1041D01*
X15295Y-715D01*
X15046Y-466D01*
X14720Y-331D01*
D02*
G37*
G36*
X85543Y36D02*
X85190D01*
X84865Y-99D01*
X84615Y-348D01*
X84481Y-674D01*
Y-1026D01*
X84615Y-1352D01*
X84799Y-1535D01*
X84801Y-1881D01*
X84753Y-2096D01*
X84734Y-2103D01*
X84485Y-2353D01*
X84350Y-2678D01*
Y-3031D01*
X84485Y-3356D01*
X84734Y-3605D01*
X85060Y-3740D01*
X85412D01*
X85738Y-3605D01*
X85987Y-3356D01*
X86122Y-3031D01*
Y-2678D01*
X85987Y-2353D01*
X85804Y-2169D01*
X85801Y-1823D01*
X85850Y-1609D01*
X85868Y-1601D01*
X86117Y-1352D01*
X86252Y-1026D01*
Y-674D01*
X86117Y-348D01*
X85868Y-99D01*
X85543Y36D01*
D02*
G37*
G36*
X6131Y-2149D02*
X5779D01*
X5453Y-2284D01*
X5204Y-2533D01*
X5069Y-2859D01*
Y-3211D01*
X5204Y-3537D01*
X5453Y-3786D01*
X5779Y-3921D01*
X6131D01*
X6457Y-3786D01*
X6706Y-3537D01*
X6841Y-3211D01*
Y-2859D01*
X6706Y-2533D01*
X6457Y-2284D01*
X6131Y-2149D01*
D02*
G37*
G36*
X-26064Y-1861D02*
X-26495D01*
X-26893Y-2026D01*
X-27197Y-2330D01*
X-27362Y-2728D01*
Y-3159D01*
X-27197Y-3557D01*
X-26893Y-3861D01*
X-26495Y-4026D01*
X-26064D01*
X-25666Y-3861D01*
X-25362Y-3557D01*
X-25197Y-3159D01*
Y-2728D01*
X-25362Y-2330D01*
X-25666Y-2026D01*
X-26064Y-1861D01*
D02*
G37*
G36*
X-76090Y-3171D02*
X-76442D01*
X-76768Y-3306D01*
X-77017Y-3556D01*
X-77152Y-3881D01*
Y-4233D01*
X-77017Y-4559D01*
X-76768Y-4808D01*
X-76442Y-4943D01*
X-76090D01*
X-75764Y-4808D01*
X-75515Y-4559D01*
X-75380Y-4233D01*
Y-3881D01*
X-75515Y-3556D01*
X-75764Y-3306D01*
X-76090Y-3171D01*
D02*
G37*
G36*
X60092Y-2708D02*
X59818D01*
X59564Y-2813D01*
X59371Y-3007D01*
X59266Y-3260D01*
Y-3534D01*
X59338Y-3709D01*
X59326Y-3734D01*
X59321Y-3743D01*
X59329Y-3768D01*
X59324Y-3781D01*
X59319Y-3791D01*
X59405Y-3997D01*
X59418Y-4036D01*
X59419Y-4069D01*
X59427Y-4076D01*
X59437Y-4133D01*
X59453Y-4145D01*
X59474Y-4208D01*
X59497Y-4219D01*
X59507Y-4243D01*
X59678Y-4314D01*
X59690Y-4331D01*
X59699Y-4349D01*
X59704Y-4354D01*
X59705Y-4356D01*
X59707Y-4357D01*
X59708Y-4359D01*
X59717Y-4365D01*
X59744Y-4389D01*
X59763Y-4407D01*
X59986Y-4496D01*
X60208Y-4588D01*
X60213Y-4586D01*
X60218Y-4588D01*
X60325Y-4541D01*
X60357Y-4574D01*
X60608Y-4678D01*
X60771Y-4841D01*
X61024Y-4946D01*
X61298D01*
X61551Y-4841D01*
X61745Y-4647D01*
X61850Y-4394D01*
Y-4120D01*
X61745Y-3866D01*
X61551Y-3672D01*
X61298Y-3568D01*
X61111D01*
X61053Y-3428D01*
X60965Y-3206D01*
X60946Y-3187D01*
X60922Y-3159D01*
X60917Y-3151D01*
X60915Y-3150D01*
X60913Y-3148D01*
X60911Y-3146D01*
X60907Y-3141D01*
X60888Y-3132D01*
X60872Y-3121D01*
X60804Y-2959D01*
X60800Y-2949D01*
X60777Y-2939D01*
X60770Y-2926D01*
X60765Y-2917D01*
X60702Y-2896D01*
X60690Y-2879D01*
X60633Y-2869D01*
X60626Y-2862D01*
X60594Y-2860D01*
X60554Y-2847D01*
X60348Y-2762D01*
X60325Y-2772D01*
X60301Y-2764D01*
X60267Y-2781D01*
X60092Y-2708D01*
D02*
G37*
G36*
X-43131Y-3248D02*
X-43483D01*
X-43809Y-3383D01*
X-44058Y-3632D01*
X-44193Y-3958D01*
Y-4310D01*
X-44058Y-4636D01*
X-43809Y-4885D01*
X-43483Y-5020D01*
X-43131D01*
X-42805Y-4885D01*
X-42556Y-4636D01*
X-42421Y-4310D01*
Y-3958D01*
X-42556Y-3632D01*
X-42805Y-3383D01*
X-43131Y-3248D01*
D02*
G37*
G36*
X-35611Y-3445D02*
X-36042D01*
X-36440Y-3610D01*
X-36745Y-3914D01*
X-36909Y-4312D01*
Y-4743D01*
X-36745Y-5141D01*
X-36440Y-5445D01*
X-36042Y-5610D01*
X-35611D01*
X-35214Y-5445D01*
X-34909Y-5141D01*
X-34744Y-4743D01*
Y-4312D01*
X-34909Y-3914D01*
X-35214Y-3610D01*
X-35611Y-3445D01*
D02*
G37*
G36*
X19006Y-3837D02*
X18732D01*
X18479Y-3942D01*
X18285Y-4136D01*
X18180Y-4389D01*
Y-4663D01*
X18237Y-4802D01*
Y-5079D01*
X18195Y-5180D01*
Y-5454D01*
X18300Y-5708D01*
X18494Y-5901D01*
X18747Y-6006D01*
X19021D01*
X19275Y-5901D01*
X19468Y-5708D01*
X19573Y-5454D01*
Y-5180D01*
X19516Y-5042D01*
Y-4765D01*
X19558Y-4663D01*
Y-4389D01*
X19453Y-4136D01*
X19259Y-3942D01*
X19006Y-3837D01*
D02*
G37*
G36*
X11343Y-4279D02*
X10990D01*
X10665Y-4414D01*
X10415Y-4663D01*
X10281Y-4989D01*
Y-5342D01*
X10415Y-5667D01*
X10665Y-5916D01*
X10990Y-6051D01*
X11343D01*
X11668Y-5916D01*
X11917Y-5667D01*
X12052Y-5342D01*
Y-4989D01*
X11917Y-4663D01*
X11668Y-4414D01*
X11343Y-4279D01*
D02*
G37*
G36*
X15252Y-3636D02*
X14900D01*
X14574Y-3771D01*
X14325Y-4020D01*
X14190Y-4345D01*
Y-4505D01*
X13983Y-4803D01*
X13744Y-4925D01*
X13546D01*
X13220Y-5060D01*
X12971Y-5309D01*
X12836Y-5635D01*
Y-5987D01*
X12971Y-6313D01*
X13220Y-6562D01*
X13546Y-6697D01*
X13898D01*
X14224Y-6562D01*
X14473Y-6313D01*
X14608Y-5987D01*
Y-5827D01*
X14815Y-5529D01*
X15055Y-5407D01*
X15252D01*
X15578Y-5272D01*
X15827Y-5023D01*
X15962Y-4698D01*
Y-4345D01*
X15827Y-4020D01*
X15578Y-3771D01*
X15252Y-3636D01*
D02*
G37*
G36*
X-55532Y-5315D02*
X-55885D01*
X-56210Y-5450D01*
X-56460Y-5699D01*
X-56595Y-6025D01*
Y-6377D01*
X-56460Y-6703D01*
X-56210Y-6952D01*
X-55885Y-7087D01*
X-55532D01*
X-55207Y-6952D01*
X-54958Y-6703D01*
X-54823Y-6377D01*
Y-6025D01*
X-54958Y-5699D01*
X-55207Y-5450D01*
X-55532Y-5315D01*
D02*
G37*
G36*
X-74233Y-6791D02*
X-74586D01*
X-74911Y-6926D01*
X-75160Y-7175D01*
X-75295Y-7501D01*
Y-7853D01*
X-75160Y-8179D01*
X-74911Y-8428D01*
X-74586Y-8563D01*
X-74233D01*
X-73908Y-8428D01*
X-73659Y-8179D01*
X-73524Y-7853D01*
Y-7501D01*
X-73659Y-7175D01*
X-73908Y-6926D01*
X-74233Y-6791D01*
D02*
G37*
G36*
X98421Y-6820D02*
X98068D01*
X97742Y-6955D01*
X97493Y-7204D01*
X97359Y-7529D01*
Y-7882D01*
X97493Y-8207D01*
X97742Y-8457D01*
X98068Y-8591D01*
X98421D01*
X98746Y-8457D01*
X98995Y-8207D01*
X99130Y-7882D01*
Y-7529D01*
X98995Y-7204D01*
X98746Y-6955D01*
X98421Y-6820D01*
D02*
G37*
G36*
X8395Y-6988D02*
X8042D01*
X7717Y-7123D01*
X7468Y-7372D01*
X7333Y-7698D01*
Y-8050D01*
X7468Y-8376D01*
X7717Y-8625D01*
X8042Y-8760D01*
X8395D01*
X8720Y-8625D01*
X8969Y-8376D01*
X9104Y-8050D01*
Y-7698D01*
X8969Y-7372D01*
X8720Y-7123D01*
X8395Y-6988D01*
D02*
G37*
G36*
X16335Y-7283D02*
X15983D01*
X15657Y-7418D01*
X15408Y-7667D01*
X15273Y-7993D01*
Y-8345D01*
X15408Y-8671D01*
X15657Y-8920D01*
X15983Y-9055D01*
X16335D01*
X16661Y-8920D01*
X16910Y-8671D01*
X17045Y-8345D01*
Y-7993D01*
X16910Y-7667D01*
X16661Y-7418D01*
X16335Y-7283D01*
D02*
G37*
G36*
X21688Y-7173D02*
X21336D01*
X21010Y-7308D01*
X20761Y-7557D01*
X20626Y-7883D01*
Y-8235D01*
X20761Y-8561D01*
X21010Y-8810D01*
X21336Y-8945D01*
X21688D01*
X22014Y-8810D01*
X22227Y-8597D01*
X22246Y-8594D01*
X22466Y-8606D01*
X22758Y-8672D01*
X22828Y-8841D01*
X23077Y-9090D01*
X23403Y-9225D01*
X23755D01*
X24081Y-9090D01*
X24330Y-8841D01*
X24465Y-8515D01*
Y-8163D01*
X24330Y-7837D01*
X24081Y-7588D01*
X23755Y-7453D01*
X23403D01*
X23077Y-7588D01*
X22864Y-7801D01*
X22845Y-7804D01*
X22625Y-7791D01*
X22333Y-7726D01*
X22263Y-7557D01*
X22014Y-7308D01*
X21688Y-7173D01*
D02*
G37*
G36*
X19299Y-7713D02*
X18947D01*
X18621Y-7848D01*
X18372Y-8097D01*
X18237Y-8423D01*
Y-8775D01*
X18372Y-9101D01*
X18621Y-9350D01*
X18947Y-9485D01*
X19299D01*
X19624Y-9350D01*
X19874Y-9101D01*
X20008Y-8775D01*
Y-8423D01*
X19874Y-8097D01*
X19624Y-7848D01*
X19299Y-7713D01*
D02*
G37*
G36*
X-56517Y-7776D02*
X-56869D01*
X-57195Y-7910D01*
X-57444Y-8160D01*
X-57579Y-8485D01*
Y-8838D01*
X-57444Y-9163D01*
X-57195Y-9412D01*
X-56869Y-9547D01*
X-56517D01*
X-56191Y-9412D01*
X-55942Y-9163D01*
X-55807Y-8838D01*
Y-8485D01*
X-55942Y-8160D01*
X-56191Y-7910D01*
X-56517Y-7776D01*
D02*
G37*
G36*
X-30199Y-7495D02*
X-30630D01*
X-31028Y-7659D01*
X-31332Y-7964D01*
X-31497Y-8362D01*
Y-8793D01*
X-31332Y-9191D01*
X-31028Y-9495D01*
X-30630Y-9660D01*
X-30199D01*
X-29801Y-9495D01*
X-29497Y-9191D01*
X-29332Y-8793D01*
Y-8362D01*
X-29497Y-7964D01*
X-29801Y-7659D01*
X-30199Y-7495D01*
D02*
G37*
G36*
X101799Y-7933D02*
X101447D01*
X101121Y-8068D01*
X100872Y-8318D01*
X100737Y-8643D01*
Y-8996D01*
X100872Y-9321D01*
X101121Y-9570D01*
X101447Y-9705D01*
X101799D01*
X102125Y-9570D01*
X102374Y-9321D01*
X102509Y-8996D01*
Y-8643D01*
X102374Y-8318D01*
X102125Y-8068D01*
X101799Y-7933D01*
D02*
G37*
G36*
X12332Y-9818D02*
X11979D01*
X11654Y-9953D01*
X11527Y-10080D01*
X11220Y-10156D01*
X10914Y-10080D01*
X10787Y-9953D01*
X10462Y-9818D01*
X10109D01*
X9784Y-9953D01*
X9534Y-10202D01*
X9400Y-10527D01*
Y-10880D01*
X9534Y-11206D01*
X9784Y-11455D01*
X10109Y-11590D01*
X10462D01*
X10787Y-11455D01*
X10914Y-11328D01*
X11220Y-11252D01*
X11527Y-11328D01*
X11654Y-11455D01*
X11979Y-11590D01*
X12332D01*
X12657Y-11455D01*
X12907Y-11206D01*
X13041Y-10880D01*
Y-10527D01*
X12907Y-10202D01*
X12657Y-9953D01*
X12332Y-9818D01*
D02*
G37*
G36*
X54029Y-8579D02*
X53676D01*
X53351Y-8714D01*
X53102Y-8963D01*
X52967Y-9289D01*
Y-9641D01*
X53102Y-9967D01*
X53351Y-10216D01*
X53676Y-10351D01*
X54029D01*
X54355Y-10216D01*
X54604Y-9967D01*
X54738Y-9641D01*
Y-9289D01*
X54604Y-8963D01*
X54355Y-8714D01*
X54029Y-8579D01*
D02*
G37*
G36*
X-16950Y-10138D02*
X-17302D01*
X-17628Y-10273D01*
X-17877Y-10522D01*
X-18012Y-10847D01*
Y-11200D01*
X-17877Y-11525D01*
X-17628Y-11775D01*
X-17302Y-11909D01*
X-16950D01*
X-16624Y-11775D01*
X-16375Y-11525D01*
X-16240Y-11200D01*
Y-10847D01*
X-16375Y-10522D01*
X-16624Y-10273D01*
X-16950Y-10138D01*
D02*
G37*
G36*
X14792Y-10432D02*
X14440D01*
X14114Y-10567D01*
X13865Y-10817D01*
X13730Y-11142D01*
Y-11495D01*
X13865Y-11820D01*
X14114Y-12069D01*
X14440Y-12204D01*
X14792D01*
X15118Y-12069D01*
X15367Y-11820D01*
X15502Y-11495D01*
Y-11142D01*
X15367Y-10817D01*
X15118Y-10567D01*
X14792Y-10432D01*
D02*
G37*
G36*
X4233Y-10317D02*
X3803D01*
X3405Y-10482D01*
X3100Y-10787D01*
X2935Y-11185D01*
Y-11615D01*
X3100Y-12013D01*
X3405Y-12318D01*
X3803Y-12483D01*
X4233D01*
X4631Y-12318D01*
X4936Y-12013D01*
X5101Y-11615D01*
Y-11185D01*
X4936Y-10787D01*
X4631Y-10482D01*
X4233Y-10317D01*
D02*
G37*
G36*
X-58288Y-10728D02*
X-58641D01*
X-58966Y-10863D01*
X-59215Y-11112D01*
X-59350Y-11438D01*
Y-11790D01*
X-59215Y-12116D01*
X-58966Y-12365D01*
X-58641Y-12500D01*
X-58288D01*
X-57963Y-12365D01*
X-57714Y-12116D01*
X-57579Y-11790D01*
Y-11438D01*
X-57714Y-11112D01*
X-57963Y-10863D01*
X-58288Y-10728D01*
D02*
G37*
G36*
X-55447Y-10827D02*
X-55800D01*
X-56125Y-10962D01*
X-56375Y-11211D01*
X-56510Y-11536D01*
Y-11889D01*
X-56375Y-12214D01*
X-56125Y-12464D01*
X-55800Y-12598D01*
X-55447D01*
X-55122Y-12464D01*
X-54873Y-12214D01*
X-54738Y-11889D01*
Y-11536D01*
X-54873Y-11211D01*
X-55122Y-10962D01*
X-55447Y-10827D01*
D02*
G37*
G36*
X-2230Y-10138D02*
X-2583D01*
X-2908Y-10273D01*
X-3157Y-10522D01*
X-3292Y-10847D01*
Y-11200D01*
X-3157Y-11525D01*
X-2908Y-11775D01*
X-2630Y-11890D01*
X-2581Y-12053D01*
X-2578Y-12410D01*
X-2640Y-12435D01*
X-2890Y-12685D01*
X-3320Y-12921D01*
X-3469Y-12876D01*
X-3662Y-12795D01*
X-4015D01*
X-4340Y-12930D01*
X-4589Y-13179D01*
X-4724Y-13505D01*
Y-13857D01*
X-4589Y-14183D01*
X-4340Y-14432D01*
X-4015Y-14567D01*
X-3662D01*
X-3337Y-14432D01*
X-3088Y-14183D01*
X-2658Y-13947D01*
X-2509Y-13992D01*
X-2315Y-14072D01*
X-1963D01*
X-1637Y-13937D01*
X-1388Y-13688D01*
X-1316Y-13516D01*
X-927Y-13339D01*
X-753Y-13327D01*
X-504Y-13430D01*
X-152D01*
X174Y-13295D01*
X423Y-13046D01*
X558Y-12720D01*
Y-12368D01*
X423Y-12043D01*
X174Y-11793D01*
X-152Y-11658D01*
X-504D01*
X-829Y-11793D01*
X-1079Y-12043D01*
X-1150Y-12215D01*
X-1454Y-12353D01*
X-1700Y-12262D01*
X-1723Y-12241D01*
X-1752Y-12166D01*
X-1736Y-11606D01*
X-1656Y-11525D01*
X-1521Y-11200D01*
Y-10847D01*
X-1656Y-10522D01*
X-1905Y-10273D01*
X-2230Y-10138D01*
D02*
G37*
G36*
X-74430Y-11319D02*
X-74783D01*
X-75108Y-11454D01*
X-75357Y-11703D01*
X-75492Y-12028D01*
Y-12381D01*
X-75357Y-12707D01*
X-75108Y-12956D01*
X-74783Y-13091D01*
X-74430D01*
X-74104Y-12956D01*
X-73855Y-12707D01*
X-73721Y-12381D01*
Y-12028D01*
X-73855Y-11703D01*
X-74104Y-11454D01*
X-74430Y-11319D01*
D02*
G37*
G36*
X98405Y-10039D02*
X98052D01*
X97727Y-10174D01*
X97477Y-10423D01*
X97342Y-10749D01*
Y-11101D01*
X97477Y-11427D01*
X97632Y-11582D01*
X97620Y-11991D01*
X97566Y-12151D01*
X97546Y-12159D01*
X97297Y-12408D01*
X97162Y-12734D01*
Y-13086D01*
X97297Y-13412D01*
X97546Y-13661D01*
X97872Y-13796D01*
X98224D01*
X98550Y-13661D01*
X98799Y-13412D01*
X98934Y-13086D01*
Y-12734D01*
X98799Y-12408D01*
X98644Y-12253D01*
X98656Y-11844D01*
X98710Y-11684D01*
X98730Y-11676D01*
X98979Y-11427D01*
X99114Y-11101D01*
Y-10749D01*
X98979Y-10423D01*
X98730Y-10174D01*
X98405Y-10039D01*
D02*
G37*
G36*
X-71004Y-12519D02*
X-71357D01*
X-71682Y-12654D01*
X-71931Y-12903D01*
X-72066Y-13229D01*
Y-13581D01*
X-71931Y-13906D01*
X-71682Y-14156D01*
X-71357Y-14291D01*
X-71004D01*
X-70679Y-14156D01*
X-70429Y-13906D01*
X-70294Y-13581D01*
Y-13229D01*
X-70429Y-12903D01*
X-70679Y-12654D01*
X-71004Y-12519D01*
D02*
G37*
G36*
X23823Y-13347D02*
X23471D01*
X23145Y-13482D01*
X22896Y-13731D01*
X22761Y-14057D01*
Y-14409D01*
X22896Y-14735D01*
X23145Y-14984D01*
X23471Y-15119D01*
X23823D01*
X24149Y-14984D01*
X24398Y-14735D01*
X24533Y-14409D01*
Y-14057D01*
X24398Y-13731D01*
X24149Y-13482D01*
X23823Y-13347D01*
D02*
G37*
G36*
X-29281Y-14060D02*
X-29633D01*
X-29959Y-14195D01*
X-30208Y-14444D01*
X-30343Y-14770D01*
Y-15122D01*
X-30208Y-15448D01*
X-29959Y-15697D01*
X-29633Y-15832D01*
X-29281D01*
X-28955Y-15697D01*
X-28706Y-15448D01*
X-28571Y-15122D01*
Y-14770D01*
X-28706Y-14444D01*
X-28955Y-14195D01*
X-29281Y-14060D01*
D02*
G37*
G36*
X9133Y-14285D02*
X8781D01*
X8455Y-14420D01*
X8206Y-14669D01*
X8071Y-14995D01*
Y-15347D01*
X8206Y-15673D01*
X8455Y-15922D01*
X8781Y-16057D01*
X9133D01*
X9459Y-15922D01*
X9708Y-15673D01*
X9843Y-15347D01*
Y-14995D01*
X9708Y-14669D01*
X9459Y-14420D01*
X9133Y-14285D01*
D02*
G37*
G36*
X-9878Y-14665D02*
X-10309D01*
X-10707Y-14830D01*
X-11011Y-15135D01*
X-11176Y-15533D01*
Y-15963D01*
X-11011Y-16361D01*
X-10707Y-16666D01*
X-10309Y-16831D01*
X-9878D01*
X-9480Y-16666D01*
X-9176Y-16361D01*
X-9011Y-15963D01*
Y-15533D01*
X-9176Y-15135D01*
X-9480Y-14830D01*
X-9878Y-14665D01*
D02*
G37*
G36*
X-38170Y-15260D02*
X-38601D01*
X-38999Y-15425D01*
X-39304Y-15730D01*
X-39469Y-16128D01*
Y-16558D01*
X-39304Y-16956D01*
X-38999Y-17261D01*
X-38601Y-17426D01*
X-38170D01*
X-37773Y-17261D01*
X-37468Y-16956D01*
X-37303Y-16558D01*
Y-16128D01*
X-37468Y-15730D01*
X-37773Y-15425D01*
X-38170Y-15260D01*
D02*
G37*
G36*
X-7092Y-15664D02*
X-7445D01*
X-7770Y-15799D01*
X-8020Y-16049D01*
X-8154Y-16374D01*
Y-16727D01*
X-8020Y-17052D01*
X-7770Y-17301D01*
X-7445Y-17436D01*
X-7092D01*
X-6767Y-17301D01*
X-6518Y-17052D01*
X-6383Y-16727D01*
Y-16374D01*
X-6518Y-16049D01*
X-6767Y-15799D01*
X-7092Y-15664D01*
D02*
G37*
G36*
X23648Y-16004D02*
X23296D01*
X22970Y-16139D01*
X22721Y-16388D01*
X22586Y-16714D01*
Y-17066D01*
X22721Y-17392D01*
X22970Y-17641D01*
X23296Y-17776D01*
X23648D01*
X23974Y-17641D01*
X24223Y-17392D01*
X24358Y-17066D01*
Y-16714D01*
X24223Y-16388D01*
X23974Y-16139D01*
X23648Y-16004D01*
D02*
G37*
G36*
X-28221Y-16089D02*
X-28573D01*
X-28899Y-16224D01*
X-29148Y-16473D01*
X-29283Y-16799D01*
Y-17151D01*
X-29148Y-17477D01*
X-28899Y-17726D01*
X-28573Y-17861D01*
X-28221D01*
X-27895Y-17726D01*
X-27646Y-17477D01*
X-27511Y-17151D01*
Y-16799D01*
X-27646Y-16473D01*
X-27895Y-16224D01*
X-28221Y-16089D01*
D02*
G37*
G36*
X20978Y-16206D02*
X20626D01*
X20300Y-16341D01*
X20051Y-16590D01*
X19916Y-16915D01*
Y-17268D01*
X20051Y-17593D01*
X20300Y-17843D01*
X20626Y-17977D01*
X20978D01*
X21304Y-17843D01*
X21553Y-17593D01*
X21688Y-17268D01*
Y-16915D01*
X21553Y-16590D01*
X21304Y-16341D01*
X20978Y-16206D01*
D02*
G37*
G36*
X11382Y-16649D02*
X11029D01*
X10704Y-16784D01*
X10454Y-17033D01*
X10319Y-17359D01*
Y-17711D01*
X10454Y-18037D01*
X10704Y-18286D01*
X11029Y-18421D01*
X11382D01*
X11707Y-18286D01*
X11956Y-18037D01*
X12091Y-17711D01*
Y-17359D01*
X11956Y-17033D01*
X11707Y-16784D01*
X11382Y-16649D01*
D02*
G37*
G36*
X15539Y-17403D02*
X15186D01*
X14861Y-17538D01*
X14611Y-17787D01*
X14477Y-18113D01*
Y-18465D01*
X14611Y-18791D01*
X14861Y-19040D01*
X15186Y-19175D01*
X15539D01*
X15864Y-19040D01*
X16113Y-18791D01*
X16248Y-18465D01*
Y-18113D01*
X16113Y-17787D01*
X15864Y-17538D01*
X15539Y-17403D01*
D02*
G37*
G36*
X-48052Y-19094D02*
X-48405D01*
X-48730Y-19229D01*
X-48979Y-19478D01*
X-49114Y-19804D01*
Y-20156D01*
X-48979Y-20482D01*
X-48730Y-20731D01*
X-48405Y-20866D01*
X-48052D01*
X-47727Y-20731D01*
X-47477Y-20482D01*
X-47343Y-20156D01*
Y-19804D01*
X-47477Y-19478D01*
X-47727Y-19229D01*
X-48052Y-19094D01*
D02*
G37*
G36*
X-52580Y-19488D02*
X-52932D01*
X-53258Y-19623D01*
X-53507Y-19872D01*
X-53642Y-20198D01*
Y-20550D01*
X-53507Y-20876D01*
X-53258Y-21125D01*
X-52932Y-21260D01*
X-52580D01*
X-52254Y-21125D01*
X-52005Y-20876D01*
X-51870Y-20550D01*
Y-20198D01*
X-52005Y-19872D01*
X-52254Y-19623D01*
X-52580Y-19488D01*
D02*
G37*
G36*
X9847Y-19193D02*
X9416D01*
X9018Y-19358D01*
X8713Y-19662D01*
X8548Y-20060D01*
Y-20491D01*
X8713Y-20889D01*
X9018Y-21193D01*
X9416Y-21358D01*
X9847D01*
X10244Y-21193D01*
X10549Y-20889D01*
X10714Y-20491D01*
Y-20060D01*
X10549Y-19662D01*
X10244Y-19358D01*
X9847Y-19193D01*
D02*
G37*
G36*
X-80926Y-19980D02*
X-81279D01*
X-81604Y-20115D01*
X-81853Y-20364D01*
X-81988Y-20690D01*
Y-21042D01*
X-81853Y-21368D01*
X-81604Y-21617D01*
X-81279Y-21752D01*
X-80926D01*
X-80601Y-21617D01*
X-80351Y-21368D01*
X-80216Y-21042D01*
Y-20690D01*
X-80351Y-20364D01*
X-80601Y-20115D01*
X-80926Y-19980D01*
D02*
G37*
G36*
X26460Y-20540D02*
X26108D01*
X25782Y-20675D01*
X25533Y-20924D01*
X25398Y-21250D01*
Y-21602D01*
X25533Y-21928D01*
X25782Y-22177D01*
X26108Y-22312D01*
X26460D01*
X26786Y-22177D01*
X27035Y-21928D01*
X27170Y-21602D01*
Y-21250D01*
X27035Y-20924D01*
X26786Y-20675D01*
X26460Y-20540D01*
D02*
G37*
G36*
X-27356Y-18996D02*
X-27709D01*
X-28034Y-19131D01*
X-28283Y-19380D01*
X-28418Y-19706D01*
Y-20058D01*
X-28319Y-20298D01*
X-28306Y-20434D01*
X-28501Y-20873D01*
X-28599Y-20914D01*
X-28848Y-21163D01*
X-28983Y-21489D01*
Y-21841D01*
X-28848Y-22167D01*
X-28599Y-22416D01*
X-28273Y-22551D01*
X-27921D01*
X-27595Y-22416D01*
X-27346Y-22167D01*
X-27211Y-21841D01*
Y-21489D01*
X-27310Y-21249D01*
X-27323Y-21112D01*
X-27128Y-20673D01*
X-27031Y-20633D01*
X-26781Y-20384D01*
X-26647Y-20058D01*
Y-19706D01*
X-26781Y-19380D01*
X-27031Y-19131D01*
X-27356Y-18996D01*
D02*
G37*
G36*
X-1312Y-20484D02*
X-1742D01*
X-2140Y-20649D01*
X-2445Y-20953D01*
X-2610Y-21351D01*
Y-21782D01*
X-2445Y-22180D01*
X-2140Y-22484D01*
X-1742Y-22649D01*
X-1312D01*
X-914Y-22484D01*
X-609Y-22180D01*
X-444Y-21782D01*
Y-21351D01*
X-609Y-20953D01*
X-914Y-20649D01*
X-1312Y-20484D01*
D02*
G37*
G36*
X47272Y-16949D02*
X46998D01*
X46744Y-17054D01*
X46551Y-17248D01*
X46446Y-17501D01*
Y-17775D01*
X46518Y-17950D01*
X46506Y-17975D01*
X46501Y-17984D01*
X46509Y-18008D01*
X46503Y-18022D01*
X46499Y-18032D01*
X46585Y-18238D01*
X46598Y-18277D01*
X46599Y-18310D01*
X46607Y-18317D01*
X46617Y-18374D01*
X46633Y-18386D01*
X46654Y-18449D01*
X46677Y-18460D01*
X46687Y-18484D01*
X46858Y-18555D01*
X46870Y-18572D01*
X46878Y-18590D01*
X46884Y-18595D01*
X46885Y-18597D01*
X46887Y-18598D01*
X46888Y-18600D01*
X46897Y-18606D01*
X46924Y-18630D01*
X46943Y-18648D01*
X47166Y-18737D01*
X47388Y-18829D01*
X47393Y-18827D01*
X47398Y-18828D01*
X47504Y-18782D01*
X48408Y-19686D01*
X48348Y-19835D01*
X48253Y-20054D01*
X48253Y-20081D01*
X48250Y-20118D01*
X48248Y-20128D01*
X48249Y-20130D01*
X48248Y-20132D01*
X48249Y-20135D01*
X48249Y-20141D01*
X48255Y-20159D01*
X48259Y-20181D01*
X48188Y-20355D01*
X48198Y-20378D01*
X48190Y-20402D01*
X48221Y-20461D01*
X48217Y-20482D01*
X48251Y-20528D01*
X48250Y-20539D01*
X48272Y-20563D01*
X48292Y-20601D01*
X48345Y-20727D01*
X48349Y-20741D01*
X48388Y-20924D01*
X48395Y-21017D01*
X48366Y-21318D01*
X48364Y-21326D01*
X48322Y-21407D01*
X48317Y-21452D01*
X48219Y-21605D01*
X48224Y-21627D01*
X48213Y-21646D01*
X48218Y-21664D01*
X48171Y-21711D01*
X48066Y-21964D01*
Y-22238D01*
X48171Y-22491D01*
X48365Y-22685D01*
X48618Y-22790D01*
X48892D01*
X48973Y-22756D01*
X48987Y-22767D01*
X49011Y-22763D01*
X49032Y-22777D01*
X49234Y-22733D01*
X49311Y-22744D01*
X49324Y-22735D01*
X49371Y-22736D01*
X49402Y-22708D01*
X49471Y-22698D01*
X49486Y-22678D01*
X49510Y-22673D01*
X49525Y-22650D01*
X50016Y-22716D01*
X50116Y-22797D01*
X50178Y-22948D01*
X50372Y-23142D01*
X50625Y-23247D01*
X50899D01*
X51153Y-23142D01*
X51278Y-23135D01*
X51743Y-23299D01*
X51871Y-23561D01*
X51879Y-23581D01*
Y-23798D01*
X51984Y-24051D01*
X52178Y-24245D01*
X52431Y-24350D01*
X52705D01*
X52958Y-24245D01*
X53152Y-24051D01*
X53257Y-23798D01*
Y-23524D01*
X53152Y-23270D01*
X53131Y-23249D01*
X53202Y-22692D01*
X53285Y-22617D01*
X53360Y-22583D01*
X53406Y-22568D01*
X53456Y-22562D01*
X53687Y-22572D01*
X53712Y-22597D01*
X53965Y-22702D01*
X54239D01*
X54432Y-22622D01*
X54588Y-22638D01*
X54988Y-22808D01*
X55037Y-22926D01*
X55231Y-23120D01*
X55484Y-23225D01*
X55758D01*
X56011Y-23120D01*
X56205Y-22926D01*
X56228Y-22872D01*
X56413Y-22795D01*
X56607Y-22601D01*
X56712Y-22348D01*
Y-22074D01*
X56700Y-22046D01*
X56805Y-21865D01*
X57049Y-21610D01*
X57227D01*
X57481Y-21505D01*
X57674Y-21311D01*
X57779Y-21058D01*
Y-20919D01*
X57834Y-20897D01*
X57859Y-20873D01*
X57895Y-20840D01*
X57911Y-20827D01*
X57911Y-20826D01*
X57911Y-20826D01*
X57915Y-20823D01*
X57920Y-20819D01*
X57921Y-20818D01*
X57930Y-20811D01*
X57957Y-20760D01*
X57970Y-20741D01*
X58129Y-20639D01*
X58138Y-20633D01*
X58143Y-20609D01*
X58163Y-20593D01*
X58172Y-20534D01*
X58190Y-20515D01*
X58190Y-20468D01*
X58196Y-20461D01*
X58190Y-20405D01*
X58194Y-20373D01*
X58241Y-20155D01*
X58228Y-20134D01*
X58231Y-20109D01*
X58212Y-20083D01*
X58239Y-20017D01*
Y-19743D01*
X58134Y-19490D01*
X57940Y-19296D01*
X57687Y-19191D01*
X57413D01*
X57351Y-19217D01*
X57338Y-19222D01*
X57318Y-19226D01*
X57317Y-19227D01*
X57016Y-19207D01*
X56841Y-19097D01*
X56711Y-18953D01*
X56700Y-18927D01*
X56690Y-18923D01*
X56677Y-18917D01*
X56666Y-18895D01*
X56629Y-18883D01*
X56558Y-18712D01*
X56364Y-18518D01*
X56111Y-18413D01*
X55837D01*
X55584Y-18518D01*
X55390Y-18712D01*
X55316Y-18891D01*
X55280Y-18903D01*
X55269Y-18925D01*
X55255Y-18931D01*
X55245Y-18935D01*
X55161Y-19141D01*
X55143Y-19178D01*
X55121Y-19202D01*
X55122Y-19212D01*
X55088Y-19261D01*
X55092Y-19281D01*
X55062Y-19341D01*
X55066Y-19351D01*
X55070Y-19365D01*
X55061Y-19388D01*
X55132Y-19558D01*
X55129Y-19576D01*
X55122Y-19596D01*
X55122Y-19603D01*
X55122Y-19605D01*
X55122Y-19608D01*
X55122Y-19610D01*
X55124Y-19620D01*
X55126Y-19654D01*
X55123Y-19688D01*
X55121Y-19699D01*
X55122Y-19701D01*
X55122Y-19703D01*
X55122Y-19705D01*
X55122Y-19712D01*
X55128Y-19729D01*
X55133Y-19752D01*
X55062Y-19926D01*
X55072Y-19949D01*
X55064Y-19973D01*
X55094Y-20032D01*
X55091Y-20053D01*
X55124Y-20099D01*
X55124Y-20110D01*
X55146Y-20134D01*
X55165Y-20171D01*
X55252Y-20377D01*
X55262Y-20381D01*
X55275Y-20386D01*
X55287Y-20409D01*
X55297Y-20412D01*
X55323Y-20421D01*
X55394Y-20592D01*
X55588Y-20786D01*
X55841Y-20891D01*
X56030Y-21189D01*
X55905Y-21522D01*
X55886D01*
X55633Y-21627D01*
X55439Y-21821D01*
X54954Y-21834D01*
X54735Y-21740D01*
X54686Y-21623D01*
X54493Y-21429D01*
X54416Y-21397D01*
X54277Y-21259D01*
X54142Y-21203D01*
X53962Y-20777D01*
X53942Y-20654D01*
X53959Y-20612D01*
Y-20549D01*
X54066Y-20443D01*
X54171Y-20189D01*
Y-19915D01*
X54066Y-19662D01*
X53872Y-19468D01*
X53619Y-19363D01*
X53345D01*
X53175Y-19433D01*
X53072Y-19185D01*
X52878Y-18991D01*
X52625Y-18886D01*
X52351D01*
X52289Y-18912D01*
X52269Y-18897D01*
X52261Y-18890D01*
X52235Y-18894D01*
X52214Y-18880D01*
X51997Y-18927D01*
X51951Y-18933D01*
X51949D01*
X51903Y-18929D01*
X51897Y-18933D01*
X51850Y-18933D01*
X51834Y-18949D01*
X51776Y-18958D01*
X51761Y-18978D01*
X51735Y-18984D01*
X51627Y-19152D01*
X51569Y-19181D01*
X51504Y-19256D01*
X51494Y-19252D01*
X51461Y-19251D01*
X51413Y-19249D01*
X51388Y-19247D01*
X51382Y-19246D01*
X51380Y-19246D01*
X51368Y-19245D01*
X51312Y-19261D01*
X51292Y-19265D01*
X51090Y-19221D01*
X51068Y-19235D01*
X51042Y-19232D01*
X50995Y-19267D01*
X50973Y-19267D01*
X50940Y-19300D01*
X50933Y-19301D01*
X50902Y-19338D01*
X50865Y-19366D01*
X50678Y-19486D01*
X50673Y-19511D01*
X50652Y-19527D01*
X50647Y-19562D01*
X50586Y-19587D01*
X50392Y-19781D01*
X50386Y-19795D01*
X49927Y-19826D01*
X49843Y-19799D01*
X49763Y-19608D01*
X49760Y-19606D01*
X49758Y-19603D01*
X49628Y-19551D01*
X49490Y-19219D01*
X48279Y-18008D01*
X48325Y-17901D01*
X48323Y-17896D01*
X48325Y-17891D01*
X48233Y-17669D01*
X48145Y-17446D01*
X48126Y-17427D01*
X48102Y-17400D01*
X48097Y-17392D01*
X48095Y-17391D01*
X48093Y-17388D01*
X48091Y-17387D01*
X48087Y-17382D01*
X48068Y-17373D01*
X48052Y-17362D01*
X47984Y-17200D01*
X47980Y-17190D01*
X47957Y-17180D01*
X47950Y-17167D01*
X47945Y-17158D01*
X47882Y-17137D01*
X47870Y-17120D01*
X47813Y-17110D01*
X47806Y-17103D01*
X47774Y-17101D01*
X47734Y-17088D01*
X47528Y-17003D01*
X47505Y-17013D01*
X47481Y-17005D01*
X47447Y-17022D01*
X47272Y-16949D01*
D02*
G37*
G36*
X19128Y-21836D02*
X18776D01*
X18450Y-21971D01*
X18201Y-22220D01*
X18066Y-22545D01*
Y-22898D01*
X18201Y-23223D01*
X18450Y-23473D01*
X18776Y-23607D01*
X19128D01*
X19454Y-23473D01*
X19703Y-23223D01*
X19838Y-22898D01*
Y-22545D01*
X19703Y-22220D01*
X19454Y-21971D01*
X19128Y-21836D01*
D02*
G37*
G36*
X87519Y-22185D02*
X87167D01*
X86841Y-22320D01*
X86592Y-22569D01*
X86457Y-22895D01*
Y-23247D01*
X86592Y-23573D01*
X86841Y-23822D01*
X87167Y-23957D01*
X87519D01*
X87845Y-23822D01*
X88094Y-23573D01*
X88229Y-23247D01*
Y-22895D01*
X88094Y-22569D01*
X87845Y-22320D01*
X87519Y-22185D01*
D02*
G37*
G36*
X10562Y-22852D02*
X10209D01*
X9884Y-22987D01*
X9635Y-23236D01*
X9500Y-23562D01*
Y-23871D01*
X9452Y-23932D01*
X9386Y-23990D01*
X9075Y-24195D01*
X8879Y-24114D01*
X8526D01*
X8201Y-24249D01*
X7952Y-24498D01*
X7817Y-24824D01*
Y-25176D01*
X7952Y-25502D01*
X8201Y-25751D01*
X8526Y-25886D01*
X8879D01*
X9204Y-25751D01*
X9454Y-25502D01*
X9589Y-25176D01*
Y-24867D01*
X9636Y-24806D01*
X9703Y-24748D01*
X10013Y-24543D01*
X10209Y-24624D01*
X10562D01*
X10887Y-24489D01*
X11136Y-24240D01*
X11271Y-23914D01*
Y-23562D01*
X11136Y-23236D01*
X10887Y-22987D01*
X10562Y-22852D01*
D02*
G37*
G36*
X-56221Y-22982D02*
X-56574D01*
X-56899Y-23117D01*
X-57149Y-23366D01*
X-57284Y-23692D01*
Y-24044D01*
X-57149Y-24370D01*
X-56899Y-24619D01*
X-56574Y-24754D01*
X-56221D01*
X-55896Y-24619D01*
X-55647Y-24370D01*
X-55512Y-24044D01*
Y-23692D01*
X-55647Y-23366D01*
X-55896Y-23117D01*
X-56221Y-22982D01*
D02*
G37*
G36*
X-60060D02*
X-60412D01*
X-60738Y-23117D01*
X-60987Y-23366D01*
X-61122Y-23692D01*
Y-24044D01*
X-60987Y-24370D01*
X-60738Y-24619D01*
X-60412Y-24754D01*
X-60060D01*
X-59734Y-24619D01*
X-59485Y-24370D01*
X-59350Y-24044D01*
Y-23692D01*
X-59485Y-23366D01*
X-59734Y-23117D01*
X-60060Y-22982D01*
D02*
G37*
G36*
X23798Y-23031D02*
X23446D01*
X23120Y-23166D01*
X22871Y-23415D01*
X22736Y-23741D01*
Y-24093D01*
X22871Y-24419D01*
X23120Y-24668D01*
X23446Y-24803D01*
X23798D01*
X24124Y-24668D01*
X24373Y-24419D01*
X24508Y-24093D01*
Y-23741D01*
X24373Y-23415D01*
X24124Y-23166D01*
X23798Y-23031D01*
D02*
G37*
G36*
X-41556Y-23228D02*
X-41908D01*
X-42234Y-23363D01*
X-42483Y-23612D01*
X-42618Y-23938D01*
Y-24290D01*
X-42483Y-24616D01*
X-42234Y-24865D01*
X-41908Y-25000D01*
X-41556D01*
X-41230Y-24865D01*
X-40981Y-24616D01*
X-40846Y-24290D01*
Y-23938D01*
X-40981Y-23612D01*
X-41230Y-23363D01*
X-41556Y-23228D01*
D02*
G37*
G36*
X-18088Y-23181D02*
X-18519D01*
X-18917Y-23345D01*
X-19221Y-23650D01*
X-19386Y-24048D01*
Y-24479D01*
X-19221Y-24877D01*
X-18917Y-25181D01*
X-18519Y-25346D01*
X-18088D01*
X-17690Y-25181D01*
X-17386Y-24877D01*
X-17221Y-24479D01*
Y-24048D01*
X-17386Y-23650D01*
X-17690Y-23345D01*
X-18088Y-23181D01*
D02*
G37*
G36*
X-65917Y-24213D02*
X-66269D01*
X-66595Y-24348D01*
X-66844Y-24597D01*
X-66979Y-24922D01*
Y-25275D01*
X-66844Y-25600D01*
X-66595Y-25849D01*
X-66269Y-25984D01*
X-65917D01*
X-65591Y-25849D01*
X-65342Y-25600D01*
X-65207Y-25275D01*
Y-24922D01*
X-65342Y-24597D01*
X-65591Y-24348D01*
X-65917Y-24213D01*
D02*
G37*
G36*
X83247Y-24508D02*
X82895D01*
X82569Y-24643D01*
X82320Y-24892D01*
X82185Y-25218D01*
Y-25570D01*
X82320Y-25896D01*
X82569Y-26145D01*
X82895Y-26280D01*
X83247D01*
X83573Y-26145D01*
X83822Y-25896D01*
X83957Y-25570D01*
Y-25218D01*
X83822Y-24892D01*
X83573Y-24643D01*
X83247Y-24508D01*
D02*
G37*
G36*
X5829Y-26770D02*
X5477D01*
X5151Y-26905D01*
X4902Y-27154D01*
X4767Y-27480D01*
Y-27580D01*
X4744Y-27612D01*
X4288Y-27882D01*
X4151Y-27825D01*
X3799D01*
X3473Y-27960D01*
X3224Y-28209D01*
X3089Y-28535D01*
Y-28887D01*
X3224Y-29213D01*
X3425Y-29414D01*
X3474Y-29520D01*
X3484Y-30008D01*
X3383Y-30108D01*
X3248Y-30434D01*
Y-30786D01*
X3383Y-31112D01*
X3632Y-31361D01*
X3958Y-31496D01*
X4310D01*
X4636Y-31361D01*
X4885Y-31112D01*
X5020Y-30786D01*
Y-30434D01*
X4885Y-30108D01*
X4684Y-29908D01*
X4634Y-29801D01*
X4625Y-29314D01*
X4726Y-29213D01*
X4861Y-28887D01*
Y-28787D01*
X4885Y-28756D01*
X5340Y-28485D01*
X5477Y-28542D01*
X5829D01*
X6155Y-28407D01*
X6404Y-28158D01*
X6539Y-27832D01*
Y-27480D01*
X6404Y-27154D01*
X6155Y-26905D01*
X5829Y-26770D01*
D02*
G37*
G36*
X29365Y-27055D02*
X29013D01*
X28687Y-27190D01*
X28438Y-27439D01*
X28303Y-27764D01*
Y-28117D01*
X28438Y-28442D01*
X28687Y-28692D01*
X29013Y-28827D01*
X29365D01*
X29691Y-28692D01*
X29940Y-28442D01*
X30075Y-28117D01*
Y-27764D01*
X29940Y-27439D01*
X29691Y-27190D01*
X29365Y-27055D01*
D02*
G37*
G36*
X-53662Y-27264D02*
X-54015D01*
X-54340Y-27399D01*
X-54589Y-27648D01*
X-54724Y-27973D01*
Y-28326D01*
X-54589Y-28651D01*
X-54340Y-28901D01*
X-54015Y-29035D01*
X-53662D01*
X-53337Y-28901D01*
X-53088Y-28651D01*
X-52953Y-28326D01*
Y-27973D01*
X-53088Y-27648D01*
X-53337Y-27399D01*
X-53662Y-27264D01*
D02*
G37*
G36*
X-57107D02*
X-57460D01*
X-57785Y-27399D01*
X-58034Y-27648D01*
X-58169Y-27973D01*
Y-28326D01*
X-58034Y-28651D01*
X-57785Y-28901D01*
X-57460Y-29035D01*
X-57107D01*
X-56782Y-28901D01*
X-56533Y-28651D01*
X-56398Y-28326D01*
Y-27973D01*
X-56533Y-27648D01*
X-56782Y-27399D01*
X-57107Y-27264D01*
D02*
G37*
G36*
X-427Y-28346D02*
X-780D01*
X-1105Y-28481D01*
X-1354Y-28730D01*
X-1489Y-29056D01*
Y-29408D01*
X-1354Y-29734D01*
X-1105Y-29983D01*
X-780Y-30118D01*
X-427D01*
X-102Y-29983D01*
X148Y-29734D01*
X282Y-29408D01*
Y-29056D01*
X148Y-28730D01*
X-102Y-28481D01*
X-427Y-28346D01*
D02*
G37*
G36*
X-32525Y-28035D02*
X-32956D01*
X-33354Y-28200D01*
X-33658Y-28505D01*
X-33823Y-28903D01*
Y-29333D01*
X-33658Y-29731D01*
X-33354Y-30036D01*
X-32956Y-30201D01*
X-32525D01*
X-32127Y-30036D01*
X-31822Y-29731D01*
X-31658Y-29333D01*
Y-28903D01*
X-31822Y-28505D01*
X-32127Y-28200D01*
X-32525Y-28035D01*
D02*
G37*
G36*
X-8288Y-28986D02*
X-8641D01*
X-8966Y-29121D01*
X-9216Y-29370D01*
X-9350Y-29696D01*
Y-30048D01*
X-9216Y-30374D01*
X-8966Y-30623D01*
X-8641Y-30758D01*
X-8288D01*
X-7963Y-30623D01*
X-7797Y-30457D01*
X-7408Y-30493D01*
X-7248Y-30556D01*
X-7200Y-30671D01*
X-6951Y-30920D01*
X-6625Y-31055D01*
X-6273D01*
X-5947Y-30920D01*
X-5698Y-30671D01*
X-5563Y-30346D01*
Y-29993D01*
X-5698Y-29668D01*
X-5947Y-29418D01*
X-6273Y-29283D01*
X-6625D01*
X-6951Y-29418D01*
X-7117Y-29585D01*
X-7505Y-29548D01*
X-7666Y-29486D01*
X-7714Y-29370D01*
X-7963Y-29121D01*
X-8288Y-28986D01*
D02*
G37*
G36*
X97812Y-30229D02*
X97460D01*
X97134Y-30364D01*
X96885Y-30613D01*
X96750Y-30939D01*
Y-31291D01*
X96885Y-31617D01*
X97134Y-31866D01*
X97460Y-32001D01*
X97812D01*
X98137Y-31866D01*
X98387Y-31617D01*
X98522Y-31291D01*
Y-30939D01*
X98387Y-30613D01*
X98137Y-30364D01*
X97812Y-30229D01*
D02*
G37*
G36*
X-50586Y-30376D02*
X-50938D01*
X-51264Y-30511D01*
X-51513Y-30761D01*
X-51648Y-31086D01*
Y-31438D01*
X-51513Y-31764D01*
X-51264Y-32013D01*
X-50938Y-32148D01*
X-50586D01*
X-50261Y-32013D01*
X-50011Y-31764D01*
X-49876Y-31438D01*
Y-31086D01*
X-50011Y-30761D01*
X-50261Y-30511D01*
X-50586Y-30376D01*
D02*
G37*
G36*
X15235Y-28914D02*
X14883D01*
X14557Y-29049D01*
X14308Y-29298D01*
X14173Y-29624D01*
Y-29976D01*
X14308Y-30302D01*
X14557Y-30551D01*
X14883Y-30686D01*
X15215D01*
X15303Y-30759D01*
X15544Y-31099D01*
X15453Y-31320D01*
Y-31672D01*
X15588Y-31998D01*
X15837Y-32247D01*
X16162Y-32382D01*
X16515D01*
X16840Y-32247D01*
X17089Y-31998D01*
X17224Y-31672D01*
Y-31320D01*
X17089Y-30994D01*
X16840Y-30745D01*
X16515Y-30610D01*
X16182D01*
X16095Y-30538D01*
X15854Y-30197D01*
X15945Y-29976D01*
Y-29624D01*
X15810Y-29298D01*
X15561Y-29049D01*
X15235Y-28914D01*
D02*
G37*
G36*
X-62127Y-30610D02*
X-62479D01*
X-62805Y-30745D01*
X-63054Y-30994D01*
X-63189Y-31320D01*
Y-31672D01*
X-63054Y-31998D01*
X-62805Y-32247D01*
X-62479Y-32382D01*
X-62127D01*
X-61801Y-32247D01*
X-61552Y-31998D01*
X-61417Y-31672D01*
Y-31320D01*
X-61552Y-30994D01*
X-61801Y-30745D01*
X-62127Y-30610D01*
D02*
G37*
G36*
X-52678Y-31299D02*
X-53031D01*
X-53356Y-31434D01*
X-53605Y-31683D01*
X-53740Y-32009D01*
Y-32361D01*
X-53605Y-32687D01*
X-53356Y-32936D01*
X-53031Y-33071D01*
X-52678D01*
X-52352Y-32936D01*
X-52103Y-32687D01*
X-51968Y-32361D01*
Y-32009D01*
X-52103Y-31683D01*
X-52352Y-31434D01*
X-52678Y-31299D01*
D02*
G37*
G36*
X28788Y-30542D02*
X28435D01*
X28110Y-30677D01*
X27861Y-30926D01*
X27726Y-31251D01*
Y-31604D01*
X27861Y-31929D01*
X28110Y-32179D01*
X28435Y-32313D01*
X28556Y-32685D01*
Y-33037D01*
X28691Y-33363D01*
X28940Y-33612D01*
X29266Y-33747D01*
X29618D01*
X29944Y-33612D01*
X30253Y-33474D01*
X30502Y-33723D01*
X30828Y-33858D01*
X31180D01*
X31506Y-33723D01*
X31755Y-33474D01*
X31890Y-33149D01*
Y-32796D01*
X31755Y-32471D01*
X31506Y-32221D01*
X31180Y-32087D01*
X30828D01*
X30502Y-32221D01*
X30193Y-32359D01*
X29944Y-32110D01*
X29618Y-31975D01*
X29498Y-31604D01*
Y-31251D01*
X29363Y-30926D01*
X29113Y-30677D01*
X28788Y-30542D01*
D02*
G37*
G36*
X-2383Y-32726D02*
X-2735D01*
X-3061Y-32861D01*
X-3310Y-33110D01*
X-3445Y-33436D01*
Y-33788D01*
X-3310Y-34114D01*
X-3061Y-34363D01*
X-2735Y-34498D01*
X-2383D01*
X-2057Y-34363D01*
X-1808Y-34114D01*
X-1673Y-33788D01*
Y-33436D01*
X-1808Y-33110D01*
X-2057Y-32861D01*
X-2383Y-32726D01*
D02*
G37*
G36*
X1018Y-32798D02*
X666D01*
X340Y-32933D01*
X91Y-33182D01*
X-44Y-33508D01*
Y-33860D01*
X91Y-34186D01*
X340Y-34435D01*
X666Y-34570D01*
X1018D01*
X1344Y-34435D01*
X1593Y-34186D01*
X1728Y-33860D01*
Y-33508D01*
X1593Y-33182D01*
X1344Y-32933D01*
X1018Y-32798D01*
D02*
G37*
G36*
X-71821Y-33041D02*
X-72173D01*
X-72499Y-33176D01*
X-72748Y-33425D01*
X-72883Y-33751D01*
Y-34103D01*
X-72748Y-34429D01*
X-72499Y-34678D01*
X-72173Y-34813D01*
X-71821D01*
X-71495Y-34678D01*
X-71246Y-34429D01*
X-71111Y-34103D01*
Y-33751D01*
X-71246Y-33425D01*
X-71495Y-33176D01*
X-71821Y-33041D01*
D02*
G37*
G36*
X-62027Y-33567D02*
X-62380D01*
X-62705Y-33702D01*
X-62954Y-33951D01*
X-63089Y-34277D01*
Y-34629D01*
X-62954Y-34955D01*
X-62705Y-35204D01*
X-62380Y-35339D01*
X-62027D01*
X-61702Y-35204D01*
X-61453Y-34955D01*
X-61318Y-34629D01*
Y-34277D01*
X-61453Y-33951D01*
X-61702Y-33702D01*
X-62027Y-33567D01*
D02*
G37*
G36*
X12738Y-35786D02*
X12386D01*
X12060Y-35921D01*
X11811Y-36170D01*
X11676Y-36496D01*
Y-36848D01*
X11811Y-37174D01*
X12060Y-37423D01*
X12386Y-37558D01*
X12738D01*
X13063Y-37423D01*
X13313Y-37174D01*
X13447Y-36848D01*
Y-36496D01*
X13313Y-36170D01*
X13063Y-35921D01*
X12738Y-35786D01*
D02*
G37*
G36*
X69172Y-37795D02*
X68820D01*
X68494Y-37930D01*
X68245Y-38179D01*
X68110Y-38505D01*
Y-38857D01*
X68245Y-39183D01*
X68494Y-39432D01*
X68820Y-39567D01*
X69172D01*
X69498Y-39432D01*
X69747Y-39183D01*
X69882Y-38857D01*
Y-38505D01*
X69747Y-38179D01*
X69498Y-37930D01*
X69172Y-37795D01*
D02*
G37*
G36*
X-64483Y-40999D02*
X-64836D01*
X-65161Y-41134D01*
X-65410Y-41383D01*
X-65545Y-41708D01*
Y-42061D01*
X-65410Y-42386D01*
X-65161Y-42636D01*
X-64836Y-42770D01*
X-64483D01*
X-64158Y-42636D01*
X-63908Y-42386D01*
X-63774Y-42061D01*
Y-41708D01*
X-63908Y-41383D01*
X-64158Y-41134D01*
X-64483Y-40999D01*
D02*
G37*
G36*
X85068Y-41287D02*
X84715D01*
X84390Y-41422D01*
X84140Y-41671D01*
X84006Y-41997D01*
Y-42349D01*
X84140Y-42675D01*
X84390Y-42924D01*
X84715Y-43059D01*
X85068D01*
X85393Y-42924D01*
X85642Y-42675D01*
X85777Y-42349D01*
Y-41997D01*
X85642Y-41671D01*
X85393Y-41422D01*
X85068Y-41287D01*
D02*
G37*
G36*
X38681Y-40059D02*
X32185D01*
Y-46555D01*
X38681D01*
Y-40059D01*
D02*
G37*
G36*
X27987D02*
X27132D01*
X26305Y-40280D01*
X25565Y-40708D01*
X24960Y-41313D01*
X24532Y-42053D01*
X24311Y-42880D01*
Y-43735D01*
X24532Y-44561D01*
X24960Y-45301D01*
X25565Y-45906D01*
X26305Y-46334D01*
X27132Y-46555D01*
X27987D01*
X28813Y-46334D01*
X29553Y-45906D01*
X30158Y-45301D01*
X30586Y-44561D01*
X30807Y-43735D01*
Y-42880D01*
X30586Y-42053D01*
X30158Y-41313D01*
X29553Y-40708D01*
X28813Y-40280D01*
X27987Y-40059D01*
D02*
G37*
G36*
X20113D02*
X19257D01*
X18431Y-40280D01*
X17691Y-40708D01*
X17086Y-41313D01*
X16658Y-42053D01*
X16437Y-42880D01*
Y-43735D01*
X16658Y-44561D01*
X17086Y-45301D01*
X17691Y-45906D01*
X18431Y-46334D01*
X19257Y-46555D01*
X20113D01*
X20939Y-46334D01*
X21679Y-45906D01*
X22284Y-45301D01*
X22712Y-44561D01*
X22933Y-43735D01*
Y-42880D01*
X22712Y-42053D01*
X22284Y-41313D01*
X21679Y-40708D01*
X20939Y-40280D01*
X20113Y-40059D01*
D02*
G37*
G36*
X12239D02*
X11383D01*
X10557Y-40280D01*
X9817Y-40708D01*
X9212Y-41313D01*
X8784Y-42053D01*
X8563Y-42880D01*
Y-43735D01*
X8784Y-44561D01*
X9212Y-45301D01*
X9817Y-45906D01*
X10557Y-46334D01*
X11383Y-46555D01*
X12239D01*
X13065Y-46334D01*
X13805Y-45906D01*
X14410Y-45301D01*
X14838Y-44561D01*
X15059Y-43735D01*
Y-42880D01*
X14838Y-42053D01*
X14410Y-41313D01*
X13805Y-40708D01*
X13065Y-40280D01*
X12239Y-40059D01*
D02*
G37*
G36*
X4365D02*
X3509D01*
X2683Y-40280D01*
X1943Y-40708D01*
X1338Y-41313D01*
X910Y-42053D01*
X689Y-42880D01*
Y-43735D01*
X910Y-44561D01*
X1338Y-45301D01*
X1943Y-45906D01*
X2683Y-46334D01*
X3509Y-46555D01*
X4365D01*
X5191Y-46334D01*
X5931Y-45906D01*
X6536Y-45301D01*
X6964Y-44561D01*
X7185Y-43735D01*
Y-42880D01*
X6964Y-42053D01*
X6536Y-41313D01*
X5931Y-40708D01*
X5191Y-40280D01*
X4365Y-40059D01*
D02*
G37*
G36*
X-3509D02*
X-4365D01*
X-5191Y-40280D01*
X-5931Y-40708D01*
X-6536Y-41313D01*
X-6964Y-42053D01*
X-7185Y-42880D01*
Y-43735D01*
X-6964Y-44561D01*
X-6536Y-45301D01*
X-5931Y-45906D01*
X-5191Y-46334D01*
X-4365Y-46555D01*
X-3509D01*
X-2683Y-46334D01*
X-1943Y-45906D01*
X-1338Y-45301D01*
X-910Y-44561D01*
X-689Y-43735D01*
Y-42880D01*
X-910Y-42053D01*
X-1338Y-41313D01*
X-1943Y-40708D01*
X-2683Y-40280D01*
X-3509Y-40059D01*
D02*
G37*
G36*
X-11383D02*
X-12239D01*
X-13065Y-40280D01*
X-13805Y-40708D01*
X-14410Y-41313D01*
X-14838Y-42053D01*
X-15059Y-42880D01*
Y-43735D01*
X-14838Y-44561D01*
X-14410Y-45301D01*
X-13805Y-45906D01*
X-13065Y-46334D01*
X-12239Y-46555D01*
X-11383D01*
X-10557Y-46334D01*
X-9817Y-45906D01*
X-9212Y-45301D01*
X-8784Y-44561D01*
X-8563Y-43735D01*
Y-42880D01*
X-8784Y-42053D01*
X-9212Y-41313D01*
X-9817Y-40708D01*
X-10557Y-40280D01*
X-11383Y-40059D01*
D02*
G37*
G36*
X-19257D02*
X-20113D01*
X-20939Y-40280D01*
X-21679Y-40708D01*
X-22284Y-41313D01*
X-22712Y-42053D01*
X-22933Y-42880D01*
Y-43735D01*
X-22712Y-44561D01*
X-22284Y-45301D01*
X-21679Y-45906D01*
X-20939Y-46334D01*
X-20113Y-46555D01*
X-19257D01*
X-18431Y-46334D01*
X-17691Y-45906D01*
X-17086Y-45301D01*
X-16658Y-44561D01*
X-16437Y-43735D01*
Y-42880D01*
X-16658Y-42053D01*
X-17086Y-41313D01*
X-17691Y-40708D01*
X-18431Y-40280D01*
X-19257Y-40059D01*
D02*
G37*
G36*
X-27132D02*
X-27987D01*
X-28813Y-40280D01*
X-29553Y-40708D01*
X-30158Y-41313D01*
X-30586Y-42053D01*
X-30807Y-42880D01*
Y-43735D01*
X-30586Y-44561D01*
X-30158Y-45301D01*
X-29553Y-45906D01*
X-28813Y-46334D01*
X-27987Y-46555D01*
X-27132D01*
X-26305Y-46334D01*
X-25565Y-45906D01*
X-24960Y-45301D01*
X-24532Y-44561D01*
X-24311Y-43735D01*
Y-42880D01*
X-24532Y-42053D01*
X-24960Y-41313D01*
X-25565Y-40708D01*
X-26305Y-40280D01*
X-27132Y-40059D01*
D02*
G37*
G36*
X-35006D02*
X-35861D01*
X-36687Y-40280D01*
X-37427Y-40708D01*
X-38032Y-41313D01*
X-38460Y-42053D01*
X-38681Y-42880D01*
Y-43735D01*
X-38460Y-44561D01*
X-38032Y-45301D01*
X-37427Y-45906D01*
X-36687Y-46334D01*
X-35861Y-46555D01*
X-35006D01*
X-34179Y-46334D01*
X-33439Y-45906D01*
X-32834Y-45301D01*
X-32406Y-44561D01*
X-32185Y-43735D01*
Y-42880D01*
X-32406Y-42053D01*
X-32834Y-41313D01*
X-33439Y-40708D01*
X-34179Y-40280D01*
X-35006Y-40059D01*
D02*
G37*
G36*
X65597Y-44958D02*
X65245D01*
X64919Y-45093D01*
X64670Y-45342D01*
X64535Y-45667D01*
Y-46020D01*
X64670Y-46345D01*
X64919Y-46595D01*
X65245Y-46729D01*
X65597D01*
X65922Y-46595D01*
X66172Y-46345D01*
X66307Y-46020D01*
Y-45667D01*
X66172Y-45342D01*
X65922Y-45093D01*
X65597Y-44958D01*
D02*
G37*
G36*
X57679Y-46964D02*
X57326D01*
X57001Y-47099D01*
X56752Y-47348D01*
X56617Y-47673D01*
Y-48026D01*
X56752Y-48351D01*
X57001Y-48601D01*
X57326Y-48735D01*
X57679D01*
X58004Y-48601D01*
X58254Y-48351D01*
X58388Y-48026D01*
Y-47673D01*
X58254Y-47348D01*
X58004Y-47099D01*
X57679Y-46964D01*
D02*
G37*
G36*
X-56221Y-48622D02*
X-56574D01*
X-56899Y-48757D01*
X-57149Y-49006D01*
X-57284Y-49332D01*
Y-49684D01*
X-57149Y-50010D01*
X-56899Y-50259D01*
X-56574Y-50394D01*
X-56221D01*
X-55896Y-50259D01*
X-55647Y-50010D01*
X-55512Y-49684D01*
Y-49332D01*
X-55647Y-49006D01*
X-55896Y-48757D01*
X-56221Y-48622D01*
D02*
G37*
G36*
X-31140Y-48633D02*
X-31492D01*
X-31818Y-48768D01*
X-32067Y-49017D01*
X-32202Y-49342D01*
Y-49695D01*
X-32067Y-50020D01*
X-31818Y-50270D01*
X-31492Y-50404D01*
X-31140D01*
X-30814Y-50270D01*
X-30565Y-50020D01*
X-30430Y-49695D01*
Y-49342D01*
X-30565Y-49017D01*
X-30814Y-48768D01*
X-31140Y-48633D01*
D02*
G37*
G36*
X49312Y-48688D02*
X48960D01*
X48634Y-48823D01*
X48385Y-49072D01*
X48250Y-49398D01*
Y-49750D01*
X48385Y-50076D01*
X48634Y-50325D01*
X48960Y-50460D01*
X49312D01*
X49638Y-50325D01*
X49887Y-50076D01*
X50022Y-49750D01*
Y-49398D01*
X49887Y-49072D01*
X49638Y-48823D01*
X49312Y-48688D01*
D02*
G37*
G36*
X41304Y-49014D02*
X40951D01*
X40626Y-49149D01*
X40377Y-49398D01*
X40242Y-49724D01*
Y-50076D01*
X40377Y-50402D01*
X40626Y-50651D01*
X40951Y-50786D01*
X41304D01*
X41629Y-50651D01*
X41879Y-50402D01*
X42013Y-50076D01*
Y-49724D01*
X41879Y-49398D01*
X41629Y-49149D01*
X41304Y-49014D01*
D02*
G37*
G36*
X-48136Y-49114D02*
X-48489D01*
X-48814Y-49249D01*
X-49064Y-49498D01*
X-49198Y-49824D01*
Y-50176D01*
X-49064Y-50502D01*
X-48814Y-50751D01*
X-48489Y-50886D01*
X-48136D01*
X-47811Y-50751D01*
X-47562Y-50502D01*
X-47427Y-50176D01*
Y-49824D01*
X-47562Y-49498D01*
X-47811Y-49249D01*
X-48136Y-49114D01*
D02*
G37*
%LPD*%
G36*
X62058Y8834D02*
X62047Y8817D01*
X62037Y8796D01*
X62029Y8772D01*
X62022Y8745D01*
X62016Y8714D01*
X62011Y8681D01*
X62006Y8604D01*
X62005Y8561D01*
X61584D01*
X61584Y8604D01*
X61578Y8681D01*
X61574Y8714D01*
X61568Y8745D01*
X61561Y8772D01*
X61552Y8796D01*
X61543Y8817D01*
X61532Y8834D01*
X61519Y8848D01*
X62070D01*
X62058Y8834D01*
D02*
G37*
G36*
X64633Y7714D02*
X64617Y7721D01*
X64599Y7723D01*
X64579Y7722D01*
X64558Y7716D01*
X64535Y7706D01*
X64510Y7693D01*
X64484Y7675D01*
X64456Y7653D01*
X64427Y7627D01*
X64396Y7597D01*
X64131Y7928D01*
X64470Y8230D01*
X64633Y7714D01*
D02*
G37*
G36*
X61881Y7216D02*
X61886Y7139D01*
X61891Y7105D01*
X61897Y7075D01*
X61904Y7048D01*
X61912Y7024D01*
X61922Y7003D01*
X61933Y6985D01*
X61945Y6971D01*
X61394D01*
X61407Y6985D01*
X61418Y7003D01*
X61427Y7024D01*
X61436Y7048D01*
X61443Y7075D01*
X61449Y7105D01*
X61453Y7139D01*
X61459Y7216D01*
X61459Y7259D01*
X61880D01*
X61881Y7216D01*
D02*
G37*
G36*
X62842Y6044D02*
X62812Y6013D01*
X62762Y5955D01*
X62741Y5928D01*
X62724Y5902D01*
X62710Y5878D01*
X62699Y5855D01*
X62691Y5833D01*
X62686Y5813D01*
X62685Y5794D01*
X62295Y6184D01*
X62314Y6185D01*
X62334Y6190D01*
X62356Y6198D01*
X62379Y6209D01*
X62403Y6223D01*
X62428Y6240D01*
X62455Y6261D01*
X62513Y6312D01*
X62544Y6342D01*
X62842Y6044D01*
D02*
G37*
G36*
X54515Y4792D02*
X54500Y4804D01*
X54483Y4815D01*
X54462Y4825D01*
X54438Y4834D01*
X54411Y4841D01*
X54380Y4847D01*
X54347Y4851D01*
X54270Y4856D01*
X54227Y4857D01*
Y5278D01*
X54270Y5279D01*
X54347Y5284D01*
X54380Y5289D01*
X54411Y5294D01*
X54438Y5302D01*
X54462Y5310D01*
X54483Y5320D01*
X54500Y5331D01*
X54515Y5343D01*
Y4792D01*
D02*
G37*
G36*
X49274Y5065D02*
X49281Y5048D01*
X49291Y5029D01*
X49304Y5009D01*
X49319Y4987D01*
X49360Y4938D01*
X49412Y4880D01*
X49443Y4849D01*
X49210Y4487D01*
X49179Y4516D01*
X49121Y4566D01*
X49093Y4585D01*
X49068Y4600D01*
X49043Y4613D01*
X49019Y4621D01*
X48997Y4627D01*
X48976Y4628D01*
X48956Y4626D01*
X49270Y5079D01*
X49274Y5065D01*
D02*
G37*
G36*
X58090Y4612D02*
X58075Y4608D01*
X58059Y4602D01*
X58040Y4592D01*
X58020Y4579D01*
X57998Y4563D01*
X57948Y4523D01*
X57891Y4470D01*
X57860Y4440D01*
X57497Y4673D01*
X57527Y4704D01*
X57576Y4762D01*
X57595Y4789D01*
X57611Y4815D01*
X57623Y4840D01*
X57632Y4863D01*
X57637Y4886D01*
X57639Y4907D01*
X57637Y4926D01*
X58090Y4612D01*
D02*
G37*
G36*
X56976Y758D02*
X56978Y737D01*
X56983Y715D01*
X56992Y691D01*
X57004Y667D01*
X57020Y641D01*
X57039Y613D01*
X57062Y585D01*
X57103Y541D01*
X57213Y431D01*
X56705Y219D01*
X56710Y237D01*
X56711Y256D01*
X56709Y277D01*
X56703Y299D01*
X56692Y323D01*
X56678Y348D01*
X56660Y375D01*
X56655Y382D01*
X56617Y415D01*
X56595Y430D01*
X56575Y443D01*
X56557Y453D01*
X56540Y460D01*
X56525Y464D01*
X56781Y641D01*
X56898Y744D01*
X56911Y731D01*
X56978Y778D01*
X56976Y758D01*
D02*
G37*
G36*
X60350Y-3420D02*
X60354Y-3440D01*
X60362Y-3462D01*
X60373Y-3485D01*
X60387Y-3509D01*
X60405Y-3535D01*
X60425Y-3562D01*
X60476Y-3620D01*
X60506Y-3651D01*
X60208Y-3949D01*
X60177Y-3918D01*
X60119Y-3868D01*
X60092Y-3847D01*
X60066Y-3830D01*
X60042Y-3816D01*
X60019Y-3805D01*
X59998Y-3797D01*
X59978Y-3792D01*
X59959Y-3791D01*
X60348Y-3401D01*
X60350Y-3420D01*
D02*
G37*
G36*
X47530Y-17661D02*
X47534Y-17681D01*
X47542Y-17703D01*
X47553Y-17726D01*
X47567Y-17750D01*
X47585Y-17776D01*
X47605Y-17803D01*
X47656Y-17861D01*
X47686Y-17891D01*
X47388Y-18189D01*
X47357Y-18159D01*
X47299Y-18109D01*
X47272Y-18088D01*
X47246Y-18071D01*
X47222Y-18057D01*
X47199Y-18046D01*
X47178Y-18038D01*
X47157Y-18033D01*
X47139Y-18032D01*
X47528Y-17642D01*
X47530Y-17661D01*
D02*
G37*
G36*
X56239Y-19396D02*
X56228Y-19413D01*
X56218Y-19434D01*
X56210Y-19458D01*
X56203Y-19485D01*
X56197Y-19516D01*
X56192Y-19549D01*
X56187Y-19626D01*
X56187Y-19650D01*
X56187Y-19675D01*
X56193Y-19751D01*
X56197Y-19785D01*
X56203Y-19815D01*
X56210Y-19842D01*
X56219Y-19866D01*
X56229Y-19887D01*
X56240Y-19905D01*
X56252Y-19919D01*
X55701Y-19922D01*
X55713Y-19908D01*
X55724Y-19890D01*
X55734Y-19869D01*
X55742Y-19845D01*
X55749Y-19818D01*
X55755Y-19788D01*
X55760Y-19754D01*
X55765Y-19678D01*
X55765Y-19654D01*
X55765Y-19629D01*
X55760Y-19552D01*
X55755Y-19519D01*
X55749Y-19488D01*
X55742Y-19461D01*
X55733Y-19437D01*
X55724Y-19417D01*
X55712Y-19399D01*
X55700Y-19385D01*
X56251Y-19382D01*
X56239Y-19396D01*
D02*
G37*
G36*
X52414Y-19962D02*
X52394Y-19960D01*
X52373Y-19961D01*
X52351Y-19967D01*
X52327Y-19975D01*
X52303Y-19987D01*
X52277Y-20003D01*
X52249Y-20022D01*
X52221Y-20045D01*
X52160Y-20101D01*
X51927Y-19739D01*
X51958Y-19707D01*
X52051Y-19601D01*
X52066Y-19579D01*
X52079Y-19558D01*
X52089Y-19540D01*
X52096Y-19523D01*
X52100Y-19509D01*
X52414Y-19962D01*
D02*
G37*
G36*
X49314Y-20105D02*
X49319Y-20182D01*
X49324Y-20215D01*
X49330Y-20246D01*
X49337Y-20273D01*
X49345Y-20297D01*
X49355Y-20318D01*
X49366Y-20335D01*
X49379Y-20349D01*
X48828Y-20352D01*
X48840Y-20337D01*
X48851Y-20320D01*
X48860Y-20299D01*
X48869Y-20275D01*
X48876Y-20248D01*
X48882Y-20218D01*
X48886Y-20184D01*
X48891Y-20107D01*
X48892Y-20064D01*
X49313Y-20062D01*
X49314Y-20105D01*
D02*
G37*
G36*
X51217Y-19858D02*
X51233Y-19865D01*
X51253Y-19871D01*
X51276Y-19876D01*
X51303Y-19881D01*
X51367Y-19887D01*
X51444Y-19890D01*
X51488Y-19891D01*
X51580Y-20312D01*
X51537Y-20313D01*
X51461Y-20319D01*
X51428Y-20325D01*
X51398Y-20332D01*
X51372Y-20341D01*
X51350Y-20351D01*
X51330Y-20364D01*
X51314Y-20377D01*
X51302Y-20392D01*
X51204Y-19850D01*
X51217Y-19858D01*
D02*
G37*
G36*
X57613Y-20269D02*
X57599Y-20273D01*
X57583Y-20279D01*
X57565Y-20289D01*
X57545Y-20301D01*
X57524Y-20317D01*
X57474Y-20358D01*
X57418Y-20410D01*
X57386Y-20441D01*
X57024Y-20208D01*
X57054Y-20177D01*
X57103Y-20119D01*
X57122Y-20092D01*
X57138Y-20066D01*
X57150Y-20042D01*
X57159Y-20019D01*
X57164Y-19997D01*
X57166Y-19977D01*
X57164Y-19958D01*
X57613Y-20269D01*
D02*
G37*
G36*
X49394Y-21974D02*
X49379Y-21967D01*
X49363Y-21964D01*
X49345Y-21965D01*
X49324Y-21970D01*
X49302Y-21979D01*
X49279Y-21993D01*
X49253Y-22010D01*
X49236Y-22024D01*
X49176Y-22092D01*
X49164Y-22109D01*
X49155Y-22124D01*
X49149Y-22137D01*
X49146Y-22148D01*
X48848Y-21718D01*
X48864Y-21720D01*
X48881Y-21718D01*
X48900Y-21713D01*
X48921Y-21704D01*
X48943Y-21691D01*
X48968Y-21675D01*
X48994Y-21655D01*
X49051Y-21605D01*
X49083Y-21574D01*
X49097Y-21596D01*
X49271Y-21457D01*
X49394Y-21974D01*
D02*
G37*
G36*
X52576Y-22390D02*
X52565Y-22408D01*
X52555Y-22429D01*
X52547Y-22453D01*
X52539Y-22480D01*
X52534Y-22510D01*
X52529Y-22544D01*
X52524Y-22621D01*
X52523Y-22664D01*
X52102D01*
X52101Y-22621D01*
X52096Y-22544D01*
X52092Y-22510D01*
X52086Y-22480D01*
X52079Y-22453D01*
X52070Y-22429D01*
X52060Y-22408D01*
X52049Y-22390D01*
X52037Y-22376D01*
X52588D01*
X52576Y-22390D01*
D02*
G37*
D13*
X18636Y-418D02*
X20772D01*
X22300Y1111D01*
X17575Y3835D02*
X17613Y3798D01*
X19558Y3012D02*
X19611D01*
X18771Y3798D02*
X19558Y3012D01*
X17613Y3798D02*
X18771D01*
X19458Y566D02*
X19832Y940D01*
X17642Y566D02*
X19458D01*
X19832Y940D02*
X19885D01*
X18869Y-4526D02*
X18877Y-4534D01*
Y-5310D02*
Y-4534D01*
Y-5310D02*
X18884Y-5317D01*
D18*
X48031Y53740D02*
X88061Y44094D01*
X-50299Y53740D02*
X48031Y53740D01*
X-50299Y53740D02*
X-46694Y48956D01*
X-70653Y30902D02*
X-46694Y48956D01*
X-74384Y35852D02*
X-70653Y30902D01*
X-86614Y23622D02*
X-74384Y35852D01*
X-86614Y-24606D02*
Y23622D01*
Y-24606D02*
X-57480Y-53740D01*
X49061D01*
X90256Y-44094D01*
X110236Y-25591D01*
X110236Y19184D02*
X110236Y-25591D01*
X88061Y44094D02*
X110236Y19184D01*
D122*
X-35433Y43307D02*
D03*
D124*
X79921Y37402D02*
D03*
Y-37402D02*
D03*
D125*
X56023Y-22211D02*
D03*
X57500Y3988D02*
D03*
X51072Y-22184D02*
D03*
X53185Y-20937D02*
D03*
X53482Y-20052D02*
D03*
X55978Y-20202D02*
D03*
X61670Y6690D02*
D03*
X62291Y5790D02*
D03*
X61909Y3427D02*
D03*
X47135Y-17638D02*
D03*
X49615Y-21648D02*
D03*
X52488Y-19575D02*
D03*
X53887Y-21843D02*
D03*
X55621Y-22536D02*
D03*
X52568Y-23661D02*
D03*
X54102Y-22013D02*
D03*
X57090Y-20921D02*
D03*
X59955Y-3397D02*
D03*
X52750Y687D02*
D03*
X49893Y4512D02*
D03*
X56592Y852D02*
D03*
X54796Y5068D02*
D03*
X22300Y1111D02*
D03*
X19611Y3012D02*
D03*
X61161Y-4257D02*
D03*
X61795Y9129D02*
D03*
X48882Y5013D02*
D03*
X61297Y3614D02*
D03*
X58024Y5000D02*
D03*
X48755Y-22101D02*
D03*
X19885Y940D02*
D03*
X57608Y8277D02*
D03*
X50762Y-22558D02*
D03*
X17575Y3835D02*
D03*
X17642Y566D02*
D03*
X50976Y-20171D02*
D03*
X18636Y-418D02*
D03*
X18960Y-1559D02*
D03*
D03*
X49104Y-20632D02*
D03*
X18869Y-4526D02*
D03*
X57550Y-19880D02*
D03*
X18884Y-5317D02*
D03*
X52313Y-22095D02*
D03*
X55974Y-19102D02*
D03*
X64824Y8058D02*
D03*
X57808Y7954D02*
D03*
X53189Y4726D02*
D03*
X53303Y165D02*
D03*
X57067Y65D02*
D03*
D126*
X72463Y-44532D02*
D03*
X73776Y-38775D02*
D03*
X72102Y-38283D02*
D03*
X67323Y295D02*
D03*
X7334Y-14658D02*
D03*
X9556Y-1116D02*
D03*
X3130Y-2053D02*
D03*
X65059Y-41754D02*
D03*
X37638Y8661D02*
D03*
X41116Y19809D02*
D03*
X94606Y-27053D02*
D03*
X99340Y2874D02*
D03*
X101870Y-27756D02*
D03*
X103445Y-29429D02*
D03*
X-43822Y-15846D02*
D03*
X-41165Y-15938D02*
D03*
X7501Y-31611D02*
D03*
X-23905Y-3556D02*
D03*
X-44361Y31004D02*
D03*
X-42520Y29921D02*
D03*
X724Y-11492D02*
D03*
X-67815Y25098D02*
D03*
X-49114Y31693D02*
D03*
X-63212Y22313D02*
D03*
X-39272Y23425D02*
D03*
X-41437Y23327D02*
D03*
X-43087Y23256D02*
D03*
X-34252Y31398D02*
D03*
X-36417Y31102D02*
D03*
X40846Y17028D02*
D03*
X-46161Y-12172D02*
D03*
X59188Y16032D02*
D03*
X16043Y22146D02*
D03*
X19921Y21897D02*
D03*
X-29252Y-18839D02*
D03*
X105020Y-26772D02*
D03*
X-76278Y-25201D02*
D03*
X-66831Y-35728D02*
D03*
X-73882Y-23371D02*
D03*
X47416Y8294D02*
D03*
X-39469Y7382D02*
D03*
X-49606Y-28839D02*
D03*
X-72835Y-27165D02*
D03*
X-74113Y-25398D02*
D03*
X-57823Y4875D02*
D03*
X-59957Y-4811D02*
D03*
X-68404Y-7189D02*
D03*
X-70471Y7771D02*
D03*
X-3347Y16142D02*
D03*
X18110Y21949D02*
D03*
X107482Y15940D02*
D03*
X-67323Y19882D02*
D03*
X-40590Y-50098D02*
D03*
X-44067Y-6969D02*
D03*
D128*
X-7776Y-5413D02*
D03*
X-11713D02*
D03*
X-9744Y-1673D02*
D03*
Y-9154D02*
D03*
X-9647Y-26689D02*
D03*
Y-19209D02*
D03*
X-11616Y-22949D02*
D03*
X-7679D02*
D03*
D129*
X48882Y5013D02*
X48981D01*
X49412Y4582D01*
X58024Y4901D02*
Y5000D01*
X57570Y4447D02*
X58024Y4901D01*
X57570Y4058D02*
Y4447D01*
X57500Y3988D02*
X57570Y4058D01*
X53185Y-20937D02*
Y-20838D01*
X53412Y-20612D01*
Y-20122D01*
X53482Y-20052D01*
X57090Y-20921D02*
X57160Y-20850D01*
Y-20369D01*
X57550Y-19979D01*
Y-19880D01*
X55976Y-20200D02*
X55978Y-20202D01*
X55976Y-20200D02*
Y-19104D01*
X55974Y-19102D02*
X55976Y-19104D01*
X52313Y-23306D02*
Y-22095D01*
Y-23306D02*
X52568Y-23562D01*
Y-23661D02*
Y-23562D01*
X48755Y-22101D02*
X48854D01*
X49237Y-21718D01*
X49545D01*
X49615Y-21648D01*
X50976Y-20171D02*
X51046Y-20101D01*
X51862D01*
X52389Y-19575D01*
X52488D01*
X47135Y-17638D02*
X49103Y-19606D01*
Y-20630D02*
Y-19606D01*
Y-20630D02*
X49104Y-20632D01*
X59955Y-3397D02*
X60744Y-4186D01*
X64754Y7988D02*
X64824Y8058D01*
X62291Y5790D02*
X64489Y7988D01*
X64754D01*
X61670Y6690D02*
Y7812D01*
X61795Y7937D01*
Y9129D01*
X56592Y753D02*
Y852D01*
Y753D02*
X56997Y347D01*
X53630Y5068D02*
X54796D01*
X53288Y4726D02*
X53630Y5068D01*
X53189Y4726D02*
X53288D01*
M02*
