G04*
G04 #@! TF.GenerationSoftware,Altium Limited,Altium Designer,23.3.1 (30)*
G04*
G04 Layer_Color=128*
%FSLAX25Y25*%
%MOIN*%
G70*
G04*
G04 #@! TF.SameCoordinates,B70FCE46-08B3-410F-AF2C-83C1FDED7243*
G04*
G04*
G04 #@! TF.FilePolarity,Positive*
G04*
G01*
G75*
%ADD18C,0.00000*%
%ADD23R,0.02165X0.02165*%
%ADD24R,0.01788X0.01428*%
%ADD28R,0.01378X0.00984*%
G04:AMPARAMS|DCode=30|XSize=31.5mil|YSize=98.43mil|CornerRadius=7.87mil|HoleSize=0mil|Usage=FLASHONLY|Rotation=217.000|XOffset=0mil|YOffset=0mil|HoleType=Round|Shape=RoundedRectangle|*
%AMROUNDEDRECTD30*
21,1,0.03150,0.08268,0,0,217.0*
21,1,0.01575,0.09843,0,0,217.0*
1,1,0.01575,-0.03117,0.02828*
1,1,0.01575,-0.01859,0.03775*
1,1,0.01575,0.03117,-0.02828*
1,1,0.01575,0.01859,-0.03775*
%
%ADD30ROUNDEDRECTD30*%
%ADD34R,0.00984X0.01378*%
%ADD35R,0.02165X0.02165*%
%ADD39R,0.01378X0.01575*%
%ADD46R,0.03543X0.03937*%
%ADD47R,0.02254X0.02423*%
%ADD48R,0.02423X0.02254*%
%ADD58R,0.01428X0.01788*%
%ADD65R,0.01772X0.01378*%
%ADD68R,0.01378X0.01772*%
%ADD122C,0.04134*%
%ADD132R,0.02362X0.01968*%
G04:AMPARAMS|DCode=133|XSize=31.5mil|YSize=98.43mil|CornerRadius=7.87mil|HoleSize=0mil|Usage=FLASHONLY|Rotation=90.000|XOffset=0mil|YOffset=0mil|HoleType=Round|Shape=RoundedRectangle|*
%AMROUNDEDRECTD133*
21,1,0.03150,0.08268,0,0,90.0*
21,1,0.01575,0.09843,0,0,90.0*
1,1,0.01575,0.04134,0.00787*
1,1,0.01575,0.04134,-0.00787*
1,1,0.01575,-0.04134,-0.00787*
1,1,0.01575,-0.04134,0.00787*
%
%ADD133ROUNDEDRECTD133*%
%ADD134R,0.05709X0.02362*%
%ADD135R,0.01870X0.01181*%
%ADD136R,0.02165X0.01772*%
%ADD137R,0.01772X0.02165*%
G04:AMPARAMS|DCode=138|XSize=31.5mil|YSize=39.37mil|CornerRadius=7.87mil|HoleSize=0mil|Usage=FLASHONLY|Rotation=180.000|XOffset=0mil|YOffset=0mil|HoleType=Round|Shape=RoundedRectangle|*
%AMROUNDEDRECTD138*
21,1,0.03150,0.02362,0,0,180.0*
21,1,0.01575,0.03937,0,0,180.0*
1,1,0.01575,-0.00787,0.01181*
1,1,0.01575,0.00787,0.01181*
1,1,0.01575,0.00787,-0.01181*
1,1,0.01575,-0.00787,-0.01181*
%
%ADD138ROUNDEDRECTD138*%
%ADD139R,0.01822X0.02182*%
%ADD140R,0.02182X0.01822*%
%ADD141R,0.01772X0.01772*%
%ADD142R,0.01968X0.03937*%
%ADD143R,0.02780X0.02975*%
%ADD144R,0.03150X0.07087*%
%ADD145R,0.02775X0.02598*%
%ADD146R,0.02559X0.01181*%
%ADD147R,0.06102X0.09764*%
%ADD148R,0.04560X0.03985*%
%ADD149R,0.03347X0.03347*%
%ADD150R,0.03985X0.04560*%
%ADD151R,0.03937X0.06299*%
%ADD152R,0.01968X0.01968*%
%ADD153R,0.03567X0.03379*%
D18*
X48031Y53740D02*
X88061Y44094D01*
X-50299Y53740D02*
X48031Y53740D01*
X-50299Y53740D02*
X-46694Y48956D01*
X-70653Y30902D02*
X-46694Y48956D01*
X-74384Y35852D02*
X-70653Y30902D01*
X-86614Y23622D02*
X-74384Y35852D01*
X-86614Y-24606D02*
Y23622D01*
Y-24606D02*
X-57480Y-53740D01*
X49061D01*
X90256Y-44094D01*
X110236Y-25591D01*
X110236Y19184D02*
X110236Y-25591D01*
X88061Y44094D02*
X110236Y19184D01*
D23*
X100689Y-17224D02*
D03*
X104232D02*
D03*
D24*
X13501Y-787D02*
D03*
X11105D02*
D03*
X37832Y8291D02*
D03*
X35435D02*
D03*
X9023Y14839D02*
D03*
X11419D02*
D03*
X12877Y-3740D02*
D03*
X15273D02*
D03*
D28*
X-43701Y52461D02*
D03*
X-45866D02*
D03*
X-227Y-16744D02*
D03*
X-2393D02*
D03*
X-1280Y15945D02*
D03*
X886D02*
D03*
X492Y-7776D02*
D03*
X2657D02*
D03*
D30*
X-47205Y41325D02*
D03*
X-51198Y38316D02*
D03*
X-55191Y35307D02*
D03*
X-59184Y32298D02*
D03*
X-63177Y29289D02*
D03*
D34*
X-45393Y48315D02*
D03*
Y50480D02*
D03*
X59762Y23976D02*
D03*
Y26141D02*
D03*
X63090Y20768D02*
D03*
Y18602D02*
D03*
D35*
X-32972Y-13386D02*
D03*
Y-16929D02*
D03*
X-36220Y-17028D02*
D03*
Y-13484D02*
D03*
X6594Y-19488D02*
D03*
Y-23031D02*
D03*
X-28248Y-5217D02*
D03*
Y-1673D02*
D03*
X0Y-1870D02*
D03*
Y-5413D02*
D03*
X-1575Y6890D02*
D03*
Y3347D02*
D03*
X-53839Y-17421D02*
D03*
Y-13878D02*
D03*
X-57579Y-17421D02*
D03*
Y-13878D02*
D03*
D39*
X-82284Y-23031D02*
D03*
X-84842D02*
D03*
D46*
X92913Y-21457D02*
D03*
X99213D02*
D03*
X105512D02*
D03*
X24803Y-28051D02*
D03*
X18504D02*
D03*
X12205D02*
D03*
D47*
X3150Y-2053D02*
D03*
Y-5427D02*
D03*
X-1687Y10138D02*
D03*
Y13512D02*
D03*
X3445Y-26392D02*
D03*
Y-23018D02*
D03*
X-27264Y-11431D02*
D03*
Y-8057D02*
D03*
D48*
X-33450Y-2165D02*
D03*
X-36825D02*
D03*
X-36235Y-20571D02*
D03*
X-32860D02*
D03*
X-8957Y7087D02*
D03*
X-5582D02*
D03*
X-112Y-10531D02*
D03*
X3262D02*
D03*
X-12387Y-14862D02*
D03*
X-15762D02*
D03*
X3459Y-19685D02*
D03*
X84D02*
D03*
X102893Y21721D02*
D03*
X99519D02*
D03*
X72525Y8661D02*
D03*
X75900D02*
D03*
D58*
X18860Y-9987D02*
D03*
Y-12383D02*
D03*
X21042Y-9957D02*
D03*
Y-12353D02*
D03*
X23260Y-12339D02*
D03*
Y-9943D02*
D03*
X43604Y10746D02*
D03*
Y13142D02*
D03*
X53051Y14255D02*
D03*
Y16651D02*
D03*
X67323Y10318D02*
D03*
Y12714D02*
D03*
X41043Y13206D02*
D03*
Y10810D02*
D03*
X22917Y14490D02*
D03*
Y12094D02*
D03*
X27380Y13995D02*
D03*
Y11599D02*
D03*
X16649Y-12434D02*
D03*
Y-10038D02*
D03*
D65*
X-24114Y-7874D02*
D03*
X-21555D02*
D03*
D68*
X-24114Y-3347D02*
D03*
Y-5906D02*
D03*
X1083Y13091D02*
D03*
Y10531D02*
D03*
D122*
X35433Y-43307D02*
D03*
X27559D02*
D03*
X19685D02*
D03*
X11811D02*
D03*
X3937D02*
D03*
X-3937D02*
D03*
X-11811D02*
D03*
X-19685D02*
D03*
X-27559D02*
D03*
X-35433D02*
D03*
Y43307D02*
D03*
X-27559D02*
D03*
X-19685D02*
D03*
X-11811D02*
D03*
X-3937D02*
D03*
X3937D02*
D03*
X11811D02*
D03*
X19685D02*
D03*
X27559D02*
D03*
X35433D02*
D03*
D132*
X16043Y-19587D02*
D03*
X19980D02*
D03*
D133*
X104532Y-12479D02*
D03*
X104532Y-7480D02*
D03*
Y-2479D02*
D03*
X104532Y2520D02*
D03*
X104532Y7520D02*
D03*
X-80807Y10079D02*
D03*
X-80807Y5079D02*
D03*
X-80807Y79D02*
D03*
Y-4921D02*
D03*
X-80807Y-9921D02*
D03*
D134*
X-41339Y-12303D02*
D03*
Y-18602D02*
D03*
D135*
X-32429Y-9252D02*
D03*
Y-7283D02*
D03*
Y-5315D02*
D03*
X-39028D02*
D03*
Y-7283D02*
D03*
Y-9252D02*
D03*
D136*
X-24409Y-10433D02*
D03*
X-21457D02*
D03*
X-8760Y10433D02*
D03*
X-5807D02*
D03*
D137*
X-42717Y42520D02*
D03*
Y45472D02*
D03*
X-54823Y26575D02*
D03*
Y23622D02*
D03*
X-58563Y23524D02*
D03*
Y20571D02*
D03*
X-50984Y29626D02*
D03*
Y26673D02*
D03*
X-46949Y32480D02*
D03*
Y29528D02*
D03*
X-42815Y35630D02*
D03*
Y32677D02*
D03*
X-50591Y-17126D02*
D03*
Y-14173D02*
D03*
D138*
X-51914Y-23607D02*
D03*
X-55914Y-23607D02*
D03*
X-59914D02*
D03*
X-47839Y-23551D02*
D03*
X-49839Y-28051D02*
D03*
X-53839D02*
D03*
X-57839D02*
D03*
D139*
X6547Y15740D02*
D03*
Y12950D02*
D03*
D140*
X11258Y17258D02*
D03*
X14048D02*
D03*
D141*
X9449Y7480D02*
D03*
X12205D02*
D03*
D142*
X14321Y11173D02*
D03*
X9990D02*
D03*
D143*
X39272Y5120D02*
D03*
Y1772D02*
D03*
D144*
X37148Y14015D02*
D03*
X30848D02*
D03*
D145*
X32372Y20079D02*
D03*
X35738D02*
D03*
D146*
X-3642Y-1476D02*
D03*
Y-3445D02*
D03*
Y-5413D02*
D03*
Y-7382D02*
D03*
Y-9350D02*
D03*
X-15846D02*
D03*
Y-7382D02*
D03*
Y-5413D02*
D03*
Y-3445D02*
D03*
Y-1476D02*
D03*
X-15750Y-19012D02*
D03*
Y-20980D02*
D03*
Y-22949D02*
D03*
Y-24917D02*
D03*
Y-26886D02*
D03*
X-3545D02*
D03*
Y-24917D02*
D03*
Y-22949D02*
D03*
Y-20980D02*
D03*
Y-19012D02*
D03*
D147*
X-9744Y-5413D02*
D03*
X-9647Y-22949D02*
D03*
D148*
X-5602Y3445D02*
D03*
X-12114D02*
D03*
D149*
X-56102Y-38386D02*
D03*
X-48228Y-42126D02*
D03*
Y-34646D02*
D03*
D150*
X-20866Y-14551D02*
D03*
Y-21063D02*
D03*
D151*
X35433Y-37008D02*
D03*
X27559Y-49606D02*
D03*
X19685Y-37008D02*
D03*
X11811Y-49606D02*
D03*
X3937Y-37008D02*
D03*
X-3937Y-49606D02*
D03*
X-11811Y-37008D02*
D03*
X-19685Y-49606D02*
D03*
X-27559Y-37008D02*
D03*
X-35433Y-49606D02*
D03*
Y37008D02*
D03*
X-27559Y49606D02*
D03*
X-19685Y37008D02*
D03*
X-11811Y49606D02*
D03*
X-3937Y37008D02*
D03*
X3937Y49606D02*
D03*
X11811Y37008D02*
D03*
X19685Y49606D02*
D03*
X27559Y37008D02*
D03*
X35433Y49606D02*
D03*
D152*
X103166Y18377D02*
D03*
X99229D02*
D03*
X72146Y11713D02*
D03*
X76083D02*
D03*
X105217Y-25689D02*
D03*
X101279D02*
D03*
D153*
X103482Y14451D02*
D03*
X98946D02*
D03*
X71649Y16732D02*
D03*
X76185D02*
D03*
M02*
