G04*
G04 #@! TF.GenerationSoftware,Altium Limited,Altium Designer,23.3.1 (30)*
G04*
G04 Layer_Color=8388736*
%FSLAX25Y25*%
%MOIN*%
G70*
G04*
G04 #@! TF.SameCoordinates,B70FCE46-08B3-410F-AF2C-83C1FDED7243*
G04*
G04*
G04 #@! TF.FilePolarity,Negative*
G04*
G01*
G75*
%ADD18C,0.00000*%
%ADD22R,0.01772X0.02657*%
%ADD24R,0.01788X0.01428*%
%ADD26R,0.01822X0.02182*%
%ADD27R,0.01181X0.00984*%
%ADD31R,0.01575X0.02362*%
%ADD32C,0.00770*%
%ADD33R,0.01483X0.01194*%
%ADD39R,0.01378X0.01575*%
%ADD47R,0.02254X0.02423*%
%ADD48R,0.02423X0.02254*%
%ADD49R,0.02756X0.04528*%
%ADD50R,0.04528X0.02756*%
%ADD51R,0.02756X0.02756*%
G04:AMPARAMS|DCode=55|XSize=24.23mil|YSize=22.54mil|CornerRadius=0mil|HoleSize=0mil|Usage=FLASHONLY|Rotation=45.000|XOffset=0mil|YOffset=0mil|HoleType=Round|Shape=Rectangle|*
%AMROTATEDRECTD55*
4,1,4,-0.00060,-0.01653,-0.01653,-0.00060,0.00060,0.01653,0.01653,0.00060,-0.00060,-0.01653,0.0*
%
%ADD55ROTATEDRECTD55*%

%ADD56R,0.01877X0.01588*%
%ADD57R,0.02598X0.02775*%
%ADD58R,0.01428X0.01788*%
%ADD59R,0.01499X0.02106*%
%ADD60R,0.02106X0.01499*%
%ADD62C,0.02756*%
%ADD63R,0.02559X0.02559*%
%ADD64C,0.00748*%
%ADD65R,0.01772X0.01378*%
%ADD66C,0.00728*%
G04:AMPARAMS|DCode=67|XSize=35.43mil|YSize=102.36mil|CornerRadius=9.84mil|HoleSize=0mil|Usage=FLASHONLY|Rotation=217.000|XOffset=0mil|YOffset=0mil|HoleType=Round|Shape=RoundedRectangle|*
%AMROUNDEDRECTD67*
21,1,0.03543,0.08268,0,0,217.0*
21,1,0.01575,0.10236,0,0,217.0*
1,1,0.01968,-0.03117,0.02828*
1,1,0.01968,-0.01859,0.03775*
1,1,0.01968,0.03117,-0.02828*
1,1,0.01968,0.01859,-0.03775*
%
%ADD67ROUNDEDRECTD67*%
%ADD68R,0.01378X0.01772*%
%ADD69R,0.02559X0.02559*%
%ADD70R,0.04724X0.04331*%
%ADD71C,0.01772*%
%ADD72R,0.03150X0.02362*%
%ADD73C,0.05512*%
%ADD74R,0.03347X0.02953*%
%ADD75R,0.02362X0.02362*%
%ADD76R,0.03937X0.01181*%
G04:AMPARAMS|DCode=77|XSize=35.43mil|YSize=62.99mil|CornerRadius=9.84mil|HoleSize=0mil|Usage=FLASHONLY|Rotation=180.000|XOffset=0mil|YOffset=0mil|HoleType=Round|Shape=RoundedRectangle|*
%AMROUNDEDRECTD77*
21,1,0.03543,0.04331,0,0,180.0*
21,1,0.01575,0.06299,0,0,180.0*
1,1,0.01968,-0.00787,0.02165*
1,1,0.01968,0.00787,0.02165*
1,1,0.01968,0.00787,-0.02165*
1,1,0.01968,-0.00787,-0.02165*
%
%ADD77ROUNDEDRECTD77*%
G04:AMPARAMS|DCode=78|XSize=22.05mil|YSize=19.68mil|CornerRadius=0mil|HoleSize=0mil|Usage=FLASHONLY|Rotation=45.000|XOffset=0mil|YOffset=0mil|HoleType=Round|Shape=Rectangle|*
%AMROTATEDRECTD78*
4,1,4,-0.00084,-0.01476,-0.01476,-0.00084,0.00084,0.01476,0.01476,0.00084,-0.00084,-0.01476,0.0*
%
%ADD78ROTATEDRECTD78*%

%ADD79R,0.02559X0.06299*%
%ADD80R,0.03937X0.04331*%
%ADD81R,0.04528X0.01772*%
%ADD82R,0.01772X0.04528*%
%ADD83R,0.09291X0.09291*%
%ADD84R,0.04331X0.00787*%
%ADD85R,0.03937X0.00787*%
%ADD86R,0.02953X0.01102*%
%ADD87O,0.04429X0.00886*%
%ADD88O,0.04378X0.00984*%
%ADD89O,0.04476X0.00787*%
%ADD90O,0.04323X0.01083*%
%ADD91O,0.04260X0.01181*%
%ADD92O,0.02992X0.01968*%
%ADD93O,0.04185X0.01280*%
%ADD94O,0.04095X0.01378*%
%ADD95O,0.03988X0.01476*%
%ADD96O,0.03862X0.01575*%
%ADD97O,0.03713X0.01673*%
%ADD98O,0.03532X0.01772*%
%ADD99O,0.03406X0.01831*%
%ADD100O,0.03307X0.01870*%
%ADD101O,0.03150X0.01929*%
%ADD102O,0.02480X0.02047*%
%ADD103O,0.02795X0.02008*%
%ADD104C,0.02067*%
%ADD105C,0.04528*%
%ADD106R,0.04528X0.04528*%
%ADD107C,0.10236*%
%ADD108C,0.02769*%
G36*
X70276Y10433D02*
Y-3740D01*
X59509Y-14507D01*
Y-24011D01*
X58520Y-25000D01*
X47441D01*
Y-19390D01*
X41732Y-13681D01*
X31094D01*
X25591Y-8177D01*
X25676Y-8091D01*
Y1391D01*
X25680Y1375D01*
X29156Y4851D01*
X32605D01*
X38189Y10435D01*
Y15846D01*
X40945Y18602D01*
X62106D01*
X70276Y10433D01*
D02*
G37*
D18*
X48031Y53740D02*
X88061Y44094D01*
X-50299Y53740D02*
X48031Y53740D01*
X-50299Y53740D02*
X-46694Y48956D01*
X-70653Y30902D02*
X-46694Y48956D01*
X-74384Y35852D02*
X-70653Y30902D01*
X-86614Y23622D02*
X-74384Y35852D01*
X-86614Y-24606D02*
Y23622D01*
Y-24606D02*
X-57480Y-53740D01*
X49061D01*
X90256Y-44094D01*
X110236Y-25591D01*
X110236Y19184D02*
X110236Y-25591D01*
X88061Y44094D02*
X110236Y19184D01*
D22*
X19625Y15800D02*
D03*
X15983D02*
D03*
D24*
X65456Y-17163D02*
D03*
X67853D02*
D03*
X21987Y8623D02*
D03*
X19591D02*
D03*
X19422Y13156D02*
D03*
X17026D02*
D03*
X19867Y10946D02*
D03*
X17471D02*
D03*
X13403Y-3051D02*
D03*
X11007D02*
D03*
X13501Y-787D02*
D03*
X11105D02*
D03*
X63147Y-23848D02*
D03*
X60751D02*
D03*
X63147Y-19371D02*
D03*
X60751D02*
D03*
D26*
X19291Y-11991D02*
D03*
Y-14781D02*
D03*
X21850D02*
D03*
Y-11991D02*
D03*
X24606Y13993D02*
D03*
Y11203D02*
D03*
X22356Y12324D02*
D03*
Y15114D02*
D03*
D27*
X16603Y-13812D02*
D03*
Y-11450D02*
D03*
D31*
X13784Y15593D02*
D03*
X10240D02*
D03*
D32*
X15447Y20393D02*
D03*
X17022D02*
D03*
X15447Y18818D02*
D03*
X17022D02*
D03*
D33*
X10834Y21358D02*
D03*
X8760D02*
D03*
D39*
X107167Y-23935D02*
D03*
X104608D02*
D03*
D47*
X7776Y-32888D02*
D03*
Y-29513D02*
D03*
X-23327Y38400D02*
D03*
Y35025D02*
D03*
D48*
X-11431Y6693D02*
D03*
X-8057D02*
D03*
X-20191Y-19291D02*
D03*
X-16817D02*
D03*
X8085Y-17815D02*
D03*
X4710D02*
D03*
X13182Y-16153D02*
D03*
X16557D02*
D03*
X-37120Y2756D02*
D03*
X-33746D02*
D03*
X-39975Y-19882D02*
D03*
X-36600D02*
D03*
X-38990Y16142D02*
D03*
X-35616D02*
D03*
X-18912Y15551D02*
D03*
X-15537D02*
D03*
D49*
X-46962Y15977D02*
D03*
X-50899D02*
D03*
X-54836D02*
D03*
X-58773D02*
D03*
X-62710D02*
D03*
X-66647D02*
D03*
X-70584D02*
D03*
X-74521D02*
D03*
X-78458D02*
D03*
X-82395D02*
D03*
Y-16503D02*
D03*
X-78458D02*
D03*
X-74521D02*
D03*
X-70584D02*
D03*
X-66647D02*
D03*
X-62710D02*
D03*
X-58773D02*
D03*
X-54836D02*
D03*
X-50899D02*
D03*
X-46962D02*
D03*
D50*
X-82100Y7611D02*
D03*
Y3674D02*
D03*
Y-263D02*
D03*
Y-4200D02*
D03*
Y-8137D02*
D03*
X-47258D02*
D03*
Y-4200D02*
D03*
Y-263D02*
D03*
Y3674D02*
D03*
Y7611D02*
D03*
D51*
X-52671Y10564D02*
D03*
Y6233D02*
D03*
Y1902D02*
D03*
Y-2428D02*
D03*
Y-6759D02*
D03*
Y-11090D02*
D03*
X-57907Y2001D02*
D03*
Y-2527D02*
D03*
X-62435Y6528D02*
D03*
Y2001D02*
D03*
Y-2527D02*
D03*
Y-7054D02*
D03*
X-66962Y2001D02*
D03*
Y-2527D02*
D03*
X-71490Y6528D02*
D03*
Y2001D02*
D03*
Y-2527D02*
D03*
Y-7054D02*
D03*
D55*
X-77374Y21346D02*
D03*
X-74988Y23732D02*
D03*
X-82099Y21445D02*
D03*
X-79712Y23831D02*
D03*
D56*
X63285Y-26341D02*
D03*
X60818D02*
D03*
X63241Y-21624D02*
D03*
X60773D02*
D03*
D57*
X27526Y11221D02*
D03*
Y14587D02*
D03*
X30895Y9579D02*
D03*
Y12945D02*
D03*
D58*
X33957Y11203D02*
D03*
Y13600D02*
D03*
X36319Y13009D02*
D03*
Y10613D02*
D03*
D59*
X6890Y2353D02*
D03*
Y5128D02*
D03*
D60*
X11624Y8268D02*
D03*
X8849D02*
D03*
D62*
X-30807Y36417D02*
G03*
X-30807Y36417I-1378J0D01*
G01*
X-37402Y-26083D02*
G03*
X-37402Y-26083I-1378J0D01*
G01*
D63*
X60063Y-29135D02*
D03*
X63606D02*
D03*
X-33661Y6398D02*
D03*
X-37205D02*
D03*
D64*
X49250Y-17970D02*
D03*
Y-19545D02*
D03*
Y-21120D02*
D03*
Y-22695D02*
D03*
X50825Y-17970D02*
D03*
Y-19545D02*
D03*
Y-21120D02*
D03*
Y-22695D02*
D03*
X52399Y-17970D02*
D03*
Y-19545D02*
D03*
Y-21120D02*
D03*
Y-22695D02*
D03*
X53974Y-17970D02*
D03*
Y-19545D02*
D03*
Y-21120D02*
D03*
Y-22695D02*
D03*
X55549Y-17970D02*
D03*
Y-19545D02*
D03*
Y-21120D02*
D03*
Y-22695D02*
D03*
X57124Y-17970D02*
D03*
Y-19545D02*
D03*
Y-21120D02*
D03*
Y-22695D02*
D03*
D65*
X11575Y-13364D02*
D03*
X13741D02*
D03*
X12919Y23643D02*
D03*
X10753D02*
D03*
X-25197Y31693D02*
D03*
X-27362D02*
D03*
X-19390Y-16535D02*
D03*
X-17224D02*
D03*
X-18701Y18406D02*
D03*
X-16535D02*
D03*
D66*
X23327Y1772D02*
D03*
X19193Y-3740D02*
D03*
Y-2362D02*
D03*
X20571D02*
D03*
Y-3740D02*
D03*
X21949Y-2362D02*
D03*
Y-3740D02*
D03*
X23327D02*
D03*
Y-2362D02*
D03*
X24705D02*
D03*
Y-3740D02*
D03*
X26083D02*
D03*
Y-2362D02*
D03*
X27461D02*
D03*
Y-3740D02*
D03*
X28839D02*
D03*
Y-2362D02*
D03*
Y-984D02*
D03*
X27461D02*
D03*
X26083D02*
D03*
X24705D02*
D03*
X23327D02*
D03*
X21949D02*
D03*
X20571D02*
D03*
X19193D02*
D03*
Y394D02*
D03*
X20571D02*
D03*
X21949D02*
D03*
X23327D02*
D03*
X24705D02*
D03*
X26083D02*
D03*
X27461D02*
D03*
X28839D02*
D03*
Y1772D02*
D03*
X26083D02*
D03*
X24705D02*
D03*
X27461D02*
D03*
X21949D02*
D03*
X20571D02*
D03*
X19193D02*
D03*
Y3150D02*
D03*
X20571D02*
D03*
X21949D02*
D03*
X23327D02*
D03*
X24705D02*
D03*
X26083D02*
D03*
X27461D02*
D03*
X28839D02*
D03*
Y4528D02*
D03*
X27461D02*
D03*
X26083D02*
D03*
X24705D02*
D03*
X23327D02*
D03*
X21949D02*
D03*
X20571D02*
D03*
X19193D02*
D03*
X30217Y1772D02*
D03*
Y3150D02*
D03*
Y4528D02*
D03*
Y5906D02*
D03*
X28839D02*
D03*
X27461D02*
D03*
X26083D02*
D03*
X23327Y-6496D02*
D03*
X21949Y5906D02*
D03*
X20571D02*
D03*
X19193D02*
D03*
X30217Y394D02*
D03*
Y-984D02*
D03*
Y-2362D02*
D03*
Y-3740D02*
D03*
Y-5118D02*
D03*
X28839D02*
D03*
X27461D02*
D03*
X26083D02*
D03*
X24705D02*
D03*
X23327D02*
D03*
X21949D02*
D03*
X20571D02*
D03*
X19193D02*
D03*
X17815Y5906D02*
D03*
Y4528D02*
D03*
Y3150D02*
D03*
Y1772D02*
D03*
Y394D02*
D03*
Y-984D02*
D03*
Y-2362D02*
D03*
Y-3740D02*
D03*
Y-5118D02*
D03*
X30217Y-6496D02*
D03*
X28839D02*
D03*
X27461D02*
D03*
X26083D02*
D03*
X24705Y-6496D02*
D03*
X21949Y-6496D02*
D03*
X20571D02*
D03*
X19193D02*
D03*
X17815D02*
D03*
D67*
X-51198Y38316D02*
D03*
X-63177Y29289D02*
D03*
X-59184Y32298D02*
D03*
X-55191Y35307D02*
D03*
X-47205Y41325D02*
D03*
D68*
X12894Y21555D02*
D03*
Y19390D02*
D03*
X57480Y-40748D02*
D03*
Y-42913D02*
D03*
X49114Y-42421D02*
D03*
Y-44587D02*
D03*
X57776Y40650D02*
D03*
Y42815D02*
D03*
X49902Y41437D02*
D03*
Y43602D02*
D03*
X42Y-18602D02*
D03*
Y-20768D02*
D03*
D69*
X87894Y-23327D02*
D03*
Y-26870D02*
D03*
X-30610Y6398D02*
D03*
Y2854D02*
D03*
X-27362Y6398D02*
D03*
Y2854D02*
D03*
D70*
X83071Y-22638D02*
D03*
Y-28543D02*
D03*
X75591Y-22638D02*
D03*
Y-28543D02*
D03*
D71*
X49311Y8366D02*
D03*
X53248D02*
D03*
X57185D02*
D03*
X61122D02*
D03*
X65059D02*
D03*
X49311Y4429D02*
D03*
X53248D02*
D03*
X57185D02*
D03*
X61122D02*
D03*
X65059D02*
D03*
X49311Y492D02*
D03*
X53248D02*
D03*
X57185D02*
D03*
X61122D02*
D03*
X65059D02*
D03*
X49311Y-3445D02*
D03*
X53248D02*
D03*
X57185D02*
D03*
X61122D02*
D03*
X65059D02*
D03*
X49311Y-7382D02*
D03*
X53248D02*
D03*
X57185D02*
D03*
X61122D02*
D03*
D72*
X106398Y-20472D02*
D03*
X102854D02*
D03*
D73*
X97270Y27096D02*
D03*
X97441Y-31004D02*
D03*
X-40393Y-50000D02*
D03*
X-48313D02*
D03*
X-56398Y-49508D02*
D03*
X-64300Y-41655D02*
D03*
X-71932Y-33912D02*
D03*
X65933Y45731D02*
D03*
X89868Y-38666D02*
D03*
X65421Y-45844D02*
D03*
X73672Y-43672D02*
D03*
X73863Y43824D02*
D03*
X57406Y-47739D02*
D03*
X49138Y-49562D02*
D03*
X57836Y47705D02*
D03*
X49906Y49508D02*
D03*
X-41268Y49589D02*
D03*
X-32185Y49705D02*
D03*
X40825Y-49792D02*
D03*
X41575Y50098D02*
D03*
X89787Y35820D02*
D03*
X-32399Y-49734D02*
D03*
D74*
X14075Y5315D02*
D03*
X9941D02*
D03*
Y2362D02*
D03*
X14075D02*
D03*
D75*
X14357Y-20542D02*
D03*
X17507D02*
D03*
X20657D02*
D03*
X23806D02*
D03*
X26956D02*
D03*
Y-23691D02*
D03*
X14357D02*
D03*
Y-26841D02*
D03*
X17507D02*
D03*
X20657D02*
D03*
X23806D02*
D03*
X26956D02*
D03*
D76*
X3839Y-26476D02*
D03*
Y-24902D02*
D03*
Y-23327D02*
D03*
Y-21752D02*
D03*
X8169D02*
D03*
Y-23327D02*
D03*
Y-24902D02*
D03*
Y-26476D02*
D03*
D77*
X32394Y50394D02*
D03*
X27394D02*
D03*
X394D02*
D03*
X-4606Y50394D02*
D03*
X16394Y50394D02*
D03*
X11394D02*
D03*
X-20606Y50394D02*
D03*
X-15606Y50394D02*
D03*
Y-50295D02*
D03*
X-20606Y-50295D02*
D03*
X11394Y-50295D02*
D03*
X16394D02*
D03*
X-4606Y-50295D02*
D03*
X394Y-50295D02*
D03*
X27394D02*
D03*
X32394D02*
D03*
D78*
X-84045Y-24433D02*
D03*
X-81261Y-27216D02*
D03*
D79*
X-63628Y-25039D02*
D03*
X-76424D02*
D03*
D80*
X24311Y-32874D02*
D03*
X18012D02*
D03*
X11713D02*
D03*
D81*
X-16732Y-1476D02*
D03*
Y-4035D02*
D03*
Y-6594D02*
D03*
Y-9154D02*
D03*
X-2165D02*
D03*
Y-6594D02*
D03*
Y-4035D02*
D03*
Y-1476D02*
D03*
D82*
X-13287Y-12598D02*
D03*
X-10728D02*
D03*
X-8169D02*
D03*
X-5610D02*
D03*
Y1969D02*
D03*
X-8169D02*
D03*
X-10728D02*
D03*
X-13287D02*
D03*
D83*
X-9449Y-5315D02*
D03*
D84*
X-25197Y-26181D02*
D03*
X-24213Y9646D02*
D03*
D85*
X-25000Y-24606D02*
D03*
Y-23031D02*
D03*
Y-21457D02*
D03*
Y-19882D02*
D03*
Y-18307D02*
D03*
Y-16732D02*
D03*
Y-15157D02*
D03*
Y-13583D02*
D03*
Y-12008D02*
D03*
X-32087D02*
D03*
Y-13583D02*
D03*
Y-15157D02*
D03*
Y-16732D02*
D03*
Y-18307D02*
D03*
Y-19882D02*
D03*
Y-21457D02*
D03*
Y-23031D02*
D03*
Y-24606D02*
D03*
Y-26181D02*
D03*
X-31102Y9646D02*
D03*
Y11220D02*
D03*
Y12795D02*
D03*
Y14370D02*
D03*
Y15945D02*
D03*
Y17520D02*
D03*
Y19094D02*
D03*
Y20669D02*
D03*
Y22244D02*
D03*
Y23819D02*
D03*
X-24016D02*
D03*
Y22244D02*
D03*
Y20669D02*
D03*
Y19094D02*
D03*
Y17520D02*
D03*
Y15945D02*
D03*
Y14370D02*
D03*
Y12795D02*
D03*
Y11220D02*
D03*
D86*
X88311Y4961D02*
D03*
Y3387D02*
D03*
Y1812D02*
D03*
Y237D02*
D03*
Y-1338D02*
D03*
Y-2913D02*
D03*
Y-4487D02*
D03*
Y-6062D02*
D03*
Y-7637D02*
D03*
Y-9212D02*
D03*
Y-10787D02*
D03*
X104689Y4961D02*
D03*
Y3387D02*
D03*
Y1812D02*
D03*
Y237D02*
D03*
Y-1338D02*
D03*
Y-2913D02*
D03*
Y-4487D02*
D03*
Y-6062D02*
D03*
Y-7637D02*
D03*
Y-9212D02*
D03*
Y-10787D02*
D03*
X88311Y-12361D02*
D03*
X104689D02*
D03*
D87*
X-32185Y35679D02*
D03*
Y37156D02*
D03*
X-38780Y-25344D02*
D03*
Y-26821D02*
D03*
D88*
X-32185Y35630D02*
D03*
Y37205D02*
D03*
X-38780Y-25295D02*
D03*
Y-26870D02*
D03*
D89*
X-32185Y35728D02*
D03*
Y37106D02*
D03*
X-38780Y-25394D02*
D03*
Y-26772D02*
D03*
D90*
X-32185Y35581D02*
D03*
Y37254D02*
D03*
X-38780Y-25246D02*
D03*
Y-26919D02*
D03*
D91*
X-32185Y35531D02*
D03*
Y37303D02*
D03*
X-38780Y-25197D02*
D03*
Y-26969D02*
D03*
D92*
X-32185Y35138D02*
D03*
Y37697D02*
D03*
X-38780Y-24803D02*
D03*
Y-27362D02*
D03*
D93*
X-32185Y35482D02*
D03*
Y37352D02*
D03*
X-38780Y-25148D02*
D03*
Y-27018D02*
D03*
D94*
X-32185Y35433D02*
D03*
Y37402D02*
D03*
X-38780Y-25098D02*
D03*
Y-27067D02*
D03*
D95*
X-32185Y35384D02*
D03*
Y37451D02*
D03*
X-38780Y-25049D02*
D03*
Y-27116D02*
D03*
D96*
X-32185Y35335D02*
D03*
Y37500D02*
D03*
X-38780Y-25000D02*
D03*
Y-27165D02*
D03*
D97*
X-32185Y35285D02*
D03*
Y37549D02*
D03*
X-38780Y-24951D02*
D03*
Y-27215D02*
D03*
D98*
X-32185Y35236D02*
D03*
Y37598D02*
D03*
X-38780Y-24902D02*
D03*
Y-27264D02*
D03*
D99*
X-32185Y35207D02*
D03*
Y37628D02*
D03*
X-38780Y-24872D02*
D03*
Y-27293D02*
D03*
D100*
X-32185Y35187D02*
D03*
Y37648D02*
D03*
X-38780Y-24852D02*
D03*
Y-27313D02*
D03*
D101*
X-32185Y35157D02*
D03*
Y37677D02*
D03*
X-38780Y-24823D02*
D03*
Y-27343D02*
D03*
D102*
X-32185Y35098D02*
D03*
Y37736D02*
D03*
X-38780Y-24764D02*
D03*
Y-27402D02*
D03*
D103*
X-32185Y35118D02*
D03*
Y37716D02*
D03*
X-38780Y-24783D02*
D03*
Y-27382D02*
D03*
D104*
X-32185Y35089D02*
D03*
Y37746D02*
D03*
X-38780Y-24754D02*
D03*
Y-27411D02*
D03*
D105*
X-35433Y-43307D02*
D03*
X27559D02*
D03*
X-19685D02*
D03*
X-27559D02*
D03*
X19685D02*
D03*
X11811D02*
D03*
X-11811D02*
D03*
X-3937D02*
D03*
X3937D02*
D03*
Y43307D02*
D03*
X-3937D02*
D03*
X-11811D02*
D03*
X11811D02*
D03*
X19685D02*
D03*
X-27559D02*
D03*
X-19685D02*
D03*
X27559D02*
D03*
X-35433D02*
D03*
D106*
X35433Y-43307D02*
D03*
Y43307D02*
D03*
D107*
X79921Y37402D02*
D03*
Y-37402D02*
D03*
D108*
X-7776Y-5413D02*
D03*
X-11713D02*
D03*
X-9744Y-1673D02*
D03*
Y-9154D02*
D03*
X-9647Y-26689D02*
D03*
Y-19209D02*
D03*
X-11616Y-22949D02*
D03*
X-7679D02*
D03*
M02*
