G04*
G04 #@! TF.GenerationSoftware,Altium Limited,Altium Designer,23.3.1 (30)*
G04*
G04 Layer_Color=8421504*
%FSLAX25Y25*%
%MOIN*%
G70*
G04*
G04 #@! TF.SameCoordinates,B70FCE46-08B3-410F-AF2C-83C1FDED7243*
G04*
G04*
G04 #@! TF.FilePolarity,Positive*
G04*
G01*
G75*
%ADD18C,0.00000*%
%ADD19R,0.04134X0.00787*%
%ADD20R,0.03740X0.00787*%
%ADD21R,0.03740X0.00787*%
%ADD22R,0.01772X0.02657*%
%ADD23R,0.02165X0.02165*%
%ADD24R,0.01788X0.01428*%
%ADD25C,0.00906*%
%ADD26R,0.01822X0.02182*%
%ADD27R,0.01181X0.00984*%
%ADD28R,0.01378X0.00984*%
%ADD29C,0.00689*%
G04:AMPARAMS|DCode=30|XSize=31.5mil|YSize=98.43mil|CornerRadius=7.87mil|HoleSize=0mil|Usage=FLASHONLY|Rotation=217.000|XOffset=0mil|YOffset=0mil|HoleType=Round|Shape=RoundedRectangle|*
%AMROUNDEDRECTD30*
21,1,0.03150,0.08268,0,0,217.0*
21,1,0.01575,0.09843,0,0,217.0*
1,1,0.01575,-0.03117,0.02828*
1,1,0.01575,-0.01859,0.03775*
1,1,0.01575,0.03117,-0.02828*
1,1,0.01575,0.01859,-0.03775*
%
%ADD30ROUNDEDRECTD30*%
%ADD31R,0.01575X0.02362*%
%ADD32C,0.00770*%
%ADD33R,0.01483X0.01194*%
%ADD34R,0.00984X0.01378*%
%ADD35R,0.02165X0.02165*%
%ADD36R,0.04331X0.03937*%
%ADD37C,0.01378*%
%ADD38R,0.02756X0.01968*%
%ADD39R,0.01378X0.01575*%
%ADD40R,0.02953X0.02559*%
%ADD41R,0.01968X0.01968*%
%ADD42R,0.03543X0.00787*%
G04:AMPARAMS|DCode=43|XSize=31.5mil|YSize=59.06mil|CornerRadius=7.87mil|HoleSize=0mil|Usage=FLASHONLY|Rotation=180.000|XOffset=0mil|YOffset=0mil|HoleType=Round|Shape=RoundedRectangle|*
%AMROUNDEDRECTD43*
21,1,0.03150,0.04331,0,0,180.0*
21,1,0.01575,0.05906,0,0,180.0*
1,1,0.01575,-0.00787,0.02165*
1,1,0.01575,0.00787,0.02165*
1,1,0.01575,0.00787,-0.02165*
1,1,0.01575,-0.00787,-0.02165*
%
%ADD43ROUNDEDRECTD43*%
G04:AMPARAMS|DCode=44|XSize=18.11mil|YSize=15.75mil|CornerRadius=0mil|HoleSize=0mil|Usage=FLASHONLY|Rotation=45.000|XOffset=0mil|YOffset=0mil|HoleType=Round|Shape=Rectangle|*
%AMROTATEDRECTD44*
4,1,4,-0.00084,-0.01197,-0.01197,-0.00084,0.00084,0.01197,0.01197,0.00084,-0.00084,-0.01197,0.0*
%
%ADD44ROTATEDRECTD44*%

%ADD45R,0.02165X0.05906*%
%ADD46R,0.03543X0.03937*%
%ADD47R,0.02254X0.02423*%
%ADD48R,0.02423X0.02254*%
%ADD49R,0.02756X0.04528*%
%ADD50R,0.04528X0.02756*%
%ADD51R,0.02756X0.02756*%
%ADD52R,0.04134X0.01378*%
%ADD53R,0.01378X0.04134*%
%ADD54R,0.08898X0.08898*%
G04:AMPARAMS|DCode=55|XSize=24.23mil|YSize=22.54mil|CornerRadius=0mil|HoleSize=0mil|Usage=FLASHONLY|Rotation=45.000|XOffset=0mil|YOffset=0mil|HoleType=Round|Shape=Rectangle|*
%AMROTATEDRECTD55*
4,1,4,-0.00060,-0.01653,-0.01653,-0.00060,0.00060,0.01653,0.01653,0.00060,-0.00060,-0.01653,0.0*
%
%ADD55ROTATEDRECTD55*%

%ADD56R,0.01877X0.01588*%
%ADD57R,0.02598X0.02775*%
%ADD58R,0.01428X0.01788*%
%ADD59R,0.01499X0.02106*%
%ADD60R,0.02106X0.01499*%
%ADD61R,0.02756X0.00906*%
D18*
X48031Y53740D02*
X88061Y44094D01*
X-50299Y53740D02*
X48031Y53740D01*
X-50299Y53740D02*
X-46694Y48956D01*
X-70653Y30902D02*
X-46694Y48956D01*
X-74384Y35852D02*
X-70653Y30902D01*
X-86614Y23622D02*
X-74384Y35852D01*
X-86614Y-24606D02*
Y23622D01*
Y-24606D02*
X-57480Y-53740D01*
X49061D01*
X90256Y-44094D01*
X110236Y-25591D01*
X110236Y19184D02*
X110236Y-25591D01*
X88061Y44094D02*
X110236Y19184D01*
D19*
X-25197Y-26181D02*
D03*
X-24213Y9646D02*
D03*
D20*
X-25000Y-24606D02*
D03*
Y-23031D02*
D03*
Y-19882D02*
D03*
Y-18307D02*
D03*
Y-15157D02*
D03*
Y-13583D02*
D03*
Y-12008D02*
D03*
X-32087Y-26181D02*
D03*
Y-24606D02*
D03*
Y-23031D02*
D03*
Y-19882D02*
D03*
Y-18307D02*
D03*
Y-15157D02*
D03*
Y-13583D02*
D03*
Y-12008D02*
D03*
X-31102Y23819D02*
D03*
Y22244D02*
D03*
Y20669D02*
D03*
X-31102Y17520D02*
D03*
Y15945D02*
D03*
X-31102Y12795D02*
D03*
Y11220D02*
D03*
Y9646D02*
D03*
X-24016Y23819D02*
D03*
Y22244D02*
D03*
Y20669D02*
D03*
X-24016Y17520D02*
D03*
Y15945D02*
D03*
X-24016Y12795D02*
D03*
Y11220D02*
D03*
D21*
X-25000Y-21457D02*
D03*
Y-16732D02*
D03*
X-32087Y-21457D02*
D03*
Y-16732D02*
D03*
X-31102Y19094D02*
D03*
X-31102Y14370D02*
D03*
X-24016Y19094D02*
D03*
X-24016Y14370D02*
D03*
D22*
X19625Y15800D02*
D03*
X15983D02*
D03*
D23*
X60063Y-29135D02*
D03*
X63606D02*
D03*
X-33661Y6398D02*
D03*
X-37205D02*
D03*
D24*
X65456Y-17163D02*
D03*
X67853D02*
D03*
X21987Y8623D02*
D03*
X19591D02*
D03*
X19422Y13156D02*
D03*
X17026D02*
D03*
X19867Y10946D02*
D03*
X17471D02*
D03*
X13403Y-3051D02*
D03*
X11007D02*
D03*
X13501Y-787D02*
D03*
X11105D02*
D03*
X63147Y-23848D02*
D03*
X60751D02*
D03*
X63147Y-19371D02*
D03*
X60751D02*
D03*
D25*
X49250Y-17970D02*
D03*
Y-19545D02*
D03*
Y-21120D02*
D03*
Y-22695D02*
D03*
X50825Y-17970D02*
D03*
Y-19545D02*
D03*
Y-21120D02*
D03*
Y-22695D02*
D03*
X52399Y-17970D02*
D03*
Y-19545D02*
D03*
Y-21120D02*
D03*
Y-22695D02*
D03*
X53974Y-17970D02*
D03*
Y-19545D02*
D03*
Y-21120D02*
D03*
Y-22695D02*
D03*
X55549Y-17970D02*
D03*
Y-19545D02*
D03*
Y-21120D02*
D03*
Y-22695D02*
D03*
X57124Y-17970D02*
D03*
Y-19545D02*
D03*
Y-21120D02*
D03*
Y-22695D02*
D03*
D26*
X19291Y-11991D02*
D03*
Y-14781D02*
D03*
X21850D02*
D03*
Y-11991D02*
D03*
X24606Y13993D02*
D03*
Y11203D02*
D03*
X22356Y12324D02*
D03*
Y15114D02*
D03*
D27*
X16603Y-13812D02*
D03*
Y-11450D02*
D03*
D28*
X11575Y-13364D02*
D03*
X13741D02*
D03*
X12919Y23643D02*
D03*
X10753D02*
D03*
X-25197Y31693D02*
D03*
X-27362D02*
D03*
X-19390Y-16535D02*
D03*
X-17224D02*
D03*
X-18701Y18406D02*
D03*
X-16535D02*
D03*
D29*
X23327Y1772D02*
D03*
X19193Y-3740D02*
D03*
Y-2362D02*
D03*
X20571D02*
D03*
Y-3740D02*
D03*
X21949Y-2362D02*
D03*
Y-3740D02*
D03*
X23327D02*
D03*
Y-2362D02*
D03*
X24705D02*
D03*
Y-3740D02*
D03*
X26083D02*
D03*
Y-2362D02*
D03*
X27461D02*
D03*
Y-3740D02*
D03*
X28839D02*
D03*
Y-2362D02*
D03*
Y-984D02*
D03*
X27461D02*
D03*
X26083D02*
D03*
X24705D02*
D03*
X23327D02*
D03*
X21949D02*
D03*
X20571D02*
D03*
X19193D02*
D03*
Y394D02*
D03*
X20571D02*
D03*
X21949D02*
D03*
X23327D02*
D03*
X24705D02*
D03*
X26083D02*
D03*
X27461D02*
D03*
X28839D02*
D03*
Y1772D02*
D03*
X26083D02*
D03*
X24705D02*
D03*
X27461D02*
D03*
X21949D02*
D03*
X20571D02*
D03*
X19193D02*
D03*
Y3150D02*
D03*
X20571D02*
D03*
X21949D02*
D03*
X23327D02*
D03*
X24705D02*
D03*
X26083D02*
D03*
X27461D02*
D03*
X28839D02*
D03*
Y4528D02*
D03*
X27461D02*
D03*
X26083D02*
D03*
X24705D02*
D03*
X23327D02*
D03*
X21949D02*
D03*
X20571D02*
D03*
X19193D02*
D03*
X30217Y1772D02*
D03*
Y3150D02*
D03*
Y4528D02*
D03*
Y5906D02*
D03*
X28839D02*
D03*
X27461D02*
D03*
X26083D02*
D03*
X23327Y-6496D02*
D03*
X21949Y5906D02*
D03*
X20571D02*
D03*
X19193D02*
D03*
X30217Y394D02*
D03*
Y-984D02*
D03*
Y-2362D02*
D03*
Y-3740D02*
D03*
Y-5118D02*
D03*
X28839D02*
D03*
X27461D02*
D03*
X26083D02*
D03*
X24705D02*
D03*
X23327D02*
D03*
X21949D02*
D03*
X20571D02*
D03*
X19193D02*
D03*
X17815Y5906D02*
D03*
Y4528D02*
D03*
Y3150D02*
D03*
Y1772D02*
D03*
Y394D02*
D03*
Y-984D02*
D03*
Y-2362D02*
D03*
Y-3740D02*
D03*
Y-5118D02*
D03*
X30217Y-6496D02*
D03*
X28839D02*
D03*
X27461D02*
D03*
X26083D02*
D03*
X24705Y-6496D02*
D03*
X21949Y-6496D02*
D03*
X20571D02*
D03*
X19193D02*
D03*
X17815D02*
D03*
D30*
X-51198Y38316D02*
D03*
X-63177Y29289D02*
D03*
X-59184Y32298D02*
D03*
X-55191Y35307D02*
D03*
X-47205Y41325D02*
D03*
D31*
X13784Y15593D02*
D03*
X10240D02*
D03*
D32*
X15447Y20393D02*
D03*
X17022D02*
D03*
X15447Y18818D02*
D03*
X17022D02*
D03*
D33*
X10834Y21358D02*
D03*
X8760D02*
D03*
D34*
X12894Y21555D02*
D03*
Y19390D02*
D03*
X57480Y-40748D02*
D03*
Y-42913D02*
D03*
X49114Y-42421D02*
D03*
Y-44587D02*
D03*
X57776Y40650D02*
D03*
Y42815D02*
D03*
X49902Y41437D02*
D03*
Y43602D02*
D03*
X42Y-18602D02*
D03*
Y-20768D02*
D03*
D35*
X87894Y-23327D02*
D03*
Y-26870D02*
D03*
X-30610Y6398D02*
D03*
Y2854D02*
D03*
X-27362Y6398D02*
D03*
Y2854D02*
D03*
D36*
X83071Y-22638D02*
D03*
Y-28543D02*
D03*
X75591Y-22638D02*
D03*
Y-28543D02*
D03*
D37*
X49311Y8366D02*
D03*
X53248D02*
D03*
X57185D02*
D03*
X61122D02*
D03*
X65059D02*
D03*
X49311Y4429D02*
D03*
X53248D02*
D03*
X57185D02*
D03*
X61122D02*
D03*
X65059D02*
D03*
X49311Y492D02*
D03*
X53248D02*
D03*
X57185D02*
D03*
X61122D02*
D03*
X65059D02*
D03*
X49311Y-3445D02*
D03*
X53248D02*
D03*
X57185D02*
D03*
X61122D02*
D03*
X65059D02*
D03*
X49311Y-7382D02*
D03*
X53248D02*
D03*
X57185D02*
D03*
X61122D02*
D03*
D38*
X106398Y-20472D02*
D03*
X102854D02*
D03*
D39*
X107167Y-23935D02*
D03*
X104608D02*
D03*
D40*
X14075Y5315D02*
D03*
X9941D02*
D03*
Y2362D02*
D03*
X14075D02*
D03*
D41*
X14357Y-20542D02*
D03*
X17507D02*
D03*
X20657D02*
D03*
X23806D02*
D03*
X26956D02*
D03*
Y-23691D02*
D03*
X14357D02*
D03*
Y-26841D02*
D03*
X17507D02*
D03*
X20657D02*
D03*
X23806D02*
D03*
X26956D02*
D03*
D42*
X3839Y-26476D02*
D03*
Y-24902D02*
D03*
Y-23327D02*
D03*
Y-21752D02*
D03*
X8169D02*
D03*
Y-23327D02*
D03*
Y-24902D02*
D03*
Y-26476D02*
D03*
D43*
X32394Y50394D02*
D03*
X27394D02*
D03*
X394D02*
D03*
X-4606Y50394D02*
D03*
X16394Y50394D02*
D03*
X11394D02*
D03*
X-20606Y50394D02*
D03*
X-15606Y50394D02*
D03*
Y-50295D02*
D03*
X-20606Y-50295D02*
D03*
X11394Y-50295D02*
D03*
X16394D02*
D03*
X-4606Y-50295D02*
D03*
X394Y-50295D02*
D03*
X27394D02*
D03*
X32394D02*
D03*
D44*
X-84045Y-24433D02*
D03*
X-81261Y-27216D02*
D03*
D45*
X-63628Y-25039D02*
D03*
X-76424D02*
D03*
D46*
X24311Y-32874D02*
D03*
X18012D02*
D03*
X11713D02*
D03*
D47*
X7776Y-32888D02*
D03*
Y-29513D02*
D03*
X-23327Y38400D02*
D03*
Y35025D02*
D03*
D48*
X-11431Y6693D02*
D03*
X-8057D02*
D03*
X-20191Y-19291D02*
D03*
X-16817D02*
D03*
X8085Y-17815D02*
D03*
X4710D02*
D03*
X13182Y-16153D02*
D03*
X16557D02*
D03*
X-37120Y2756D02*
D03*
X-33746D02*
D03*
X-39975Y-19882D02*
D03*
X-36600D02*
D03*
X-38990Y16142D02*
D03*
X-35616D02*
D03*
X-18912Y15551D02*
D03*
X-15537D02*
D03*
D49*
X-46962Y15977D02*
D03*
X-50899D02*
D03*
X-54836D02*
D03*
X-58773D02*
D03*
X-62710D02*
D03*
X-66647D02*
D03*
X-70584D02*
D03*
X-74521D02*
D03*
X-78458D02*
D03*
X-82395D02*
D03*
Y-16503D02*
D03*
X-78458D02*
D03*
X-74521D02*
D03*
X-70584D02*
D03*
X-66647D02*
D03*
X-62710D02*
D03*
X-58773D02*
D03*
X-54836D02*
D03*
X-50899D02*
D03*
X-46962D02*
D03*
D50*
X-82100Y7611D02*
D03*
Y3674D02*
D03*
Y-263D02*
D03*
Y-4200D02*
D03*
Y-8137D02*
D03*
X-47258D02*
D03*
Y-4200D02*
D03*
Y-263D02*
D03*
Y3674D02*
D03*
Y7611D02*
D03*
D51*
X-52671Y10564D02*
D03*
Y6233D02*
D03*
Y1902D02*
D03*
Y-2428D02*
D03*
Y-6759D02*
D03*
Y-11090D02*
D03*
X-57907Y2001D02*
D03*
Y-2527D02*
D03*
X-62435Y6528D02*
D03*
Y2001D02*
D03*
Y-2527D02*
D03*
Y-7054D02*
D03*
X-66962Y2001D02*
D03*
Y-2527D02*
D03*
X-71490Y6528D02*
D03*
Y2001D02*
D03*
Y-2527D02*
D03*
Y-7054D02*
D03*
D52*
X-16732Y-1476D02*
D03*
Y-4035D02*
D03*
Y-6594D02*
D03*
Y-9154D02*
D03*
X-2165D02*
D03*
Y-6594D02*
D03*
Y-4035D02*
D03*
Y-1476D02*
D03*
D53*
X-13287Y-12598D02*
D03*
X-10728D02*
D03*
X-8169D02*
D03*
X-5610D02*
D03*
Y1969D02*
D03*
X-8169D02*
D03*
X-10728D02*
D03*
X-13287D02*
D03*
D54*
X-9449Y-5315D02*
D03*
D55*
X-77374Y21346D02*
D03*
X-74988Y23732D02*
D03*
X-82099Y21445D02*
D03*
X-79712Y23831D02*
D03*
D56*
X63285Y-26341D02*
D03*
X60818D02*
D03*
X63241Y-21624D02*
D03*
X60773D02*
D03*
D57*
X27526Y11221D02*
D03*
Y14587D02*
D03*
X30895Y9579D02*
D03*
Y12945D02*
D03*
D58*
X33957Y11203D02*
D03*
Y13600D02*
D03*
X36319Y13009D02*
D03*
Y10613D02*
D03*
D59*
X6890Y2353D02*
D03*
Y5128D02*
D03*
D60*
X11624Y8268D02*
D03*
X8849D02*
D03*
D61*
X88311Y4961D02*
D03*
Y3387D02*
D03*
Y1812D02*
D03*
Y237D02*
D03*
Y-1338D02*
D03*
Y-2913D02*
D03*
Y-4487D02*
D03*
Y-6062D02*
D03*
Y-7637D02*
D03*
Y-9212D02*
D03*
Y-10787D02*
D03*
X104689Y4961D02*
D03*
Y3387D02*
D03*
Y1812D02*
D03*
Y237D02*
D03*
Y-1338D02*
D03*
Y-2913D02*
D03*
Y-4487D02*
D03*
Y-6062D02*
D03*
Y-7637D02*
D03*
Y-9212D02*
D03*
Y-10787D02*
D03*
X88311Y-12361D02*
D03*
X104689D02*
D03*
M02*
