G04*
G04 #@! TF.GenerationSoftware,Altium Limited,Altium Designer,23.3.1 (30)*
G04*
G04 Layer_Physical_Order=4*
G04 Layer_Color=16737945*
%FSLAX25Y25*%
%MOIN*%
G70*
G04*
G04 #@! TF.SameCoordinates,B70FCE46-08B3-410F-AF2C-83C1FDED7243*
G04*
G04*
G04 #@! TF.FilePolarity,Positive*
G04*
G01*
G75*
%ADD12C,0.00787*%
%ADD13C,0.00591*%
%ADD18C,0.00000*%
%ADD62C,0.02756*%
%ADD119C,0.01968*%
%ADD120C,0.01575*%
%ADD122C,0.04134*%
%ADD123R,0.04134X0.04134*%
%ADD124C,0.09843*%
%ADD125C,0.00787*%
%ADD126C,0.01181*%
%ADD127C,0.01575*%
%ADD130C,0.00488*%
%ADD131C,0.02362*%
G36*
X66618Y48023D02*
X66559Y47523D01*
X66203Y47523D01*
X65805Y47358D01*
X65501Y47053D01*
X65336Y46655D01*
Y46225D01*
X65501Y45827D01*
X65805Y45522D01*
X66203Y45357D01*
X66634D01*
X67032Y45522D01*
X67336Y45827D01*
X67501Y46225D01*
Y46655D01*
X67336Y47053D01*
X67032Y47358D01*
X66739Y47479D01*
X66894Y47956D01*
X87412Y43012D01*
X109032Y18726D01*
Y16049D01*
X108532Y15849D01*
X108159Y16004D01*
X107734Y15828D01*
X107692Y15832D01*
X107358Y16166D01*
X107545Y16618D01*
X107358Y17070D01*
X103306Y21121D01*
X102854Y21308D01*
X73443D01*
X64454Y30297D01*
X63966Y30623D01*
X63390Y30738D01*
X40232D01*
X40232Y30738D01*
X39656Y30623D01*
X39168Y30297D01*
X39168Y30297D01*
X37401Y28530D01*
X37152Y28509D01*
X36819Y28602D01*
X36702Y28650D01*
X36612Y28740D01*
X36485D01*
X36367Y28789D01*
X36144D01*
X35953Y29251D01*
X45750Y39048D01*
X50841D01*
X50899Y38906D01*
X50900Y38906D01*
X50900Y38905D01*
X51124Y38812D01*
X51350Y38717D01*
X51411Y38717D01*
X51590Y38713D01*
X51634Y38710D01*
X51669Y38721D01*
X51725Y38698D01*
X51818Y38736D01*
X51918Y38728D01*
X51986Y38785D01*
X52052Y38796D01*
X52077Y38830D01*
X52087Y38833D01*
X52099Y38853D01*
X52128Y38864D01*
X52323D01*
X52649Y38999D01*
X52898Y39249D01*
X53033Y39574D01*
Y39927D01*
X52898Y40252D01*
X52649Y40501D01*
X52323Y40636D01*
X52154D01*
X52153Y40639D01*
X51937Y40715D01*
X51725Y40803D01*
X51708Y40796D01*
X51691Y40802D01*
X51319Y40782D01*
X51112Y40684D01*
X50900Y40596D01*
X50893Y40579D01*
X50877Y40572D01*
X50835Y40453D01*
X45459D01*
X45190Y40399D01*
X44962Y40247D01*
X33504Y28789D01*
X19503D01*
X19390Y28958D01*
Y29310D01*
X19255Y29636D01*
X19006Y29885D01*
X18680Y30020D01*
X18328D01*
X18002Y29885D01*
X17753Y29636D01*
X17618Y29310D01*
Y28958D01*
X17505Y28789D01*
X16095D01*
X16077Y28781D01*
X16058Y28788D01*
X15853Y28689D01*
X15643Y28602D01*
X15195Y28370D01*
X15016Y28445D01*
X14663D01*
X14484Y28370D01*
X14036Y28602D01*
X13826Y28689D01*
X13621Y28788D01*
X13602Y28781D01*
X13584Y28789D01*
X-13416D01*
X-17018Y32391D01*
X-16827Y32853D01*
X26083D01*
X26505Y32937D01*
X26863Y33176D01*
X33240Y39553D01*
X33354Y39500D01*
X33366Y39504D01*
X33378Y39499D01*
X33594Y39589D01*
X33813Y39670D01*
X34232Y40059D01*
X35688D01*
X35788Y39559D01*
X35719Y39531D01*
X35469Y39281D01*
X35335Y38956D01*
Y38603D01*
X35469Y38278D01*
X35719Y38029D01*
X36044Y37894D01*
X36397D01*
X36722Y38029D01*
X36971Y38278D01*
X37106Y38603D01*
Y38956D01*
X36971Y39281D01*
X36722Y39531D01*
X36653Y39559D01*
X36753Y40059D01*
X38681D01*
Y45349D01*
X53196D01*
X61376Y37168D01*
X61800Y36885D01*
X62299Y36786D01*
X65601D01*
X72109Y30278D01*
X72532Y29996D01*
X73032Y29896D01*
X85168D01*
X85667Y29996D01*
X86090Y30278D01*
X90709Y34897D01*
X90992Y35321D01*
X91091Y35820D01*
X90992Y36319D01*
X90709Y36742D01*
X90286Y37025D01*
X89787Y37124D01*
X89288Y37025D01*
X88864Y36742D01*
X84627Y32505D01*
X73572D01*
X67064Y39013D01*
X66641Y39296D01*
X66142Y39395D01*
X62839D01*
X54658Y47576D01*
X54235Y47859D01*
X53736Y47958D01*
X-38446D01*
X-38946Y47859D01*
X-39369Y47576D01*
X-43796Y43149D01*
X-44357Y43295D01*
X-44392Y43381D01*
X-44642Y43631D01*
X-44967Y43765D01*
X-45320D01*
X-45645Y43631D01*
X-45894Y43381D01*
X-46029Y43056D01*
Y42703D01*
X-45894Y42378D01*
X-45645Y42129D01*
X-45559Y42093D01*
X-45413Y41532D01*
X-55189Y31756D01*
X-65573D01*
X-66073Y31657D01*
X-66496Y31374D01*
X-72034Y25836D01*
X-75295D01*
X-75747Y25649D01*
X-75934Y25197D01*
Y13073D01*
X-83661D01*
X-84113Y12886D01*
X-84301Y12434D01*
Y-16339D01*
X-84113Y-16791D01*
X-81386Y-19518D01*
X-81528Y-20084D01*
X-81604Y-20115D01*
X-81853Y-20364D01*
X-81988Y-20690D01*
Y-21042D01*
X-81853Y-21368D01*
X-81604Y-21617D01*
X-81279Y-21752D01*
X-80926D01*
X-80601Y-21617D01*
X-80351Y-21368D01*
X-80320Y-21291D01*
X-79755Y-21149D01*
X-75740Y-25164D01*
X-75716Y-25174D01*
X-75704Y-25197D01*
X-75493Y-25266D01*
X-75288Y-25352D01*
X-75264Y-25342D01*
X-75239Y-25350D01*
X-74582Y-25300D01*
X-74500Y-25259D01*
X-74395Y-25238D01*
X-74370D01*
X-74363Y-25236D01*
X-74284Y-25254D01*
X-74057Y-25509D01*
X-73954Y-25661D01*
X-73946Y-25860D01*
X-73955Y-25876D01*
X-73944Y-25913D01*
Y-26125D01*
X-73934Y-26135D01*
X-73934Y-26150D01*
X-73900Y-26222D01*
X-73844Y-26274D01*
X-73823Y-26347D01*
X-73554Y-26691D01*
X-73412Y-26771D01*
X-73296Y-26887D01*
X-73206D01*
X-73128Y-26931D01*
X-73041Y-26906D01*
X-73011Y-26919D01*
X-72946D01*
X-72819Y-27072D01*
X-72674Y-27372D01*
X-72847Y-27792D01*
X-72660Y-28244D01*
X-64517Y-36387D01*
Y-36811D01*
X-64330Y-37263D01*
X-63878Y-37450D01*
X-50757D01*
X-36377Y-51830D01*
X-35925Y-52017D01*
X-30217D01*
X-29765Y-51830D01*
X-26320Y-48385D01*
X-26132Y-47933D01*
X-26320Y-47481D01*
X-26813Y-46988D01*
X-26664Y-46430D01*
X-26305Y-46334D01*
X-25565Y-45906D01*
X-24960Y-45301D01*
X-24532Y-44561D01*
X-24311Y-43735D01*
Y-42880D01*
X-24532Y-42053D01*
X-24960Y-41313D01*
X-25530Y-40743D01*
X-25543Y-40493D01*
X-25642Y-40286D01*
X-25729Y-40074D01*
X-25746Y-40067D01*
X-25754Y-40051D01*
X-25853Y-40016D01*
Y-31433D01*
X-19700Y-25280D01*
X-19510Y-25470D01*
X-18957Y-25839D01*
X-18676Y-25895D01*
X-18470Y-26017D01*
X-18237Y-26300D01*
X-18168Y-26467D01*
X-18136Y-26645D01*
X-18077Y-26686D01*
X-18050Y-26752D01*
X-9310Y-35491D01*
X-9274Y-35506D01*
X-9256Y-35540D01*
X-9053Y-35598D01*
X-8858Y-35679D01*
X-8822Y-35664D01*
X-8785Y-35674D01*
X-3600Y-35079D01*
X-3437Y-34988D01*
X-3392Y-34990D01*
X-3357Y-34958D01*
X-3244Y-34917D01*
X-3186Y-34864D01*
X-3175Y-34843D01*
X-3173Y-34841D01*
X-3170Y-34831D01*
X-3130Y-34746D01*
X-3034Y-34657D01*
X-2925Y-34419D01*
X-2735Y-34498D01*
X-2383D01*
X-2057Y-34363D01*
X-1688Y-34671D01*
X-1484Y-34729D01*
X-1289Y-34809D01*
X-1254Y-34795D01*
X-1217Y-34805D01*
X-76Y-34674D01*
X-35Y-34651D01*
X11Y-34658D01*
X174Y-34536D01*
X348Y-34439D01*
X666Y-34570D01*
X1018D01*
X1344Y-34435D01*
X1362Y-34418D01*
X1512Y-34480D01*
X1667Y-34584D01*
X1732Y-34571D01*
X1792Y-34596D01*
X6558D01*
X11570Y-39608D01*
X11519Y-39733D01*
X11329Y-40074D01*
X10557Y-40280D01*
X9817Y-40708D01*
X9212Y-41313D01*
X8784Y-42053D01*
X8563Y-42880D01*
Y-43735D01*
X8784Y-44561D01*
X9212Y-45301D01*
X9817Y-45906D01*
X10557Y-46334D01*
X11383Y-46555D01*
X12239D01*
X13065Y-46334D01*
X13805Y-45906D01*
X14410Y-45301D01*
X14838Y-44561D01*
X15059Y-43735D01*
Y-42880D01*
X14838Y-42053D01*
X14410Y-41313D01*
X14334Y-41237D01*
X14525Y-40775D01*
X16971D01*
X17162Y-41237D01*
X17086Y-41313D01*
X16658Y-42053D01*
X16437Y-42880D01*
Y-43735D01*
X16658Y-44561D01*
X17086Y-45301D01*
X17691Y-45906D01*
X18431Y-46334D01*
X19257Y-46555D01*
X20113D01*
X20939Y-46334D01*
X21679Y-45906D01*
X22284Y-45301D01*
X22712Y-44561D01*
X22933Y-43735D01*
Y-42880D01*
X22712Y-42053D01*
X22284Y-41313D01*
X22208Y-41237D01*
X22399Y-40775D01*
X24845D01*
X25036Y-41237D01*
X24960Y-41313D01*
X24532Y-42053D01*
X24311Y-42880D01*
Y-43735D01*
X24532Y-44561D01*
X24960Y-45301D01*
X25565Y-45906D01*
X26305Y-46334D01*
X27132Y-46555D01*
X27987D01*
X28813Y-46334D01*
X29553Y-45906D01*
X30158Y-45301D01*
X30586Y-44561D01*
X30807Y-43735D01*
Y-42880D01*
X30586Y-42053D01*
X30158Y-41313D01*
X30082Y-41237D01*
X30273Y-40775D01*
X32185D01*
Y-46555D01*
X38681D01*
Y-40775D01*
X65727D01*
Y-43976D01*
X64640Y-45063D01*
X64401Y-45421D01*
X64317Y-45844D01*
X64401Y-46266D01*
X64640Y-46624D01*
X64998Y-46863D01*
X65421Y-46948D01*
X65843Y-46863D01*
X66201Y-46624D01*
X67611Y-45214D01*
X67851Y-44856D01*
X67935Y-44434D01*
Y-39785D01*
X68539D01*
X73432Y-44678D01*
X73790Y-44918D01*
X74213Y-45002D01*
X78922D01*
X78979Y-45498D01*
X48922Y-52536D01*
X-56981D01*
X-85410Y-24107D01*
Y-21850D01*
X-85080D01*
X-84754Y-21715D01*
X-84505Y-21466D01*
X-84370Y-21141D01*
Y-20788D01*
X-84505Y-20463D01*
X-84754Y-20214D01*
X-85080Y-20079D01*
X-85410D01*
Y23123D01*
X-74378Y34155D01*
X-73879Y34120D01*
X-71164Y30517D01*
X-70742Y30269D01*
X-70269Y30391D01*
X-46310Y48446D01*
X-46067Y48858D01*
X-46061Y48867D01*
X-46184Y49341D01*
X-46184Y49341D01*
X-48254Y52088D01*
X-48031Y52536D01*
X-46589D01*
X-46382Y52036D01*
X-46429Y51989D01*
X-46564Y51664D01*
Y51311D01*
X-46429Y50986D01*
X-46180Y50736D01*
X-45854Y50602D01*
X-45502D01*
X-45176Y50736D01*
X-44927Y50986D01*
X-44792Y51311D01*
Y51664D01*
X-44927Y51989D01*
X-44974Y52036D01*
X-44767Y52536D01*
X47888Y52536D01*
X66618Y48023D01*
D02*
G37*
G36*
X35605Y41252D02*
X35483Y41341D01*
X35338Y41386D01*
X35171D01*
X34982Y41341D01*
X34770Y41252D01*
X34536Y41118D01*
X34280Y40940D01*
X34002Y40718D01*
X33378Y40139D01*
X32265Y41252D01*
X32576Y41575D01*
X33066Y42154D01*
X33244Y42410D01*
X33378Y42644D01*
X33467Y42856D01*
X33512Y43045D01*
Y43212D01*
X33467Y43357D01*
X33378Y43479D01*
X35605Y41252D01*
D02*
G37*
G36*
X-20113Y36285D02*
X-20866Y35531D01*
X-31415D01*
Y35219D01*
X-34350Y32283D01*
X-34428D01*
X-34754Y32149D01*
X-35003Y31899D01*
X-35125Y31604D01*
X-35238Y31566D01*
X-35638Y31535D01*
X-35666Y31604D01*
X-35915Y31853D01*
X-36241Y31988D01*
X-36593D01*
X-36919Y31853D01*
X-37168Y31604D01*
X-37303Y31279D01*
Y30926D01*
X-37168Y30601D01*
X-36919Y30351D01*
X-36593Y30217D01*
X-36241D01*
X-35915Y30351D01*
X-35666Y30601D01*
X-35544Y30896D01*
X-35432Y30934D01*
X-35032Y30965D01*
X-35003Y30896D01*
X-34754Y30647D01*
X-34428Y30512D01*
X-34252D01*
Y20268D01*
X-34470Y20123D01*
X-34822D01*
X-35148Y19988D01*
X-35397Y19739D01*
X-35531Y19413D01*
Y19061D01*
X-35397Y18735D01*
X-35148Y18486D01*
X-34822Y18351D01*
X-34470D01*
X-34252Y18206D01*
Y17246D01*
X-35616D01*
X-35723Y17224D01*
X-35831D01*
X-35932Y17183D01*
X-36038Y17162D01*
X-36129Y17101D01*
X-36229Y17060D01*
X-36306Y16983D01*
X-36397Y16922D01*
X-36457Y16832D01*
X-36534Y16755D01*
X-36575Y16655D01*
X-36636Y16564D01*
X-36657Y16458D01*
X-36699Y16357D01*
Y16248D01*
X-36720Y16142D01*
X-36699Y16035D01*
Y15926D01*
X-36657Y15826D01*
X-36636Y15719D01*
X-36575Y15629D01*
X-36534Y15528D01*
X-36457Y15452D01*
X-36397Y15361D01*
X-36306Y15301D01*
X-36229Y15224D01*
X-36129Y15182D01*
X-36038Y15122D01*
X-35932Y15101D01*
X-35831Y15059D01*
X-35723D01*
X-35616Y15038D01*
X-34252D01*
Y14543D01*
X-34678Y14178D01*
X-35031D01*
X-35356Y14043D01*
X-35605Y13794D01*
X-35740Y13469D01*
Y13116D01*
X-35605Y12791D01*
X-35356Y12541D01*
X-35031Y12407D01*
X-34678D01*
X-34572Y12316D01*
X-34571Y12188D01*
X-34920Y11718D01*
X-35246Y11583D01*
X-35495Y11333D01*
X-35630Y11008D01*
Y10655D01*
X-35495Y10330D01*
X-35246Y10081D01*
X-35215Y10068D01*
X-35314Y9568D01*
X-35412D01*
X-35738Y9433D01*
X-35866Y9305D01*
X-36332Y9341D01*
X-36436Y9388D01*
X-36463Y9454D01*
X-36713Y9703D01*
X-37038Y9838D01*
X-37391D01*
X-37716Y9703D01*
X-37965Y9454D01*
X-38100Y9128D01*
Y8776D01*
X-37965Y8450D01*
X-37716Y8201D01*
X-37391Y8066D01*
X-37038D01*
X-36713Y8201D01*
X-36584Y8329D01*
X-36118Y8293D01*
X-36014Y8246D01*
X-35987Y8180D01*
X-35738Y7931D01*
X-35412Y7796D01*
X-35060D01*
X-34885Y7869D01*
X-34407Y7606D01*
X-34364Y7249D01*
X-39166Y2447D01*
X-39406Y2089D01*
X-39490Y1666D01*
Y-16343D01*
X-39469Y-16450D01*
Y-16558D01*
X-39427Y-16659D01*
X-39406Y-16766D01*
X-39345Y-16856D01*
X-39304Y-16956D01*
X-39227Y-17033D01*
X-39166Y-17124D01*
X-39076Y-17184D01*
X-38999Y-17261D01*
X-38899Y-17302D01*
X-38808Y-17363D01*
X-38702Y-17384D01*
X-38601Y-17426D01*
X-38493D01*
X-38386Y-17447D01*
X-38279Y-17426D01*
X-38170D01*
X-38070Y-17384D01*
X-37963Y-17363D01*
X-37873Y-17302D01*
X-37773Y-17261D01*
X-37696Y-17184D01*
X-37605Y-17124D01*
X-37545Y-17033D01*
X-37468Y-16956D01*
X-37426Y-16856D01*
X-37366Y-16766D01*
X-37345Y-16659D01*
X-37303Y-16558D01*
Y-16450D01*
X-37282Y-16343D01*
Y1209D01*
X-34714Y3777D01*
X-34252Y3586D01*
Y2228D01*
X-34385Y2173D01*
X-34634Y1924D01*
X-34769Y1598D01*
Y1246D01*
X-34634Y920D01*
X-34385Y671D01*
X-34252Y616D01*
Y-39850D01*
X-34649Y-40155D01*
X-35006Y-40059D01*
X-35861D01*
X-36687Y-40280D01*
X-37427Y-40708D01*
X-38032Y-41313D01*
X-38460Y-42053D01*
X-38681Y-42880D01*
Y-43735D01*
X-38460Y-44561D01*
X-38032Y-45301D01*
X-37427Y-45906D01*
X-36687Y-46334D01*
X-35861Y-46555D01*
X-35006D01*
X-34179Y-46334D01*
X-33439Y-45906D01*
X-32834Y-45301D01*
X-32406Y-44561D01*
X-32185Y-43735D01*
Y-43227D01*
X-31685Y-43020D01*
X-30747Y-43957D01*
X-30586Y-44561D01*
X-30158Y-45301D01*
X-29553Y-45906D01*
X-28813Y-46334D01*
X-28209Y-46496D01*
X-26772Y-47933D01*
X-30217Y-51378D01*
X-35925D01*
X-50492Y-36811D01*
X-63878D01*
Y-36122D01*
X-72208Y-27792D01*
X-72084Y-27667D01*
X-71949Y-27342D01*
Y-26989D01*
X-72084Y-26664D01*
X-72333Y-26414D01*
X-72658Y-26280D01*
X-73011D01*
X-73051Y-26296D01*
X-73320Y-25953D01*
X-73354Y-25880D01*
X-73227Y-25574D01*
Y-25222D01*
X-73362Y-24896D01*
X-73539Y-24719D01*
X-73530Y-24356D01*
X-73476Y-24162D01*
X-73380Y-24122D01*
X-73131Y-23873D01*
X-72996Y-23547D01*
Y-23195D01*
X-73131Y-22869D01*
X-73380Y-22620D01*
X-73706Y-22485D01*
X-74058D01*
X-74384Y-22620D01*
X-74633Y-22869D01*
X-74768Y-23195D01*
Y-23547D01*
X-74633Y-23873D01*
X-74455Y-24050D01*
X-74465Y-24413D01*
X-74519Y-24607D01*
X-74615Y-24647D01*
X-74630Y-24663D01*
X-75288Y-24712D01*
X-83661Y-16339D01*
Y12434D01*
X-75934D01*
Y1705D01*
X-76125Y1575D01*
X-76434Y1451D01*
X-76680Y1553D01*
X-77033D01*
X-77358Y1418D01*
X-77607Y1169D01*
X-77742Y843D01*
Y491D01*
X-77607Y165D01*
X-77358Y-84D01*
X-77033Y-219D01*
X-76680D01*
X-76434Y-117D01*
X-76125Y-241D01*
X-75934Y-371D01*
Y-3068D01*
X-76090Y-3171D01*
X-76442D01*
X-76768Y-3306D01*
X-77017Y-3556D01*
X-77152Y-3881D01*
Y-4233D01*
X-77017Y-4559D01*
X-76768Y-4808D01*
X-76442Y-4943D01*
X-76090D01*
X-75934Y-5047D01*
Y-6603D01*
X-75923Y-6630D01*
X-75932Y-6658D01*
X-75831Y-6853D01*
X-75747Y-7055D01*
X-75720Y-7066D01*
X-75707Y-7092D01*
X-75572Y-7206D01*
X-75295Y-7501D01*
Y-7853D01*
X-75572Y-8149D01*
X-75707Y-8262D01*
X-75720Y-8288D01*
X-75747Y-8299D01*
X-75831Y-8502D01*
X-75932Y-8696D01*
X-75923Y-8724D01*
X-75934Y-8751D01*
Y-10990D01*
X-75909Y-11051D01*
X-75922Y-11115D01*
X-75819Y-11270D01*
X-75747Y-11442D01*
X-75744Y-11443D01*
X-75419Y-11853D01*
X-75492Y-12028D01*
Y-12381D01*
X-75357Y-12707D01*
X-75191Y-12873D01*
X-75389Y-13324D01*
X-75392Y-13458D01*
X-75444Y-13581D01*
X-75397Y-13693D01*
X-75400Y-13813D01*
X-75308Y-13910D01*
X-75256Y-14033D01*
X-65407Y-23882D01*
X-65691Y-24306D01*
X-65917Y-24213D01*
X-66269D01*
X-66595Y-24348D01*
X-66844Y-24597D01*
X-66979Y-24922D01*
Y-25275D01*
X-66844Y-25600D01*
X-66595Y-25849D01*
X-66269Y-25984D01*
X-65917D01*
X-65591Y-25849D01*
X-65342Y-25600D01*
X-65207Y-25275D01*
Y-24922D01*
X-65301Y-24696D01*
X-64877Y-24413D01*
X-60590Y-28700D01*
X-60138Y-28887D01*
X-59686Y-28700D01*
X-58535Y-27549D01*
X-58111Y-27832D01*
X-58169Y-27973D01*
Y-28326D01*
X-58034Y-28651D01*
X-57785Y-28901D01*
X-57460Y-29035D01*
X-57107D01*
X-56782Y-28901D01*
X-56533Y-28651D01*
X-56398Y-28326D01*
Y-27973D01*
X-56533Y-27648D01*
X-56782Y-27399D01*
X-57107Y-27264D01*
X-57460D01*
X-57601Y-27322D01*
X-57869Y-26986D01*
X-57905Y-26907D01*
X-57727Y-26476D01*
Y-24280D01*
X-57227Y-24181D01*
X-57149Y-24370D01*
X-56899Y-24619D01*
X-56574Y-24754D01*
X-56221D01*
X-55896Y-24619D01*
X-55647Y-24370D01*
X-55512Y-24044D01*
Y-23692D01*
X-55647Y-23366D01*
X-55896Y-23117D01*
X-56221Y-22982D01*
X-56574D01*
X-56899Y-23117D01*
X-57149Y-23366D01*
X-57227Y-23555D01*
X-57727Y-23456D01*
Y-12500D01*
X-57836Y-12238D01*
X-57714Y-12116D01*
X-57579Y-11790D01*
Y-11438D01*
X-57714Y-11112D01*
X-57836Y-10990D01*
X-57727Y-10728D01*
Y-9587D01*
X-57227Y-9380D01*
X-57195Y-9412D01*
X-56869Y-9547D01*
X-56517D01*
X-56191Y-9412D01*
X-55942Y-9163D01*
X-55807Y-8838D01*
Y-8485D01*
X-55942Y-8160D01*
X-56191Y-7910D01*
X-56517Y-7776D01*
X-56869D01*
X-57195Y-7910D01*
X-57227Y-7943D01*
X-57727Y-7736D01*
Y3989D01*
X-57646D01*
X-57321Y4124D01*
X-57072Y4373D01*
X-56937Y4699D01*
Y5051D01*
X-57072Y5376D01*
X-57321Y5626D01*
X-57646Y5760D01*
X-57727D01*
Y12434D01*
X-40256D01*
Y22450D01*
X-39773Y22674D01*
X-39448Y22539D01*
X-39095D01*
X-38770Y22674D01*
X-38521Y22923D01*
X-38386Y23249D01*
Y23601D01*
X-38521Y23927D01*
X-38770Y24176D01*
X-39095Y24311D01*
X-39448D01*
X-39773Y24176D01*
X-40256Y24401D01*
Y33858D01*
X-34252Y39862D01*
X-24213D01*
X-23917Y39764D01*
X-23622Y40059D01*
X-20113D01*
Y36285D01*
D02*
G37*
G36*
X51725Y39337D02*
X51718Y39341D01*
X51704Y39344D01*
X51683Y39347D01*
X51622Y39352D01*
X51420Y39356D01*
X51352Y39357D01*
Y40144D01*
X51725Y40164D01*
Y39337D01*
D02*
G37*
G36*
X-58366Y5584D02*
X-58574Y5376D01*
X-58708Y5051D01*
Y4699D01*
X-58574Y4373D01*
X-58366Y4166D01*
Y-10728D01*
X-58641D01*
X-58966Y-10863D01*
X-59215Y-11112D01*
X-59350Y-11438D01*
Y-11790D01*
X-59215Y-12116D01*
X-58966Y-12365D01*
X-58641Y-12500D01*
X-58366D01*
Y-26476D01*
X-60138Y-28248D01*
X-74804Y-13581D01*
X-74588Y-13091D01*
X-74430D01*
X-74104Y-12956D01*
X-73855Y-12707D01*
X-73721Y-12381D01*
Y-12028D01*
X-73855Y-11703D01*
X-74104Y-11454D01*
X-74430Y-11319D01*
X-74783D01*
X-74795Y-11324D01*
X-75295Y-10990D01*
Y-8751D01*
X-75160Y-8638D01*
X-74795Y-8476D01*
X-74586Y-8563D01*
X-74233D01*
X-73908Y-8428D01*
X-73659Y-8179D01*
X-73524Y-7853D01*
Y-7501D01*
X-73659Y-7175D01*
X-73908Y-6926D01*
X-74233Y-6791D01*
X-74586D01*
X-74795Y-6878D01*
X-75160Y-6717D01*
X-75295Y-6603D01*
Y25197D01*
X-68701D01*
Y24922D01*
X-68566Y24597D01*
X-68317Y24348D01*
X-67991Y24213D01*
X-67639D01*
X-67313Y24348D01*
X-67064Y24597D01*
X-66929Y24922D01*
Y25197D01*
X-58366D01*
Y5584D01*
D02*
G37*
G36*
X-13681Y28150D02*
X13584D01*
X13954Y27735D01*
Y27383D01*
X14088Y27057D01*
X14338Y26808D01*
X14663Y26673D01*
X15016D01*
X15341Y26808D01*
X15590Y27057D01*
X15725Y27383D01*
Y27735D01*
X16095Y28150D01*
X36367D01*
X36559Y27688D01*
X34786Y25915D01*
X12251D01*
X12251Y25915D01*
X11675Y25800D01*
X11187Y25474D01*
X11187Y25474D01*
X6000Y20287D01*
X3678D01*
X-1854Y25819D01*
X-2342Y26146D01*
X-2918Y26260D01*
X-16480D01*
X-16480Y26260D01*
X-17056Y26146D01*
X-17544Y25819D01*
X-17544Y25819D01*
X-24118Y19246D01*
X-24444Y18757D01*
X-24559Y18181D01*
Y906D01*
X-27344Y-1879D01*
X-27670Y-2367D01*
X-27785Y-2943D01*
X-27670Y-3520D01*
X-27344Y-4008D01*
X-26856Y-4334D01*
X-26280Y-4449D01*
X-25703Y-4334D01*
X-25215Y-4008D01*
X-24716Y-4052D01*
X-24607Y-4107D01*
X-24407Y-4307D01*
X-24081Y-4442D01*
X-23729D01*
X-23403Y-4307D01*
X-23154Y-4058D01*
X-23019Y-3732D01*
Y-3380D01*
X-23154Y-3054D01*
X-23403Y-2805D01*
X-23451Y-2244D01*
X-22038Y-831D01*
X-22037Y-831D01*
X-21780Y-848D01*
X-21493Y-940D01*
X-21441Y-1066D01*
X-21192Y-1315D01*
X-20866Y-1450D01*
X-20514D01*
X-20188Y-1315D01*
X-19939Y-1066D01*
X-19804Y-740D01*
Y-388D01*
X-19813Y-367D01*
X-19909Y135D01*
X-19659Y384D01*
X-19525Y710D01*
Y1062D01*
X-19659Y1388D01*
X-19909Y1637D01*
X-20234Y1772D01*
X-20587D01*
X-20912Y1637D01*
X-21048Y1501D01*
X-21548Y1661D01*
Y17558D01*
X-15856Y23250D01*
X-3542D01*
X-3141Y22848D01*
X-3142Y22510D01*
X-3224Y22225D01*
X-3393Y22057D01*
X-3527Y21731D01*
Y21379D01*
X-3393Y21053D01*
X-3143Y20804D01*
X-2818Y20669D01*
X-2465D01*
X-2140Y20804D01*
X-1891Y21053D01*
X-1348Y21056D01*
X1990Y17718D01*
X1990Y17718D01*
X2479Y17391D01*
X3055Y17277D01*
X3055Y17277D01*
X6624D01*
X7200Y17391D01*
X7603Y17660D01*
X7618Y17663D01*
X7933Y17604D01*
X8172Y17494D01*
X8206Y17412D01*
X8455Y17162D01*
X8781Y17028D01*
X9133D01*
X9459Y17162D01*
X9708Y17412D01*
X9843Y17737D01*
Y18090D01*
X9796Y18202D01*
X10170Y18476D01*
X10215Y18496D01*
X10529Y18366D01*
X10882D01*
X11207Y18501D01*
X11457Y18750D01*
X11591Y19076D01*
Y19428D01*
X11457Y19754D01*
X11207Y20003D01*
X10882Y20138D01*
X10816D01*
X10609Y20638D01*
X12875Y22904D01*
X14896D01*
X15192Y22404D01*
X15157Y22322D01*
Y21970D01*
X15292Y21644D01*
X15541Y21395D01*
X15867Y21260D01*
X16219D01*
X16545Y21395D01*
X16762Y21612D01*
X16990Y21617D01*
X17307Y21574D01*
X17359Y21447D01*
X17608Y21198D01*
X17934Y21063D01*
X18286D01*
X18612Y21198D01*
X18682Y21268D01*
X19051Y21364D01*
X19317Y21249D01*
X19419Y21146D01*
X19745Y21012D01*
X20097D01*
X20423Y21146D01*
X20672Y21396D01*
X20807Y21721D01*
Y22073D01*
X20672Y22399D01*
X20667Y22404D01*
X20874Y22904D01*
X35409D01*
X35985Y23019D01*
X36474Y23345D01*
X40856Y27727D01*
X62766D01*
X64370Y26123D01*
Y16879D01*
X60096D01*
X60035Y16854D01*
X59971Y16867D01*
X59816Y16763D01*
X59740Y16732D01*
X59690Y16782D01*
X59364Y16917D01*
X59012D01*
X58687Y16782D01*
X58636Y16732D01*
X58561Y16763D01*
X58406Y16867D01*
X58341Y16854D01*
X58281Y16879D01*
X45374D01*
X44922Y16692D01*
X44735Y16240D01*
Y-24902D01*
X44922Y-25354D01*
X45374Y-25541D01*
X51050D01*
X51165Y-25493D01*
X51289Y-25494D01*
X51382Y-25403D01*
X51502Y-25354D01*
X51550Y-25239D01*
X51638Y-25152D01*
X51851Y-24652D01*
X51864Y-24643D01*
X52169Y-24769D01*
X52521D01*
X52537Y-24763D01*
X52696Y-25146D01*
X52786Y-25236D01*
X52835Y-25354D01*
X52952Y-25402D01*
X53042Y-25492D01*
X53169D01*
X53287Y-25541D01*
X65354D01*
Y-30651D01*
X62467Y-33538D01*
X32270D01*
X31890Y-33149D01*
Y-32796D01*
X31755Y-32471D01*
X31506Y-32221D01*
X31180Y-32087D01*
X30828D01*
X30502Y-32221D01*
X30193Y-32359D01*
X29944Y-32110D01*
X29618Y-31975D01*
X29498Y-31604D01*
Y-31251D01*
X29363Y-30926D01*
X29113Y-30677D01*
X28788Y-30542D01*
X28435D01*
X28110Y-30677D01*
X27861Y-30926D01*
X27726Y-31251D01*
Y-31604D01*
X27861Y-31929D01*
X28110Y-32179D01*
X28306Y-32260D01*
X28331Y-32472D01*
X27856Y-32703D01*
X19221Y-24069D01*
X19367Y-23508D01*
X19454Y-23473D01*
X19703Y-23223D01*
X19838Y-22898D01*
Y-22545D01*
X19703Y-22220D01*
X19454Y-21971D01*
X19128Y-21836D01*
X18776D01*
X18450Y-21971D01*
X18201Y-22220D01*
X18165Y-22306D01*
X17604Y-22452D01*
X14573Y-19421D01*
X14861Y-19040D01*
X14973Y-19087D01*
X15186Y-19175D01*
X15539D01*
X15864Y-19040D01*
X16113Y-18791D01*
X16248Y-18465D01*
Y-18113D01*
X16113Y-17787D01*
X15864Y-17538D01*
X15539Y-17403D01*
X15186D01*
X14861Y-17538D01*
X14611Y-17787D01*
X14477Y-18113D01*
Y-18465D01*
X14565Y-18678D01*
X14611Y-18791D01*
X14231Y-19079D01*
X12466Y-17314D01*
X12411Y-17036D01*
X12128Y-16612D01*
X11705Y-16330D01*
X11205Y-16230D01*
X10900D01*
X10754Y-16259D01*
X9828D01*
X9621Y-15759D01*
X9708Y-15673D01*
X9843Y-15347D01*
Y-14995D01*
X9708Y-14669D01*
X9459Y-14420D01*
X9133Y-14285D01*
X8781D01*
X8659Y-14335D01*
X8439Y-14409D01*
X8085Y-14156D01*
X7836Y-13907D01*
X7510Y-13772D01*
X7158D01*
X6832Y-13907D01*
X6583Y-14156D01*
X6448Y-14482D01*
Y-14834D01*
X6583Y-15160D01*
X6832Y-15409D01*
X7158Y-15544D01*
X7510D01*
X7632Y-15494D01*
X7851Y-15420D01*
X8206Y-15673D01*
X8292Y-15759D01*
X8085Y-16259D01*
X6486D01*
X5987Y-16359D01*
X5564Y-16641D01*
X4097Y-18108D01*
X3814Y-18531D01*
X3715Y-19031D01*
Y-24426D01*
X3748Y-24591D01*
X3370Y-25091D01*
X-5332D01*
X-5832Y-25190D01*
X-6255Y-25473D01*
X-7906Y-27124D01*
X-8197Y-27010D01*
X-8368Y-26879D01*
Y-26434D01*
X-8563Y-25964D01*
X-8922Y-25604D01*
X-9393Y-25409D01*
X-9902D01*
X-10372Y-25604D01*
X-10732Y-25964D01*
X-10927Y-26434D01*
Y-26943D01*
X-10732Y-27414D01*
X-10372Y-27774D01*
X-9902Y-27968D01*
X-9458D01*
X-9326Y-28139D01*
X-9212Y-28431D01*
X-9387Y-28605D01*
X-9670Y-29028D01*
X-9769Y-29528D01*
Y-29872D01*
X-9670Y-30371D01*
X-9387Y-30795D01*
X-8964Y-31077D01*
X-8465Y-31177D01*
X-7965Y-31077D01*
X-7655Y-30870D01*
X-7498Y-30801D01*
X-6995Y-30876D01*
X-6951Y-30920D01*
X-6625Y-31055D01*
X-6273D01*
X-5947Y-30920D01*
X-5698Y-30671D01*
X-5563Y-30346D01*
Y-29993D01*
X-5698Y-29668D01*
X-5947Y-29418D01*
X-5963Y-28871D01*
X-4792Y-27700D01*
X3026D01*
X3233Y-28200D01*
X3224Y-28209D01*
X3089Y-28535D01*
Y-28887D01*
X3224Y-29213D01*
X3473Y-29462D01*
X3799Y-29597D01*
X4151D01*
X4477Y-29462D01*
X4726Y-29213D01*
X5296Y-29144D01*
X5803Y-29651D01*
X6226Y-29933D01*
X6725Y-30033D01*
X13447D01*
X14137Y-30723D01*
X14560Y-31005D01*
X15005Y-31094D01*
X15087Y-31135D01*
X15453Y-31536D01*
Y-31672D01*
X15588Y-31998D01*
X15837Y-32247D01*
X16162Y-32382D01*
X16515D01*
X16840Y-32247D01*
X17089Y-31998D01*
X17224Y-31672D01*
Y-31320D01*
X17089Y-30994D01*
X16840Y-30745D01*
X16627Y-30657D01*
X16468Y-30500D01*
X16302Y-30110D01*
X16364Y-29800D01*
X16304Y-29501D01*
X16765Y-29254D01*
X21005Y-33495D01*
X20814Y-33957D01*
X1792D01*
X1728Y-33860D01*
Y-33508D01*
X1593Y-33182D01*
X1344Y-32933D01*
X1018Y-32798D01*
X666D01*
X340Y-32933D01*
X91Y-33182D01*
X-44Y-33508D01*
Y-33860D01*
X-149Y-34039D01*
X-1290Y-34170D01*
X-1589Y-33872D01*
X-1673Y-33711D01*
Y-33436D01*
X-1808Y-33110D01*
X-2057Y-32861D01*
X-2383Y-32726D01*
X-2735D01*
X-3061Y-32861D01*
X-3310Y-33110D01*
X-3445Y-33436D01*
Y-33788D01*
X-3395Y-33909D01*
X-3615Y-34391D01*
X-3673Y-34444D01*
X-8858Y-35039D01*
X-17598Y-26300D01*
X-17471Y-25719D01*
X-17097Y-25470D01*
X-16727Y-24916D01*
X-16598Y-24263D01*
X-16727Y-23610D01*
X-16821Y-23471D01*
X-16971Y-22992D01*
X-15022Y-21043D01*
X-14982Y-20946D01*
X-14903Y-20877D01*
X-14892Y-20728D01*
X-14835Y-20591D01*
X-14876Y-20494D01*
X-14873Y-20453D01*
X-11337Y-16917D01*
X-11300Y-16954D01*
X-10746Y-17324D01*
X-10093Y-17454D01*
X-9441Y-17324D01*
X-8887Y-16954D01*
X-8654Y-16606D01*
X-8244Y-16705D01*
X-8146Y-16746D01*
X-8020Y-17052D01*
X-7770Y-17301D01*
X-7445Y-17436D01*
X-7092D01*
X-6767Y-17301D01*
X-6518Y-17052D01*
X-6383Y-16727D01*
Y-16374D01*
X-6518Y-16049D01*
X-6767Y-15799D01*
X-7092Y-15664D01*
X-7445D01*
X-7770Y-15799D01*
X-7917Y-15946D01*
X-8331Y-15772D01*
X-8390Y-15736D01*
X-8517Y-15095D01*
X-8887Y-14542D01*
X-8924Y-14505D01*
X-4673Y-10253D01*
X-3546D01*
X-3539Y-10258D01*
X-3253Y-10753D01*
X-3292Y-10847D01*
Y-11200D01*
X-3157Y-11525D01*
X-2908Y-11775D01*
X-2630Y-11890D01*
X-2581Y-12053D01*
X-2578Y-12410D01*
X-2640Y-12435D01*
X-2890Y-12685D01*
X-3320Y-12921D01*
X-3469Y-12876D01*
X-3662Y-12795D01*
X-4015D01*
X-4340Y-12930D01*
X-4589Y-13179D01*
X-4724Y-13505D01*
Y-13857D01*
X-4589Y-14183D01*
X-4340Y-14432D01*
X-4015Y-14567D01*
X-3662D01*
X-3337Y-14432D01*
X-3088Y-14183D01*
X-2658Y-13947D01*
X-2509Y-13992D01*
X-2315Y-14072D01*
X-1963D01*
X-1637Y-13937D01*
X-1287Y-14292D01*
X-3015Y-16021D01*
X-3385Y-16574D01*
X-3515Y-17227D01*
Y-21284D01*
X-3385Y-21937D01*
X-3015Y-22491D01*
X-2733Y-22773D01*
X-2180Y-23143D01*
X-1527Y-23272D01*
X-874Y-23143D01*
X-321Y-22773D01*
X49Y-22219D01*
X179Y-21566D01*
X49Y-20913D01*
X-103Y-20686D01*
Y-17934D01*
X5224Y-12606D01*
X5594Y-12053D01*
X5724Y-11400D01*
Y-10417D01*
X5840Y-9835D01*
X5710Y-9182D01*
X5340Y-8628D01*
X4554Y-7842D01*
X4549Y-7804D01*
X4586Y-7717D01*
X4524Y-7570D01*
X4531Y-7476D01*
X4522Y-7449D01*
X4471Y-6639D01*
X4470Y-6444D01*
X4376Y-6220D01*
X4283Y-5996D01*
X4281Y-5995D01*
X4280Y-5993D01*
X4055Y-5901D01*
X4007Y-5881D01*
X3769Y-5525D01*
X-927Y-829D01*
X-911Y-412D01*
X-838Y-211D01*
X-657Y-30D01*
X-522Y295D01*
Y648D01*
X-657Y973D01*
X-906Y1223D01*
X-1232Y1357D01*
X-1584D01*
X-1909Y1223D01*
X-2355Y1168D01*
X-2469Y1281D01*
X-2892Y1564D01*
X-3391Y1663D01*
X-3890Y1564D01*
X-4313Y1281D01*
X-4596Y857D01*
X-4696Y358D01*
X-4596Y-141D01*
X-4582Y-162D01*
Y-323D01*
X-4483Y-823D01*
X-4200Y-1246D01*
X895Y-6341D01*
X688Y-6841D01*
X-5379D01*
X-6032Y-6971D01*
X-6586Y-7341D01*
X-8003Y-8758D01*
X-8578Y-8626D01*
X-8659Y-8429D01*
X-9019Y-8069D01*
X-9490Y-7874D01*
X-9999D01*
X-10469Y-8069D01*
X-10829Y-8429D01*
X-11024Y-8899D01*
Y-9408D01*
X-10829Y-9878D01*
X-10469Y-10238D01*
X-10272Y-10320D01*
X-10140Y-10895D01*
X-12543Y-13298D01*
X-16320Y-17075D01*
X-16415Y-17030D01*
X-16530Y-17070D01*
X-16651Y-17062D01*
X-16751Y-17149D01*
X-16876Y-17193D01*
X-17237Y-17517D01*
X-17556Y-17741D01*
X-17855Y-17890D01*
X-18133Y-17973D01*
X-18398Y-18000D01*
X-18663Y-17973D01*
X-18941Y-17890D01*
X-19239Y-17741D01*
X-19558Y-17517D01*
X-19919Y-17193D01*
X-20135Y-17116D01*
X-20346Y-17029D01*
X-20363Y-17036D01*
X-20380Y-17030D01*
X-20475Y-17075D01*
X-28709Y-8842D01*
Y-8577D01*
X-28755Y-8344D01*
X-28294Y-8098D01*
X-27202Y-9190D01*
X-26779Y-9473D01*
X-26280Y-9572D01*
X-17652D01*
X-17153Y-9473D01*
X-16729Y-9190D01*
X-13438Y-5899D01*
X-12848Y-6016D01*
X-12797Y-6138D01*
X-12437Y-6498D01*
X-11967Y-6693D01*
X-11458D01*
X-10988Y-6498D01*
X-10628Y-6138D01*
X-10433Y-5668D01*
Y-5159D01*
X-10628Y-4689D01*
X-10988Y-4329D01*
X-11458Y-4134D01*
X-11967D01*
X-12172Y-4219D01*
X-12672Y-3910D01*
Y-1131D01*
X-8416Y3125D01*
X591D01*
X1090Y3224D01*
X1513Y3507D01*
X1796Y3930D01*
X1895Y4429D01*
X1796Y4928D01*
X1513Y5352D01*
X1090Y5634D01*
X591Y5734D01*
X-8957D01*
X-9456Y5634D01*
X-9879Y5352D01*
X-14899Y332D01*
X-15182Y-91D01*
X-15281Y-591D01*
Y-4052D01*
X-18192Y-6963D01*
X-25739D01*
X-29109Y-3593D01*
Y1625D01*
X-26434Y4299D01*
X-26151Y4723D01*
X-26052Y5222D01*
Y7239D01*
X-26151Y7738D01*
X-26434Y8161D01*
X-26858Y8444D01*
X-27357Y8543D01*
X-27856Y8444D01*
X-28279Y8161D01*
X-28562Y7738D01*
X-28661Y7239D01*
Y5762D01*
X-31336Y3088D01*
X-31619Y2665D01*
X-31718Y2165D01*
Y-4134D01*
X-31619Y-4633D01*
X-31336Y-5056D01*
X-29935Y-6457D01*
X-30182Y-6918D01*
X-30415Y-6871D01*
X-31068Y-7001D01*
X-31621Y-7371D01*
X-31991Y-7924D01*
X-32121Y-8577D01*
Y-9548D01*
X-31991Y-10201D01*
X-31621Y-10755D01*
X-22884Y-19492D01*
X-22934Y-19611D01*
X-22933Y-19614D01*
X-22934Y-19617D01*
X-22842Y-19840D01*
X-22751Y-20065D01*
X-22398Y-20424D01*
X-21426Y-21547D01*
X-21327Y-21697D01*
X-21295Y-21759D01*
X-21301Y-21768D01*
X-21270Y-21925D01*
X-21280Y-22035D01*
X-22572Y-23327D01*
X-33613D01*
Y575D01*
X-33381Y671D01*
X-33132Y920D01*
X-32997Y1246D01*
Y1598D01*
X-33132Y1924D01*
X-33381Y2173D01*
X-33613Y2269D01*
Y3586D01*
X-33661Y3703D01*
Y3830D01*
X-33751Y3920D01*
X-33800Y4038D01*
X-33943Y4548D01*
X-31460Y7031D01*
X-31438Y7064D01*
X-31405Y7087D01*
X-31165Y7445D01*
X-31081Y7867D01*
Y12711D01*
X-31089Y12750D01*
X-31081Y12790D01*
Y16142D01*
Y27397D01*
X-25703Y32776D01*
X-20079D01*
X-20001Y32853D01*
X-18384D01*
X-13681Y28150D01*
D02*
G37*
G36*
X68996Y-24902D02*
X53287D01*
X53079Y-24402D01*
X53096Y-24385D01*
X53231Y-24060D01*
Y-23993D01*
X53603Y-23793D01*
X53759Y-23775D01*
X54016Y-23881D01*
X54368D01*
X54694Y-23746D01*
X55234Y-23864D01*
X55242Y-23872D01*
X55568Y-24007D01*
X55920D01*
X56245Y-23872D01*
X56495Y-23623D01*
X56630Y-23298D01*
Y-22945D01*
X56522Y-22686D01*
X56607Y-22601D01*
X56911Y-22202D01*
X57263D01*
X57589Y-22067D01*
X57838Y-21818D01*
X57973Y-21492D01*
Y-21395D01*
X58058Y-21244D01*
X58180Y-21042D01*
X58177Y-21031D01*
X58182Y-21022D01*
X58119Y-20796D01*
X58087Y-20668D01*
X58132Y-20639D01*
X58141Y-20633D01*
X58162Y-20536D01*
X58226Y-20461D01*
X58220Y-20400D01*
X58246Y-20357D01*
X58239Y-20333D01*
X58242Y-20327D01*
X58234Y-20300D01*
X58234Y-20300D01*
X58231Y-20292D01*
X58222Y-20263D01*
X58245Y-20155D01*
X58240Y-20146D01*
X58207Y-20095D01*
X58239Y-20017D01*
Y-19743D01*
X58134Y-19490D01*
X57940Y-19296D01*
X57687Y-19191D01*
X57413D01*
X57160Y-19296D01*
X57139Y-19317D01*
X57129Y-19322D01*
X56967Y-19253D01*
X56670Y-18994D01*
X56663Y-18979D01*
Y-18965D01*
X56558Y-18712D01*
X56364Y-18518D01*
X56111Y-18413D01*
X55896D01*
X55848Y-18365D01*
X55745Y-18366D01*
X55652Y-18320D01*
X55509Y-18368D01*
X55359Y-18369D01*
X55286Y-18442D01*
X55188Y-18475D01*
X54886Y-18738D01*
X54876Y-18742D01*
X54848Y-18767D01*
X54846Y-18769D01*
X54845Y-18770D01*
X54841Y-18773D01*
X54829Y-18779D01*
X54825Y-18783D01*
X54724Y-18810D01*
X54498Y-18861D01*
X54490Y-18874D01*
X54475Y-18878D01*
X54360Y-19079D01*
X54326Y-19132D01*
X54312Y-19142D01*
X54125Y-19201D01*
X53745Y-19165D01*
X53657Y-19111D01*
X53632Y-19109D01*
X53588Y-19051D01*
X53459Y-18860D01*
X53443Y-18856D01*
X53433Y-18843D01*
X53205Y-18810D01*
X53100Y-18789D01*
X53021Y-18711D01*
X52696Y-18576D01*
X52343D01*
X52018Y-18711D01*
X51439Y-18583D01*
X51422Y-18541D01*
X51173Y-18292D01*
X50847Y-18157D01*
X50495D01*
X50169Y-18292D01*
X49920Y-18541D01*
X49903Y-18581D01*
X49323Y-18708D01*
X49322Y-18707D01*
X48996Y-18572D01*
X48644D01*
X48318Y-18707D01*
X48069Y-18956D01*
X47934Y-19282D01*
Y-19634D01*
X47965Y-19707D01*
X47941Y-19869D01*
X47897Y-20095D01*
X47906Y-20109D01*
X47904Y-20126D01*
X48041Y-20310D01*
X48079Y-20365D01*
X48079Y-20370D01*
X48081Y-20377D01*
X48081Y-20378D01*
X48083Y-20415D01*
X48107Y-20469D01*
X48109Y-20504D01*
X48113Y-20511D01*
X48106Y-20568D01*
X48151Y-20625D01*
X48149Y-20691D01*
X48255Y-20804D01*
X48323Y-20944D01*
X48388Y-20966D01*
X48413Y-21029D01*
X48385Y-21465D01*
X48365Y-21517D01*
X48365Y-21517D01*
X48336Y-21545D01*
X48171Y-21711D01*
X48066Y-21964D01*
Y-22238D01*
X48171Y-22491D01*
X48365Y-22685D01*
X48382Y-22726D01*
X48264Y-23012D01*
Y-23364D01*
X48398Y-23690D01*
X48648Y-23939D01*
X48973Y-24074D01*
X49326D01*
X49651Y-23939D01*
X49677Y-23913D01*
X50176Y-23885D01*
X50283Y-23960D01*
X50455Y-24132D01*
X50780Y-24267D01*
X51133D01*
X51262Y-24402D01*
X51050Y-24902D01*
X45374D01*
Y16240D01*
X58281D01*
X58302Y16208D01*
Y15855D01*
X58437Y15530D01*
X58687Y15281D01*
X59012Y15146D01*
X59364D01*
X59690Y15281D01*
X59939Y15530D01*
X60074Y15855D01*
Y16208D01*
X60096Y16240D01*
X68996D01*
Y-24902D01*
D02*
G37*
G36*
X-30419Y44849D02*
X-30586Y44561D01*
X-30807Y43735D01*
Y42880D01*
X-30586Y42053D01*
X-30158Y41313D01*
X-29847Y41001D01*
X-30054Y40501D01*
X-34252D01*
X-34704Y40314D01*
X-40708Y34310D01*
X-40895Y33858D01*
Y24401D01*
X-40852Y24296D01*
X-40856Y24182D01*
X-40762Y24078D01*
X-40708Y23949D01*
X-40603Y23905D01*
X-40526Y23821D01*
X-40267Y23701D01*
Y23149D01*
X-40526Y23029D01*
X-40603Y22945D01*
X-40708Y22902D01*
X-40762Y22772D01*
X-40856Y22669D01*
X-40852Y22555D01*
X-40895Y22450D01*
Y13073D01*
X-57727D01*
Y25197D01*
X-57914Y25649D01*
X-58366Y25836D01*
X-66929D01*
X-67381Y25649D01*
X-67565Y25206D01*
X-67573Y25197D01*
X-68062D01*
X-68249Y25649D01*
X-68296Y25884D01*
X-65033Y29147D01*
X-54648D01*
X-54149Y29246D01*
X-53726Y29529D01*
X-37906Y45349D01*
X-30708D01*
X-30419Y44849D01*
D02*
G37*
G36*
X3832Y-6661D02*
X3887Y-7538D01*
X3905Y-7617D01*
X3924Y-7677D01*
X3946Y-7717D01*
X1747D01*
X1769Y-7677D01*
X1788Y-7617D01*
X1805Y-7538D01*
X1821Y-7440D01*
X1844Y-7187D01*
X1861Y-6661D01*
X1862Y-6448D01*
X3831D01*
X3832Y-6661D01*
D02*
G37*
G36*
X106906Y16618D02*
X106731Y16442D01*
X106596Y16117D01*
Y15764D01*
X106731Y15439D01*
X106980Y15190D01*
X107071Y15152D01*
X107081Y14870D01*
X107021Y14631D01*
X106764Y14524D01*
X106514Y14275D01*
X106379Y13950D01*
Y13597D01*
X106514Y13272D01*
X106764Y13023D01*
X107089Y12888D01*
X107441D01*
X107767Y13023D01*
X108016Y13272D01*
X108151Y13597D01*
Y13950D01*
X108016Y14275D01*
X107767Y14524D01*
X107676Y14562D01*
X107666Y14844D01*
X107726Y15083D01*
X107983Y15190D01*
X108159Y15365D01*
X108858Y14665D01*
Y-14879D01*
X108754Y-14983D01*
X108358Y-15171D01*
X108178Y-15096D01*
X107826D01*
X107500Y-15231D01*
X107251Y-15481D01*
X107116Y-15806D01*
Y-16159D01*
X107251Y-16484D01*
X107500Y-16733D01*
X107826Y-16868D01*
X108178D01*
X108358Y-16793D01*
X108754Y-16982D01*
X108858Y-17086D01*
Y-21063D01*
X87500D01*
X75000Y-33563D01*
X72904Y-31467D01*
X96871Y-7499D01*
X97359Y-7719D01*
Y-7882D01*
X97493Y-8207D01*
X97742Y-8457D01*
X98068Y-8591D01*
X98421D01*
X98746Y-8457D01*
X98995Y-8207D01*
X99130Y-7882D01*
Y-7529D01*
X98995Y-7204D01*
X98746Y-6955D01*
X98421Y-6820D01*
X98258D01*
X98038Y-6332D01*
X102132Y-2238D01*
X102415Y-1815D01*
X102514Y-1316D01*
Y10738D01*
X102415Y11237D01*
X102132Y11660D01*
X99518Y14275D01*
X99094Y14558D01*
X98595Y14657D01*
X97753D01*
X97253Y14558D01*
X96830Y14275D01*
X96547Y13851D01*
X96448Y13352D01*
X96547Y12853D01*
X96830Y12430D01*
X97253Y12147D01*
X97753Y12048D01*
X98055D01*
X98564Y11539D01*
X98452Y11030D01*
X98413Y10983D01*
X98023Y10723D01*
X93713Y6412D01*
X93430Y5989D01*
X93331Y5490D01*
Y3052D01*
X92942Y2672D01*
X92589D01*
X92264Y2537D01*
X92015Y2288D01*
X91880Y1963D01*
Y1610D01*
X92015Y1285D01*
X92264Y1036D01*
X92589Y901D01*
X92942D01*
X93331Y521D01*
Y-2674D01*
X69458Y-26547D01*
X68996Y-26356D01*
Y-25541D01*
X69448Y-25354D01*
X69635Y-24902D01*
Y16240D01*
X69448Y16692D01*
X69193Y16798D01*
Y20669D01*
X102854D01*
X106906Y16618D01*
D02*
G37*
G36*
X-15474Y-20591D02*
X-17423Y-22540D01*
X-20674Y-21893D01*
X-20631Y-21811D01*
X-20634Y-21697D01*
X-20682Y-21551D01*
X-20776Y-21372D01*
X-20915Y-21160D01*
X-21928Y-19990D01*
X-22295Y-19617D01*
X-20346Y-17668D01*
X-19957Y-18019D01*
X-19567Y-18292D01*
X-19177Y-18486D01*
X-18787Y-18603D01*
X-18398Y-18642D01*
X-18008Y-18603D01*
X-17618Y-18486D01*
X-17228Y-18292D01*
X-16839Y-18019D01*
X-16449Y-17668D01*
X-15474Y-20591D01*
D02*
G37*
G36*
X55822Y-19465D02*
X55810Y-19463D01*
X55796Y-19464D01*
X55780Y-19469D01*
X55762Y-19477D01*
X55741Y-19489D01*
X55718Y-19505D01*
X55693Y-19525D01*
X55636Y-19576D01*
X55605Y-19607D01*
X55525Y-19522D01*
X55592Y-19620D01*
X55551Y-19663D01*
X55479Y-19749D01*
X55449Y-19793D01*
X55422Y-19837D01*
X55399Y-19881D01*
X55379Y-19926D01*
X55363Y-19970D01*
X55350Y-20015D01*
X55341Y-20060D01*
X54866Y-19384D01*
X54911Y-19390D01*
X54957Y-19390D01*
X55002Y-19386D01*
X55047Y-19376D01*
X55092Y-19361D01*
X55137Y-19341D01*
X55181Y-19316D01*
X55225Y-19285D01*
X55269Y-19249D01*
X55313Y-19208D01*
X55316Y-19211D01*
X55607Y-18958D01*
X55822Y-19465D01*
D02*
G37*
G36*
X51113Y-19438D02*
X51102Y-19462D01*
X51092Y-19490D01*
X51084Y-19525D01*
X51076Y-19564D01*
X51066Y-19659D01*
X51066Y-19663D01*
X51069Y-19702D01*
X51074Y-19730D01*
X51079Y-19753D01*
X51086Y-19771D01*
X51095Y-19786D01*
X51104Y-19796D01*
X51114Y-19803D01*
X51060Y-19826D01*
X51060Y-19841D01*
X51011Y-19848D01*
X50611Y-20024D01*
X50601Y-19908D01*
X50572Y-19913D01*
X50571Y-19860D01*
X50561Y-19769D01*
X50553Y-19730D01*
X50542Y-19695D01*
X50529Y-19666D01*
X50513Y-19640D01*
X50495Y-19619D01*
X50475Y-19603D01*
X50452Y-19591D01*
X51125Y-19420D01*
X51113Y-19438D01*
D02*
G37*
G36*
X53111Y-19418D02*
X53121Y-19445D01*
X53135Y-19475D01*
X53153Y-19507D01*
X53176Y-19542D01*
X53204Y-19579D01*
X53241Y-19623D01*
X53254Y-19634D01*
X53277Y-19650D01*
X53298Y-19663D01*
X53317Y-19672D01*
X53333Y-19678D01*
X53348Y-19680D01*
X53360Y-19678D01*
X53335Y-19726D01*
X53359Y-19751D01*
X53217Y-19952D01*
X53105Y-20166D01*
X53081Y-20144D01*
X53073Y-20155D01*
X53034Y-20118D01*
X52996Y-20086D01*
X52959Y-20059D01*
X52924Y-20037D01*
X52890Y-20020D01*
X52857Y-20008D01*
X52825Y-20001D01*
X52795Y-19999D01*
X52766Y-20003D01*
X52738Y-20011D01*
X52810Y-19891D01*
X52793Y-19875D01*
X52855Y-19814D01*
X53106Y-19392D01*
X53111Y-19418D01*
D02*
G37*
G36*
X57616Y-20268D02*
X57612Y-20270D01*
X57605Y-20276D01*
X57595Y-20284D01*
X57498Y-20377D01*
X57437Y-20437D01*
X57010Y-20174D01*
X57041Y-20142D01*
X57113Y-20060D01*
X57130Y-20037D01*
X57144Y-20016D01*
X57154Y-19997D01*
X57161Y-19981D01*
X57164Y-19966D01*
X57163Y-19954D01*
X57616Y-20268D01*
D02*
G37*
G36*
X49303Y-19804D02*
X49283Y-19845D01*
X49266Y-19888D01*
X49251Y-19934D01*
X49238Y-19982D01*
X49228Y-20032D01*
X49215Y-20131D01*
X49218Y-20168D01*
X49223Y-20196D01*
X49229Y-20219D01*
X49236Y-20239D01*
X49244Y-20254D01*
X49253Y-20265D01*
X49263Y-20271D01*
X48747Y-20466D01*
X48743Y-20388D01*
X48721Y-20394D01*
X48719Y-20334D01*
X48713Y-20278D01*
X48704Y-20225D01*
X48690Y-20177D01*
X48672Y-20132D01*
X48650Y-20092D01*
X48624Y-20055D01*
X48595Y-20022D01*
X48561Y-19993D01*
X48523Y-19968D01*
X49325Y-19765D01*
X49303Y-19804D01*
D02*
G37*
G36*
X57401Y-20462D02*
X57403Y-20521D01*
X57415Y-20632D01*
X57425Y-20685D01*
X57438Y-20734D01*
X57454Y-20781D01*
X57473Y-20826D01*
X57495Y-20869D01*
X57520Y-20909D01*
X57548Y-20946D01*
X56727Y-20848D01*
X56762Y-20818D01*
X56794Y-20784D01*
X56822Y-20748D01*
X56846Y-20707D01*
X56867Y-20664D01*
X56883Y-20617D01*
X56896Y-20567D01*
X56906Y-20514D01*
X56911Y-20457D01*
X56913Y-20398D01*
X57401Y-20462D01*
D02*
G37*
G36*
X54393Y-22145D02*
X54398Y-22203D01*
X54407Y-22256D01*
X54408Y-22261D01*
X54408Y-22261D01*
X54408Y-22261D01*
X54419Y-22307D01*
X54435Y-22354D01*
X54454Y-22397D01*
X54476Y-22437D01*
X54502Y-22474D01*
X54532Y-22507D01*
X54565Y-22537D01*
X53924Y-22586D01*
X53903Y-22589D01*
X53903Y-22587D01*
X53754Y-22599D01*
X53783Y-22565D01*
X53808Y-22527D01*
X53830Y-22487D01*
X53850Y-22444D01*
X53866Y-22398D01*
X53879Y-22352D01*
X53876Y-22345D01*
X53869Y-22332D01*
X53861Y-22324D01*
X53885Y-22321D01*
X53890Y-22298D01*
X53897Y-22243D01*
X53902Y-22186D01*
X53903Y-22126D01*
X54391Y-22085D01*
X54393Y-22145D01*
D02*
G37*
G36*
X52594Y-22372D02*
X52590Y-22384D01*
X52586Y-22400D01*
X52582Y-22420D01*
X52577Y-22472D01*
X52574Y-22541D01*
X52573Y-22626D01*
X52085Y-22652D01*
X52084Y-22607D01*
X52076Y-22469D01*
X52072Y-22445D01*
X52067Y-22424D01*
X52062Y-22408D01*
X52056Y-22396D01*
X52049Y-22387D01*
X52599Y-22365D01*
X52594Y-22372D01*
D02*
G37*
G36*
X51304Y-22503D02*
X51295Y-22511D01*
X51287Y-22524D01*
X51281Y-22540D01*
X51275Y-22561D01*
X51270Y-22585D01*
X51266Y-22614D01*
X51264Y-22632D01*
X51265Y-22635D01*
X51272Y-22690D01*
X51283Y-22742D01*
X51296Y-22791D01*
X51313Y-22838D01*
X51332Y-22883D01*
X51355Y-22925D01*
X51381Y-22965D01*
X51409Y-23002D01*
X50586Y-22921D01*
X50621Y-22890D01*
X50653Y-22855D01*
X50680Y-22818D01*
X50704Y-22777D01*
X50724Y-22733D01*
X50741Y-22686D01*
X50754Y-22636D01*
X50763Y-22583D01*
X50765Y-22561D01*
X50758Y-22422D01*
X51304Y-22503D01*
D02*
G37*
G36*
X52574Y-23044D02*
X52580Y-23101D01*
X52588Y-23155D01*
X52601Y-23205D01*
X52616Y-23254D01*
X52635Y-23299D01*
X52658Y-23341D01*
X52684Y-23381D01*
X52714Y-23417D01*
X52746Y-23451D01*
X51920Y-23473D01*
X51951Y-23438D01*
X51979Y-23400D01*
X52004Y-23359D01*
X52025Y-23316D01*
X52043Y-23270D01*
X52058Y-23221D01*
X52070Y-23169D01*
X52078Y-23115D01*
X52083Y-23058D01*
X52085Y-22999D01*
X52573Y-22985D01*
X52574Y-23044D01*
D02*
G37*
G36*
X109032Y-21818D02*
Y-25065D01*
X89671Y-42995D01*
X85283Y-44022D01*
X85040Y-43585D01*
X85672Y-42954D01*
X85911Y-42595D01*
X85995Y-42173D01*
X85911Y-41750D01*
X85672Y-41392D01*
X85314Y-41153D01*
X84891Y-41069D01*
X84469Y-41153D01*
X84111Y-41392D01*
X82709Y-42794D01*
X74670D01*
X69777Y-37901D01*
X69419Y-37661D01*
X68996Y-37577D01*
X67500D01*
X67293Y-37077D01*
X72452Y-31919D01*
X74548Y-34015D01*
X75000Y-34202D01*
X75452Y-34015D01*
X83187Y-26280D01*
X83247D01*
X83573Y-26145D01*
X83822Y-25896D01*
X83957Y-25570D01*
Y-25510D01*
X86005Y-23462D01*
X86592Y-23573D01*
X86841Y-23822D01*
X87167Y-23957D01*
X87519D01*
X87845Y-23822D01*
X88094Y-23573D01*
X88229Y-23247D01*
Y-22895D01*
X88094Y-22569D01*
X87845Y-22320D01*
X87822Y-22202D01*
X88237Y-21702D01*
X108858D01*
X109032Y-21818D01*
D02*
G37*
G36*
X8680Y-19275D02*
X8698Y-19368D01*
X8426Y-19776D01*
X8326Y-20276D01*
X8426Y-20775D01*
X8709Y-21198D01*
X9935Y-22425D01*
X9884Y-22987D01*
X9635Y-23236D01*
X9500Y-23562D01*
Y-23871D01*
X9452Y-23932D01*
X9386Y-23990D01*
X9075Y-24195D01*
X8879Y-24114D01*
X8526D01*
X8201Y-24249D01*
X7952Y-24498D01*
X7817Y-24824D01*
Y-25176D01*
X7952Y-25502D01*
X8201Y-25751D01*
X8526Y-25886D01*
X8879D01*
X9204Y-25751D01*
X9454Y-25502D01*
X9589Y-25176D01*
Y-24867D01*
X9636Y-24806D01*
X9703Y-24748D01*
X10013Y-24543D01*
X10209Y-24624D01*
X10562D01*
X10887Y-24489D01*
X11136Y-24240D01*
X11699Y-24189D01*
X14533Y-27022D01*
X14287Y-27483D01*
X13987Y-27424D01*
X7265D01*
X6623Y-26781D01*
Y-24724D01*
X6524Y-24225D01*
X6324Y-23927D01*
Y-19571D01*
X7027Y-18868D01*
X8534D01*
X8680Y-19275D01*
D02*
G37*
G36*
X99905Y8207D02*
Y4140D01*
X99516Y3760D01*
X99163D01*
X98838Y3625D01*
X98589Y3376D01*
X98454Y3050D01*
Y2698D01*
X98589Y2372D01*
X98838Y2123D01*
X99163Y1988D01*
X99516D01*
X99781Y1729D01*
Y1292D01*
X99388Y902D01*
X99163D01*
X98838Y767D01*
X98589Y518D01*
X98454Y192D01*
Y-160D01*
X98589Y-486D01*
X98838Y-735D01*
X99121Y-852D01*
X99219Y-1059D01*
X99310Y-1370D01*
X71059Y-29622D01*
X70566Y-29129D01*
X95558Y-4137D01*
X95841Y-3714D01*
X95940Y-3214D01*
Y4950D01*
X99405Y8414D01*
X99905Y8207D01*
D02*
G37*
G36*
X-26112Y-41831D02*
X-29006D01*
X-28993Y-41806D01*
X-28981Y-41757D01*
X-28971Y-41685D01*
X-28954Y-41471D01*
X-28938Y-40762D01*
X-28937Y-40526D01*
X-26181D01*
X-26112Y-41831D01*
D02*
G37*
%LPC*%
G36*
X42001Y51324D02*
X41649D01*
X41323Y51189D01*
X41074Y50940D01*
X40939Y50615D01*
Y50262D01*
X41074Y49937D01*
X41323Y49687D01*
X41649Y49553D01*
X42001D01*
X42327Y49687D01*
X42576Y49937D01*
X42711Y50262D01*
Y50615D01*
X42576Y50940D01*
X42327Y51189D01*
X42001Y51324D01*
D02*
G37*
G36*
X49966Y51266D02*
X49614D01*
X49288Y51131D01*
X49039Y50882D01*
X48904Y50557D01*
Y50204D01*
X49039Y49879D01*
X49288Y49629D01*
X49614Y49495D01*
X49966D01*
X50292Y49629D01*
X50541Y49879D01*
X50676Y50204D01*
Y50557D01*
X50541Y50882D01*
X50292Y51131D01*
X49966Y51266D01*
D02*
G37*
G36*
X-41093Y51210D02*
X-41446D01*
X-41771Y51076D01*
X-42021Y50827D01*
X-42155Y50501D01*
Y50148D01*
X-42021Y49823D01*
X-41771Y49574D01*
X-41446Y49439D01*
X-41093D01*
X-40768Y49574D01*
X-40519Y49823D01*
X-40384Y50148D01*
Y50501D01*
X-40519Y50827D01*
X-40768Y51076D01*
X-41093Y51210D01*
D02*
G37*
G36*
X-31671Y50745D02*
X-32023D01*
X-32349Y50610D01*
X-32598Y50361D01*
X-32733Y50035D01*
Y49683D01*
X-32598Y49357D01*
X-32349Y49108D01*
X-32023Y48973D01*
X-31671D01*
X-31345Y49108D01*
X-31096Y49357D01*
X-30961Y49683D01*
Y50035D01*
X-31096Y50361D01*
X-31345Y50610D01*
X-31671Y50745D01*
D02*
G37*
G36*
X58012Y47721D02*
X57660D01*
X57334Y47586D01*
X57085Y47337D01*
X56950Y47011D01*
Y46659D01*
X57085Y46333D01*
X57334Y46084D01*
X57660Y45949D01*
X58012D01*
X58338Y46084D01*
X58587Y46333D01*
X58722Y46659D01*
Y47011D01*
X58587Y47337D01*
X58338Y47586D01*
X58012Y47721D01*
D02*
G37*
G36*
X66412Y35039D02*
X66060D01*
X65734Y34905D01*
X65485Y34655D01*
X65350Y34330D01*
Y33977D01*
X65485Y33652D01*
X65734Y33403D01*
X65814Y33369D01*
X65850Y33299D01*
X65904Y32806D01*
X65785Y32687D01*
X65650Y32361D01*
Y32009D01*
X65785Y31683D01*
X66034Y31434D01*
X66359Y31299D01*
X66712D01*
X67037Y31434D01*
X67286Y31683D01*
X67421Y32009D01*
Y32361D01*
X67286Y32687D01*
X67037Y32936D01*
X66957Y32969D01*
X66921Y33040D01*
X66868Y33533D01*
X66987Y33652D01*
X67122Y33977D01*
Y34330D01*
X66987Y34655D01*
X66738Y34905D01*
X66412Y35039D01*
D02*
G37*
G36*
X-5533Y31890D02*
X-5885D01*
X-6210Y31755D01*
X-6460Y31506D01*
X-6594Y31180D01*
Y30828D01*
X-6460Y30502D01*
X-6210Y30253D01*
X-5885Y30118D01*
X-5533D01*
X-5207Y30253D01*
X-4958Y30502D01*
X-4823Y30828D01*
Y31180D01*
X-4958Y31506D01*
X-5207Y31755D01*
X-5533Y31890D01*
D02*
G37*
G36*
X97542Y28068D02*
X97190D01*
X96864Y27933D01*
X96615Y27684D01*
X96480Y27358D01*
Y27006D01*
X96615Y26680D01*
X96864Y26431D01*
X97190Y26296D01*
X97542D01*
X97868Y26431D01*
X98117Y26680D01*
X98252Y27006D01*
Y27358D01*
X98117Y27684D01*
X97868Y27933D01*
X97542Y28068D01*
D02*
G37*
G36*
X-71821Y-33041D02*
X-72173D01*
X-72499Y-33176D01*
X-72748Y-33425D01*
X-72883Y-33751D01*
Y-34103D01*
X-72748Y-34429D01*
X-72499Y-34678D01*
X-72173Y-34813D01*
X-71821D01*
X-71495Y-34678D01*
X-71246Y-34429D01*
X-71111Y-34103D01*
Y-33751D01*
X-71246Y-33425D01*
X-71495Y-33176D01*
X-71821Y-33041D01*
D02*
G37*
G36*
X-64483Y-40999D02*
X-64836D01*
X-65161Y-41134D01*
X-65410Y-41383D01*
X-65545Y-41708D01*
Y-42061D01*
X-65410Y-42386D01*
X-65161Y-42636D01*
X-64836Y-42770D01*
X-64483D01*
X-64158Y-42636D01*
X-63908Y-42386D01*
X-63774Y-42061D01*
Y-41708D01*
X-63908Y-41383D01*
X-64158Y-41134D01*
X-64483Y-40999D01*
D02*
G37*
G36*
X4365Y-40059D02*
X3509D01*
X2683Y-40280D01*
X1943Y-40708D01*
X1338Y-41313D01*
X910Y-42053D01*
X689Y-42880D01*
Y-43735D01*
X910Y-44561D01*
X1338Y-45301D01*
X1943Y-45906D01*
X2683Y-46334D01*
X3509Y-46555D01*
X4365D01*
X5191Y-46334D01*
X5931Y-45906D01*
X6536Y-45301D01*
X6964Y-44561D01*
X7185Y-43735D01*
Y-42880D01*
X6964Y-42053D01*
X6536Y-41313D01*
X5931Y-40708D01*
X5191Y-40280D01*
X4365Y-40059D01*
D02*
G37*
G36*
X-3509D02*
X-4365D01*
X-5191Y-40280D01*
X-5931Y-40708D01*
X-6536Y-41313D01*
X-6964Y-42053D01*
X-7185Y-42880D01*
Y-43735D01*
X-6964Y-44561D01*
X-6536Y-45301D01*
X-5931Y-45906D01*
X-5191Y-46334D01*
X-4365Y-46555D01*
X-3509D01*
X-2683Y-46334D01*
X-1943Y-45906D01*
X-1338Y-45301D01*
X-910Y-44561D01*
X-689Y-43735D01*
Y-42880D01*
X-910Y-42053D01*
X-1338Y-41313D01*
X-1943Y-40708D01*
X-2683Y-40280D01*
X-3509Y-40059D01*
D02*
G37*
G36*
X-11383D02*
X-12239D01*
X-13065Y-40280D01*
X-13805Y-40708D01*
X-14410Y-41313D01*
X-14838Y-42053D01*
X-15059Y-42880D01*
Y-43735D01*
X-14838Y-44561D01*
X-14410Y-45301D01*
X-13805Y-45906D01*
X-13065Y-46334D01*
X-12239Y-46555D01*
X-11383D01*
X-10557Y-46334D01*
X-9817Y-45906D01*
X-9212Y-45301D01*
X-8784Y-44561D01*
X-8563Y-43735D01*
Y-42880D01*
X-8784Y-42053D01*
X-9212Y-41313D01*
X-9817Y-40708D01*
X-10557Y-40280D01*
X-11383Y-40059D01*
D02*
G37*
G36*
X-19257D02*
X-20113D01*
X-20939Y-40280D01*
X-21679Y-40708D01*
X-22284Y-41313D01*
X-22712Y-42053D01*
X-22933Y-42880D01*
Y-43735D01*
X-22712Y-44561D01*
X-22284Y-45301D01*
X-21679Y-45906D01*
X-20939Y-46334D01*
X-20113Y-46555D01*
X-19257D01*
X-18431Y-46334D01*
X-17691Y-45906D01*
X-17086Y-45301D01*
X-16658Y-44561D01*
X-16437Y-43735D01*
Y-42880D01*
X-16658Y-42053D01*
X-17086Y-41313D01*
X-17691Y-40708D01*
X-18431Y-40280D01*
X-19257Y-40059D01*
D02*
G37*
G36*
X57679Y-46964D02*
X57326D01*
X57001Y-47099D01*
X56752Y-47348D01*
X56617Y-47673D01*
Y-48026D01*
X56752Y-48351D01*
X57001Y-48601D01*
X57326Y-48735D01*
X57679D01*
X58004Y-48601D01*
X58254Y-48351D01*
X58388Y-48026D01*
Y-47673D01*
X58254Y-47348D01*
X58004Y-47099D01*
X57679Y-46964D01*
D02*
G37*
G36*
X-56221Y-48622D02*
X-56574D01*
X-56899Y-48757D01*
X-57149Y-49006D01*
X-57284Y-49332D01*
Y-49684D01*
X-57149Y-50010D01*
X-56899Y-50259D01*
X-56574Y-50394D01*
X-56221D01*
X-55896Y-50259D01*
X-55647Y-50010D01*
X-55512Y-49684D01*
Y-49332D01*
X-55647Y-49006D01*
X-55896Y-48757D01*
X-56221Y-48622D01*
D02*
G37*
G36*
X49312Y-48688D02*
X48960D01*
X48634Y-48823D01*
X48385Y-49072D01*
X48250Y-49398D01*
Y-49750D01*
X48385Y-50076D01*
X48634Y-50325D01*
X48960Y-50460D01*
X49312D01*
X49638Y-50325D01*
X49887Y-50076D01*
X50022Y-49750D01*
Y-49398D01*
X49887Y-49072D01*
X49638Y-48823D01*
X49312Y-48688D01*
D02*
G37*
G36*
X41304Y-49014D02*
X40951D01*
X40626Y-49149D01*
X40377Y-49398D01*
X40242Y-49724D01*
Y-50076D01*
X40377Y-50402D01*
X40626Y-50651D01*
X40951Y-50786D01*
X41304D01*
X41629Y-50651D01*
X41879Y-50402D01*
X42013Y-50076D01*
Y-49724D01*
X41879Y-49398D01*
X41629Y-49149D01*
X41304Y-49014D01*
D02*
G37*
G36*
X-48136Y-49114D02*
X-48489D01*
X-48814Y-49249D01*
X-49064Y-49498D01*
X-49198Y-49824D01*
Y-50176D01*
X-49064Y-50502D01*
X-48814Y-50751D01*
X-48489Y-50886D01*
X-48136D01*
X-47811Y-50751D01*
X-47562Y-50502D01*
X-47427Y-50176D01*
Y-49824D01*
X-47562Y-49498D01*
X-47811Y-49249D01*
X-48136Y-49114D01*
D02*
G37*
G36*
X-35823Y24257D02*
X-36176D01*
X-36501Y24122D01*
X-36751Y23873D01*
X-36885Y23547D01*
Y23195D01*
X-36751Y22869D01*
X-36501Y22620D01*
X-36176Y22485D01*
X-35823D01*
X-35498Y22620D01*
X-35249Y22869D01*
X-35114Y23195D01*
Y23547D01*
X-35249Y23873D01*
X-35498Y24122D01*
X-35823Y24257D01*
D02*
G37*
G36*
X-38218Y21832D02*
X-38570D01*
X-38896Y21698D01*
X-39145Y21448D01*
X-39280Y21123D01*
Y20770D01*
X-39145Y20445D01*
X-38896Y20196D01*
X-38570Y20061D01*
X-38218D01*
X-37892Y20196D01*
X-37643Y20445D01*
X-37508Y20770D01*
Y21123D01*
X-37643Y21448D01*
X-37892Y21698D01*
X-38218Y21832D01*
D02*
G37*
G36*
X-36709Y12752D02*
X-37062D01*
X-37387Y12617D01*
X-37637Y12368D01*
X-37771Y12042D01*
Y11689D01*
X-37637Y11364D01*
X-37387Y11115D01*
X-37062Y10980D01*
X-36709D01*
X-36384Y11115D01*
X-36135Y11364D01*
X-36000Y11689D01*
Y12042D01*
X-36135Y12368D01*
X-36384Y12617D01*
X-36709Y12752D01*
D02*
G37*
G36*
X-55729Y11417D02*
X-56082D01*
X-56407Y11282D01*
X-56656Y11033D01*
X-56791Y10708D01*
Y10355D01*
X-56656Y10030D01*
X-56407Y9781D01*
X-56082Y9646D01*
X-55729D01*
X-55404Y9781D01*
X-55155Y10030D01*
X-55020Y10355D01*
Y10708D01*
X-55155Y11033D01*
X-55404Y11282D01*
X-55729Y11417D01*
D02*
G37*
G36*
X-39292Y8268D02*
X-39645D01*
X-39970Y8133D01*
X-40220Y7884D01*
X-40354Y7558D01*
Y7206D01*
X-40220Y6880D01*
X-39970Y6631D01*
X-39645Y6496D01*
X-39292D01*
X-38967Y6631D01*
X-38717Y6880D01*
X-38583Y7206D01*
Y7558D01*
X-38717Y7884D01*
X-38967Y8133D01*
X-39292Y8268D01*
D02*
G37*
G36*
X-55237Y7087D02*
X-55590D01*
X-55915Y6952D01*
X-56164Y6703D01*
X-56299Y6377D01*
Y6025D01*
X-56164Y5699D01*
X-55915Y5450D01*
X-55590Y5315D01*
X-55237D01*
X-54912Y5450D01*
X-54662Y5699D01*
X-54528Y6025D01*
Y6377D01*
X-54662Y6703D01*
X-54912Y6952D01*
X-55237Y7087D01*
D02*
G37*
G36*
X-46640Y3656D02*
X-46992D01*
X-47318Y3522D01*
X-47567Y3272D01*
X-47702Y2947D01*
Y2594D01*
X-47567Y2269D01*
X-47318Y2020D01*
X-46992Y1885D01*
X-46640D01*
X-46314Y2020D01*
X-46065Y2269D01*
X-45930Y2594D01*
Y2947D01*
X-46065Y3272D01*
X-46314Y3522D01*
X-46640Y3656D01*
D02*
G37*
G36*
X-43131Y689D02*
X-43483D01*
X-43809Y554D01*
X-44058Y305D01*
X-44193Y-21D01*
Y-373D01*
X-44058Y-699D01*
X-43809Y-948D01*
X-43483Y-1083D01*
X-43131D01*
X-42805Y-948D01*
X-42556Y-699D01*
X-42421Y-373D01*
Y-21D01*
X-42556Y305D01*
X-42805Y554D01*
X-43131Y689D01*
D02*
G37*
G36*
Y-3248D02*
X-43483D01*
X-43809Y-3383D01*
X-44058Y-3632D01*
X-44193Y-3958D01*
Y-4310D01*
X-44058Y-4636D01*
X-43809Y-4885D01*
X-43483Y-5020D01*
X-43131D01*
X-42805Y-4885D01*
X-42556Y-4636D01*
X-42421Y-4310D01*
Y-3958D01*
X-42556Y-3632D01*
X-42805Y-3383D01*
X-43131Y-3248D01*
D02*
G37*
G36*
X-55532Y-5315D02*
X-55885D01*
X-56210Y-5450D01*
X-56460Y-5699D01*
X-56595Y-6025D01*
Y-6377D01*
X-56460Y-6703D01*
X-56210Y-6952D01*
X-55885Y-7087D01*
X-55532D01*
X-55207Y-6952D01*
X-54958Y-6703D01*
X-54823Y-6377D01*
Y-6025D01*
X-54958Y-5699D01*
X-55207Y-5450D01*
X-55532Y-5315D01*
D02*
G37*
G36*
X-43891Y-6083D02*
X-44243D01*
X-44569Y-6218D01*
X-44818Y-6467D01*
X-44953Y-6792D01*
Y-7145D01*
X-44818Y-7470D01*
X-44569Y-7720D01*
X-44243Y-7854D01*
X-43891D01*
X-43565Y-7720D01*
X-43316Y-7470D01*
X-43181Y-7145D01*
Y-6792D01*
X-43316Y-6467D01*
X-43565Y-6218D01*
X-43891Y-6083D01*
D02*
G37*
G36*
X-55447Y-10827D02*
X-55800D01*
X-56125Y-10962D01*
X-56375Y-11211D01*
X-56510Y-11536D01*
Y-11889D01*
X-56375Y-12214D01*
X-56125Y-12464D01*
X-55800Y-12598D01*
X-55447D01*
X-55122Y-12464D01*
X-54873Y-12214D01*
X-54738Y-11889D01*
Y-11536D01*
X-54873Y-11211D01*
X-55122Y-10962D01*
X-55447Y-10827D01*
D02*
G37*
G36*
X-45985Y-11287D02*
X-46338D01*
X-46663Y-11422D01*
X-46912Y-11671D01*
X-47047Y-11996D01*
Y-12349D01*
X-46912Y-12674D01*
X-46663Y-12923D01*
X-46338Y-13058D01*
X-45985D01*
X-45660Y-12923D01*
X-45410Y-12674D01*
X-45276Y-12349D01*
Y-11996D01*
X-45410Y-11671D01*
X-45660Y-11422D01*
X-45985Y-11287D01*
D02*
G37*
G36*
X-43646Y-14961D02*
X-43998D01*
X-44324Y-15096D01*
X-44573Y-15345D01*
X-44708Y-15670D01*
Y-16023D01*
X-44573Y-16348D01*
X-44324Y-16597D01*
X-43998Y-16732D01*
X-43646D01*
X-43320Y-16597D01*
X-43071Y-16348D01*
X-42936Y-16023D01*
Y-15670D01*
X-43071Y-15345D01*
X-43320Y-15096D01*
X-43646Y-14961D01*
D02*
G37*
G36*
X-40988Y-15052D02*
X-41341D01*
X-41666Y-15187D01*
X-41916Y-15436D01*
X-42050Y-15762D01*
Y-16114D01*
X-41916Y-16440D01*
X-41666Y-16689D01*
X-41341Y-16824D01*
X-40988D01*
X-40663Y-16689D01*
X-40414Y-16440D01*
X-40279Y-16114D01*
Y-15762D01*
X-40414Y-15436D01*
X-40663Y-15187D01*
X-40988Y-15052D01*
D02*
G37*
G36*
X-48052Y-19094D02*
X-48405D01*
X-48730Y-19229D01*
X-48979Y-19478D01*
X-49114Y-19804D01*
Y-20156D01*
X-48979Y-20482D01*
X-48730Y-20731D01*
X-48405Y-20866D01*
X-48052D01*
X-47727Y-20731D01*
X-47477Y-20482D01*
X-47343Y-20156D01*
Y-19804D01*
X-47477Y-19478D01*
X-47727Y-19229D01*
X-48052Y-19094D01*
D02*
G37*
G36*
X-52580Y-19488D02*
X-52932D01*
X-53258Y-19623D01*
X-53507Y-19872D01*
X-53642Y-20198D01*
Y-20550D01*
X-53507Y-20876D01*
X-53258Y-21125D01*
X-52932Y-21260D01*
X-52580D01*
X-52254Y-21125D01*
X-52005Y-20876D01*
X-51870Y-20550D01*
Y-20198D01*
X-52005Y-19872D01*
X-52254Y-19623D01*
X-52580Y-19488D01*
D02*
G37*
G36*
X-41556Y-23228D02*
X-41908D01*
X-42234Y-23363D01*
X-42483Y-23612D01*
X-42618Y-23938D01*
Y-24290D01*
X-42483Y-24616D01*
X-42234Y-24865D01*
X-41908Y-25000D01*
X-41556D01*
X-41230Y-24865D01*
X-40981Y-24616D01*
X-40846Y-24290D01*
Y-23938D01*
X-40981Y-23612D01*
X-41230Y-23363D01*
X-41556Y-23228D01*
D02*
G37*
G36*
X-53662Y-27264D02*
X-54015D01*
X-54340Y-27399D01*
X-54589Y-27648D01*
X-54724Y-27973D01*
Y-28326D01*
X-54589Y-28651D01*
X-54340Y-28901D01*
X-54015Y-29035D01*
X-53662D01*
X-53337Y-28901D01*
X-53088Y-28651D01*
X-52953Y-28326D01*
Y-27973D01*
X-53088Y-27648D01*
X-53337Y-27399D01*
X-53662Y-27264D01*
D02*
G37*
G36*
X-49430Y-27953D02*
X-49782D01*
X-50108Y-28088D01*
X-50357Y-28337D01*
X-50492Y-28662D01*
Y-29015D01*
X-50357Y-29340D01*
X-50108Y-29590D01*
X-49782Y-29724D01*
X-49430D01*
X-49104Y-29590D01*
X-48855Y-29340D01*
X-48720Y-29015D01*
Y-28662D01*
X-48855Y-28337D01*
X-49104Y-28088D01*
X-49430Y-27953D01*
D02*
G37*
G36*
X-50586Y-30376D02*
X-50938D01*
X-51264Y-30511D01*
X-51513Y-30761D01*
X-51648Y-31086D01*
Y-31438D01*
X-51513Y-31764D01*
X-51264Y-32013D01*
X-50938Y-32148D01*
X-50586D01*
X-50261Y-32013D01*
X-50011Y-31764D01*
X-49876Y-31438D01*
Y-31086D01*
X-50011Y-30761D01*
X-50261Y-30511D01*
X-50586Y-30376D01*
D02*
G37*
G36*
X-62127Y-30610D02*
X-62479D01*
X-62805Y-30745D01*
X-63054Y-30994D01*
X-63189Y-31320D01*
Y-31672D01*
X-63054Y-31998D01*
X-62805Y-32247D01*
X-62479Y-32382D01*
X-62127D01*
X-61801Y-32247D01*
X-61552Y-31998D01*
X-61417Y-31672D01*
Y-31320D01*
X-61552Y-30994D01*
X-61801Y-30745D01*
X-62127Y-30610D01*
D02*
G37*
G36*
X-52678Y-31299D02*
X-53031D01*
X-53356Y-31434D01*
X-53605Y-31683D01*
X-53740Y-32009D01*
Y-32361D01*
X-53605Y-32687D01*
X-53356Y-32936D01*
X-53031Y-33071D01*
X-52678D01*
X-52352Y-32936D01*
X-52103Y-32687D01*
X-51968Y-32361D01*
Y-32009D01*
X-52103Y-31683D01*
X-52352Y-31434D01*
X-52678Y-31299D01*
D02*
G37*
G36*
X-62027Y-33567D02*
X-62380D01*
X-62705Y-33702D01*
X-62954Y-33951D01*
X-63089Y-34277D01*
Y-34629D01*
X-62954Y-34955D01*
X-62705Y-35204D01*
X-62380Y-35339D01*
X-62027D01*
X-61702Y-35204D01*
X-61453Y-34955D01*
X-61318Y-34629D01*
Y-34277D01*
X-61453Y-33951D01*
X-61702Y-33702D01*
X-62027Y-33567D01*
D02*
G37*
G36*
X-63036Y23199D02*
X-63389D01*
X-63714Y23065D01*
X-63963Y22815D01*
X-64098Y22490D01*
Y22137D01*
X-63963Y21812D01*
X-63714Y21563D01*
X-63389Y21428D01*
X-63036D01*
X-62711Y21563D01*
X-62461Y21812D01*
X-62327Y22137D01*
Y22490D01*
X-62461Y22815D01*
X-62711Y23065D01*
X-63036Y23199D01*
D02*
G37*
G36*
X-67147Y20768D02*
X-67499D01*
X-67825Y20633D01*
X-68074Y20384D01*
X-68209Y20058D01*
Y19706D01*
X-68074Y19380D01*
X-67825Y19131D01*
X-67499Y18996D01*
X-67147D01*
X-66821Y19131D01*
X-66572Y19380D01*
X-66437Y19706D01*
Y20058D01*
X-66572Y20384D01*
X-66821Y20633D01*
X-67147Y20768D01*
D02*
G37*
G36*
X-70295Y8657D02*
X-70647D01*
X-70973Y8522D01*
X-71222Y8273D01*
X-71357Y7948D01*
Y7595D01*
X-71222Y7270D01*
X-70973Y7020D01*
X-70647Y6885D01*
X-70295D01*
X-69969Y7020D01*
X-69720Y7270D01*
X-69585Y7595D01*
Y7948D01*
X-69720Y8273D01*
X-69969Y8522D01*
X-70295Y8657D01*
D02*
G37*
G36*
X-66851Y6988D02*
X-67204D01*
X-67529Y6853D01*
X-67778Y6604D01*
X-67913Y6279D01*
Y5926D01*
X-67778Y5601D01*
X-67529Y5351D01*
X-67204Y5217D01*
X-66851D01*
X-66526Y5351D01*
X-66277Y5601D01*
X-66142Y5926D01*
Y6279D01*
X-66277Y6604D01*
X-66526Y6853D01*
X-66851Y6988D01*
D02*
G37*
G36*
X-59781Y-3925D02*
X-60133D01*
X-60459Y-4060D01*
X-60708Y-4309D01*
X-60843Y-4634D01*
Y-4987D01*
X-60708Y-5312D01*
X-60459Y-5562D01*
X-60133Y-5697D01*
X-59781D01*
X-59455Y-5562D01*
X-59206Y-5312D01*
X-59071Y-4987D01*
Y-4634D01*
X-59206Y-4309D01*
X-59455Y-4060D01*
X-59781Y-3925D01*
D02*
G37*
G36*
X-68228Y-6303D02*
X-68581D01*
X-68906Y-6438D01*
X-69155Y-6688D01*
X-69290Y-7013D01*
Y-7366D01*
X-69155Y-7691D01*
X-68906Y-7940D01*
X-68581Y-8075D01*
X-68228D01*
X-67902Y-7940D01*
X-67653Y-7691D01*
X-67518Y-7366D01*
Y-7013D01*
X-67653Y-6688D01*
X-67902Y-6438D01*
X-68228Y-6303D01*
D02*
G37*
G36*
X-71004Y-12519D02*
X-71357D01*
X-71682Y-12654D01*
X-71931Y-12903D01*
X-72066Y-13229D01*
Y-13581D01*
X-71931Y-13906D01*
X-71682Y-14156D01*
X-71357Y-14291D01*
X-71004D01*
X-70679Y-14156D01*
X-70429Y-13906D01*
X-70294Y-13581D01*
Y-13229D01*
X-70429Y-12903D01*
X-70679Y-12654D01*
X-71004Y-12519D01*
D02*
G37*
G36*
X-26678Y27859D02*
X-27031D01*
X-27356Y27724D01*
X-27606Y27475D01*
X-27740Y27150D01*
Y26797D01*
X-27606Y26472D01*
X-27356Y26222D01*
X-27031Y26087D01*
X-26678D01*
X-26353Y26222D01*
X-26103Y26472D01*
X-25969Y26797D01*
Y27150D01*
X-26103Y27475D01*
X-26353Y27724D01*
X-26678Y27859D01*
D02*
G37*
G36*
X-21084Y27362D02*
X-21436D01*
X-21762Y27227D01*
X-22011Y26978D01*
X-22146Y26653D01*
Y26300D01*
X-22011Y25975D01*
X-21762Y25725D01*
X-21436Y25591D01*
X-21084D01*
X-20758Y25725D01*
X-20509Y25975D01*
X-20374Y26300D01*
Y26653D01*
X-20509Y26978D01*
X-20758Y27227D01*
X-21084Y27362D01*
D02*
G37*
G36*
X42499Y27165D02*
X42147D01*
X41821Y27031D01*
X41572Y26781D01*
X41437Y26456D01*
Y26103D01*
X41572Y25778D01*
X41821Y25529D01*
X42147Y25394D01*
X42499D01*
X42825Y25529D01*
X43074Y25778D01*
X43209Y26103D01*
Y26456D01*
X43074Y26781D01*
X42825Y27031D01*
X42499Y27165D01*
D02*
G37*
G36*
X8592Y26958D02*
X8239D01*
X7914Y26823D01*
X7664Y26574D01*
X7530Y26248D01*
Y25896D01*
X7664Y25570D01*
X7914Y25321D01*
X8239Y25186D01*
X8592D01*
X8917Y25321D01*
X9166Y25570D01*
X9301Y25896D01*
Y26248D01*
X9166Y26574D01*
X8917Y26823D01*
X8592Y26958D01*
D02*
G37*
G36*
X-24164Y26408D02*
X-24517D01*
X-24843Y26273D01*
X-25092Y26024D01*
X-25227Y25698D01*
Y25346D01*
X-25092Y25020D01*
X-24843Y24771D01*
X-24517Y24636D01*
X-24164D01*
X-23839Y24771D01*
X-23590Y25020D01*
X-23455Y25346D01*
Y25698D01*
X-23590Y26024D01*
X-23839Y26273D01*
X-24164Y26408D01*
D02*
G37*
G36*
X3129Y25787D02*
X2777D01*
X2451Y25653D01*
X2202Y25403D01*
X2067Y25078D01*
Y24725D01*
X2202Y24400D01*
X2451Y24151D01*
X2777Y24016D01*
X3129D01*
X3455Y24151D01*
X3704Y24400D01*
X3839Y24725D01*
Y25078D01*
X3704Y25403D01*
X3455Y25653D01*
X3129Y25787D01*
D02*
G37*
G36*
X63060Y25377D02*
X62708D01*
X62382Y25242D01*
X62133Y24993D01*
X61998Y24667D01*
Y24315D01*
X62133Y23989D01*
X62382Y23740D01*
X62708Y23605D01*
X63060D01*
X63385Y23740D01*
X63635Y23989D01*
X63770Y24315D01*
Y24667D01*
X63635Y24993D01*
X63385Y25242D01*
X63060Y25377D01*
D02*
G37*
G36*
X44352Y24754D02*
X44000D01*
X43674Y24619D01*
X43425Y24370D01*
X43290Y24044D01*
Y23692D01*
X43425Y23366D01*
X43674Y23117D01*
X44000Y22982D01*
X44352D01*
X44678Y23117D01*
X44927Y23366D01*
X45062Y23692D01*
Y24044D01*
X44927Y24370D01*
X44678Y24619D01*
X44352Y24754D01*
D02*
G37*
G36*
X-13759Y22441D02*
X-14111D01*
X-14437Y22306D01*
X-14686Y22057D01*
X-14821Y21731D01*
Y21379D01*
X-14686Y21053D01*
X-14437Y20804D01*
X-14111Y20669D01*
X-13759D01*
X-13433Y20804D01*
X-13184Y21053D01*
X-13049Y21379D01*
Y21731D01*
X-13184Y22057D01*
X-13433Y22306D01*
X-13759Y22441D01*
D02*
G37*
G36*
X41292Y20695D02*
X40940D01*
X40614Y20560D01*
X40365Y20311D01*
X40230Y19986D01*
Y19633D01*
X40365Y19308D01*
X40614Y19058D01*
X40940Y18924D01*
X41292D01*
X41618Y19058D01*
X41867Y19308D01*
X42002Y19633D01*
Y19986D01*
X41867Y20311D01*
X41618Y20560D01*
X41292Y20695D01*
D02*
G37*
G36*
X58107Y20517D02*
X57755D01*
X57429Y20382D01*
X57180Y20133D01*
X57045Y19807D01*
Y19455D01*
X57180Y19129D01*
X57429Y18880D01*
X57755Y18745D01*
X58107D01*
X58433Y18880D01*
X58682Y19129D01*
X58817Y19455D01*
Y19807D01*
X58682Y20133D01*
X58433Y20382D01*
X58107Y20517D01*
D02*
G37*
G36*
X35857Y21496D02*
X35742Y21424D01*
X35610Y21398D01*
X35287Y21183D01*
X28826D01*
X28403Y21099D01*
X28045Y20859D01*
X22213Y15027D01*
X17930D01*
X17783Y15279D01*
X17692Y15527D01*
X17804Y15800D01*
Y16152D01*
X17670Y16477D01*
X17420Y16727D01*
X17095Y16862D01*
X16742D01*
X16417Y16727D01*
X16168Y16477D01*
X16033Y16152D01*
Y15800D01*
X16146Y15527D01*
X16054Y15279D01*
X15907Y15027D01*
X11851D01*
X11429Y14943D01*
X11071Y14704D01*
X10831Y14346D01*
X10747Y13923D01*
Y6455D01*
X10831Y6033D01*
X11039Y5723D01*
Y-2182D01*
X10386Y-2835D01*
X10147Y-3193D01*
X10062Y-3616D01*
Y-6592D01*
X10147Y-7015D01*
X10386Y-7373D01*
X12331Y-9318D01*
X12124Y-9818D01*
X11979D01*
X11654Y-9953D01*
X11527Y-10080D01*
X11220Y-10156D01*
X10914Y-10080D01*
X10787Y-9953D01*
X10462Y-9818D01*
X10109D01*
X9784Y-9953D01*
X9534Y-10202D01*
X9400Y-10527D01*
Y-10880D01*
X9534Y-11206D01*
X9784Y-11455D01*
X10109Y-11590D01*
X10462D01*
X10787Y-11455D01*
X10914Y-11328D01*
X11220Y-11252D01*
X11527Y-11328D01*
X11654Y-11455D01*
X11979Y-11590D01*
X12332D01*
X12657Y-11455D01*
X12907Y-11206D01*
X13041Y-10880D01*
X13465Y-10785D01*
X13730Y-11142D01*
Y-11495D01*
X13865Y-11820D01*
X14114Y-12069D01*
X14440Y-12204D01*
X14792D01*
X15118Y-12069D01*
X15367Y-11820D01*
X15502Y-11495D01*
Y-11142D01*
X15465Y-11052D01*
X15482Y-11013D01*
X15880Y-10747D01*
X16968Y-11836D01*
X17326Y-12075D01*
X17749Y-12159D01*
X21342D01*
X21765Y-12075D01*
X22123Y-11836D01*
X24360Y-9599D01*
X24599Y-9241D01*
X24683Y-8818D01*
Y-8339D01*
X24599Y-7916D01*
X24360Y-7558D01*
X24001Y-7319D01*
X23579Y-7235D01*
X23156Y-7319D01*
X22798Y-7558D01*
X22328Y-7558D01*
X22224Y-7518D01*
X22014Y-7308D01*
X21688Y-7173D01*
X21336D01*
X21010Y-7308D01*
X20761Y-7557D01*
X20626Y-7883D01*
Y-8235D01*
X20761Y-8561D01*
X21010Y-8810D01*
X21228Y-8901D01*
X21371Y-9259D01*
X21391Y-9445D01*
X20885Y-9951D01*
X18206D01*
X17263Y-9008D01*
Y-8169D01*
X17179Y-7747D01*
X16939Y-7389D01*
X16934Y-7282D01*
X16937Y-7252D01*
X17220Y-6781D01*
X17546Y-6647D01*
X17684Y-6509D01*
X17844Y-6442D01*
X18059Y-6368D01*
X18068Y-6350D01*
X18087Y-6342D01*
X18173Y-6132D01*
X18201Y-6076D01*
X18208Y-6069D01*
X18235Y-6046D01*
X18240Y-6037D01*
X18243Y-6034D01*
X18247Y-6025D01*
X18247Y-6024D01*
X18251Y-6019D01*
X18295Y-5967D01*
X18325Y-5936D01*
X18413Y-5713D01*
X18504Y-5492D01*
X18609Y-5415D01*
X18934Y-5215D01*
X19006D01*
X19259Y-5110D01*
X19453Y-4916D01*
X19558Y-4663D01*
Y-4389D01*
X19453Y-4136D01*
X19259Y-3942D01*
X19006Y-3837D01*
X18732D01*
X18521Y-3924D01*
X18376D01*
X17924Y-4112D01*
X17559Y-4476D01*
X17472Y-4436D01*
X17459Y-4441D01*
X17447Y-4436D01*
X17232Y-4525D01*
X17013Y-4606D01*
X16939Y-4674D01*
X16926Y-4684D01*
X16915Y-4693D01*
X16915Y-4693D01*
X16905Y-4697D01*
X16903Y-4699D01*
X16894Y-4704D01*
X16871Y-4732D01*
X16864Y-4739D01*
X16808Y-4766D01*
X16598Y-4853D01*
X16590Y-4872D01*
X16572Y-4881D01*
X16498Y-5095D01*
X16431Y-5256D01*
X16293Y-5394D01*
X16158Y-5720D01*
Y-6072D01*
X16293Y-6397D01*
X16496Y-6600D01*
X16524Y-6629D01*
X16523Y-6666D01*
X16412Y-6860D01*
X16412D01*
X16280Y-7090D01*
X16159Y-7065D01*
X15736Y-7149D01*
X15378Y-7389D01*
X15139Y-7747D01*
X15055Y-8169D01*
Y-8344D01*
X14479D01*
X13251Y-7116D01*
X13534Y-6692D01*
X13546Y-6697D01*
X13898D01*
X14224Y-6562D01*
X14473Y-6313D01*
X14608Y-5987D01*
Y-5635D01*
X14473Y-5309D01*
X14224Y-5060D01*
X13898Y-4925D01*
X13546D01*
X13220Y-5060D01*
X12971Y-5309D01*
X12877Y-5536D01*
X12570Y-5730D01*
X12336Y-5814D01*
X12270Y-5779D01*
Y-4073D01*
X12923Y-3420D01*
X12923Y-3420D01*
X13162Y-3062D01*
X13246Y-2640D01*
Y6164D01*
X13197Y6412D01*
X13564Y6780D01*
X13587Y6791D01*
X13940D01*
X14265Y6926D01*
X14514Y7175D01*
X14649Y7501D01*
Y7853D01*
X14514Y8179D01*
X14265Y8428D01*
X13940Y8563D01*
X13587D01*
X13455Y8508D01*
X12994Y8754D01*
X12955Y8801D01*
Y12819D01*
X22670D01*
X23093Y12903D01*
X23451Y13143D01*
X29283Y18975D01*
X33063D01*
X33070Y18937D01*
X33111Y18910D01*
X33127Y18864D01*
X33237Y18811D01*
X33316Y18720D01*
X33404Y18713D01*
X33477Y18665D01*
X33525Y18674D01*
X33569Y18653D01*
X33829Y18639D01*
X34012Y18607D01*
X34151Y18561D01*
X34253Y18506D01*
X34329Y18443D01*
X34391Y18367D01*
X34446Y18265D01*
X34493Y18126D01*
X34525Y17943D01*
X34531Y17822D01*
X34094Y17567D01*
X34082Y17564D01*
X33966Y17680D01*
X33641Y17815D01*
X33288D01*
X32963Y17680D01*
X32714Y17431D01*
X32579Y17105D01*
Y16753D01*
X32714Y16427D01*
X32963Y16178D01*
X33288Y16043D01*
X33641D01*
X33966Y16178D01*
X34216Y16427D01*
X34236Y16477D01*
X34795Y16708D01*
X34830Y16704D01*
X34861Y16686D01*
Y6362D01*
X34585Y6086D01*
X32487D01*
X32064Y6002D01*
X31706Y5763D01*
X31467Y5405D01*
X31383Y4982D01*
X31467Y4560D01*
X31706Y4202D01*
X32064Y3962D01*
X32487Y3878D01*
X35042D01*
X35464Y3962D01*
X35822Y4202D01*
X36745Y5124D01*
X36984Y5482D01*
X37068Y5905D01*
Y7397D01*
X37462Y7776D01*
X37814D01*
X38140Y7910D01*
X38389Y8160D01*
X38524Y8485D01*
Y8838D01*
X38389Y9163D01*
X38140Y9412D01*
X37814Y9547D01*
X37462D01*
X37068Y9926D01*
Y17203D01*
X37182Y17243D01*
X37189Y17258D01*
X37204Y17265D01*
X37292Y17478D01*
X37390Y17686D01*
X37403Y17949D01*
X37433Y18139D01*
X37478Y18284D01*
X37529Y18389D01*
X37585Y18464D01*
X37649Y18521D01*
X37730Y18569D01*
X37843Y18610D01*
X37995Y18640D01*
X38226Y18653D01*
X38260Y18670D01*
X38297Y18661D01*
X38374Y18710D01*
X38464Y18714D01*
X38550Y18810D01*
X38666Y18866D01*
X38679Y18902D01*
X38711Y18922D01*
X38731Y19011D01*
X38791Y19078D01*
X38786Y19176D01*
X38969Y19298D01*
X39209Y19656D01*
X39293Y20079D01*
X39209Y20501D01*
X38969Y20859D01*
X38611Y21099D01*
X38189Y21183D01*
X36624D01*
X36334Y21388D01*
X36202Y21418D01*
X36090Y21493D01*
X35973Y21470D01*
X35857Y21496D01*
D02*
G37*
G36*
X-11606Y19783D02*
X-11958D01*
X-12284Y19649D01*
X-12533Y19399D01*
X-12668Y19074D01*
Y18721D01*
X-12533Y18396D01*
X-12284Y18147D01*
X-11958Y18012D01*
X-11606D01*
X-11280Y18147D01*
X-11031Y18396D01*
X-10896Y18721D01*
Y19074D01*
X-11031Y19399D01*
X-11280Y19649D01*
X-11606Y19783D01*
D02*
G37*
G36*
X44819Y19734D02*
X44467D01*
X44141Y19599D01*
X43892Y19350D01*
X43757Y19025D01*
Y18672D01*
X43892Y18347D01*
X44141Y18098D01*
X44467Y17963D01*
X44819D01*
X45145Y18098D01*
X45394Y18347D01*
X45529Y18672D01*
Y19025D01*
X45394Y19350D01*
X45145Y19599D01*
X44819Y19734D01*
D02*
G37*
G36*
X-8781Y19193D02*
X-9133D01*
X-9459Y19058D01*
X-9708Y18809D01*
X-9843Y18483D01*
Y18131D01*
X-9708Y17805D01*
X-9459Y17556D01*
X-9133Y17421D01*
X-8781D01*
X-8455Y17556D01*
X-8206Y17805D01*
X-8071Y18131D01*
Y18483D01*
X-8206Y18809D01*
X-8455Y19058D01*
X-8781Y19193D01*
D02*
G37*
G36*
X-14048Y19063D02*
X-14401D01*
X-14726Y18928D01*
X-14975Y18679D01*
X-15110Y18354D01*
Y18001D01*
X-14975Y17676D01*
X-14726Y17427D01*
X-14401Y17292D01*
X-14048D01*
X-13723Y17427D01*
X-13473Y17676D01*
X-13339Y18001D01*
Y18354D01*
X-13473Y18679D01*
X-13723Y18928D01*
X-14048Y19063D01*
D02*
G37*
G36*
X41023Y17913D02*
X40670D01*
X40345Y17778D01*
X40095Y17529D01*
X39961Y17204D01*
Y16851D01*
X40095Y16526D01*
X40345Y16277D01*
X40670Y16142D01*
X41023D01*
X41348Y16277D01*
X41597Y16526D01*
X41732Y16851D01*
Y17204D01*
X41597Y17529D01*
X41348Y17778D01*
X41023Y17913D01*
D02*
G37*
G36*
X-3170Y17028D02*
X-3523D01*
X-3848Y16893D01*
X-4097Y16644D01*
X-4232Y16318D01*
Y15966D01*
X-4097Y15640D01*
X-3848Y15391D01*
X-3523Y15256D01*
X-3170D01*
X-2845Y15391D01*
X-2596Y15640D01*
X-2461Y15966D01*
Y16318D01*
X-2596Y16644D01*
X-2845Y16893D01*
X-3170Y17028D01*
D02*
G37*
G36*
X-8091Y16732D02*
X-8444D01*
X-8770Y16597D01*
X-9019Y16348D01*
X-9154Y16023D01*
Y15670D01*
X-9019Y15345D01*
X-8770Y15096D01*
X-8444Y14961D01*
X-8091D01*
X-7766Y15096D01*
X-7517Y15345D01*
X-7382Y15670D01*
Y16023D01*
X-7517Y16348D01*
X-7766Y16597D01*
X-8091Y16732D01*
D02*
G37*
G36*
X-10965Y16358D02*
X-11317D01*
X-11643Y16223D01*
X-11892Y15974D01*
X-12027Y15648D01*
Y15296D01*
X-11892Y14970D01*
X-11643Y14721D01*
X-11317Y14586D01*
X-10965D01*
X-10639Y14721D01*
X-10390Y14970D01*
X-10255Y15296D01*
Y15648D01*
X-10390Y15974D01*
X-10639Y16223D01*
X-10965Y16358D01*
D02*
G37*
G36*
X-19752Y12254D02*
X-20104D01*
X-20430Y12119D01*
X-20679Y11870D01*
X-20814Y11544D01*
Y11192D01*
X-20679Y10866D01*
X-20430Y10617D01*
X-20104Y10482D01*
X-19752D01*
X-19426Y10617D01*
X-19177Y10866D01*
X-19042Y11192D01*
Y11544D01*
X-19177Y11870D01*
X-19426Y12119D01*
X-19752Y12254D01*
D02*
G37*
G36*
X-14916Y11887D02*
X-15269D01*
X-15594Y11752D01*
X-15844Y11503D01*
X-15978Y11178D01*
Y10825D01*
X-15844Y10499D01*
X-15594Y10250D01*
X-15269Y10115D01*
X-14916D01*
X-14591Y10250D01*
X-14342Y10499D01*
X-14207Y10825D01*
Y11178D01*
X-14342Y11503D01*
X-14591Y11752D01*
X-14916Y11887D01*
D02*
G37*
G36*
X-25808Y15256D02*
X-26160D01*
X-26486Y15121D01*
X-26735Y14872D01*
X-26870Y14546D01*
Y14194D01*
X-26853Y14153D01*
X-27120Y13659D01*
X-27159Y13639D01*
X-27449Y13518D01*
X-27699Y13269D01*
X-27833Y12943D01*
Y12591D01*
X-27716Y12309D01*
X-27703Y12252D01*
X-27876Y11736D01*
X-27934Y11712D01*
X-28183Y11463D01*
X-28318Y11137D01*
Y10785D01*
X-28183Y10459D01*
X-27934Y10210D01*
X-27608Y10075D01*
X-27256D01*
X-26930Y10210D01*
X-26681Y10459D01*
X-26546Y10785D01*
Y11137D01*
X-26663Y11419D01*
X-26676Y11476D01*
X-26503Y11992D01*
X-26446Y12016D01*
X-26197Y12265D01*
X-26062Y12591D01*
Y12943D01*
X-26079Y12984D01*
X-25811Y13478D01*
X-25773Y13499D01*
X-25482Y13619D01*
X-25233Y13868D01*
X-25098Y14194D01*
Y14546D01*
X-25233Y14872D01*
X-25482Y15121D01*
X-25808Y15256D01*
D02*
G37*
G36*
X24861Y11837D02*
X24508D01*
X24183Y11702D01*
X23934Y11453D01*
X23799Y11128D01*
Y10775D01*
X23934Y10450D01*
X24183Y10200D01*
X24508Y10066D01*
X24861D01*
X25186Y10200D01*
X25436Y10450D01*
X25570Y10775D01*
Y11128D01*
X25436Y11453D01*
X25186Y11702D01*
X24861Y11837D01*
D02*
G37*
G36*
X7774Y11804D02*
X7422D01*
X7096Y11669D01*
X6847Y11420D01*
X6712Y11094D01*
Y10742D01*
X6847Y10416D01*
X7096Y10167D01*
X7422Y10032D01*
X7774D01*
X8100Y10167D01*
X8349Y10416D01*
X8484Y10742D01*
Y11094D01*
X8349Y11420D01*
X8100Y11669D01*
X7774Y11804D01*
D02*
G37*
G36*
X20222Y4262D02*
X20213Y4256D01*
X20202Y4259D01*
X20056Y4173D01*
X20030Y4177D01*
X20023Y4176D01*
X20019Y4176D01*
X20006Y4172D01*
X20001Y4172D01*
X19927Y4167D01*
X19879Y4166D01*
X19833Y4146D01*
X19784Y4157D01*
X19614Y4051D01*
X19430Y3972D01*
X19411Y3925D01*
X19369Y3899D01*
X19323Y3703D01*
X19292Y3625D01*
X19221Y3596D01*
X19027Y3402D01*
X18922Y3149D01*
Y2874D01*
X19027Y2621D01*
X19020Y2106D01*
X18944Y1985D01*
X18931Y1977D01*
X18728Y1874D01*
X18568Y1805D01*
X18390D01*
X18064Y1670D01*
X17815Y1421D01*
X17680Y1095D01*
Y743D01*
X17815Y417D01*
X18064Y168D01*
X18071Y131D01*
X17878Y-63D01*
X17743Y-388D01*
Y-741D01*
X17878Y-1066D01*
X17879Y-1068D01*
X17891Y-1177D01*
X17892Y-1222D01*
X17882Y-1275D01*
X17894Y-1293D01*
X17897Y-1399D01*
X17916Y-1416D01*
X17919Y-1442D01*
X17988Y-1498D01*
X17989Y-1524D01*
X18003Y-1558D01*
X17994Y-1594D01*
X18100Y-1777D01*
X18186Y-1972D01*
X18221Y-1985D01*
X18239Y-2017D01*
X18444Y-2072D01*
X18534Y-2107D01*
X18570Y-2143D01*
X18823Y-2248D01*
X19098D01*
X19351Y-2143D01*
X19545Y-1949D01*
X19554Y-1926D01*
X19689Y-1864D01*
X19699Y-1835D01*
X19726Y-1820D01*
X19782Y-1609D01*
X19857Y-1404D01*
X19828Y-723D01*
X19767Y-589D01*
X19751Y-443D01*
X19731Y-428D01*
X19710Y-219D01*
X19827Y160D01*
X19898Y191D01*
X19898Y192D01*
X19899Y192D01*
X19903Y202D01*
X19922Y251D01*
X20022D01*
X20276Y356D01*
X20442Y522D01*
X20658Y306D01*
X20983Y172D01*
X21224D01*
X21381Y114D01*
X21589Y24D01*
X21609Y32D01*
X21629Y25D01*
X21834Y121D01*
X21881Y140D01*
X21911Y137D01*
X21917Y137D01*
X21919Y137D01*
X21924Y137D01*
X21937Y141D01*
X21941Y141D01*
X21946Y143D01*
X22011Y149D01*
X22052Y150D01*
X22063Y154D01*
X22073Y151D01*
X22286Y252D01*
X22501Y346D01*
X22505Y356D01*
X22515Y361D01*
X22518Y371D01*
X22553Y470D01*
X22691Y527D01*
X22884Y721D01*
X22989Y974D01*
Y1248D01*
X22884Y1501D01*
X22691Y1695D01*
X22486Y1780D01*
X22468Y1823D01*
X22447Y1833D01*
X22436Y1854D01*
X22225Y1929D01*
X22020Y2018D01*
X21975Y2019D01*
X21903Y2025D01*
X21893Y2026D01*
X21888Y2027D01*
X21875Y2032D01*
X21871Y2032D01*
X21865Y2034D01*
X21840Y2031D01*
X21815Y2030D01*
X21747Y2050D01*
X21533Y2128D01*
X21515Y2120D01*
X21507Y2122D01*
X21295Y2563D01*
X21545Y2813D01*
X21679Y3138D01*
Y3491D01*
X21545Y3816D01*
X21295Y4065D01*
X20970Y4200D01*
X20617D01*
X20546Y4171D01*
X20448Y4196D01*
X20436Y4200D01*
X20427Y4206D01*
X20417Y4205D01*
X20408Y4208D01*
X20342Y4243D01*
X20314Y4235D01*
X20222Y4262D01*
D02*
G37*
G36*
X24758Y5570D02*
X24406D01*
X24080Y5435D01*
X23831Y5186D01*
X23696Y4861D01*
Y4508D01*
X23831Y4183D01*
X24080Y3934D01*
X23967Y3439D01*
X23920Y3326D01*
Y2973D01*
X24055Y2648D01*
X24304Y2399D01*
X24629Y2264D01*
X24787D01*
X25095Y2027D01*
X25197Y1812D01*
Y1595D01*
X25332Y1270D01*
X25547Y1055D01*
X25545Y1047D01*
X25296Y797D01*
X25161Y472D01*
Y120D01*
X25296Y-206D01*
X25545Y-455D01*
X25871Y-590D01*
X26223D01*
X26549Y-455D01*
X26798Y-206D01*
X26933Y120D01*
Y472D01*
X26798Y797D01*
X26583Y1013D01*
X26585Y1021D01*
X26834Y1270D01*
X26969Y1595D01*
Y1948D01*
X26834Y2273D01*
X26585Y2523D01*
X26259Y2657D01*
X26102D01*
X25794Y2895D01*
X25691Y3110D01*
Y3326D01*
X25556Y3651D01*
X25307Y3901D01*
X25421Y4395D01*
X25468Y4508D01*
Y4861D01*
X25333Y5186D01*
X25084Y5435D01*
X24758Y5570D01*
D02*
G37*
G36*
X38857Y-197D02*
X38505D01*
X38179Y-332D01*
X37930Y-581D01*
X37795Y-907D01*
Y-1259D01*
X37930Y-1585D01*
X38179Y-1834D01*
X38505Y-1969D01*
X38857D01*
X39183Y-1834D01*
X39432Y-1585D01*
X39567Y-1259D01*
Y-907D01*
X39432Y-581D01*
X39183Y-332D01*
X38857Y-197D01*
D02*
G37*
G36*
X8643Y767D02*
X8291D01*
X7965Y632D01*
X7716Y383D01*
X7581Y58D01*
Y-295D01*
X7716Y-620D01*
X7965Y-870D01*
X8291Y-1004D01*
X8643D01*
X8670Y-1022D01*
Y-1292D01*
X8805Y-1618D01*
X9054Y-1867D01*
X9380Y-2002D01*
X9732D01*
X10058Y-1867D01*
X10307Y-1618D01*
X10441Y-1292D01*
Y-940D01*
X10307Y-614D01*
X10058Y-365D01*
X9732Y-230D01*
X9380D01*
X9353Y-212D01*
Y58D01*
X9218Y383D01*
X8969Y632D01*
X8643Y767D01*
D02*
G37*
G36*
X3306Y-1167D02*
X2953D01*
X2628Y-1302D01*
X2379Y-1551D01*
X2244Y-1877D01*
Y-2229D01*
X2379Y-2555D01*
X2628Y-2804D01*
X2953Y-2939D01*
X3306D01*
X3631Y-2804D01*
X3881Y-2555D01*
X4015Y-2229D01*
Y-1877D01*
X3881Y-1551D01*
X3631Y-1302D01*
X3306Y-1167D01*
D02*
G37*
G36*
X-9490Y-394D02*
X-9999D01*
X-10469Y-588D01*
X-10829Y-948D01*
X-11024Y-1419D01*
Y-1928D01*
X-10829Y-2398D01*
X-10469Y-2758D01*
X-9999Y-2953D01*
X-9490D01*
X-9019Y-2758D01*
X-8659Y-2398D01*
X-8465Y-1928D01*
Y-1419D01*
X-8659Y-948D01*
X-9019Y-588D01*
X-9490Y-394D01*
D02*
G37*
G36*
X6131Y-2149D02*
X5779D01*
X5453Y-2284D01*
X5204Y-2533D01*
X5069Y-2859D01*
Y-3211D01*
X5204Y-3537D01*
X5453Y-3786D01*
X5779Y-3921D01*
X6131D01*
X6457Y-3786D01*
X6706Y-3537D01*
X6841Y-3211D01*
Y-2859D01*
X6706Y-2533D01*
X6457Y-2284D01*
X6131Y-2149D01*
D02*
G37*
G36*
X-7521Y-4134D02*
X-8030D01*
X-8500Y-4329D01*
X-8860Y-4689D01*
X-9055Y-5159D01*
Y-5668D01*
X-8860Y-6138D01*
X-8500Y-6498D01*
X-8030Y-6693D01*
X-7521D01*
X-7051Y-6498D01*
X-6691Y-6138D01*
X-6496Y-5668D01*
Y-5159D01*
X-6691Y-4689D01*
X-7051Y-4329D01*
X-7521Y-4134D01*
D02*
G37*
G36*
X8395Y-6988D02*
X8042D01*
X7717Y-7123D01*
X7468Y-7372D01*
X7333Y-7698D01*
Y-8050D01*
X7468Y-8376D01*
X7717Y-8625D01*
X8042Y-8760D01*
X8395D01*
X8720Y-8625D01*
X8969Y-8376D01*
X9104Y-8050D01*
Y-7698D01*
X8969Y-7372D01*
X8720Y-7123D01*
X8395Y-6988D01*
D02*
G37*
G36*
X-16950Y-10138D02*
X-17302D01*
X-17628Y-10273D01*
X-17877Y-10522D01*
X-18012Y-10847D01*
Y-11200D01*
X-17877Y-11525D01*
X-17628Y-11775D01*
X-17302Y-11909D01*
X-16950D01*
X-16624Y-11775D01*
X-16375Y-11525D01*
X-16240Y-11200D01*
Y-10847D01*
X-16375Y-10522D01*
X-16624Y-10273D01*
X-16950Y-10138D01*
D02*
G37*
G36*
X23823Y-13347D02*
X23471D01*
X23145Y-13482D01*
X22896Y-13731D01*
X22761Y-14057D01*
Y-14409D01*
X22896Y-14735D01*
X23145Y-14984D01*
X23471Y-15119D01*
X23823D01*
X24149Y-14984D01*
X24398Y-14735D01*
X24533Y-14409D01*
Y-14057D01*
X24398Y-13731D01*
X24149Y-13482D01*
X23823Y-13347D01*
D02*
G37*
G36*
X-29281Y-14060D02*
X-29633D01*
X-29959Y-14195D01*
X-30208Y-14444D01*
X-30343Y-14770D01*
Y-15122D01*
X-30208Y-15448D01*
X-29959Y-15697D01*
X-29633Y-15832D01*
X-29281D01*
X-28955Y-15697D01*
X-28706Y-15448D01*
X-28571Y-15122D01*
Y-14770D01*
X-28706Y-14444D01*
X-28955Y-14195D01*
X-29281Y-14060D01*
D02*
G37*
G36*
X23648Y-16004D02*
X23296D01*
X22970Y-16139D01*
X22721Y-16388D01*
X22586Y-16714D01*
Y-17066D01*
X22721Y-17392D01*
X22970Y-17641D01*
X23296Y-17776D01*
X23648D01*
X23974Y-17641D01*
X24223Y-17392D01*
X24358Y-17066D01*
Y-16714D01*
X24223Y-16388D01*
X23974Y-16139D01*
X23648Y-16004D01*
D02*
G37*
G36*
X-28221Y-16089D02*
X-28573D01*
X-28899Y-16224D01*
X-29148Y-16473D01*
X-29283Y-16799D01*
Y-17151D01*
X-29148Y-17477D01*
X-29379Y-17953D01*
X-29428D01*
X-29754Y-18088D01*
X-30003Y-18337D01*
X-30138Y-18662D01*
Y-19015D01*
X-30003Y-19340D01*
X-29754Y-19590D01*
X-29428Y-19724D01*
X-29076D01*
X-28750Y-19590D01*
X-28501Y-19340D01*
X-28366Y-19015D01*
Y-18662D01*
X-28501Y-18337D01*
X-28270Y-17861D01*
X-28221D01*
X-27895Y-17726D01*
X-27646Y-17477D01*
X-27511Y-17151D01*
Y-16799D01*
X-27646Y-16473D01*
X-27895Y-16224D01*
X-28221Y-16089D01*
D02*
G37*
G36*
X-9393Y-17929D02*
X-9902D01*
X-10372Y-18124D01*
X-10732Y-18484D01*
X-10927Y-18954D01*
Y-19463D01*
X-10732Y-19933D01*
X-10372Y-20293D01*
X-9902Y-20488D01*
X-9393D01*
X-8922Y-20293D01*
X-8563Y-19933D01*
X-8368Y-19463D01*
Y-18954D01*
X-8563Y-18484D01*
X-8922Y-18124D01*
X-9393Y-17929D01*
D02*
G37*
G36*
X26460Y-20540D02*
X26108D01*
X25782Y-20675D01*
X25533Y-20924D01*
X25398Y-21250D01*
Y-21602D01*
X25533Y-21928D01*
X25782Y-22177D01*
X26108Y-22312D01*
X26460D01*
X26786Y-22177D01*
X27035Y-21928D01*
X27170Y-21602D01*
Y-21250D01*
X27035Y-20924D01*
X26786Y-20675D01*
X26460Y-20540D01*
D02*
G37*
G36*
X-27921Y-20779D02*
X-28273D01*
X-28599Y-20914D01*
X-28848Y-21163D01*
X-28983Y-21489D01*
Y-21841D01*
X-28848Y-22167D01*
X-28599Y-22416D01*
X-28273Y-22551D01*
X-27921D01*
X-27595Y-22416D01*
X-27346Y-22167D01*
X-27211Y-21841D01*
Y-21489D01*
X-27346Y-21163D01*
X-27595Y-20914D01*
X-27921Y-20779D01*
D02*
G37*
G36*
X-7424Y-21669D02*
X-7933D01*
X-8404Y-21864D01*
X-8764Y-22224D01*
X-8958Y-22694D01*
Y-23203D01*
X-8764Y-23674D01*
X-8404Y-24034D01*
X-7933Y-24228D01*
X-7424D01*
X-6954Y-24034D01*
X-6594Y-23674D01*
X-6399Y-23203D01*
Y-22694D01*
X-6594Y-22224D01*
X-6954Y-21864D01*
X-7424Y-21669D01*
D02*
G37*
G36*
X-11361D02*
X-11870D01*
X-12341Y-21864D01*
X-12700Y-22224D01*
X-12895Y-22694D01*
Y-23203D01*
X-12700Y-23674D01*
X-12341Y-24034D01*
X-11870Y-24228D01*
X-11361D01*
X-10891Y-24034D01*
X-10531Y-23674D01*
X-10336Y-23203D01*
Y-22694D01*
X-10531Y-22224D01*
X-10891Y-21864D01*
X-11361Y-21669D01*
D02*
G37*
G36*
X23798Y-23031D02*
X23446D01*
X23120Y-23166D01*
X22871Y-23415D01*
X22736Y-23741D01*
Y-24093D01*
X22871Y-24419D01*
X23120Y-24668D01*
X23446Y-24803D01*
X23798D01*
X24124Y-24668D01*
X24373Y-24419D01*
X24508Y-24093D01*
Y-23741D01*
X24373Y-23415D01*
X24124Y-23166D01*
X23798Y-23031D01*
D02*
G37*
G36*
X29365Y-27055D02*
X29013D01*
X28687Y-27190D01*
X28438Y-27439D01*
X28303Y-27764D01*
Y-28117D01*
X28438Y-28442D01*
X28687Y-28692D01*
X29013Y-28827D01*
X29365D01*
X29691Y-28692D01*
X29940Y-28442D01*
X30075Y-28117D01*
Y-27764D01*
X29940Y-27439D01*
X29691Y-27190D01*
X29365Y-27055D01*
D02*
G37*
G36*
X7677Y-30725D02*
X7324D01*
X6999Y-30860D01*
X6750Y-31109D01*
X6615Y-31435D01*
Y-31787D01*
X6750Y-32113D01*
X6999Y-32362D01*
X7324Y-32497D01*
X7677D01*
X8002Y-32362D01*
X8252Y-32113D01*
X8386Y-31787D01*
Y-31435D01*
X8252Y-31109D01*
X8002Y-30860D01*
X7677Y-30725D01*
D02*
G37*
%LPD*%
G36*
X38189Y19291D02*
X37916Y19276D01*
X37672Y19228D01*
X37456Y19150D01*
X37269Y19039D01*
X37111Y18898D01*
X36982Y18724D01*
X36881Y18520D01*
X36809Y18283D01*
X36766Y18016D01*
X36752Y17717D01*
X35177D01*
Y17717D01*
X35177D01*
X35161Y18016D01*
X35114Y18283D01*
X35035Y18520D01*
X34925Y18724D01*
X34783Y18898D01*
X34610Y19039D01*
X34405Y19150D01*
X34169Y19228D01*
X33902Y19276D01*
X33602Y19291D01*
X33602Y19291D01*
X33602D01*
X35964Y20866D01*
X38189Y19291D01*
D02*
G37*
G36*
X17865Y-5492D02*
X17821Y-5538D01*
X17747Y-5626D01*
X17717Y-5667D01*
X17691Y-5708D01*
X17671Y-5747D01*
X17654Y-5785D01*
X17643Y-5821D01*
X17637Y-5856D01*
X17635Y-5890D01*
X17050Y-5305D01*
X17084Y-5303D01*
X17119Y-5297D01*
X17155Y-5285D01*
X17193Y-5269D01*
X17232Y-5248D01*
X17272Y-5223D01*
X17314Y-5193D01*
X17357Y-5158D01*
X17447Y-5075D01*
X17865Y-5492D01*
D02*
G37*
G36*
X20399Y2875D02*
X20382Y2887D01*
X20361Y2897D01*
X20333Y2906D01*
X20300Y2914D01*
X20262Y2921D01*
X20168Y2931D01*
X20052Y2936D01*
X19986Y2936D01*
X19888Y3527D01*
X19954Y3528D01*
X20068Y3536D01*
X20117Y3543D01*
X20160Y3552D01*
X20198Y3562D01*
X20230Y3576D01*
X20256Y3590D01*
X20277Y3607D01*
X20292Y3626D01*
X20399Y2875D01*
D02*
G37*
G36*
X21588Y1469D02*
X21618Y1450D01*
X21652Y1433D01*
X21690Y1419D01*
X21733Y1407D01*
X21779Y1397D01*
X21831Y1389D01*
X21945Y1381D01*
X22009Y1379D01*
X22040Y789D01*
X21976Y788D01*
X21862Y777D01*
X21812Y769D01*
X21766Y758D01*
X21724Y744D01*
X21686Y727D01*
X21653Y709D01*
X21624Y687D01*
X21599Y663D01*
X21562Y1489D01*
X21588Y1469D01*
D02*
G37*
G36*
X19005Y1318D02*
X19035Y1299D01*
X19069Y1281D01*
X19107Y1266D01*
X19150Y1254D01*
X19196Y1243D01*
X19247Y1235D01*
X19302Y1230D01*
X19425Y1225D01*
X19437Y634D01*
X19374Y633D01*
X19260Y624D01*
X19209Y615D01*
X19163Y604D01*
X19121Y591D01*
X19083Y575D01*
X19049Y557D01*
X19020Y536D01*
X18995Y513D01*
X18980Y1340D01*
X19005Y1318D01*
D02*
G37*
G36*
X19218Y-1431D02*
X18628Y-1510D01*
X18626Y-1445D01*
X18622Y-1387D01*
X18614Y-1335D01*
X18604Y-1289D01*
X18591Y-1249D01*
X18575Y-1214D01*
X18555Y-1186D01*
X18533Y-1163D01*
X18508Y-1147D01*
X18480Y-1136D01*
X19190Y-749D01*
X19218Y-1431D01*
D02*
G37*
%LPC*%
G36*
X47592Y9180D02*
X47240D01*
X46914Y9045D01*
X46665Y8796D01*
X46530Y8471D01*
Y8118D01*
X46665Y7792D01*
X46914Y7543D01*
X47240Y7408D01*
X47592D01*
X47918Y7543D01*
X48167Y7792D01*
X48302Y8118D01*
Y8471D01*
X48167Y8796D01*
X47918Y9045D01*
X47592Y9180D01*
D02*
G37*
G36*
X65229Y10096D02*
X64876D01*
X64551Y9961D01*
X64302Y9711D01*
X64167Y9386D01*
Y9033D01*
X64302Y8708D01*
X64323Y8686D01*
Y8532D01*
X64240Y8449D01*
X64135Y8195D01*
Y7921D01*
X64240Y7668D01*
X64434Y7474D01*
X64687Y7369D01*
X64961D01*
X65214Y7474D01*
X65408Y7668D01*
X65513Y7921D01*
Y8195D01*
X65445Y8360D01*
X65472Y8425D01*
X65554Y8459D01*
X65803Y8708D01*
X65938Y9033D01*
Y9386D01*
X65803Y9711D01*
X65554Y9961D01*
X65229Y10096D01*
D02*
G37*
G36*
X57329Y9233D02*
X56976D01*
X56651Y9098D01*
X56402Y8849D01*
X56267Y8523D01*
Y8171D01*
X56402Y7845D01*
X56651Y7596D01*
X56976Y7461D01*
X57326D01*
X57418Y7369D01*
X57671Y7265D01*
X57945D01*
X58198Y7369D01*
X58392Y7563D01*
X58497Y7816D01*
Y8090D01*
X58392Y8344D01*
X58198Y8538D01*
X57998Y8620D01*
X57904Y8849D01*
X57655Y9098D01*
X57329Y9233D01*
D02*
G37*
G36*
X61932Y9819D02*
X61658D01*
X61405Y9714D01*
X61211Y9520D01*
X61178Y9442D01*
X61109Y9427D01*
X61072Y9369D01*
X61009Y9341D01*
X60944Y9170D01*
X60844Y9016D01*
X60847Y9005D01*
X60859Y8948D01*
X60835Y8884D01*
X60839Y8719D01*
X60838Y8715D01*
X60838Y8710D01*
X60800Y8655D01*
X60663Y8471D01*
X60665Y8454D01*
X60656Y8440D01*
X60700Y8214D01*
X60724Y8052D01*
X60694Y7979D01*
Y7627D01*
X60829Y7301D01*
X61078Y7052D01*
X61403Y6917D01*
X61756D01*
X62081Y7052D01*
X62331Y7301D01*
X62465Y7627D01*
Y7634D01*
X62553Y7751D01*
X62699Y7938D01*
X62698Y7946D01*
X62704Y7953D01*
X62669Y8188D01*
X62641Y8423D01*
X62630Y8443D01*
X62629Y8446D01*
X62627Y8451D01*
X62626Y8452D01*
X62615Y8500D01*
X62614Y8505D01*
X62609Y8572D01*
X62609Y8591D01*
X62612Y8620D01*
X62613Y8627D01*
X62612Y8629D01*
X62613Y8641D01*
X62639Y8681D01*
X62645Y8690D01*
X62635Y8738D01*
X62655Y8783D01*
X62621Y8872D01*
X62632Y8930D01*
X62593Y8987D01*
X62593Y9019D01*
X62568Y9045D01*
X62541Y9168D01*
X62532Y9174D01*
X62500Y9195D01*
X62484Y9237D01*
Y9267D01*
X62379Y9520D01*
X62185Y9714D01*
X61932Y9819D01*
D02*
G37*
G36*
X49715Y5953D02*
X49485Y5900D01*
X49266Y5856D01*
X49229Y5873D01*
X49140Y5840D01*
X49082Y5850D01*
X49025Y5811D01*
X48993Y5811D01*
X48967Y5786D01*
X48844Y5759D01*
X48823Y5728D01*
X48758Y5714D01*
X48751Y5702D01*
X48745D01*
X48492Y5597D01*
X48298Y5403D01*
X48193Y5150D01*
Y4876D01*
X48298Y4623D01*
X48481Y4440D01*
X48503Y4337D01*
X48546Y4309D01*
X48564Y4262D01*
X48746Y4179D01*
X48913Y4070D01*
X48963Y4081D01*
X48979Y4073D01*
X48996Y4063D01*
X49001Y4064D01*
X49009Y4060D01*
X49047Y4059D01*
X49051Y4058D01*
X49053Y4057D01*
X49058Y4057D01*
X49070Y4053D01*
X49076Y4053D01*
X49170Y4000D01*
X49366Y3877D01*
X49381Y3880D01*
X49395Y3873D01*
X49617Y3935D01*
X49760Y3968D01*
X49780Y3959D01*
X50133D01*
X50458Y4094D01*
X50707Y4343D01*
X50842Y4669D01*
Y5021D01*
X50707Y5347D01*
X50458Y5596D01*
X50133Y5731D01*
X50070D01*
X49929Y5819D01*
X49733Y5950D01*
X49723Y5948D01*
X49715Y5953D01*
D02*
G37*
G36*
X54212Y5698D02*
X53977Y5668D01*
X53740Y5643D01*
X53720Y5632D01*
X53717Y5631D01*
X53711Y5629D01*
X53709Y5628D01*
X53660Y5617D01*
X53653Y5616D01*
X53625Y5614D01*
X53623Y5614D01*
X53617Y5615D01*
X53616Y5614D01*
X53605Y5615D01*
X53591Y5611D01*
X53582Y5610D01*
X53547Y5610D01*
X53470Y5641D01*
X53422Y5621D01*
X53372Y5634D01*
X53301Y5590D01*
X53246Y5591D01*
X53206Y5553D01*
X53183Y5551D01*
X53158Y5519D01*
X53154Y5518D01*
X53146Y5507D01*
X53018Y5454D01*
X52999Y5406D01*
X52954Y5379D01*
X52953Y5374D01*
X52799Y5310D01*
X52605Y5117D01*
X52500Y4863D01*
Y4589D01*
X52605Y4336D01*
X52799Y4142D01*
X52922Y4091D01*
X52939Y4045D01*
X53013Y4012D01*
X53018Y3999D01*
X53111Y3960D01*
X53221Y3870D01*
X53235Y3872D01*
X53246Y3861D01*
X53301Y3863D01*
X53372Y3819D01*
X53422Y3831D01*
X53470Y3811D01*
X53472Y3812D01*
X53480Y3807D01*
X53662Y3666D01*
X53679Y3668D01*
X53693Y3659D01*
X53919Y3699D01*
X54084Y3721D01*
X54168Y3686D01*
X54520D01*
X54846Y3821D01*
X55095Y4070D01*
X55230Y4396D01*
Y4748D01*
X55095Y5074D01*
X54846Y5323D01*
X54527Y5455D01*
X54412Y5544D01*
X54227Y5694D01*
X54219Y5693D01*
X54212Y5698D01*
D02*
G37*
G36*
X58161Y5689D02*
X57887D01*
X57634Y5584D01*
X57538Y5489D01*
X57536Y5489D01*
X57490Y5459D01*
X57436Y5461D01*
X57371Y5402D01*
X57359Y5401D01*
X57331Y5367D01*
X57252Y5343D01*
X57219Y5281D01*
X57127Y5221D01*
X57125Y5211D01*
X57118Y5179D01*
X57117Y5178D01*
X57115Y5177D01*
X57111Y5172D01*
X57093Y5153D01*
X56954Y5049D01*
X56759Y4907D01*
X56758Y4904D01*
X56755Y4901D01*
X56721Y4662D01*
X56700Y4533D01*
X56664Y4496D01*
X56529Y4170D01*
Y3818D01*
X56664Y3492D01*
X56913Y3243D01*
X57239Y3108D01*
X57591D01*
X57916Y3243D01*
X58166Y3492D01*
X58217Y3617D01*
X58329Y3700D01*
X58524Y3844D01*
X58524Y3846D01*
X58526Y3848D01*
X58561Y4088D01*
X58562Y4095D01*
X58565Y4099D01*
X58568Y4102D01*
X58592Y4128D01*
X58612Y4181D01*
X58624Y4194D01*
X58666Y4224D01*
X58681Y4311D01*
X58728Y4353D01*
X58736Y4360D01*
X58742Y4517D01*
X58794Y4665D01*
X58752Y4752D01*
X58756Y4849D01*
X58749Y4857D01*
X58713Y4896D01*
Y5137D01*
X58608Y5391D01*
X58414Y5584D01*
X58161Y5689D01*
D02*
G37*
G36*
X61655Y5451D02*
X61303D01*
X60977Y5316D01*
X60728Y5067D01*
X60593Y4741D01*
Y4389D01*
X60728Y4063D01*
X60750Y4041D01*
X60713Y4004D01*
X60608Y3751D01*
Y3477D01*
X60713Y3224D01*
X60907Y3030D01*
X61160Y2925D01*
X61434D01*
X61687Y3030D01*
X61881Y3224D01*
X61986Y3477D01*
Y3751D01*
X61963Y3807D01*
X61981Y3814D01*
X62230Y4063D01*
X62365Y4389D01*
Y4741D01*
X62230Y5067D01*
X61981Y5316D01*
X61655Y5451D01*
D02*
G37*
G36*
X53208Y2198D02*
X52855D01*
X52530Y2063D01*
X52280Y1814D01*
X52146Y1488D01*
Y1136D01*
X52206Y991D01*
X52198Y817D01*
X52175Y590D01*
X52188Y575D01*
X52187Y556D01*
X52341Y388D01*
X52350Y377D01*
X52350Y347D01*
X52356Y336D01*
X52352Y324D01*
X52360Y308D01*
X52353Y279D01*
X52406Y196D01*
X52415Y99D01*
X52462Y59D01*
X52475Y10D01*
X52496Y-2D01*
X52498Y-9D01*
X52517Y-18D01*
X52553Y-98D01*
X52565Y-102D01*
X52570Y-114D01*
X52615Y-129D01*
X52618Y-132D01*
X52628Y-135D01*
X52643Y-138D01*
X52690Y-154D01*
X52719Y-225D01*
X52913Y-419D01*
X53167Y-524D01*
X53441D01*
X53694Y-419D01*
X53888Y-225D01*
X53992Y28D01*
Y57D01*
X54009Y100D01*
X54050Y126D01*
X54077Y250D01*
X54102Y276D01*
X54101Y308D01*
X54141Y365D01*
X54130Y423D01*
X54164Y512D01*
X54143Y557D01*
X54154Y605D01*
X54126Y647D01*
X54128Y672D01*
X54140Y762D01*
X54144Y781D01*
X54147Y795D01*
X54153Y810D01*
X54153Y814D01*
X54155Y819D01*
X54154Y841D01*
X54155Y1043D01*
X54165Y1276D01*
X54156Y1286D01*
X54156Y1299D01*
X53992Y1465D01*
X53874Y1594D01*
X53782Y1814D01*
X53533Y2063D01*
X53208Y2198D01*
D02*
G37*
G36*
X67499Y1181D02*
X67147D01*
X66821Y1046D01*
X66572Y797D01*
X66437Y471D01*
Y119D01*
X66572Y-206D01*
X66821Y-456D01*
X67147Y-591D01*
X67499D01*
X67825Y-456D01*
X68074Y-206D01*
X68209Y119D01*
Y471D01*
X68074Y797D01*
X67825Y1046D01*
X67499Y1181D01*
D02*
G37*
G36*
X57064Y1951D02*
X56712D01*
X56387Y1816D01*
X56137Y1567D01*
X56002Y1241D01*
Y889D01*
X56021Y845D01*
X55991Y702D01*
X55934Y475D01*
X55941Y464D01*
X55938Y452D01*
X56066Y256D01*
X56106Y190D01*
X56107Y184D01*
X56107Y179D01*
X56112Y165D01*
X56113Y155D01*
X56114Y116D01*
X56138Y63D01*
X56127Y6D01*
X56236Y-154D01*
X56315Y-330D01*
X56370Y-351D01*
X56402Y-399D01*
X56592Y-435D01*
X56593Y-435D01*
X56677Y-519D01*
X56930Y-624D01*
X57204D01*
X57457Y-519D01*
X57651Y-325D01*
X57724Y-148D01*
X57776Y-114D01*
X57801Y18D01*
X57814Y26D01*
X57830Y103D01*
X57863Y173D01*
X57865Y176D01*
X57865Y179D01*
X57880Y210D01*
X57881Y231D01*
X57904Y265D01*
X57894Y323D01*
X57927Y412D01*
X57915Y439D01*
X57947Y603D01*
X57996Y838D01*
X57993Y843D01*
X57994Y849D01*
X57859Y1047D01*
X57774Y1178D01*
Y1241D01*
X57639Y1567D01*
X57390Y1816D01*
X57064Y1951D01*
D02*
G37*
G36*
X61761Y-1804D02*
X61409D01*
X61083Y-1939D01*
X60834Y-2188D01*
X60699Y-2514D01*
Y-2866D01*
X60465Y-3260D01*
X60374Y-3479D01*
X60278Y-3697D01*
X60276Y-3799D01*
X60274Y-3823D01*
X60273Y-3828D01*
X60273Y-3830D01*
X60272Y-3841D01*
X60285Y-3882D01*
X60246Y-3976D01*
X60266Y-4024D01*
X60254Y-4074D01*
X60297Y-4145D01*
X60296Y-4200D01*
X60334Y-4240D01*
X60337Y-4263D01*
X60368Y-4289D01*
X60369Y-4292D01*
X60381Y-4300D01*
X60434Y-4428D01*
X60443Y-4432D01*
X60482Y-4447D01*
X60509Y-4492D01*
X60513Y-4493D01*
X60577Y-4647D01*
X60771Y-4841D01*
X61024Y-4946D01*
X61298D01*
X61551Y-4841D01*
X61745Y-4647D01*
X61809Y-4493D01*
X61814Y-4492D01*
X61841Y-4447D01*
X61889Y-4427D01*
X61941Y-4300D01*
X61953Y-4293D01*
X61954Y-4289D01*
X61985Y-4263D01*
X61988Y-4240D01*
X62026Y-4200D01*
X62025Y-4145D01*
X62068Y-4074D01*
X62056Y-4024D01*
X62076Y-3976D01*
X62045Y-3902D01*
X62054Y-3875D01*
X62045Y-3732D01*
X62044Y-3707D01*
X62011Y-3627D01*
X62087Y-3441D01*
X62336Y-3192D01*
X62471Y-2866D01*
Y-2514D01*
X62336Y-2188D01*
X62087Y-1939D01*
X61761Y-1804D01*
D02*
G37*
%LPD*%
G36*
X62016Y8804D02*
X62007Y8795D01*
X61999Y8783D01*
X61992Y8767D01*
X61986Y8746D01*
X61981Y8722D01*
X61976Y8693D01*
X61971Y8625D01*
X61969Y8569D01*
X61970Y8542D01*
X61979Y8430D01*
X61987Y8378D01*
X62010Y8280D01*
X62025Y8234D01*
X62042Y8190D01*
X62062Y8149D01*
X62084Y8110D01*
X61282Y8313D01*
X61320Y8338D01*
X61354Y8367D01*
X61384Y8400D01*
X61409Y8437D01*
X61431Y8478D01*
X61449Y8522D01*
X61463Y8571D01*
X61473Y8623D01*
X61479Y8679D01*
X61479Y8701D01*
X61474Y8902D01*
X62016Y8804D01*
D02*
G37*
G36*
X49472Y4507D02*
X49444Y4544D01*
X49411Y4576D01*
X49376Y4605D01*
X49337Y4630D01*
X49295Y4651D01*
X49249Y4668D01*
X49199Y4682D01*
X49146Y4691D01*
X49134Y4693D01*
X49110Y4692D01*
X49110Y4695D01*
X49090Y4697D01*
X49030Y4699D01*
X49120Y5187D01*
X49180Y5188D01*
X49200Y5190D01*
X49208Y5234D01*
X49216Y5225D01*
X49229Y5217D01*
X49245Y5210D01*
X49266Y5204D01*
X49289Y5199D01*
X49291Y5199D01*
X49343Y5209D01*
X49393Y5221D01*
X49441Y5236D01*
X49487Y5254D01*
X49530Y5274D01*
X49570Y5297D01*
X49609Y5323D01*
X49472Y4507D01*
D02*
G37*
G36*
X53829Y4283D02*
X53805Y4321D01*
X53776Y4355D01*
X53744Y4385D01*
X53708Y4411D01*
X53667Y4433D01*
X53623Y4450D01*
X53575Y4464D01*
X53537Y4471D01*
X53527Y4471D01*
X53507Y4467D01*
X53491Y4462D01*
X53479Y4457D01*
X53470Y4451D01*
Y4480D01*
X53466Y4480D01*
X53406Y4482D01*
X53470Y4696D01*
Y5002D01*
X53479Y4996D01*
X53491Y4991D01*
X53507Y4986D01*
X53527Y4982D01*
X53552Y4978D01*
X53613Y4973D01*
X53630Y4973D01*
X53725Y4980D01*
X53777Y4988D01*
X53876Y5010D01*
X53921Y5025D01*
X53965Y5041D01*
X54006Y5060D01*
X54045Y5081D01*
X53829Y4283D01*
D02*
G37*
G36*
X58156Y4629D02*
X58109Y4577D01*
X58126Y4566D01*
X58087Y4525D01*
X58054Y4484D01*
X58025Y4443D01*
X58003Y4404D01*
X57985Y4364D01*
X57973Y4325D01*
X57966Y4287D01*
X57964Y4249D01*
X57968Y4211D01*
X57977Y4174D01*
X57305Y4574D01*
X57340Y4583D01*
X57376Y4595D01*
X57413Y4611D01*
X57451Y4631D01*
X57490Y4656D01*
X57531Y4683D01*
X57596Y4736D01*
X57614Y4756D01*
X57630Y4779D01*
X57643Y4800D01*
X57651Y4818D01*
X57656Y4835D01*
X57658Y4849D01*
X57656Y4861D01*
X58156Y4629D01*
D02*
G37*
G36*
X53548Y1018D02*
X53533Y973D01*
X53520Y923D01*
X53509Y866D01*
X53491Y735D01*
X53484Y622D01*
X53485Y601D01*
X53489Y573D01*
X53495Y548D01*
X53501Y528D01*
X53508Y512D01*
X53516Y499D01*
X53525Y491D01*
X53479Y483D01*
X53478Y403D01*
X52989Y369D01*
X52989Y394D01*
X52982Y393D01*
X52984Y397D01*
X52985Y406D01*
X52986Y419D01*
X52986Y439D01*
X52981Y486D01*
X52971Y537D01*
X52957Y585D01*
X52939Y627D01*
X52917Y666D01*
X52890Y700D01*
X52860Y729D01*
X52826Y754D01*
X52787Y775D01*
X53564Y1058D01*
X53548Y1018D01*
D02*
G37*
G36*
X57344Y684D02*
X57322Y644D01*
X57303Y603D01*
X57287Y558D01*
X57273Y511D01*
X57261Y462D01*
X57259Y446D01*
X57264Y428D01*
X57271Y411D01*
X57279Y399D01*
X57288Y391D01*
X57250Y384D01*
X57246Y355D01*
X57241Y237D01*
X56753Y136D01*
X56751Y196D01*
X56745Y253D01*
X56736Y306D01*
X56723Y355D01*
X56706Y401D01*
X56686Y442D01*
X56662Y480D01*
X56634Y514D01*
X56602Y544D01*
X56566Y570D01*
X57368Y720D01*
X57344Y684D01*
D02*
G37*
G36*
X61405Y-3756D02*
X61417Y-3918D01*
X61421Y-3939D01*
X61425Y-3955D01*
X61431Y-3967D01*
X61437Y-3976D01*
X60886D01*
X60891Y-3967D01*
X60897Y-3955D01*
X60902Y-3939D01*
X60906Y-3918D01*
X60909Y-3894D01*
X60914Y-3833D01*
X60917Y-3712D01*
X61405D01*
X61405Y-3756D01*
D02*
G37*
%LPC*%
G36*
X-45985Y35827D02*
X-46338D01*
X-46663Y35692D01*
X-46912Y35443D01*
X-47047Y35117D01*
Y34765D01*
X-46912Y34439D01*
X-46663Y34190D01*
X-46338Y34055D01*
X-45985D01*
X-45660Y34190D01*
X-45410Y34439D01*
X-45276Y34765D01*
Y35117D01*
X-45410Y35443D01*
X-45660Y35692D01*
X-45985Y35827D01*
D02*
G37*
G36*
X-50808Y25197D02*
X-51160D01*
X-51486Y25062D01*
X-51735Y24813D01*
X-51870Y24487D01*
Y24135D01*
X-51735Y23809D01*
X-51486Y23560D01*
X-51160Y23425D01*
X-50808D01*
X-50482Y23560D01*
X-50233Y23809D01*
X-50098Y24135D01*
Y24487D01*
X-50233Y24813D01*
X-50482Y25062D01*
X-50808Y25197D01*
D02*
G37*
G36*
X-46674Y20374D02*
X-47027D01*
X-47352Y20239D01*
X-47601Y19990D01*
X-47736Y19664D01*
Y19312D01*
X-47601Y18986D01*
X-47352Y18737D01*
X-47027Y18602D01*
X-46674D01*
X-46349Y18737D01*
X-46099Y18986D01*
X-45965Y19312D01*
Y19664D01*
X-46099Y19990D01*
X-46349Y20239D01*
X-46674Y20374D01*
D02*
G37*
G36*
X-42245Y18799D02*
X-42597D01*
X-42923Y18664D01*
X-43172Y18415D01*
X-43307Y18090D01*
Y17737D01*
X-43172Y17412D01*
X-42923Y17162D01*
X-42597Y17028D01*
X-42245D01*
X-41919Y17162D01*
X-41670Y17412D01*
X-41535Y17737D01*
Y18090D01*
X-41670Y18415D01*
X-41919Y18664D01*
X-42245Y18799D01*
D02*
G37*
G36*
X-42491Y16043D02*
X-42843D01*
X-43169Y15908D01*
X-43418Y15659D01*
X-43553Y15334D01*
Y14981D01*
X-43418Y14656D01*
X-43169Y14406D01*
X-42843Y14272D01*
X-42491D01*
X-42166Y14406D01*
X-41916Y14656D01*
X-41781Y14981D01*
Y15334D01*
X-41916Y15659D01*
X-42166Y15908D01*
X-42491Y16043D01*
D02*
G37*
G36*
X76362Y17618D02*
X76009D01*
X75684Y17483D01*
X75434Y17234D01*
X75300Y16908D01*
Y16556D01*
X75434Y16230D01*
X75684Y15981D01*
X76009Y15846D01*
X76362D01*
X76687Y15981D01*
X76936Y16230D01*
X77071Y16556D01*
Y16908D01*
X76936Y17234D01*
X76687Y17483D01*
X76362Y17618D01*
D02*
G37*
G36*
X84035Y15551D02*
X83682D01*
X83356Y15416D01*
X83107Y15167D01*
X82972Y14842D01*
Y14489D01*
X83107Y14164D01*
X83356Y13914D01*
X83682Y13780D01*
X84035D01*
X84360Y13914D01*
X84609Y14164D01*
X84744Y14489D01*
Y14842D01*
X84609Y15167D01*
X84360Y15416D01*
X84035Y15551D01*
D02*
G37*
G36*
X86594Y15059D02*
X86241D01*
X85915Y14924D01*
X85666Y14675D01*
X85532Y14349D01*
Y13997D01*
X85666Y13671D01*
X85915Y13422D01*
X86241Y13287D01*
X86594D01*
X86919Y13422D01*
X87168Y13671D01*
X87303Y13997D01*
Y14349D01*
X87168Y14675D01*
X86919Y14924D01*
X86594Y15059D01*
D02*
G37*
G36*
X107494Y11075D02*
X107141D01*
X106816Y10940D01*
X106567Y10691D01*
X106432Y10365D01*
Y10013D01*
X106567Y9687D01*
X106816Y9438D01*
X107141Y9303D01*
X107494D01*
X107819Y9438D01*
X108069Y9687D01*
X108204Y10013D01*
Y10365D01*
X108069Y10691D01*
X107819Y10940D01*
X107494Y11075D01*
D02*
G37*
G36*
X91046Y958D02*
X90694D01*
X90368Y824D01*
X90119Y575D01*
X89984Y249D01*
Y-103D01*
X90119Y-429D01*
X90368Y-678D01*
X90694Y-813D01*
X91046D01*
X91372Y-678D01*
X91621Y-429D01*
X91756Y-103D01*
Y249D01*
X91621Y575D01*
X91372Y824D01*
X91046Y958D01*
D02*
G37*
G36*
X85543Y36D02*
X85190D01*
X84865Y-99D01*
X84615Y-348D01*
X84481Y-674D01*
Y-1026D01*
X84615Y-1352D01*
X84799Y-1535D01*
X84801Y-1881D01*
X84753Y-2096D01*
X84734Y-2103D01*
X84485Y-2353D01*
X84350Y-2678D01*
Y-3031D01*
X84485Y-3356D01*
X84734Y-3605D01*
X85060Y-3740D01*
X85412D01*
X85738Y-3605D01*
X85987Y-3356D01*
X86122Y-3031D01*
Y-2678D01*
X85987Y-2353D01*
X85804Y-2169D01*
X85801Y-1823D01*
X85850Y-1609D01*
X85868Y-1601D01*
X86117Y-1352D01*
X86252Y-1026D01*
Y-674D01*
X86117Y-348D01*
X85868Y-99D01*
X85543Y36D01*
D02*
G37*
G36*
X101799Y-7933D02*
X101447D01*
X101121Y-8068D01*
X100872Y-8318D01*
X100737Y-8643D01*
Y-8996D01*
X100872Y-9321D01*
X101121Y-9570D01*
X101447Y-9705D01*
X101799D01*
X102125Y-9570D01*
X102374Y-9321D01*
X102509Y-8996D01*
Y-8643D01*
X102374Y-8318D01*
X102125Y-8068D01*
X101799Y-7933D01*
D02*
G37*
G36*
X98405Y-10039D02*
X98052D01*
X97727Y-10174D01*
X97477Y-10423D01*
X97342Y-10749D01*
Y-11101D01*
X97477Y-11427D01*
X97632Y-11582D01*
X97620Y-11991D01*
X97566Y-12151D01*
X97546Y-12159D01*
X97297Y-12408D01*
X97162Y-12734D01*
Y-13086D01*
X97297Y-13412D01*
X97546Y-13661D01*
X97872Y-13796D01*
X98224D01*
X98550Y-13661D01*
X98799Y-13412D01*
X98934Y-13086D01*
Y-12734D01*
X98799Y-12408D01*
X98644Y-12253D01*
X98656Y-11844D01*
X98710Y-11684D01*
X98730Y-11676D01*
X98979Y-11427D01*
X99114Y-11101D01*
Y-10749D01*
X98979Y-10423D01*
X98730Y-10174D01*
X98405Y-10039D01*
D02*
G37*
G36*
X97812Y-30229D02*
X97460D01*
X97134Y-30364D01*
X96885Y-30613D01*
X96750Y-30939D01*
Y-31291D01*
X96885Y-31617D01*
X97134Y-31866D01*
X97460Y-32001D01*
X97812D01*
X98137Y-31866D01*
X98387Y-31617D01*
X98522Y-31291D01*
Y-30939D01*
X98387Y-30613D01*
X98137Y-30364D01*
X97812Y-30229D01*
D02*
G37*
%LPD*%
D12*
X11477Y26280D02*
X31988D01*
X45459Y39750D02*
X52147D01*
X31988Y26280D02*
X45459Y39750D01*
X5413Y22835D02*
X8032D01*
X11477Y26280D01*
D13*
X18831Y-4564D02*
X18869Y-4526D01*
X18376Y-4564D02*
X18831D01*
X17044Y-5896D02*
X18376Y-4564D01*
X18629Y-724D02*
X18923Y-1018D01*
Y-1521D02*
X18960Y-1559D01*
X18629Y-724D02*
Y-565D01*
X18923Y-1521D02*
Y-1018D01*
X19611Y3012D02*
X19664D01*
X19884Y3231D02*
X20651D01*
X19664Y3012D02*
X19884Y3231D01*
X20651D02*
X20764Y3344D01*
X21159Y1057D02*
X21186Y1084D01*
X22274D01*
X22300Y1111D01*
X18576Y930D02*
X19874D01*
X18566Y919D02*
X18576Y930D01*
X19874D02*
X19885Y940D01*
D18*
X48031Y53740D02*
X88061Y44094D01*
X-50299Y53740D02*
X48031Y53740D01*
X-50299Y53740D02*
X-46694Y48956D01*
X-70653Y30902D02*
X-46694Y48956D01*
X-74384Y35852D02*
X-70653Y30902D01*
X-86614Y23622D02*
X-74384Y35852D01*
X-86614Y-24606D02*
Y23622D01*
Y-24606D02*
X-57480Y-53740D01*
X49061D01*
X90256Y-44094D01*
X110236Y-25591D01*
X110236Y19184D02*
X110236Y-25591D01*
X88061Y44094D02*
X110236Y19184D01*
D62*
X-19700Y-22867D02*
X-18398Y-21565D01*
X-11337Y-14505D01*
X-30415Y-9548D02*
Y-8577D01*
Y-9548D02*
X-18398Y-21565D01*
X-1809Y-21284D02*
X-1527Y-21566D01*
X-1809Y-21284D02*
Y-17227D01*
X4018Y-11400D01*
Y-9950D01*
X4134Y-9835D01*
X-27559Y-43307D02*
Y-30727D01*
X-19700Y-22867D01*
X-18304Y-24263D02*
X-18304D01*
X-11337Y-14505D02*
X-10093Y-15748D01*
X2847Y-8547D02*
X4134Y-9835D01*
X-5379Y-8547D02*
X2847D01*
X-11337Y-14505D02*
X-5379Y-8547D01*
X-19700Y-22867D02*
X-18304Y-24263D01*
D119*
X-26280Y-8268D02*
X-17652D01*
X-30413Y-4134D02*
X-26280Y-8268D01*
X-30413Y-4134D02*
Y2165D01*
X-8465Y-29872D02*
Y-29528D01*
X-5332Y-26395D02*
X5318D01*
X-8465Y-29528D02*
X-5332Y-26395D01*
X5318D02*
Y-24724D01*
Y-27321D02*
Y-26395D01*
X97753Y13352D02*
X98595D01*
X101210Y10738D01*
X94636Y-3214D02*
Y5490D01*
X98946Y9800D01*
X-3278Y-323D02*
Y245D01*
X-3391Y358D02*
X-3278Y245D01*
X-13976Y-591D02*
X-8957Y4429D01*
X591D01*
X-13976Y-4592D02*
Y-591D01*
X-17652Y-8268D02*
X-13976Y-4592D01*
X-30413Y2165D02*
X-27357Y5222D01*
X11024Y-17717D02*
X28150Y-34843D01*
X9631Y-20276D02*
X26462Y-37106D01*
X28150Y-34843D02*
X63008D01*
X26462Y-37106D02*
X65419D01*
X101210Y-1316D01*
X63008Y-34843D02*
X94636Y-3214D01*
X-3278Y-323D02*
X2847Y-6448D01*
Y-8547D02*
Y-6448D01*
X10871Y-17564D02*
X10900Y-17535D01*
X11205D01*
X5653Y-27656D02*
X6725Y-28728D01*
X5020Y-19031D02*
X6486Y-17564D01*
X10871D01*
X5318Y-27321D02*
X5653Y-27656D01*
X-27357Y5222D02*
Y7239D01*
X101210Y-1316D02*
Y10738D01*
X13987Y-28728D02*
X15059Y-29800D01*
X6725Y-28728D02*
X13987D01*
X62299Y38091D02*
X66142D01*
X73032Y31201D02*
X85168D01*
X89787Y35820D01*
X53736Y46654D02*
X62299Y38091D01*
X66142D02*
X73032Y31201D01*
X-38446Y46654D02*
X53736D01*
X5020Y-24426D02*
Y-19031D01*
Y-24426D02*
X5318Y-24724D01*
X-74410Y20866D02*
Y21616D01*
X-65573Y30452D01*
X-54648D02*
X-38446Y46654D01*
X-65573Y30452D02*
X-54648D01*
D120*
X68996Y-38681D02*
X74213Y-43898D01*
X83167D01*
X67126Y-38681D02*
X68996D01*
X11851Y13923D02*
X22670D01*
X17749Y-11055D02*
X21342D01*
X-32740Y-29118D02*
Y-27528D01*
X11166Y-6592D02*
X14022Y-9448D01*
X11166Y-6592D02*
Y-3616D01*
X11851Y6455D02*
X12143Y6164D01*
X11166Y-3616D02*
X12143Y-2640D01*
Y6164D01*
X66831Y-44434D02*
Y-38976D01*
X13194Y-39671D02*
X66831D01*
X35964Y20079D02*
X38189D01*
X35964Y5905D02*
Y20079D01*
X28826Y20079D02*
X35964D01*
X35964Y20079D01*
X35042Y4982D02*
X35964Y5905D01*
X32487Y4982D02*
X35042D01*
X14022Y-9448D02*
X16142D01*
X16159Y-9431D02*
Y-8169D01*
X-38386Y1666D02*
X-32241Y7812D01*
X-38386Y-16343D02*
Y1666D01*
X26083Y33957D02*
X35433Y43307D01*
X-32185Y27854D02*
X-26083Y33957D01*
X26083D01*
X83167Y-43898D02*
X84891Y-42173D01*
X4134Y-30610D02*
X13194Y-39671D01*
X-35566Y-24702D02*
X-32740Y-27528D01*
X66831Y-38976D02*
X67126Y-38681D01*
X65421Y-45844D02*
X66831Y-44434D01*
X21342Y-11055D02*
X23579Y-8818D01*
Y-8339D01*
X16142Y-9448D02*
X16159Y-9431D01*
X16142Y-9448D02*
X17749Y-11055D01*
X22670Y13923D02*
X28826Y20079D01*
X11851Y6455D02*
Y13923D01*
X-35616Y16142D02*
X-32776D01*
X-32185D02*
Y27854D01*
Y15551D02*
Y16142D01*
Y7867D02*
Y12711D01*
Y12790D02*
Y15551D01*
X-32776Y16142D02*
X-32185Y15551D01*
D122*
X-27559Y-43307D02*
D03*
X-35433Y43307D02*
D03*
D123*
X35433D02*
D03*
D124*
X79921Y37402D02*
D03*
Y-37402D02*
D03*
D125*
X56023Y-22211D02*
D03*
X51072Y-22184D02*
D03*
X53482Y-20052D02*
D03*
X54102Y-22013D02*
D03*
X22300Y1111D02*
D03*
X19611Y3012D02*
D03*
X61161Y-4257D02*
D03*
X61795Y9129D02*
D03*
X48882Y5013D02*
D03*
X61297Y3614D02*
D03*
X58024Y5000D02*
D03*
X48755Y-22101D02*
D03*
X19885Y940D02*
D03*
X50976Y-20171D02*
D03*
X18960Y-1559D02*
D03*
X49104Y-20632D02*
D03*
X18869Y-4526D02*
D03*
X57550Y-19880D02*
D03*
X52313Y-22095D02*
D03*
X55974Y-19102D02*
D03*
X64824Y8058D02*
D03*
X57808Y7954D02*
D03*
X53189Y4726D02*
D03*
X53303Y165D02*
D03*
X57067Y65D02*
D03*
D126*
X72463Y-44532D02*
D03*
X73776Y-38775D02*
D03*
X72102Y-38283D02*
D03*
X53853Y-9465D02*
D03*
X67812Y7068D02*
D03*
X108268Y-18504D02*
D03*
X54192Y-22995D02*
D03*
X61585Y-2690D02*
D03*
X17044Y-5896D02*
D03*
X18629Y-565D02*
D03*
X19123Y-8599D02*
D03*
X15076Y-4521D02*
D03*
X11166Y-5165D02*
D03*
X14544Y-1217D02*
D03*
X-26728Y29473D02*
D03*
X-8465Y-29872D02*
D03*
X65059Y-41754D02*
D03*
X62959Y17126D02*
D03*
X72984Y19131D02*
D03*
X20794Y3314D02*
D03*
X34163Y8563D02*
D03*
X50671Y-19042D02*
D03*
X50956Y-23381D02*
D03*
X52345Y-23884D02*
D03*
X57415Y3994D02*
D03*
X54758Y-19964D02*
D03*
X52520Y-19462D02*
D03*
X48820Y-19458D02*
D03*
X55744Y-23121D02*
D03*
X22365Y-843D02*
D03*
X16159Y-8169D02*
D03*
X65052Y9210D02*
D03*
X56888Y1065D02*
D03*
X53031Y1312D02*
D03*
X54344Y4572D02*
D03*
X32487Y4982D02*
D03*
X21159Y1057D02*
D03*
X18566Y919D02*
D03*
X94606Y-27053D02*
D03*
X98946Y9800D02*
D03*
X101870Y-27756D02*
D03*
X103445Y-29429D02*
D03*
X83071Y-25394D02*
D03*
X11205Y-17535D02*
D03*
X-603Y-29232D02*
D03*
X-44361Y31004D02*
D03*
X-42520Y29921D02*
D03*
X15059Y-29800D02*
D03*
X-67815Y25098D02*
D03*
X-49114Y31693D02*
D03*
X-41437Y23327D02*
D03*
X-43087Y23256D02*
D03*
X68996Y-38681D02*
D03*
X52147Y39750D02*
D03*
X61910Y26575D02*
D03*
X23579Y-8339D02*
D03*
X6744Y7263D02*
D03*
X24114Y18012D02*
D03*
X11851Y13923D02*
D03*
X21741Y17828D02*
D03*
X4134Y-30610D02*
D03*
X-27532Y-19882D02*
D03*
X20802Y-17092D02*
D03*
X57087Y-21316D02*
D03*
X38583Y1539D02*
D03*
X38189Y20079D02*
D03*
X105020Y-26772D02*
D03*
X-76278Y-25201D02*
D03*
X-66831Y-35728D02*
D03*
X-60236Y-23868D02*
D03*
X49149Y-23188D02*
D03*
X51575Y8268D02*
D03*
X-72835Y-27165D02*
D03*
X-74113Y-25398D02*
D03*
X84891Y-42173D02*
D03*
X107482Y15940D02*
D03*
X-76575Y10039D02*
D03*
X5653Y-27656D02*
D03*
X-25984Y38878D02*
D03*
X-31316Y-49519D02*
D03*
X65421Y-45844D02*
D03*
X27380Y11599D02*
D03*
X89787Y35820D02*
D03*
X-40590Y-50098D02*
D03*
X61580Y7803D02*
D03*
X57153Y8347D02*
D03*
X61479Y4565D02*
D03*
X49956Y4845D02*
D03*
X-74410Y20866D02*
D03*
D127*
X-32740Y-29118D02*
D03*
X-1527Y-21566D02*
D03*
X97753Y13352D02*
D03*
X-3391Y358D02*
D03*
X-30415Y-8577D02*
D03*
X-35827Y-4528D02*
D03*
X-26280Y-2943D02*
D03*
X1424Y496D02*
D03*
X9631Y-20276D02*
D03*
X-27357Y7239D02*
D03*
X591Y4429D02*
D03*
X4018Y-11400D02*
D03*
X-18304Y-24263D02*
D03*
X-10093Y-15748D02*
D03*
X-35616Y16142D02*
D03*
X-38386Y-16343D02*
D03*
X-62697Y10138D02*
D03*
D130*
X51014Y-23323D02*
Y-22242D01*
X51072Y-22184D01*
X50956Y-23381D02*
X51014Y-23323D01*
X52725Y-19462D02*
X53245Y-19982D01*
X53412D01*
X53482Y-20052D01*
X52520Y-19462D02*
X52725D01*
X54102Y-22013D02*
X54147Y-22058D01*
Y-22950D02*
Y-22058D01*
Y-22950D02*
X54192Y-22995D01*
X49079Y-23118D02*
X49149Y-23188D01*
X48755Y-22200D02*
X49079Y-22524D01*
Y-23118D02*
Y-22524D01*
X48755Y-22200D02*
Y-22101D01*
X61161Y-4257D02*
Y-3317D01*
X61585Y-2893D01*
Y-2690D01*
X48820Y-19458D02*
X48966Y-19603D01*
Y-20394D02*
Y-19603D01*
Y-20394D02*
X49104Y-20533D01*
Y-20632D02*
Y-20533D01*
X50671Y-19042D02*
X50816Y-19188D01*
Y-19913D02*
Y-19188D01*
Y-19913D02*
X50976Y-20072D01*
Y-20171D02*
Y-20072D01*
X52329Y-23867D02*
Y-22111D01*
X52313Y-22095D02*
X52329Y-22111D01*
Y-23867D02*
X52345Y-23884D01*
X61580Y7803D02*
X61725Y7948D01*
Y9059D02*
X61795Y9129D01*
X61725Y7948D02*
Y9059D01*
X48882Y5013D02*
X48952Y4943D01*
X49859D01*
X49956Y4845D01*
X57415Y3994D02*
Y4200D01*
X57954Y4739D01*
Y4930D02*
X58024Y5000D01*
X57954Y4739D02*
Y4930D01*
X53189Y4726D02*
X54223D01*
X54902Y-19964D02*
X55694Y-19172D01*
X54758Y-19964D02*
X54902D01*
X55694Y-19172D02*
X55904D01*
X55974Y-19102D01*
X64907Y9064D02*
X65052Y9210D01*
X64907Y8471D02*
Y9064D01*
X56997Y135D02*
X57067Y65D01*
X56997Y135D02*
Y956D01*
X56888Y1065D02*
X56997Y956D01*
X53233Y235D02*
X53303Y165D01*
X53031Y1107D02*
X53233Y905D01*
Y235D02*
Y905D01*
X53031Y1107D02*
Y1312D01*
X57157Y-20372D02*
X57550Y-19979D01*
X57087Y-21316D02*
X57157Y-21246D01*
Y-20372D01*
X57550Y-19979D02*
Y-19880D01*
D131*
X-16480Y24755D02*
X-2918D01*
X-23053Y18181D02*
X-16480Y24755D01*
X-2918D02*
X3055Y18782D01*
X-23053Y283D02*
Y18181D01*
X-26280Y-2943D02*
X-23053Y283D01*
X72984Y19131D02*
Y19638D01*
X63390Y29232D02*
X72984Y19638D01*
X40232Y29232D02*
X63390D01*
X6624Y18782D02*
X12251Y24409D01*
X3055Y18782D02*
X6624D01*
X12251Y24409D02*
X35409D01*
X40232Y29232D01*
M02*
