M48
;Layer_Color=9474304
;FILE_FORMAT=2:5
INCH,LZ
;TYPE=PLATED
T1F00S00C0.00394
%
T01
X0018869Y-0004526
X001896Y-0001559
X0019885Y000094
X0019611Y0003012
X00223Y0001111
X0048882Y0005013
X0053189Y0004726
X0053303Y0000165
X0057067Y0000065
X0058024Y0005
X0057808Y0007954
X0061795Y0009129
X0064824Y0008058
X0061297Y0003614
X0061161Y-0004257
X005755Y-001988
X0055974Y-0019102
X0056023Y-0022211
X0054102Y-0022013
X0052313Y-0022095
X0051072Y-0022184
X0050976Y-0020171
X0049104Y-0020632
X0048755Y-0022101
X0053482Y-0020052
M30
