M48
;Layer_Color=9474304
;FILE_FORMAT=2:5
INCH,LZ
;TYPE=PLATED
T2F00S00C0.00591
T3F00S00C0.00787
T4F00S00C0.03150
T5F00S00C0.06299
%
T02
X-0085256Y-0020965
X-0081102Y-0020866
X-0076278Y-0025201
X-0074113Y-0025398
X-0073882Y-0023371
X-0072835Y-0027165
X-0071997Y-0033927
X-0066831Y-0035728
X-0062204Y-0034453
X-0062303Y-0031496
X-0057284Y-002815
X-0053839
X-0049606Y-0028839
X-0050762Y-0031262
X-0052854Y-0032185
X-0056398Y-0023868
X-0060236
X-0066093Y-0025098
X-007118Y-0013405
X-0074606Y-0012205
X-007441Y-0007677
X-0076266Y-0004057
X-0076856Y0000667
X-0076575Y0010039
X-0070471Y0007771
X-0067028Y0006102
X-0057823Y0004875
X-0055413Y0006201
X-0055905Y0010531
X-0046816Y0002771
X-0043307Y-0000197
Y-0004134
X-0044067Y-0006969
X-0046161Y-0012172
X-0043822Y-0015846
X-0041165Y-0015938
X-0041732Y-0024114
X-0048228Y-001998
X-0052756Y-0020374
X-0055624Y-0011713
X-0058465Y-0011614
X-0056693Y-0008661
X-0055709Y-0006201
X-0059957Y-0004811
X-0068404Y-0007189
X-0067323Y0019882
X-0067815Y0025098
X-0063212Y0022313
X-007441Y0020866
X-0050984Y0024311
X-0043087Y0023256
X-0041437Y0023327
X-0039272Y0023425
X-0036Y0023371
X-0038394Y0020946
X-0034646Y0019237
X-0034855Y0013292
X-0034744Y0010832
X-0035236Y0008682
X-0037214Y0008952
X-0036886Y0011866
X-0039469Y0007382
X-0042667Y0015157
X-0042421Y0017913
X-004685Y0019488
X-0025984Y001437
X-0026948Y0012767
X-0027432Y0010961
X-0019928Y0011368
X-0015092Y0011001
X-0014224Y0018178
X-0011782Y0018898
X-0008957Y0018307
X-0008268Y0015846
X-0011141Y0015472
X-0003347Y0016142
X-0002641Y0021555
X0002953Y0024902
X0008415Y0026072
X0008957Y0017913
X0010706Y0019252
X0011851Y0013923
X0016918Y0015976
X0021741Y0017828
X0024114Y0018012
X0024685Y0010951
X002738Y0011599
X0024582Y0004685
X0024805Y000315
X0026083Y0001772
X0026047Y0000296
X0023579Y-0008339
X0021512Y-0008059
X0019123Y-0008599
X0016159Y-0008169
X0014616Y-0011318
X0012156Y-0010704
X0010285
X0008219Y-0007874
X0011166Y-0005165
X0013722Y-0005811
X0015076Y-0004521
X0014544Y-0001217
X0009556Y-0001116
X0008467Y-0000119
X0005955Y-0003035
X000313Y-0002053
X-0001408Y0000471
X-0002406Y-0011024
X-0002139Y-0013186
X-0003839Y-0013681
X-0000328Y-0012544
X0000724Y-0011492
X0007334Y-0014658
X0008957Y-0015171
X0011205Y-0017535
X0015362Y-0018289
X0020802Y-0017092
X0023472Y-001689
X0023647Y-0014233
X0023622Y-0023917
X0026284Y-0021426
X0018952Y-0022722
X0010386Y-0023738
X0008703Y-0025
X0005653Y-0027656
X0003975Y-0028711
X0004134Y-003061
X0007501Y-0031611
X0000842Y-0033684
X-0002559Y-0033612
X-0000603Y-0029232
X-0006449Y-0030169
X-0008465Y-0029872
X-0007269Y-001655
X-0017126Y-0011024
X-002069Y-0000564
X-002041Y0000886
X-0023905Y-0003556
X-0033883Y0001422
X-0029457Y-0014946
X-0028397Y-0016975
X-0029252Y-0018839
X-0027532Y-0019882
X-0028097Y-0021665
X-0031316Y-0049519
X-004059Y-0050098
X-0048313Y-005
X-0056398Y-0049508
X-0064659Y-0041885
X0012562Y-0036672
X0016339Y-0031496
X0015059Y-00298
X0028612Y-0031428
X0029442Y-0032861
X0031004Y-0032972
X0029189Y-0027941
X0041128Y-00499
X0049136Y-0049574
X0057503Y-004785
X0065421Y-0045844
X0065059Y-0041754
X0068996Y-0038681
X0072102Y-0038283
X0073776Y-0038775
X0072463Y-0044532
X0067323Y0000295
X0067812Y0007068
X0068136Y001732
X0062959Y0017126
X0059188Y0016032
X0057931Y0019631
X0062884Y0024491
X006191Y0026575
X0072984Y0019131
X0076185Y0016732
X0051575Y0008268
X0047416Y0008294
X0037638Y0008661
X0034163Y0008563
X0033465Y0016929
X0040846Y0017028
X0041116Y0019809
X0038189Y0020079
X0044643Y0018848
X0044176Y0023868
X0042323Y002628
X0019921Y0021897
X001811Y0021949
X0016043Y0022146
X0013763Y0007677
X0006744Y0007263
X0007598Y0010918
X-0013935Y0021555
X-002126Y0026476
X-0024341Y0025522
X-0026855Y0026973
X0038583Y0001539
X0038681Y-0001083
X0053853Y-0009465
X0085236Y-0002854
X0085366Y-000085
X009087Y0000073
X0092766Y0001787
X009934Y0002874
Y0000016
X0098244Y-0007706
X0098228Y-0010925
X0098048Y-001291
X0101623Y-0008819
X0108002Y-0015982
X0108268Y-0018504
X010502Y-0026772
X010187Y-0027756
X0103445Y-0029429
X0097636Y-0031115
X0094606Y-0027053
X0087343Y-0023071
X0083071Y-0025394
X0084891Y-0042173
X0083858Y0014665
X0086417Y0014173
X0098946Y00098
X0107318Y0010189
X0107265Y0013773
X0107482Y001594
X0097366Y0027182
X0089787Y003582
X0066236Y0034154
X0066536Y0032185
X0052147Y003975
X0057836Y0046835
X004979Y005038
X0041825Y0050438
X003622Y003878
X0018504Y0029134
X001484Y0027559
X-0005709Y0031004
X-0009547Y0036417
X-001437Y0037008
X-0025984Y0038878
X-0026728Y0029473
X-0034252Y0031398
X-0036417Y0031102
X-004252Y0029921
X-0044361Y0031004
X-0049114Y0031693
X-0046161Y0034941
X-0045143Y004288
X-0045678Y0051487
X-004127Y0050325
X-0031847Y0049859
T03
X-003274Y-0029118
X-0038386Y-0016343
X-0035827Y-0004528
X-0030415Y-0008577
X-002628Y-0002943
X-0027357Y0007239
X-0035616Y0016142
X-0062697Y0010138
X-0009744Y-0001673
X-0007776Y-0005413
X-0011713
X-0009744Y-0009154
X-0010093Y-0015748
X-0009647Y-0019209
X-0011616Y-0022949
X-0007679
X-0009647Y-0026689
X-0018304Y-0024263
X-0001527Y-0021566
X0009631Y-0020276
X0004018Y-00114
X0001424Y0000496
X0000591Y0004429
X-0003391Y0000358
X0097753Y0013352
X0066419Y004644
T04
X-0035433Y-0043307
X-0027559
X-0019685
X-0011811
X-0003937
X0003937
X0011811
X0019685
X0027559
X0035433
Y0043307
X0027559
X0019685
X0011811
X0003937
X-0003937
X-0011811
X-0019685
X-0027559
X-0035433
T05
X0079921Y-0037402
Y0037402
M30
