M48
;Layer_Color=9474304
;FILE_FORMAT=2:5
INCH,LZ
;TYPE=PLATED
T1F00S00C0.00394
%
T01
X0018092Y-0005735
X0019639Y-0003451
X0020555Y-0002318
X0021542Y-0002768
X0023265Y-0002664
X0022512Y-0001639
X0021084Y-0001373
X0019731Y-0000747
X0019623Y0000678
X0022057Y0000457
X0022883Y0002161
X0019968Y0003565
X0026366Y0003804
X0027211Y0001169
X0030494Y0003342
X0032103Y0004364
X0030275Y-0002555
X0025332Y-0004067
X0024427Y-000501
X0023355Y-0004533
X002122Y-0004469
X002256Y-0006221
X004866Y0004778
X0053097Y0004813
X0057177Y0005119
X0058136Y0008209
X0060942Y0009012
X0065545Y0008346
X0062213Y0004128
X005803Y0001532
X0053699Y0000332
X0060925Y-0003543
X0055504Y-0018857
X0055113Y-0021891
X0052497Y-0022291
X0052341Y-0020649
X0050803Y-0020657
X0050737Y-00222
X0049177Y-0022206
X0049202Y-0020454
X0057179Y-0020696
X0053919Y-0023985
M30
