M48
;Layer_Color=9474304
;FILE_FORMAT=2:5
INCH,LZ
;TYPE=PLATED
T1F00S00C0.00394
%
T01
X0018787Y-0005525
Y-0004146
Y-0002768
Y-0001391
Y-0000013
Y0001365
X0020165Y00008
X0021542Y00008
Y0002178
Y0003556
X002292
Y0001365
X0024298
X0023733Y-0001391
Y-0002768
Y-0004146
X0024298Y-0005525
X002292
X0021542Y-0005525
Y-0004146
Y-0002768
X0020165Y-0003334
Y-0001956
Y-0000578
X0021542
X0020165Y0002743
X0018787Y0003556
Y0004934
X0021542
X0026489
X0027985Y0004992
X0027867Y0003556
X0029245
Y0002178
X0027867
X0028432Y00008
X0027304Y0000057
X0027867Y-0001391
X0029186Y-0001281
X0029245Y-0003334
X0027867
X0025676
Y-0005525
X0027054
X0029245
X0032243Y-0006165
X0034303Y-0005384
X0038555Y-0004635
X0037305Y0002649
X0035503Y0005443
X0031249Y0004319
X0032893Y0001795
X0032874Y-0001083
X0026417Y0003007
X0017048Y0002202
X0020165Y-0004712
X0025745Y-00075
X0028346Y-0008366
X0054868Y-0005876
X005429Y-0003456
X0054127Y0000902
X0054228Y0005068
X0056537Y0005248
X0058071Y0008815
X0061918Y000917
X00643Y0009039
X0062008Y000502
X0062055Y0000526
X0061458Y-0002297
X0058302Y0000768
X0049491Y0005497
X0047872Y-0020628
Y-00227
X0051434Y-0022085
X0051244Y-0020663
X005292Y-0020682
X0053461Y-0021649
X0054381Y-0023194
X0052687Y-0023523
X0055937Y-0022217
X0056066Y-0020691
X0056068Y-001911
X0058065Y-0019645
X0057664Y-0020727
X0055422Y-0026098
X0012894Y0011122
X0011162Y0011167
M30
