M48
;Layer_Color=9474304
;FILE_FORMAT=2:5
INCH,LZ
;TYPE=PLATED
T2F00S00C0.00591
%
T02
X0017044Y-0005896
X0018629Y-0000565
X0018566Y0000919
X0021159Y0001057
X0020794Y0003314
X0022365Y-0000843
X0032487Y0004982
X0049956Y0004845
X0054344Y0004572
X0057415Y0003994
X0056888Y0001065
X0053031Y0001312
X0057153Y0008347
X006158Y0007803
X0061479Y0004565
X0061585Y-000269
X0065052Y000921
X0057087Y-0021316
X0055744Y-0023121
X0054192Y-0022995
X0052345Y-0023884
X0050956Y-0023381
X0049149Y-0023188
X004882Y-0019458
X0050671Y-0019042
X005252Y-0019462
X0054758Y-0019964
M30
