M48
;Layer_Color=9474304
;FILE_FORMAT=2:5
INCH,LZ
;TYPE=PLATED
T1F00S00C0.00394
%
T01
X0018884Y-0005317
X001896Y-0001559
X0018636Y-0000418
X0017642Y0000566
X0017575Y0003835
X0049893Y0004512
X0054796Y0005068
X00575Y0003988
X0056592Y0000852
X005275Y0000687
X0059955Y-0003397
X0061909Y0003427
X0062291Y000579
X006167Y000669
X0057608Y0008277
X005709Y-0020921
X0055978Y-0020202
X0055621Y-0022536
X0053887Y-0021843
X0053185Y-0020937
X0052488Y-0019575
X0052568Y-0023661
X0050762Y-0022558
X0049615Y-0021648
X0047135Y-0017638
M30
