M48
;Layer_Color=9474304
;FILE_FORMAT=2:5
INCH,LZ
T6F00S00C0.09449
%
G90
G05
T06
G00X-0053311Y0049886
M15
G01X-006039Y0059281
G01X-0076803Y0046913
G01X-0069724Y0037518
G01X-0053311Y0049886
M16
G00X0050138Y-005834
M15
G01X0091333Y-0048694
G01X0092608Y-0048192
G01X0093466Y-0047561
G01X0113446Y-0029057
G01X0114306Y-0027989
G01X0114824Y-0026719
G01X0114961Y-0025591
G01X0114961Y0019184
G01X0114762Y0020541
G01X0113765Y0022326
G01X0091589Y0047236
G01X0090539Y0048117
G01X0089167Y0048687
G01X0049138Y0058333
G01X0048031Y0058465
G01X-0056496Y0058465
G01X-0057853Y0058266
G01X-0059095Y0057686
G01X-0059837Y0057081
G01X-0089955Y0026963
G01X-0090773Y0025863
G01X-0091242Y0024574
G01X-0091339Y0023622
G01X-0091339Y-0024606
G01X-009114Y-0025963
G01X-009056Y-0027205
G01X-0089955Y-0027947
G01X-0060821Y-0057081
G01X-0059721Y-0057899
G01X-0058432Y-0058368
G01X-005748Y-0058465
G01X0049061Y-0058465
G01X0050138Y-005834
M16
M17
M30
